<?xml version="1.0" encoding="UTF-8" standalone="no"?>
<!-- Created with Inkscape (http://www.inkscape.org/) -->

<svg
   xmlns:dc="http://purl.org/dc/elements/1.1/"
   xmlns:cc="http://creativecommons.org/ns#"
   xmlns:rdf="http://www.w3.org/1999/02/22-rdf-syntax-ns#"
   xmlns:svg="http://www.w3.org/2000/svg"
   xmlns="http://www.w3.org/2000/svg"
   xmlns:sodipodi="http://sodipodi.sourceforge.net/DTD/sodipodi-0.dtd"
   xmlns:inkscape="http://www.inkscape.org/namespaces/inkscape"
   width="61.312153mm"
   height="63.593082mm"
   viewBox="0 0 61.312153 63.593082"
   version="1.1"
   id="svg8"
   inkscape:version="0.92.4 (f8dce91, 2019-08-02)"
   sodipodi:docname="msvcs_logo.svg">
  <defs
     id="defs2" />
  <sodipodi:namedview
     id="base"
     pagecolor="#ffffff"
     bordercolor="#666666"
     borderopacity="1.0"
     inkscape:pageopacity="0.0"
     inkscape:pageshadow="2"
     inkscape:zoom="1.16"
     inkscape:cx="109.07955"
     inkscape:cy="242.33734"
     inkscape:document-units="mm"
     inkscape:current-layer="layer1"
     showgrid="false"
     inkscape:object-paths="false"
     inkscape:window-width="1863"
     inkscape:window-height="1025"
     inkscape:window-x="57"
     inkscape:window-y="27"
     inkscape:window-maximized="1"
     fit-margin-top="0"
     fit-margin-left="0"
     fit-margin-right="0"
     fit-margin-bottom="0" />
  <metadata
     id="metadata5">
    <rdf:RDF>
      <cc:Work
         rdf:about="">
        <dc:format>image/svg+xml</dc:format>
        <dc:type
           rdf:resource="http://purl.org/dc/dcmitype/StillImage" />
        <dc:title></dc:title>
      </cc:Work>
    </rdf:RDF>
  </metadata>
  <g
     inkscape:label="Layer 1"
     inkscape:groupmode="layer"
     id="layer1"
     transform="translate(-41.33867,-149.35867)">
    <path
       style="fill:none;stroke:#6666ba;stroke-width:1.43579149;stroke-linecap:butt;stroke-linejoin:miter;stroke-miterlimit:4;stroke-dasharray:none;stroke-opacity:1"
       d="m 41.96839,212.60704 c 0.214885,-0.39255 0.255369,-0.94417 0.435375,-1.36854 0.03794,-0.0895 0.107176,-0.13862 0.145126,-0.22808 0.06,-0.14146 0.09675,-0.30412 0.145123,-0.45618 0.04837,-0.15206 0.104953,-0.29833 0.145125,-0.45618 0.05681,-0.22323 0.07671,-0.46922 0.145125,-0.68427 0.07801,-0.24519 0.221543,-0.4323 0.290251,-0.68427 0.07857,-0.28813 0.07509,-0.61883 0.145125,-0.91235 0.07596,-0.31837 0.193499,-0.60824 0.29025,-0.91236 0.25287,-0.79486 0.395202,-1.17912 0.580499,-2.0528 0.39307,-1.85333 -0.170268,0.0889 0.435375,-2.0528 0.08786,-0.31071 0.202386,-0.60165 0.290251,-0.91236 0.105801,-0.37414 0.184447,-0.7663 0.29025,-1.14044 0.33716,-1.19229 0.293701,-0.70055 0.580499,-2.05281 0.06307,-0.29739 0.07509,-0.61883 0.145125,-0.91235 0.07596,-0.31837 0.221839,-0.58979 0.29025,-0.91236 0.07801,-0.36778 0.07424,-0.76912 0.145126,-1.14045 0.149712,-0.78432 0.430785,-1.49656 0.580498,-2.28089 0.141758,-0.74265 0.134247,-1.54532 0.290251,-2.28088 0.06841,-0.32257 0.221837,-0.5898 0.290249,-0.91236 0.07801,-0.36779 0.09162,-0.762 0.145126,-1.14045 0.04327,-0.30601 0.120385,-0.6013 0.145124,-0.91235 0.024,-0.30177 -0.024,-0.61059 0,-0.91236 0.04948,-0.62212 0.240771,-1.2026 0.290252,-1.82471 0.024,-0.30177 -0.024,-0.61059 0,-0.91236 0.04948,-0.62212 0.24077,-1.2026 0.290248,-1.82471 0.024,-0.30177 -0.02737,-0.6113 0,-0.91236 0.02163,-0.23801 0.103099,-0.45309 0.145124,-0.68427 0.05479,-0.30141 0.116918,-0.60202 0.145127,-0.91235 0.02053,-0.2258 -0.02053,-0.45847 0,-0.68427 -0.01374,-0.57754 0.232352,-1.05065 0.290249,-1.59662 0.02386,-0.22499 -0.02386,-0.45928 0,-0.68427 0.02515,-0.23716 0.119977,-0.44711 0.145126,-0.68427 0.02386,-0.22498 -0.02386,-0.45928 0,-0.68427 0.02515,-0.23715 0.12349,-0.44625 0.145124,-0.68426 0.02737,-0.30106 -0.02736,-0.6113 0,-0.91236 0.02163,-0.23801 0.123492,-0.44625 0.145125,-0.68427 0.02737,-0.30106 0,-0.60823 0,-0.91235 0,-0.22809 0,-0.45618 0,-0.68427 0,-0.22809 -0.02386,-0.45928 0,-0.68426 0.02515,-0.23716 0.119977,-0.44712 0.145124,-0.68427 0.02386,-0.22499 0,-0.45618 0,-0.68427 0,-0.38015 0,-0.7603 0,-1.14044 0,-0.15207 0,-0.30412 0,-0.45618 0,-0.076 -0.02163,-0.16009 0,-0.22809 0.0306,-0.0962 0.123492,-0.12609 0.145125,-0.22809 0.0459,-0.21639 0,-0.45618 0,-0.68427 0,-0.15206 0,-0.30412 0,-0.45618 0,-0.076 -0.04837,-0.22809 0,-0.22809 0.124475,0 -0.277587,1.0907 -0.290249,1.14045 -0.05681,0.22323 -0.09675,0.45618 -0.145125,0.68427 -0.04837,0.22809 -0.123491,0.44625 -0.145124,0.68426 -0.04741,0.52157 0.0474,1.07506 0,1.59663 -0.0282,0.31032 -0.120385,0.6013 -0.145126,0.91235 -0.09533,1.19859 0.05133,0.64541 0.145126,1.82472 0.09966,1.25307 -0.149659,0.58923 0.145124,1.82471 0.239212,1.00257 0.274281,0.75439 0.5805,1.59662 0.107334,0.29522 0.164505,0.63568 0.29025,0.91236 0.119293,0.26248 0.303986,0.43646 0.435376,0.68427 0.111659,0.21059 0.166916,0.49042 0.290249,0.68426 0.246665,0.38768 0.598354,0.56987 0.870749,0.91236 0.106843,0.13434 0.172925,0.34554 0.290251,0.45618 0.131174,0.1237 0.293341,0.13879 0.435373,0.22809 0.100435,0.0631 0.185312,0.18685 0.290251,0.22809 0.09386,0.0369 0.193501,0 0.29025,0 0.09675,0 0.195379,0.0298 0.29025,0 0.196995,-0.0619 0.837344,-0.47383 1.015875,-0.68427 0.109459,-0.12903 0.1935,-0.30412 0.29025,-0.45618 0.09675,-0.15206 0.204776,-0.28826 0.29025,-0.45618 0.108958,-0.21406 0.181291,-0.47021 0.290249,-0.68427 0.08547,-0.16792 0.204777,-0.28825 0.29025,-0.45617 0.263367,-0.26668 0.266132,-0.78579 0.435376,-1.14045 0.08209,-0.17203 0.208154,-0.28414 0.29025,-0.45618 0.14586,-0.30566 0.206626,-0.81187 0.290249,-1.14044 0.04017,-0.15785 0.104953,-0.29833 0.145125,-0.45618 0.05681,-0.22323 0.08831,-0.46104 0.145124,-0.68427 0.04018,-0.15785 0.104953,-0.29833 0.145126,-0.45618 0.113627,-0.44646 0.176623,-0.92207 0.290249,-1.36853 0.1548,-0.60824 0.193987,-0.38397 0.290251,-1.14044 0.01898,-0.14911 -0.0306,-0.31193 0,-0.45618 0.02163,-0.10201 0.123491,-0.12609 0.145126,-0.22809 0.0306,-0.14426 -0.0306,-0.31192 0,-0.45618 0.02163,-0.10201 0.114529,-0.13192 0.145125,-0.22809 0.02163,-0.068 -0.02163,-0.16009 0,-0.22809 0.179331,-0.5637 0.145123,0.0787 0.145123,-0.45618 0,-0.15206 -0.04327,-0.32017 0,-0.45617 0.02163,-0.068 0.145125,-0.076 0.145125,0 0,0.10752 -0.123491,0.12608 -0.145125,0.22808 -0.0306,0.14426 0.02346,0.30866 0,0.45618 -0.05248,0.32986 -0.247821,0.57895 -0.290248,0.91236 -0.02846,0.22366 0.02846,0.46061 0,0.68427 -0.02121,0.1667 -0.110919,0.29489 -0.145126,0.45617 -0.06307,0.29739 -0.09033,0.61094 -0.145125,0.91236 -0.04203,0.23118 -0.119976,0.44711 -0.145125,0.68427 -0.227692,2.14713 0.348129,-1.1167 -0.145125,1.59662 -0.08405,0.46235 -0.239952,0.89422 -0.290251,1.36853 -0.02386,0.22499 0.02386,0.45929 0,0.68427 -0.02515,0.23716 -0.12349,0.44626 -0.145124,0.68427 -0.02737,0.30106 0.02737,0.61129 0,0.91236 -0.02163,0.23801 -0.09675,0.45617 -0.145125,0.68426 -0.04837,0.30412 -0.120385,0.6013 -0.145124,0.91236 -0.024,0.30177 0.02737,0.61129 0,0.91236 -0.04327,0.47602 -0.230249,0.89701 -0.29025,1.36853 -0.01898,0.14911 0.01898,0.30707 0,0.45618 -0.03,0.23576 -0.119977,0.44711 -0.145125,0.68427 -0.03277,0.30896 0,1.21893 0,1.59662 0,0.19356 -0.02667,1.24279 0,1.36853 0.02163,0.10201 0.123491,0.12609 0.145125,0.22809 0,1.03833 -0.06841,0.013 0.145125,0.68427 0.02163,0.068 -0.02163,0.16009 0,0.22809 0.0306,0.0962 0.11453,0.13192 0.145125,0.22809 0.02163,0.068 -0.02163,0.16008 0,0.22809 0.01926,0.0606 0.396841,0.65398 0.435373,0.68427 0.04317,0.0339 0.809702,0 0.870752,0 0.15192,0 0.752732,0.0464 0.870749,0 0.104939,-0.0412 0.18763,-0.17433 0.29025,-0.22809 0.0459,-0.024 0.09923,0.0241 0.145125,0 0.102618,-0.0538 0.185309,-0.18686 0.290251,-0.22809 0.09386,-0.0369 0.196387,0.0369 0.290248,0 0.420896,-0.16538 0.169835,-0.17795 0.435375,-0.45618 0.09,-0.0943 0.193501,-0.15206 0.290251,-0.22809 0.35144,-0.27618 0.213762,-0.10788 0.435375,-0.45618 0.04837,-0.076 0.114528,-0.13192 0.145123,-0.22809 0.02163,-0.068 -0.02163,-0.16008 0,-0.22809 0.0306,-0.0962 0.114531,-0.13191 0.145126,-0.22809 0.02163,-0.068 -0.02163,-0.16008 0,-0.22808 0.0306,-0.0962 0.11453,-0.13192 0.145124,-0.22809 0.02163,-0.068 -0.02163,-0.16009 0,-0.22809 0.03875,-0.12182 0.358973,-0.56419 0.435376,-0.68427"
       id="path827"
       inkscape:connector-curvature="0" />
    <path
       style="fill:none;stroke:#6666ba;stroke-width:1.43579149;stroke-linecap:butt;stroke-linejoin:miter;stroke-miterlimit:4;stroke-dasharray:none;stroke-opacity:1"
       d="m 72.444631,154.44432 c 0.0072,-0.53147 0.587101,-0.47692 0.725626,-0.91235 0.02163,-0.068 -0.02163,-0.16009 0,-0.22809 0.06119,-0.19234 0.229059,-0.26384 0.290251,-0.45618 0.02163,-0.068 -0.02163,-0.16009 0,-0.22809 0.0306,-0.0962 0.114528,-0.13192 0.145123,-0.22809 0.08509,-0.26745 -0.08612,-0.27072 -0.145123,-0.45618 -0.02163,-0.068 0.02163,-0.16008 0,-0.22809 -0.0306,-0.0962 -0.09675,-0.15206 -0.145126,-0.22808 -0.09675,-0.15207 -0.176405,-0.3369 -0.29025,-0.45618 -0.180006,-0.18861 -0.387,-0.30412 -0.580501,-0.45618 -0.09675,-0.076 -0.193498,-0.15206 -0.29025,-0.22809 -0.09675,-0.076 -0.184179,-0.19475 -0.290248,-0.22809 -0.142307,-0.0447 -0.290251,0 -0.435376,0 -0.145125,0 -0.29025,0 -0.435375,0 -0.193499,0 -0.387,0 -0.580499,0 -0.145125,0 -0.291709,-0.0323 -0.435376,0 -0.19745,0.0443 -0.386999,0.15206 -0.580499,0.22809 -0.1935,0.076 -0.387001,0.15206 -0.5805,0.22809 -0.193501,0.076 -0.391281,0.12896 -0.5805,0.22809 -0.373196,0.19551 -0.952106,0.59441 -1.306125,0.91235 -0.151438,0.13601 -0.283938,0.32018 -0.435375,0.45618 -0.187835,0.1687 -0.404456,0.25855 -0.580499,0.45618 -0.08984,0.10086 -1.07981,1.67159 -1.160999,1.82471 -0.786411,1.48318 0.125644,-0.10103 -0.435376,1.36854 -0.07039,0.1844 -0.239433,0.25651 -0.29025,0.45617 -0.05389,0.21178 0.02386,0.45929 0,0.68427 -0.02515,0.23716 -0.119977,0.44711 -0.145125,0.68427 -0.08052,0.75932 -0.0049,0.55103 0.145125,1.14044 0.113627,0.44647 0.153425,0.93845 0.29025,1.36854 0.246354,0.77438 0.556749,0.97974 0.870749,1.59662 0.10896,0.21406 0.166918,0.49043 0.290251,0.68427 0.415908,0.65367 0.398615,0.31325 0.87075,0.68427 0.156003,0.12259 0.283938,0.32017 0.435374,0.45618 0.562639,0.5053 1.178862,0.86323 1.741499,1.36853 0.151439,0.13601 0.283939,0.32017 0.435376,0.45618 0.187834,0.16869 0.392665,0.28748 0.580499,0.45618 0.342017,0.30716 0.704394,0.79076 1.015876,1.14044 0.14193,0.15934 0.301383,0.28069 0.435374,0.45618 0.157669,0.2065 0.277707,0.47777 0.435375,0.68427 0.133993,0.17549 0.301383,0.28068 0.435376,0.45618 0.157667,0.2065 0.290248,0.45617 0.435373,0.68426 0.145125,0.22809 0.30181,0.43936 0.435376,0.68427 0.133492,0.24477 0.594362,1.2356 0.725626,1.59662 0.107333,0.29522 0.182914,0.61714 0.290248,0.91236 0.08653,0.23801 0.235094,0.42421 0.29025,0.68427 0.0459,0.21638 -0.02386,0.45928 0,0.68426 0.02515,0.23716 0.119976,0.44711 0.145126,0.68427 0.01771,0.16699 0.01771,1.88582 0,2.0528 -0.02515,0.23716 -0.123491,0.44626 -0.145126,0.68427 -0.02737,0.30106 0.05316,0.61994 0,0.91236 -0.04792,0.26358 -0.221543,0.4323 -0.29025,0.68426 -0.07857,0.28814 -0.06655,0.62423 -0.145125,0.91236 -0.06871,0.25196 -0.193499,0.45618 -0.290249,0.68427 -0.09675,0.22809 -0.17859,0.47367 -0.29025,0.68426 -0.13139,0.24781 -0.303985,0.43647 -0.435375,0.68427 -0.518896,0.97864 -0.03183,0.45986 -0.725624,1.36854 -0.133993,0.17549 -0.301383,0.28068 -0.435376,0.45617 -0.157668,0.20651 -0.268365,0.49678 -0.435375,0.68427 -0.176042,0.19763 -0.397043,0.27597 -0.580499,0.45618 -0.205109,0.20148 -0.369064,0.49965 -0.580501,0.68427 -0.227723,0.19883 -0.483749,0.30412 -0.725623,0.45618 -0.241877,0.15205 -0.478487,0.3267 -0.725626,0.45617 -0.18922,0.0991 -0.393744,0.11802 -0.5805,0.22809 -0.202565,0.11939 -0.377935,0.33679 -0.580499,0.45618 -0.869822,0.51265 -0.272973,0.0613 -1.015875,0.22809 -1.26226,0.28341 0.01258,0.22809 -1.015876,0.22809 -0.483749,0 -0.967499,0 -1.45125,0 -0.09675,0 -0.193499,0 -0.290248,0 -0.09675,0 -0.198465,0.0481 -0.29025,0 -0.0649,-0.034 -0.08393,-0.18001 -0.145126,-0.22809 -0.08653,-0.068 -0.221838,0.10752 -0.29025,0 -0.0342,-0.0538 0,-0.15206 0,-0.22809 0,-0.076 -0.02163,-0.16009 0,-0.22809 0.09675,-0.30411 0.541478,-0.53956 0.725626,-0.68426 0.09675,-0.076 0.184179,-0.19475 0.290248,-0.22809 0.142308,-0.0447 0.295835,0.0627 0.435376,0 0.208016,-0.0934 0.377934,-0.33679 0.580501,-0.45618 0.37351,-0.22014 0.782559,-0.25792 1.160999,-0.45618 0.247139,-0.12948 0.480802,-0.31626 0.725623,-0.45618 0.575062,-0.32866 1.17667,-0.54247 1.741501,-0.91236 0.299548,-0.19616 0.576108,-0.47053 0.87075,-0.68426 0.334504,-0.24265 0.68137,-0.44162 1.015875,-0.68427 0.589281,-0.42746 1.150655,-0.94644 1.7415,-1.36853 0.237156,-0.16943 0.4979,-0.25734 0.725624,-0.45618 0.0018,-0.002 1.151457,-1.35783 1.160999,-1.36854 0.20763,-0.23309 0.58001,-0.53092 0.725626,-0.91235 0.07871,-0.20617 0.06642,-0.47811 0.145125,-0.68427 0.07039,-0.1844 0.208153,-0.28414 0.290249,-0.45618 0.308337,-0.64614 0.03784,-0.23791 0.145125,-0.91236 -0.08747,-0.41282 0.235093,-0.4242 0.29025,-0.68426 0.0306,-0.14426 -0.02346,-0.30866 0,-0.45618 0.02623,-0.16493 0.110919,-0.29489 0.145124,-0.45618 0.02414,-0.11381 -0.02022,-1.36853 0,-1.36853 0.06075,0 -0.03785,0.27771 0,0.45617 0.03421,0.16129 0.118892,0.29125 0.145126,0.45618 0.02347,0.14752 -0.01898,0.30708 0,0.45618 0.17572,1.38088 0.145126,0.0945 0.145126,1.14045 0,0.30412 0,0.60824 0,0.91235 0,0.30412 -0.024,0.61059 0,0.91236 0.02474,0.31106 0.120385,0.6013 0.145124,0.91236 0.024,0.30177 0,0.60823 0,0.91235 0,0.38015 0,0.7603 0,1.14045 0,0.60823 0,1.21647 0,1.82471 0,0.30412 -0.024,0.61059 0,0.91236 0.02474,0.31105 0.116917,0.60202 0.145126,0.91235 0.02052,0.2258 -0.02386,0.45928 0,0.68427 0.02514,0.23716 0.09675,0.45618 0.145122,0.68427 0.04837,0.22809 0.08831,0.46103 0.145127,0.68427 0.08035,0.31569 0.221837,0.58978 0.29025,0.91235 0.0153,0.0721 -0.02163,0.16009 0,0.22809 0.04721,0.14837 0.170143,0.32247 0.290249,0.22809 0.177554,-0.13953 0.184196,-0.46202 0.290251,-0.68427 0.0821,-0.17203 0.208155,-0.28414 0.290251,-0.45618 0.0649,-0.136 0.08947,-0.31039 0.145122,-0.45617 0.179477,-0.47013 0.387,-0.91236 0.580502,-1.36854 0.09675,-0.22809 0.221543,-0.4323 0.290249,-0.68427 0.07857,-0.28813 0.06655,-0.62422 0.145126,-0.91235 0.06871,-0.25197 0.203714,-0.44626 0.290246,-0.68427 0.107339,-0.29522 0.20239,-0.60165 0.290251,-0.91236 0.105805,-0.37414 0.184447,-0.7663 0.290252,-1.14044 0.08786,-0.31071 0.202382,-0.60165 0.290251,-0.91236 0.105798,-0.37414 0.173745,-0.77423 0.290251,-1.14044 0.126146,-0.39652 0.309224,-0.74393 0.43537,-1.14045 0.116506,-0.36621 0.184453,-0.7663 0.290251,-1.14045 0.309301,-1.09375 0.318584,-0.90127 0.725628,-2.0528 0.10506,-0.29722 0.1935,-0.60823 0.290245,-0.91235 0.593774,-1.86643 0.04022,0.0386 0.435376,-1.82471 0.06841,-0.32257 0.22184,-0.58979 0.290251,-0.91236 0.01533,-0.0721 -0.02163,-0.16009 0,-0.22809 0.0306,-0.0962 0.114534,-0.13192 0.145126,-0.22809 0.02163,-0.068 -0.04836,-0.22809 0,-0.22809 0.04836,0 0,0.15206 0,0.22809 0,0.076 0.03423,0.17433 0,0.22809 -0.03423,0.0538 -0.11092,-0.0538 -0.145126,0 -0.113446,0.1783 0.126235,0.3968 0.145126,0.45618 0.04327,0.136 -0.06841,0.34865 0,0.45618 0.03423,0.0538 0.09675,0 0.145126,0"
       id="path829"
       inkscape:connector-curvature="0" />
    <path
       style="fill:none;stroke:#6666ba;stroke-width:1.43579149;stroke-linecap:butt;stroke-linejoin:miter;stroke-miterlimit:4;stroke-dasharray:none;stroke-opacity:1"
       d="m 91.60113,172.91954 c -0.102178,-0.0657 0.05682,-1.32871 0,-1.59662 -0.04327,-0.20401 -0.246985,-0.25217 -0.290251,-0.45618 -0.0306,-0.14426 0.0306,-0.31193 0,-0.45618 -0.04753,-0.22413 -0.359178,-0.37634 -0.435377,-0.45618 -0.05695,-0.0596 -0.09675,-0.15206 -0.145126,-0.22809 -0.166045,-0.26097 -0.17179,-0.31809 -0.435376,-0.45618 -0.137675,-0.0721 -0.294578,0.0553 -0.43537,0 -0.104945,-0.0412 -0.185312,-0.18685 -0.290251,-0.22809 -0.08355,-0.0328 -0.932325,-0.0328 -1.015879,0 -0.104939,0.0412 -0.184179,0.19475 -0.290245,0.22809 -0.23718,0.0746 -0.490973,-0.0922 -0.725628,0 -0.104939,0.0412 -0.1935,0.15206 -0.290251,0.22809 -0.145125,0 -0.293063,-0.0447 -0.43537,0 -0.107675,0.0339 -0.7357,0.57814 -0.870754,0.68427 -0.1935,0.15206 -0.387001,0.30412 -0.580501,0.45618 -0.09674,0.076 -0.203713,0.12608 -0.290245,0.22809 -0.109463,0.12902 -0.172924,0.34554 -0.290251,0.45618 -0.131179,0.12369 -0.304205,0.10438 -0.435377,0.22808 -0.117327,0.11064 -0.193501,0.30412 -0.290251,0.45618 -0.09675,0.15206 -0.1935,0.30412 -0.290251,0.45618 -0.09674,0.15206 -0.208154,0.28414 -0.290245,0.45618 -0.06491,0.13601 -0.08022,0.32017 -0.145125,0.45618 -0.0821,0.17203 -0.208154,0.28414 -0.290251,0.45617 -0.30834,0.64614 -0.03785,0.23791 -0.145126,0.91236 -0.0525,0.32986 -0.237779,0.58249 -0.290251,0.91236 -0.02348,0.14752 0,0.30412 0,0.45617 0,0.15207 0,0.30412 0,0.45618 0,0.45618 0,0.91236 0,1.36854 0,0.53221 0,1.06441 0,1.59662 0,0.22809 -0.02844,0.46061 0,0.68427 0.02118,0.16671 0.118892,0.29125 0.145125,0.45618 0.02347,0.14752 0,0.30412 0,0.45617 0,0.22809 0,0.45618 0,0.68427 0,0.15206 -0.02348,0.30866 0,0.45618 0.411116,1.29228 -0.05408,-0.34001 0.145126,0.91236 0.105225,0.66151 0.113223,0.26692 0.290251,0.68426 0.06,0.14146 0.08022,0.32018 0.145126,0.45618 0.08193,0.17169 0.616381,1.01168 0.725621,1.14045 0.194487,0.22925 0.51657,0.32475 0.725628,0.45618 0.02004,0.0126 0.573656,0.45402 0.580496,0.45617 0.234832,0.11183 0.488447,-0.0745 0.725627,0 0.150006,0.0472 0.285371,0.18094 0.435377,0.22809 0.18974,0.0597 0.386995,0 0.580496,0 0.290251,0 0.580502,0 0.870753,0 0.081,0 0.659189,0.0348 0.725621,0 0.06491,-0.034 0.08022,-0.19408 0.145126,-0.22809 0.137681,-0.0721 0.297696,0.0721 0.435377,0 0.20524,-0.10752 0.370618,-0.37371 0.580502,-0.45617 0.09386,-0.0369 0.196383,0.0369 0.290251,0 0.104939,-0.0412 0.193494,-0.15206 0.290244,-0.22809 0.09675,-0.076 0.193502,-0.15206 0.290251,-0.22809 0.193502,-0.15206 0.400498,-0.26757 0.580503,-0.45618 0.05695,-0.0596 0.08819,-0.16845 0.145126,-0.22809 0.179999,-0.18861 0.407425,-0.25217 0.580495,-0.45618 0.109463,-0.12902 0.180794,-0.32715 0.290251,-0.45618 0.08654,-0.102 0.203713,-0.12608 0.290252,-0.22809 0.109456,-0.12902 0.180788,-0.32715 0.290251,-0.45617 0.08653,-0.10201 0.203712,-0.12609 0.290245,-0.22809 0.162539,-0.1916 0.272836,-0.49268 0.435376,-0.68427 0.139533,-0.16448 0.299178,-0.28493 0.435377,-0.45618 0.106839,-0.13433 0.193498,-0.30412 0.290247,-0.45618 0.09676,-0.15205 0.193507,-0.30412 0.290247,-0.45617 0.04838,-0.076 0.10718,-0.13863 0.145123,-0.22809 0.05996,-0.14146 0.08025,-0.32018 0.145133,-0.45618 0.123139,-0.25806 0.321529,-0.41588 0.43537,-0.68427 0.05996,-0.14145 0.08025,-0.32017 0.145132,-0.45618 0.08205,-0.17203 0.208148,-0.28414 0.290247,-0.45618 0.191568,-0.40143 0.243811,-0.96709 0.43537,-1.36853 0.12314,-0.25805 0.321539,-0.41587 0.435379,-0.68427 0.05996,-0.14145 0.0851,-0.31472 0.145123,-0.45618 0.03788,-0.0895 0.09675,-0.15205 0.145124,-0.22809 0.04838,-0.15205 0.0851,-0.31472 0.145132,-0.45617 0.07585,-0.17893 0.21435,-0.27725 0.290247,-0.45618 0.04838,-0.15206 0.09675,-0.30412 0.145123,-0.45618 0,-0.076 -0.02163,-0.16008 0,-0.22809 0.06122,-0.19234 0.24698,-0.25217 0.290247,-0.45618 0.03061,-0.14425 -0.03061,-0.31192 0,-0.45617 0.02163,-0.10201 0.114531,-0.13192 0.145123,-0.22809 0.02163,-0.068 -0.02163,-0.16009 0,-0.22809 0.03061,-0.0962 0.114541,-0.13192 0.145133,-0.22809 0.0456,-0.14336 -0.0456,-0.769 0,-0.91236 0.48132,-0.75647 -0.0684,0.21505 0.145123,-0.45617 0.03061,-0.0962 0.114531,-0.13192 0.145123,-0.22809 0.04327,-0.13601 -0.04327,-0.32018 0,-0.45618 0.03061,-0.0962 0.114532,-0.13192 0.145124,-0.22809 0.04327,-0.13601 -0.0684,-0.34866 0,-0.45618 0.0342,-0.0538 0.110922,0.0538 0.145132,0 0.0342,-0.0538 0,-0.15206 0,-0.22809 0,-0.0838 0.0054,-0.90318 0,-0.91235 -0.0342,-0.0538 -0.110923,0.0538 -0.145132,0 -0.0342,-0.0538 0.0342,-0.17433 0,-0.22809 -0.0342,-0.0538 -0.09675,0 -0.145124,0 -0.06535,0 -0.391205,-0.0347 -0.435379,0 -0.06122,0.0481 -0.08815,0.16844 -0.145123,0.22809 -0.09,0.0943 -0.213758,0.10787 -0.290247,0.22808 -0.152978,0.24043 -0.160446,0.64035 -0.290247,0.91236 -0.08214,0.17203 -0.208156,0.28414 -0.290255,0.45618 -0.0649,0.136 -0.09675,0.30412 -0.145124,0.45618 -0.04838,0.15206 -0.118885,0.29124 -0.145123,0.45618 -0.02352,0.14751 0.01894,0.30707 0,0.45617 -0.03007,0.23576 -0.115124,0.44851 -0.145123,0.68427 -0.01894,0.14911 0.02352,0.30866 0,0.45618 -0.02621,0.16493 -0.118885,0.29124 -0.145133,0.45618 -0.09192,0.57792 0.05952,0.37412 0.145133,0.91235 0.02352,0.14752 -0.03061,0.31192 0,0.45618 0.02163,0.10201 0.107179,0.13863 0.145123,0.22809 0.05996,0.14145 0.0851,0.31472 0.145123,0.45618 0.03788,0.0895 0.09675,0.15206 0.145124,0.22809 0.09676,0.15206 0.180787,0.32715 0.290255,0.45617 0.08653,0.10201 0.200249,0.13379 0.290247,0.22809 0.05691,0.0597 0.08824,0.16845 0.145132,0.22809 0.180007,0.18861 0.400488,0.26758 0.580494,0.45618 0.05691,0.0596 0.08025,0.19409 0.145123,0.22809 0.09179,0.0481 0.198462,-0.0481 0.290256,0 0.0649,0.034 0.09675,0.15206 0.145123,0.22809 0.04838,0.076 0.09675,0.15206 0.145124,0.22809 0.145123,0.22809 0.290255,0.45618 0.435379,0.68427 0.04838,0.076 0.10717,0.13862 0.145114,0.22808 0.05996,0.14146 0.0851,0.31473 0.145132,0.45618 0.113841,0.26839 0.312234,0.42622 0.435374,0.68427 0.0649,0.13601 0.0803,0.32017 0.14513,0.45618 0.16418,0.34407 0.4163,0.56828 0.5805,0.91235 0.1298,0.27202 0.17024,0.62945 0.29024,0.91236 0.038,0.0895 0.10718,0.13863 0.14513,0.22809 0.12,0.28291 0.17024,0.62945 0.29025,0.91236 0.0379,0.0895 0.11453,0.13191 0.14512,0.22809 0.0216,0.068 0,0.15205 0,0.22808 0,0.15206 -0.0306,0.31193 0,0.45618 0.0216,0.10201 0.11453,0.13192 0.14512,0.22809 0.0216,0.068 0,0.15206 0,0.22809 0,0.076 0.0153,0.15596 0,0.22809 -0.0342,0.16128 -0.11091,0.2949 -0.14512,0.45618 -0.144,0.67898 0.34364,-0.468 -0.14512,0.68427 -0.0759,0.17892 -0.21435,0.27724 -0.29025,0.45617 -0.14099,0.33239 -0.0906,0.47508 -0.29025,0.68427 -0.0967,0.076 -0.1935,0.15206 -0.29025,0.22809 -0.0484,0 -0.10186,-0.034 -0.14512,0 -0.0612,0.0481 -0.0802,0.19409 -0.14513,0.22809 -0.0918,0.0481 -0.19639,-0.0369 -0.29025,0 -0.10494,0.0412 -0.185315,0.18686 -0.29025,0.22809 -0.09821,0.0386 -0.922481,0 -1.015873,0 -0.241881,0 -0.483753,0 -0.725625,0 -0.09676,0 -0.196398,0.0369 -0.290256,0 -0.104936,-0.0412 -0.185302,-0.18686 -0.290247,-0.22809 -0.09386,-0.0369 -0.196388,0.0369 -0.290247,0 -0.579865,-0.22784 -0.0018,-0.22984 -0.580502,-0.68427 -0.08653,-0.068 -0.196388,0.0369 -0.290256,0 -0.339061,-0.13323 -0.373656,-0.49988 -0.725617,-0.68426 -0.432012,-0.22633 0.29776,0.54008 -0.435379,-0.22809 -0.05691,-0.0597 -0.08393,-0.18001 -0.145123,-0.22809 -0.08653,-0.068 -0.203713,0.068 -0.290256,0 -0.06122,-0.0481 -0.08393,-0.18001 -0.145123,-0.22809 -0.04327,-0.034 -0.110914,0.0538 -0.145115,0 -0.0342,-0.0538 0.0342,-0.17433 0,-0.22809 -0.0342,-0.0538 -0.110922,0.0538 -0.145132,0 -0.0342,-0.0538 0.0342,-0.17433 0,-0.22809 -0.0684,-0.10752 -0.221837,0.10752 -0.290247,0 -0.03423,-0.0538 -0.03423,-0.17433 0,-0.22809 0.0342,-0.0538 0.110923,0.0538 0.145124,0 0.0342,-0.0538 0,-0.15206 0,-0.22809"
       id="path831"
       inkscape:connector-curvature="0" />
  </g>
</svg>
