<?xml version="1.0" encoding="UTF-8" standalone="no"?>
<!-- Created with Inkscape (http://www.inkscape.org/) -->

<svg
   xmlns:dc="http://purl.org/dc/elements/1.1/"
   xmlns:cc="http://creativecommons.org/ns#"
   xmlns:rdf="http://www.w3.org/1999/02/22-rdf-syntax-ns#"
   xmlns:svg="http://www.w3.org/2000/svg"
   xmlns="http://www.w3.org/2000/svg"
   xmlns:sodipodi="http://sodipodi.sourceforge.net/DTD/sodipodi-0.dtd"
   xmlns:inkscape="http://www.inkscape.org/namespaces/inkscape"
   width="371.46292mm"
   height="141.70631mm"
   viewBox="0 0 371.46291 141.70631"
   version="1.1"
   id="svg8"
   sodipodi:docname="waterfall.svg"
   inkscape:export-filename="/home/jvk/Dropbox/TUD/agile.png"
   inkscape:export-xdpi="280.186"
   inkscape:export-ydpi="280.186"
   inkscape:version="0.92.4 (f8dce91, 2019-08-02)">
  <defs
     id="defs2" />
  <sodipodi:namedview
     id="base"
     pagecolor="#ffffff"
     bordercolor="#666666"
     borderopacity="1.0"
     inkscape:pageopacity="0.0"
     inkscape:pageshadow="2"
     inkscape:zoom="0.35"
     inkscape:cx="1040.0704"
     inkscape:cy="60.027908"
     inkscape:document-units="mm"
     inkscape:current-layer="layer1"
     showgrid="false"
     inkscape:window-width="1863"
     inkscape:window-height="1025"
     inkscape:window-x="57"
     inkscape:window-y="27"
     inkscape:window-maximized="1"
     inkscape:object-paths="true"
     fit-margin-top="0"
     fit-margin-left="0"
     fit-margin-right="0"
     fit-margin-bottom="0" />
  <metadata
     id="metadata5">
    <rdf:RDF>
      <cc:Work
         rdf:about="">
        <dc:format>image/svg+xml</dc:format>
        <dc:type
           rdf:resource="http://purl.org/dc/dcmitype/StillImage" />
        <dc:title></dc:title>
      </cc:Work>
    </rdf:RDF>
  </metadata>
  <g
     inkscape:label="Layer 1"
     inkscape:groupmode="layer"
     id="layer1"
     transform="translate(67.359135,-20.866457)">
    <path
       style="fill:none;stroke:#000000;stroke-width:1;stroke-linecap:butt;stroke-linejoin:miter;stroke-opacity:1;stroke-miterlimit:4;stroke-dasharray:none"
       d="m -67.27976,26.369047 c 1.007936,-0.755952 1.896901,-1.704403 3.023809,-2.267857 0.450763,-0.225381 1.007936,0 1.511903,0 0.503968,0 1.007939,0 1.511906,0 1.76389,0 3.527777,0 5.291667,0 5.039683,0 10.079365,0 15.119048,0 1.511903,0 3.023809,0 4.535712,0 0.503968,0 1.007939,0 1.511906,0 0.251984,0 0.516898,0.07969 0.755952,0 0.53454,-0.178179 0.965274,-0.619295 1.511906,-0.755952 0.488921,-0.12223 1.033798,0.159368 1.511903,0 0.338074,-0.112691 0.41788,-0.643262 0.755954,-0.755953 0.478105,-0.159368 1.033799,0.159369 1.511904,0 0.338071,-0.11269 0.459443,-0.558279 0.755951,-0.755952 1.252442,-0.834961 1.716914,-0.755952 3.023811,-0.755952 0.251984,0 0.503968,0 0.755952,0 0.251984,0 0.577773,-0.17818 0.755952,0 0.17818,0.178179 0,0.503968 0,0.755952 0,1.259921 0,2.519841 0,3.779762 0,4.283731 0,8.56746 0,12.851191 0,2.015873 0,4.031744 0,6.047618 0,0.503968 0,1.007935 0,1.511906 0,0.503968 -0.159368,1.033798 0,1.511903 0.112691,0.338074 0.596584,0.437216 0.755953,0.755954 0.149864,0.299728 -0.154544,2.113312 0,2.267855 0.178179,0.178181 0.503968,0 0.755952,0 0.251984,0 0.503968,0 0.755953,0 0.503968,0 1.007936,0 1.511904,0 0.251985,0 0.511492,0.06112 0.755953,0 0.773052,-0.193262 1.481855,-0.624951 2.267857,-0.755951 0.745667,-0.124278 1.526585,0.148254 2.267857,0 0.552512,-0.110504 0.959393,-0.645451 1.511905,-0.755952 1.211462,-0.242292 2.568299,0.242292 3.7797616,0 0.7813696,-0.156274 1.4948051,-0.562689 2.267857,-0.755952 0.660868,-0.165219 4.1404217,0.197644 4.5357143,0 0.3187375,-0.159369 0.4372149,-0.596585 0.7559524,-0.755954 0.2253814,-0.112691 0.5039682,0 0.75595232,0 0.50396826,0 1.03379851,0.159369 1.51190476,0 0.33807222,-0.112691 0.43721482,-0.596582 0.75595232,-0.755952 0.6047619,-0.302381 1.6630953,0.302382 2.2678571,0 0.3187374,-0.159369 0.4178802,-0.643262 0.7559524,-0.755951 0.3831405,-0.127714 4.6736825,0 5.2916666,0 0.2519842,0 0.5039682,0 0.7559522,0 0.251984,0 0.530571,0.112689 0.755953,0 0.318737,-0.159369 0.41788,-0.643263 0.755952,-0.755954 0.14364,-0.04788 5.091094,-0.100285 5.291667,0 1.483966,0.741984 0.340327,1.436608 0.755952,2.267857 0.159369,0.318738 0.503968,0.503968 0.755952,0.755954 0,0.503968 -0.12223,1.022983 0,1.511904 0.136658,0.546631 0.577773,0.977365 0.755953,1.511905 0.07968,0.239052 -0.07969,0.516898 0,0.755952 0.197922,0.593767 1.313982,2.430042 1.511904,3.023809 0.07969,0.239054 -0.07968,0.516901 0,0.755952 0.17818,0.53454 0.619295,0.965274 0.755953,1.511906 0.12223,0.488921 0,1.007935 0,1.511906 0,0.786132 -0.148661,3.941069 0,4.535712 0.136657,0.546632 0.577773,0.977365 0.755952,1.511906 0.148702,0.446106 0,3.35739 0,3.779761 0,0.251983 -0.178179,0.577773 0,0.755954 0.17818,0.178178 0.577773,-0.178181 0.755953,0 0.178179,0.178178 -0.17818,0.57777 0,0.755951 0.590947,0.590947 1.315092,-0.657547 1.511904,-0.755951 0.225382,-0.112692 0.503968,0 0.755953,0 0.503968,0 1.033799,0.159366 1.511904,0 3.336935,-1.112314 -2.746499,-0.755954 2.267857,-0.755954 0.755952,0 1.534475,0.183345 2.267858,0 0.546629,-0.136658 0.965274,-0.619295 1.511905,-0.755952 0.488921,-0.12223 1.022983,0.122229 1.511904,0 3.509549,-1.754775 -0.435121,-0.06417 3.023809,-0.755952 3.256412,-0.651282 1.279305,-0.860623 4.535715,-1.511906 0.494181,-0.09883 1.017722,0.09884 1.511906,0 0.781367,-0.156273 1.481854,-0.624951 2.267855,-0.755951 0.745667,-0.124278 1.52219,0.124277 2.267857,0 0.786003,-0.131001 1.486487,-0.599678 2.267858,-0.755952 0.49418,-0.09884 1.017722,0.09883 1.511905,0 0.781371,-0.156276 1.481855,-0.624954 2.267858,-0.755954 0.745664,-0.124278 1.52219,0.124277 2.267855,0 0.786003,-0.131001 1.481857,-0.624951 2.267857,-0.755952 1.491335,-0.248555 3.044381,0.248555 4.535715,0 0.786003,-0.131 1.481855,-0.624951 2.267858,-0.755951 1.242777,-0.207132 2.519841,0 3.77976,0 2.267858,0 4.535715,0 6.803573,0 0.251984,0 0.503968,0 0.755952,0 0.251983,0 0.577773,-0.178181 0.755951,0 0.178181,0.178178 -0.178178,0.57777 0,0.755951 0.178181,0.178179 0.530572,-0.112691 0.755954,0 0.318736,0.159369 0.437214,0.596583 0.755952,0.755952 0.225383,0.112691 0.530572,-0.112691 0.755952,0 0.318738,0.159369 0.437216,0.596585 0.755954,0.755954 0.450763,0.22538 1.155544,-0.356362 1.511903,0 0.178181,0.178179 -0.178178,0.577771 0,0.755952 0.356359,0.356359 1.155547,-0.35636 1.511906,0 0.178178,0.178178 -0.178181,0.577773 0,0.755951 0.178178,0.178181 0.577771,-0.178178 0.755952,0 0.178181,0.178181 -0.178181,0.577774 0,0.755952 0.356359,0.356359 1.155546,-0.356359 1.511905,0 0.35636,0.356359 -0.225382,1.061143 0,1.511906 0.159367,0.318738 0.596583,0.437213 0.755952,0.755952 0.112691,0.225382 -0.112691,0.530571 0,0.755954 0.159369,0.318735 0.596583,0.437213 0.755952,0.755951 0.112691,0.22538 0,0.503968 0,0.755952 0,0.251984 0,0.503968 0,0.755952 0,1.259922 0,2.519841 0,3.779763 0,0.755952 -0.183346,1.534475 0,2.267857 0.136657,0.54663 0.755951,0.94845 0.755951,1.511904 0,0.563454 -0.619294,0.965274 -0.755951,1.511906 -0.12223,0.48892 0,1.007935 0,1.511903 0,1.259922 0,2.519841 0,3.779763 0,0.277614 -0.03042,2.993388 0,3.023809 0.356359,0.35636 1.033798,-0.159369 1.511906,0 0.534537,0.178179 0.977365,0.577774 1.511903,0.755952 0.239053,0.07968 0.577773,-0.178178 0.755954,0 0.178178,0.178181 -0.178181,0.577773 0,0.755954 0.178178,0.178179 0.503968,0 0.755952,0 0.251984,0 0.503967,0 0.755951,0 2.771826,0 5.543651,0 8.315479,0 4.03174,0 8.06349,0 12.09524,0 0.75595,0 1.5119,0 2.26785,0 0.75596,0 1.52659,0.148254 2.26786,0 0.55251,-0.110503 0.96528,-0.619297 1.5119,-0.755954 0.48893,-0.12223 1.00794,0 1.51191,0 0.75595,0 1.5119,0 2.26786,0 0.50397,0 1.0338,0.159369 1.5119,0 0.33807,-0.112691 0.41788,-0.64326 0.75595,-0.755952 0.8816,-0.293864 3.50311,0.258152 4.53572,0 0.77305,-0.193262 1.4948,-0.562689 2.26785,-0.755951 0.24447,-0.06112 0.50397,0 0.75596,0 0.50396,0 1.00793,0 1.5119,0 1.76389,0 3.52778,0 5.29167,0 1.25992,0 2.51984,0 3.77976,0 0.75595,0 1.5507,-0.239054 2.26786,0 0.33807,0.112688 0.43721,0.596582 0.75595,0.755951 0.22538,0.112692 0.50397,0 0.75595,0 0.25199,0.251984 0.43722,0.596583 0.75595,0.755952 0.22539,0.112691 0.53058,-0.112691 0.75596,0 0.31873,0.159369 0.43721,0.596585 0.75595,0.755954 0.22538,0.112689 0.57777,-0.178181 0.75595,0 0.17818,0.178179 -0.17818,0.577771 0,0.755952 0.17818,0.178178 0.57778,-0.178181 0.75595,0 0.17818,0.178178 0,0.503968 0,0.755951 0,0.251984 0,0.503968 0,0.755952 0,2.267858 0,4.535715 0,6.803572 0,3.527773 0,7.055553 0,10.583333 0,0.18334 -0.0243,2.24355 0,2.26786 0.17818,0.17818 0.57778,-0.17818 0.75596,0 0.17818,0.17818 -0.17818,0.57777 0,0.75595 0.17818,0.17818 0.50397,0 0.75595,0 0.25198,0 0.50397,0 0.75595,0 2.77183,0 5.54365,0 8.31548,0 8.06349,0 16.12698,0 24.19047,0 3.02381,0 6.04762,0 9.07143,0 0.25199,0 0.50397,0 0.75595,0 0.25199,0 0.57778,-0.17818 0.75596,0 0.0343,0.0343 0,3.42333 0,3.77976 0,3.52778 0,7.05556 0,10.58334 0,0.25198 0,0.50396 0,0.75595 0,0.25198 -0.17818,0.57777 0,0.75595 0.17818,0.17818 0.57777,-0.17818 0.75595,0 0.17818,0.17818 -0.17818,0.57777 0,0.75595 0.17818,0.17818 0.53057,-0.11269 0.75595,0 0.31874,0.15937 0.43722,0.59659 0.75595,0.75596 0.22539,0.11268 0.50397,0 0.75595,0 0.50398,0 1.0338,-0.15937 1.51191,0 0.33807,0.11268 0.43722,0.59658 0.75595,0.75595 0.16943,0.0847 2.84418,0 3.02381,0 1.51191,0 3.02381,0 4.53572,0 1.00793,0 2.03544,0.19767 3.02381,0 0.78137,-0.15628 1.48648,-0.59968 2.26785,-0.75595 0.49418,-0.0988 1.00794,0 1.51191,0 1.00793,0 2.01587,0 3.02381,0 2.51984,0 5.03968,0 7.55952,0 2.01587,0 4.03175,0 6.04762,0 0.34045,0 2.03779,-0.11504 2.26786,0 1.86826,0.93413 -0.26094,0.75595 1.5119,0.75595 2.26786,0 4.53572,0 6.80357,0 0.34045,0 2.0378,-0.11503 2.26786,0 0.31874,0.15937 0.43721,0.59658 0.75595,0.75595 0.45077,0.22538 1.15555,-0.35636 1.51191,0 0.17818,0.17818 -0.17818,0.57777 0,0.75595 0.17818,0.17818 0.57777,-0.17818 0.75595,0 0.17818,0.17818 0,0.50397 0,0.75595 0,0.34045 0.11503,2.0378 0,2.26786 -0.15937,0.31874 -0.59658,0.43722 -0.75595,0.75595 -0.11269,0.22538 0,0.50397 0,0.75596 0,0.50396 0.15937,1.03379 0,1.5119 -0.11269,0.33807 -0.59659,0.43721 -0.75596,0.75595 -0.11268,0.22539 0.1127,0.53057 0,0.75595 -0.15936,0.31874 -0.64326,0.41788 -0.75595,0.75596 0,3.44131 0.35636,0.0432 -0.75595,2.26786 -0.22538,0.45076 0.22538,1.06114 0,1.5119 -0.15937,0.31874 -0.59658,0.43722 -0.75595,0.75595 -0.0516,0.10324 -0.0516,4.43247 0,4.53572 0.68826,1.37652 0.57345,0.44313 1.5119,0.75595 0.53454,0.17818 0.97737,0.57777 1.51191,0.75595 0.23905,0.0797 0.50397,0 0.75595,0 0.71198,0 3.34973,-0.14334 3.77976,0 0.33807,0.11269 0.41788,0.64326 0.75596,0.75595 0.71715,0.23906 1.5119,0 2.26785,0 1.51191,0 3.02381,0 4.53572,0 0.75595,0 1.55069,0.23906 2.26785,0 0.33807,-0.11269 0.41788,-0.64326 0.75595,-0.75595 0.47811,-0.15937 1.00794,0 1.51191,0 1.51191,0 3.02382,0 4.53573,0 1.51188,0 3.02379,0 4.53569,0 0.50398,0 1.02299,0.12223 1.51191,0 0.54663,-0.13666 0.97737,-0.57777 1.51191,-0.75595 0.72435,-0.24146 3.07943,0.23344 3.77976,0 0.33808,-0.11269 0.41788,-0.64326 0.75594,-0.75595 0.8033,-0.26776 2.22054,0.26776 3.02382,0 0.53454,-0.17818 0.97737,-0.57778 1.51191,-0.75596 0.23905,-0.0797 0.53057,0.1127 0.75594,0 0.31874,-0.15936 0.43722,-0.59658 0.75596,-0.75595 0.60476,-0.30238 1.6631,0.30238 2.26785,0 0.31875,-0.15937 0.43723,-0.59658 0.75597,-0.75595 0.22537,-0.11269 0.57777,0.17818 0.75594,0 0.17817,-0.17818 -0.22537,-0.64326 0,-0.75595 0.59635,-0.67615 1.59171,0.33807 2.26785,0 0.31875,-0.15937 0.41789,-0.64327 0.75597,-0.75595 0.4781,-0.15937 1.00793,0 1.51191,0 0.25196,0 0.75594,-0.25199 0.75594,0 0,0.25198 -0.57777,0.17817 -0.75594,0 -0.1782,-0.17819 0,-0.50398 0,-0.75596"
       id="path3725"
       inkscape:connector-curvature="0" />
    <path
       style="fill:none;stroke:#000000;stroke-width:1;stroke-linecap:butt;stroke-linejoin:miter;stroke-opacity:1;stroke-miterlimit:4;stroke-dasharray:none"
       d="m 291.04166,147.32143 c -0.75596,-2.77183 -1.70439,-5.49821 -2.26785,-8.31548 -0.0699,-0.34944 0.45945,0.55828 0.75594,0.75595 3.81892,2.54595 0.0175,0.006 2.26785,0.75595 0.53454,0.17819 0.97737,0.57778 1.51191,0.75596 0.8033,0.26776 2.22054,-0.26776 3.02382,0 0.53454,0.17818 0.97737,0.57777 1.51191,0.75595 0.51996,0.17332 1.82181,-0.22301 2.26785,0 0.31874,0.15937 0.43722,0.59658 0.75597,0.75595 0.45074,0.22538 1.15554,-0.35636 1.51188,0 0.17819,0.17818 -0.17817,0.57778 0,0.75596 0.35636,0.35636 1.15556,-0.35637 1.51191,0 0.17819,0.17817 0,0.50396 0,0.75595 0,1.77284 0.17819,-0.35636 -0.75595,1.5119 -0.11268,0.22538 0.11269,0.53057 0,0.75596 -0.43333,0.86663 -1.57731,1.05153 -2.26784,1.5119 -0.9624,0.64158 -2.09236,2.3252 -3.02382,3.02381 -1.22404,0.91803 -1.49715,0.35582 -2.26785,1.5119 -0.31255,0.46882 -0.35753,1.11349 -0.75597,1.51191 -0.17817,0.17818 -0.53057,-0.11269 -0.75594,0 -0.74388,0.37194 -2.27994,2.65187 -3.02382,3.02381 -0.22537,0.11269 -0.53057,-0.11269 -0.75594,0 -0.90715,0.45357 -1.36072,1.81428 -2.26787,2.26786 -0.22538,0.11268 -0.57777,-0.17819 -0.75595,0 -0.17817,0.17817 0.17818,0.57777 0,0.75595 -0.17817,0.17818 -0.57777,-0.17818 -0.75596,0 -0.17817,0.17818 0.17819,0.57777 0,0.75595 -0.17817,0.17818 -0.57777,-0.17818 -0.75594,0 -0.17817,0.17818 0.17817,0.57777 0,0.75595 -0.17817,0.17818 -0.57777,-0.17818 -0.75594,0 -0.1782,0.17818 0.25196,0.75596 0,0.75596 -0.25199,0 0,-0.50398 0,-0.75596 0,-0.25198 -0.0978,-0.52371 0,-0.75595 1.92611,-4.57455 4.03172,-9.07143 6.0476,-13.60714"
       id="path3727"
       inkscape:connector-curvature="0" />
  </g>
</svg>
