<?xml version="1.0" encoding="UTF-8" standalone="no"?>
<!-- Created with Inkscape (http://www.inkscape.org/) -->

<svg
   xmlns:dc="http://purl.org/dc/elements/1.1/"
   xmlns:cc="http://creativecommons.org/ns#"
   xmlns:rdf="http://www.w3.org/1999/02/22-rdf-syntax-ns#"
   xmlns:svg="http://www.w3.org/2000/svg"
   xmlns="http://www.w3.org/2000/svg"
   xmlns:sodipodi="http://sodipodi.sourceforge.net/DTD/sodipodi-0.dtd"
   xmlns:inkscape="http://www.inkscape.org/namespaces/inkscape"
   width="371.51688mm"
   height="143.92964mm"
   viewBox="0 0 371.51687 143.92964"
   version="1.1"
   id="svg8"
   inkscape:version="0.92.4 (f8dce91, 2019-08-02)"
   sodipodi:docname="agile.svg"
   inkscape:export-filename="/home/jvk/Dropbox/TUD/agile.png"
   inkscape:export-xdpi="280.186"
   inkscape:export-ydpi="280.186">
  <defs
     id="defs2" />
  <sodipodi:namedview
     id="base"
     pagecolor="#ffffff"
     bordercolor="#666666"
     borderopacity="1.0"
     inkscape:pageopacity="0.0"
     inkscape:pageshadow="2"
     inkscape:zoom="0.35"
     inkscape:cx="511.49897"
     inkscape:cy="60.027908"
     inkscape:document-units="mm"
     inkscape:current-layer="layer1"
     showgrid="false"
     inkscape:window-width="1863"
     inkscape:window-height="1025"
     inkscape:window-x="57"
     inkscape:window-y="27"
     inkscape:window-maximized="1"
     fit-margin-top="0"
     fit-margin-left="0"
     fit-margin-right="0"
     fit-margin-bottom="0"
     inkscape:object-paths="true" />
  <metadata
     id="metadata5">
    <rdf:RDF>
      <cc:Work
         rdf:about="">
        <dc:format>image/svg+xml</dc:format>
        <dc:type
           rdf:resource="http://purl.org/dc/dcmitype/StillImage" />
        <dc:title></dc:title>
      </cc:Work>
    </rdf:RDF>
  </metadata>
  <g
     inkscape:label="Layer 1"
     inkscape:groupmode="layer"
     id="layer1"
     transform="translate(67.48835,-20.786071)">
    <path
       style="fill:none;stroke:#000000;stroke-width:1;stroke-linecap:butt;stroke-linejoin:miter;stroke-miterlimit:4;stroke-dasharray:none;stroke-opacity:1"
       d="m -67.27976,26.369047 c 0.186046,-0.755952 0.350132,-1.704403 0.558138,-2.267857 0.0832,-0.225381 0.186046,0 0.279069,0 0.09302,0 0.186046,0 0.279069,0 0.325581,0 0.651161,0 0.976742,0 0.93023,0 1.86046,0 2.79069,0 0.279069,0 0.558138,0 0.837207,0 0.09302,0 0.186046,0 0.279069,0 0.04651,0 0.09541,0.07969 0.139534,0 0.09867,-0.178179 0.178172,-0.619295 0.27907,-0.755952 0.09025,-0.12223 0.190819,0.159368 0.279068,0 0.0624,-0.112691 0.07713,-0.643262 0.139535,-0.755953 0.08825,-0.159368 0.19082,0.159369 0.279069,0 0.0624,-0.11269 0.0848,-0.558279 0.139534,-0.755952 0.231177,-0.834961 0.31691,-0.755952 0.558139,-0.755952 0.04651,0 0.09302,0 0.139534,0 0.04651,0 0.106646,-0.17818 0.139535,0 0.03289,0.178179 0,0.503968 0,0.755952 0,1.259921 0,2.519841 0,3.779762 0,4.283731 0,8.56746 0,12.851191 0,2.015873 0,4.031744 0,6.047618 0,0.503968 0,1.007935 0,1.511906 0,0.503968 -0.02942,1.033798 0,1.511903 0.0208,0.338074 0.110118,0.437216 0.139534,0.755954 0.02766,0.299728 -0.02853,2.113312 0,2.267855 0.03289,0.178181 0.09302,0 0.139535,0 0.04651,0 0.09302,0 0.139534,0 0.09302,0 0.186046,0 0.279069,0 0.04651,0 0.09441,0.06112 0.139535,0 0.142691,-0.193262 0.273522,-0.624951 0.418603,-0.755951 0.137636,-0.124278 0.281779,0.148254 0.418604,0 0.101983,-0.110504 0.177086,-0.645451 0.279069,-0.755952 0.223613,-0.242292 0.474059,0.242292 0.697672,0 0.144226,-0.156274 0.275913,-0.562689 0.418604,-0.755952 0.121984,-0.165219 0.764244,0.197644 0.837207,0 0.05883,-0.159369 0.0807,-0.596585 0.139535,-0.755954 0.0416,-0.112691 0.09302,0 0.139534,0 0.09302,0 0.19082,0.159369 0.279069,0 0.0624,-0.112691 0.0807,-0.596582 0.139535,-0.755952 0.111627,-0.302381 0.306976,0.302382 0.418603,0 0.05883,-0.159369 0.07713,-0.643262 0.139535,-0.755951 0.07072,-0.127714 0.862673,0 0.976741,0 0.04651,0 0.09302,0 0.139535,0 0.04651,0 0.09793,0.112689 0.139534,0 0.05883,-0.159369 0.07713,-0.643263 0.139535,-0.755954 0.02651,-0.04788 0.93972,-0.100285 0.976742,0 0.273912,0.741984 0.06282,1.436608 0.139534,2.267857 0.02942,0.318738 0.09302,0.503968 0.139534,0.755954 0,0.503968 -0.02256,1.022983 0,1.511904 0.02523,0.546631 0.106646,0.977365 0.139535,1.511905 0.01471,0.239052 -0.01471,0.516898 0,0.755952 0.03653,0.593767 0.242536,2.430042 0.279069,3.023809 0.01471,0.239054 -0.01471,0.516901 0,0.755952 0.03289,0.53454 0.11431,0.965274 0.139535,1.511906 0.02256,0.488921 0,1.007935 0,1.511906 0,0.786132 -0.02744,3.941069 0,4.535712 0.02522,0.546632 0.106646,0.977365 0.139534,1.511906 0.02745,0.446106 0,3.35739 0,3.779761 0,0.251983 -0.03289,0.577773 0,0.755954 0.03289,0.178178 0.106646,-0.178181 0.139535,0 0.03289,0.178178 -0.03289,0.57777 0,0.755951 0.109077,0.590947 0.242741,-0.657547 0.279069,-0.755951 0.0416,-0.112692 0.09302,0 0.139534,0 0.09302,0 0.19082,0.159366 0.279069,0 0.615935,-1.112314 -0.506952,-0.755954 0.418604,-0.755954 0.139534,0 0.283235,0.183345 0.418603,0 0.100898,-0.136658 0.178172,-0.619295 0.279069,-0.755952 0.09025,-0.12223 0.188824,0.122229 0.279069,0 0.647797,-1.754775 -0.08031,-0.06417 0.558138,-0.755952 0.601072,-0.651282 0.236136,-0.860623 0.837207,-1.511906 0.09122,-0.09883 0.187853,0.09884 0.27907,0 0.144225,-0.156273 0.273522,-0.624951 0.418603,-0.755951 0.137636,-0.124278 0.280967,0.124277 0.418603,0 0.145082,-0.131001 0.274378,-0.599678 0.418604,-0.755952 0.09122,-0.09884 0.187852,0.09883 0.279069,0 0.144226,-0.156276 0.273523,-0.624954 0.418604,-0.755954 0.137635,-0.124278 0.280967,0.124277 0.418603,0 0.145081,-0.131001 0.273523,-0.624951 0.418604,-0.755952 0.275272,-0.248555 0.561935,0.248555 0.837207,0 0.145081,-0.131 0.273522,-0.624951 0.418603,-0.755951 0.229394,-0.207132 0.465116,0 0.697673,0 0.418603,0 0.837207,0 1.255811,0 0.04651,0 0.09302,0 0.139534,0 0.04651,0 0.106646,-0.178181 0.139534,0 0.03289,0.178178 -0.03289,0.57777 0,0.755951 0.03289,0.178179 0.09793,-0.112691 0.139535,0 0.05883,0.159369 0.0807,0.596583 0.139535,0.755952 0.0416,0.112691 0.09793,-0.112691 0.139534,0 0.05883,0.159369 0.0807,0.596585 0.139535,0.755954 0.0832,0.22538 0.213291,-0.356362 0.279069,0 0.03289,0.178179 -0.03289,0.577771 0,0.755952 0.06578,0.356359 0.213292,-0.35636 0.279069,0 0.03289,0.178178 -0.03289,0.577773 0,0.755951 0.03289,0.178181 0.106645,-0.178178 0.139534,0 0.03289,0.178181 -0.03289,0.577774 0,0.755952 0.06578,0.356359 0.213292,-0.356359 0.279069,0 0.06578,0.356359 -0.0416,1.061143 0,1.511906 0.02942,0.318738 0.110118,0.437213 0.139535,0.755952 0.0208,0.225382 -0.0208,0.530571 0,0.755954 0.02942,0.318735 0.110118,0.437213 0.139534,0.755951 0.0208,0.22538 0,0.503968 0,0.755952 0,0.251984 0,0.503968 0,0.755952 0,1.259922 0,2.519841 0,3.779763 0,0.755952 -0.03384,1.534475 0,2.267857 0.02522,0.54663 0.139535,0.94845 0.139535,1.511904 0,0.563454 -0.11431,0.965274 -0.139535,1.511906 -0.02256,0.48892 0,1.007935 0,1.511903 0,1.259922 0,2.519841 0,3.779763 0,0.277614 -0.0056,2.993388 0,3.023809 0.06578,0.35636 0.19082,-0.159369 0.27907,0 0.09867,0.178179 0.180403,0.577774 0.279068,0.755952 0.04413,0.07968 0.106646,-0.178178 0.139535,0 0.03289,0.178181 -0.03289,0.577773 0,0.755954 0.03289,0.178179 0.09302,0 0.139535,0 0.04651,0 0.09302,0 0.139534,0 0.511626,0 1.023253,0 1.53488,0 0.744183,0 1.488368,0 2.232553,0 0.139534,0 0.279068,0 0.418602,0 0.139536,0 0.281779,0.148254 0.418604,0 0.101983,-0.110503 0.178172,-0.619297 0.279068,-0.755954 0.09025,-0.12223 0.186047,0 0.27907,0 0.139534,0 0.279068,0 0.418604,0 0.09302,0 0.19082,0.159369 0.279068,0 0.0624,-0.112691 0.07713,-0.64326 0.139534,-0.755952 0.162727,-0.293864 0.646608,0.258152 0.837209,0 0.14269,-0.193262 0.275911,-0.562689 0.418602,-0.755951 0.04512,-0.06112 0.09302,0 0.139536,0 0.09302,0 0.186044,0 0.279068,0 0.325581,0 0.651161,0 0.976742,0 0.232557,0 0.465115,0 0.697672,0 0.139534,0 0.28623,-0.239054 0.418604,0 0.0624,0.112688 0.0807,0.596582 0.139534,0.755951 0.0416,0.112692 0.09302,0 0.139535,0 0.04651,0.251984 0.0807,0.596583 0.139534,0.755952 0.0416,0.112691 0.09793,-0.112691 0.139536,0 0.05883,0.159369 0.0807,0.596585 0.139534,0.755954 0.0416,0.112689 0.106645,-0.178181 0.139534,0 0.03289,0.178179 -0.03289,0.577771 0,0.755952 0.03289,0.178178 0.106647,-0.178181 0.139534,0 0.03289,0.178178 0,0.503968 0,0.755951 0,0.251984 0,0.503968 0,0.755952 0,2.267858 0,4.535715 0,6.803572 0,3.527773 0,7.055553 0,10.583333 0,0.18334 -0.0045,2.24355 0,2.26786 0.03289,0.17818 0.106647,-0.17818 0.139536,0 0.03289,0.17818 -0.03289,0.57777 0,0.75595 0.03289,0.17818 0.09302,0 0.139534,0 0.04651,0 0.09302,0 0.139534,0 0.511627,0 1.023253,0 1.53488,0 1.488368,0 2.976736,0 4.465104,0 0.558138,0 1.116276,0 1.674414,0 0.04651,0 0.09302,0 0.139534,0 0.04651,0 0.106647,-0.17818 0.139536,0 0.0063,0.0343 0,3.42333 0,3.77976 0,3.52778 0,7.05556 0,10.58334 0,0.25198 0,0.50396 0,0.75595 0,0.25198 -0.03289,0.57777 0,0.75595 0.03289,0.17818 0.106645,-0.17818 0.139534,0 0.03289,0.17818 -0.03289,0.57777 0,0.75595 0.03289,0.17818 0.09793,-0.11269 0.139534,0 0.05883,0.15937 0.0807,0.59659 0.139534,0.75596 0.0416,0.11268 0.09302,0 0.139534,0 0.09303,0 0.19082,-0.15937 0.27907,0 0.0624,0.11268 0.0807,0.59658 0.139534,0.75595 0.03127,0.0847 0.524982,0 0.558139,0 0.27907,0 0.558138,0 0.837208,0 0.186045,0 0.375703,0.19767 0.558138,0 0.144226,-0.15628 0.274376,-0.59968 0.418602,-0.75595 0.09122,-0.0988 0.186047,0 0.27907,0 0.186045,0 0.372092,0 0.558138,0 0.465115,0 0.93023,0 1.395345,0 0.372091,0 0.744185,0 1.116276,0 0.06284,0 0.376138,-0.11504 0.418604,0 0.344846,0.93413 -0.04816,0.75595 0.279068,0.75595 0.418604,0 0.837208,0 1.2558106,0 0.062841,0 0.3761394,-0.11503 0.4186041,0 0.058833,0.15937 0.080701,0.59658 0.1395341,0.75595 0.083204,0.22538 0.2132927,-0.35636 0.27907,0 0.032889,0.17818 -0.032889,0.57777 0,0.75595 0.032889,0.17818 0.1066454,-0.17818 0.1395341,0 0.032889,0.17818 0,0.50397 0,0.75595 0,0.34045 0.021232,2.0378 0,2.26786 -0.029417,0.31874 -0.1101174,0.43722 -0.1395341,0.75595 -0.0208,0.22538 0,0.50397 0,0.75596 0,0.50396 0.029417,1.03379 0,1.5119 -0.0208,0.33807 -0.1101192,0.43721 -0.1395359,0.75595 -0.020799,0.22539 0.020802,0.53057 0,0.75595 -0.029415,0.31874 -0.1187337,0.41788 -0.1395341,0.75596 0,3.44131 0.065777,0.0432 -0.1395341,2.26786 -0.041601,0.45076 0.041601,1.06114 0,1.5119 -0.029417,0.31874 -0.1101174,0.43722 -0.1395341,0.75595 -0.00952,0.10324 -0.00952,4.43247 0,4.53572 0.1270398,1.37652 0.1058481,0.44313 0.2790682,0.75595 0.098666,0.17818 0.180404,0.57777 0.27907,0.75595 0.044124,0.0797 0.093023,0 0.1395341,0 0.131418,0 0.6182968,-0.14334 0.6976722,0 0.062401,0.11269 0.077133,0.64326 0.1395359,0.75595 0.1323724,0.23906 0.2790682,0 0.4186023,0 0.27907,0 0.5581381,0 0.8372081,0 0.1395341,0 0.2862281,0.23906 0.4186022,0 0.062401,-0.11269 0.077133,-0.64326 0.1395341,-0.75595 0.08825,-0.15937 0.1860467,0 0.27907,0 0.27907,0 0.55814,0 0.83721,0 0.2790645,0 0.5581345,0 0.8372026,0 0.093025,0 0.1888246,0.12223 0.27907,0 0.1008976,-0.13666 0.180404,-0.57777 0.27907,-0.75595 0.1337013,-0.24146 0.5684046,0.23344 0.6976723,0 0.062403,-0.11269 0.077133,-0.64326 0.1395322,-0.75595 0.148274,-0.26776 0.4098697,0.26776 0.55814,0 0.098666,-0.17818 0.180404,-0.57778 0.27907,-0.75596 0.044124,-0.0797 0.097933,0.1127 0.1395322,0 0.058833,-0.15936 0.080703,-0.59658 0.1395359,-0.75595 0.1116273,-0.30238 0.3069769,0.30238 0.4186023,0 0.058835,-0.15937 0.080704,-0.59658 0.1395377,-0.75595 0.041599,-0.11269 0.1066455,0.17818 0.1395323,0 0.032887,-0.17818 -0.041599,-0.64326 0,-0.75595 0.1100749,-0.67615 0.29379954,0.33807 0.4186022,0 0.0588352,-0.15937 0.0771346,-0.64327 0.13953777,-0.75595 0.0882482,-0.15937 0.18604482,0 0.27907,0 0.0465071,0 0.13953223,-0.25199 0.13953223,0 0,0.25198 -0.10664542,0.17817 -0.13953223,0 -0.0328923,-0.17819 0,-0.50398 0,-0.75596"
       id="path3725"
       inkscape:connector-curvature="0" />
    <path
       style="fill:none;stroke:#000000;stroke-width:1;stroke-linecap:butt;stroke-linejoin:miter;stroke-miterlimit:4;stroke-dasharray:none;stroke-opacity:1"
       d="m -1.1404008,147.32143 c -0.139536,-2.77183 -0.3145982,-5.49821 -0.4186023,-8.31548 -0.012902,-0.34944 0.084806,0.55828 0.1395323,0.75595 0.70490039,2.54595 0.00323,0.006 0.4186022,0.75595 0.098666,0.17819 0.18040402,0.57778 0.27907,0.75596 0.14827399,0.26776 0.4098697,-0.26776 0.55814,0 0.09866597,0.17818 0.18040402,0.57777 0.27907,0.75595 0.0959748,0.17332 0.33627168,-0.22301 0.41860223,0 0.0588334,0.15937 0.0807025,0.59658 0.13953777,0.75595 0.0831981,0.22538 0.21329083,-0.35636 0.27906446,0 0.0328905,0.17818 -0.0328868,0.57778 0,0.75596 0.0657773,0.35636 0.21329454,-0.35637 0.27907004,0 0.03289,0.17817 0,0.50396 0,0.75595 0,1.77284 0.03289,-0.35636 -0.1395341,1.5119 -0.020799,0.22538 0.0208,0.53057 0,0.75596 -0.079984,0.86663 -0.29114162,1.05153 -0.4186004,1.5119 -0.17764085,0.64158 -0.3862101,2.3252 -0.55814,3.02381 -0.22593464,0.91803 -0.27634559,0.35582 -0.41860223,1.5119 -0.0576908,0.46882 -0.0659933,1.11349 -0.13953777,1.51191 -0.0328868,0.17818 -0.0979332,-0.11269 -0.13953223,0 -0.13730619,0.37194 -0.42083377,2.65187 -0.55813997,3.02381 -0.041599,0.11269 -0.097933,-0.11269 -0.1395323,0 -0.1674427,0.45357 -0.2511631,1.81428 -0.4186059,2.26786 -0.041601,0.11268 -0.1066454,-0.17819 -0.1395341,0 -0.032887,0.17817 0.032889,0.57777 0,0.75595 -0.032887,0.17818 -0.1066454,-0.17818 -0.1395359,0 -0.032887,0.17818 0.03289,0.57777 0,0.75595 -0.032887,0.17818 -0.1066454,-0.17818 -0.1395322,0 -0.032887,0.17818 0.032887,0.57777 0,0.75595 -0.032887,0.17818 -0.1066454,-0.17818 -0.1395322,0 -0.032892,0.17818 0.046507,0.75596 0,0.75596 -0.046513,0 0,-0.50398 0,-0.75596 0,-0.25198 -0.018052,-0.52371 0,-0.75595 0.3555234,-4.57455 0.7441792,-9.07143 1.1162726,-13.60714"
       id="path3727"
       inkscape:connector-curvature="0" />
    <path
       style="fill:none;stroke:#000000;stroke-width:1;stroke-linecap:butt;stroke-linejoin:miter;stroke-miterlimit:4;stroke-dasharray:none;stroke-opacity:1"
       d="m 1.1826281,26.917561 c 0.186046,-0.755952 0.350132,-1.704403 0.558138,-2.267857 0.0832,-0.225381 0.186046,0 0.279069,0 0.09302,0 0.186046,0 0.279069,0 0.325581,0 0.651161,0 0.976742,0 0.93023,0 1.86046,0 2.79069,0 0.279069,0 0.558138,0 0.837207,0 0.09302,0 0.186046,0 0.279069,0 0.04651,0 0.09541,0.07969 0.139534,0 0.09867,-0.178179 0.178172,-0.619295 0.27907,-0.755952 0.09025,-0.12223 0.190819,0.159368 0.279068,0 0.0624,-0.112691 0.07713,-0.643262 0.139535,-0.755953 0.08825,-0.159368 0.19082,0.159369 0.279069,0 0.0624,-0.11269 0.0848,-0.558279 0.139534,-0.755952 0.231177,-0.834961 0.31691,-0.755952 0.558139,-0.755952 0.04651,0 0.09302,0 0.139534,0 0.04651,0 0.106646,-0.17818 0.139535,0 0.03289,0.178179 0,0.503968 0,0.755952 0,1.259921 0,2.519841 0,3.779762 0,4.283731 0,8.56746 0,12.851191 0,2.015873 0,4.031744 0,6.047618 0,0.503968 0,1.007935 0,1.511906 0,0.503968 -0.02942,1.033798 0,1.511903 0.0208,0.338074 0.110118,0.437216 0.139534,0.755954 0.02766,0.299728 -0.02853,2.113312 0,2.267855 0.03289,0.178181 0.09302,0 0.139535,0 0.04651,0 0.09302,0 0.139534,0 0.09302,0 0.186046,0 0.279069,0 0.04651,0 0.09441,0.06112 0.1395349,0 0.142691,-0.193262 0.273522,-0.624951 0.418603,-0.755951 0.137636,-0.124278 0.281779,0.148254 0.418604,0 0.101983,-0.110503 0.177087,-0.645451 0.279069,-0.755952 0.223614,-0.242292 0.474059,0.242292 0.697672,0 0.144226,-0.156273 0.275914,-0.562689 0.418604,-0.755952 0.121984,-0.165219 0.764244,0.197644 0.837207,0 0.05883,-0.159369 0.0807,-0.596585 0.139535,-0.755954 0.0416,-0.112691 0.09302,0 0.139534,0 0.09302,0 0.19082,0.159369 0.279069,0 0.0624,-0.112691 0.0807,-0.596582 0.139535,-0.755952 0.111628,-0.302381 0.306977,0.302382 0.418603,0 0.05883,-0.159369 0.07713,-0.643262 0.139535,-0.755951 0.07072,-0.127714 0.862674,0 0.976741,0 0.04651,0 0.09302,0 0.139535,0 0.04651,0 0.09793,0.112689 0.139534,0 0.05883,-0.159369 0.07713,-0.643263 0.139535,-0.755954 0.02651,-0.04788 0.93972,-0.100285 0.976743,0 0.273912,0.741984 0.06282,1.436608 0.139533,2.267857 0.02942,0.318738 0.09302,0.503968 0.139535,0.755954 0,0.503968 -0.02256,1.022983 0,1.511904 0.02523,0.546632 0.106645,0.977365 0.139534,1.511906 0.01471,0.239051 -0.01471,0.516898 0,0.755951 0.03653,0.593768 0.242537,2.430042 0.279069,3.023809 0.01471,0.239054 -0.01471,0.516901 0,0.755952 0.03289,0.53454 0.11431,0.965274 0.139536,1.511906 0.02256,0.488921 0,1.007935 0,1.511906 0,0.786132 -0.02744,3.941069 0,4.535712 0.02522,0.546632 0.106645,0.977366 0.139533,1.511906 0.02745,0.446106 0,3.357391 0,3.779761 0,0.251984 -0.03289,0.577773 0,0.755954 0.03289,0.178179 0.106647,-0.178181 0.139536,0 0.03289,0.178179 -0.03289,0.577771 0,0.755952 0.109076,0.590947 0.242741,-0.657548 0.279069,-0.755952 0.0416,-0.112691 0.09302,0 0.139533,0 0.09302,0 0.190821,0.159367 0.279069,0 0.615936,-1.112313 -0.506952,-0.755954 0.418605,-0.755954 0.139533,0 0.283234,0.183346 0.418602,0 0.100899,-0.136657 0.178172,-0.619294 0.279069,-0.755952 0.09025,-0.122229 0.188825,0.12223 0.279069,0 0.647798,-1.754775 -0.08031,-0.06417 0.558138,-0.755951 0.601072,-0.651283 0.236137,-0.860624 0.837207,-1.511906 0.09122,-0.09883 0.187854,0.09884 0.279071,0 0.144224,-0.156274 0.273522,-0.624951 0.418602,-0.755952 0.137636,-0.124277 0.280968,0.124278 0.418604,0 0.145081,-0.131 0.274377,-0.599678 0.418603,-0.755952 0.09122,-0.09884 0.187852,0.09883 0.279069,0 0.144227,-0.156276 0.273524,-0.624953 0.418605,-0.755954 0.137635,-0.124277 0.280966,0.124278 0.418602,0 0.145082,-0.131 0.273524,-0.624951 0.418605,-0.755951 0.275272,-0.248555 0.561935,0.248554 0.837207,0 0.14508,-0.131001 0.273522,-0.624952 0.418602,-0.755952 0.229395,-0.207132 0.465117,0 0.697674,0 0.418603,0 0.837207,0 1.255811,0 0.04651,0 0.09302,0 0.139533,0 0.04651,0 0.106646,-0.178181 0.139534,0 0.03289,0.178178 -0.03289,0.577771 0,0.755952 0.03289,0.178178 0.09793,-0.112692 0.139536,0 0.05883,0.159369 0.0807,0.596582 0.139536,0.755951 0.0416,0.112692 0.09793,-0.112691 0.139533,0 0.05883,0.159369 0.0807,0.596585 0.139533,0.755954 0.0832,0.225381 0.213292,-0.356361 0.27907,0 0.03289,0.178179 -0.03289,0.577771 0,0.755952 0.06578,0.356359 0.213293,-0.356359 0.279069,0 0.03289,0.178178 -0.03289,0.577773 0,0.755952 0.03289,0.178181 0.106645,-0.178179 0.139536,0 0.03289,0.178181 -0.03289,0.577773 0,0.755951 0.06578,0.35636 0.213291,-0.356359 0.279066,0 0.06578,0.35636 -0.0416,1.061144 0,1.511906 0.02942,0.318739 0.11012,0.437214 0.139536,0.755952 0.0208,0.225383 -0.0208,0.530571 0,0.755954 0.02942,0.318736 0.110117,0.437214 0.139534,0.755952 0.0208,0.22538 0,0.503968 0,0.755951 0,0.251984 0,0.503968 0,0.755952 0,1.259922 0,2.519841 0,3.779763 0,0.755952 -0.03384,1.534475 0,2.267858 0.02521,0.546629 0.139536,0.948449 0.139536,1.511903 0,0.563455 -0.114311,0.965275 -0.139536,1.511907 -0.02257,0.488921 0,1.007936 0,1.511903 0,1.259922 0,2.519842 0,3.779764 0,0.277614 -0.0056,2.993387 0,3.023809 0.06578,0.356359 0.19082,-0.159369 0.279072,0 0.09867,0.178178 0.1804,0.577773 0.279066,0.755952 0.04413,0.07968 0.106646,-0.178179 0.139536,0 0.03289,0.178181 -0.03289,0.577773 0,0.755954 0.03289,0.178178 0.09302,0 0.139533,0 0.04651,0 0.09302,0 0.139536,0 0.511625,0 1.023253,0 1.53488,0 0.744183,0 1.488369,0 2.232552,0 0.139536,0 0.279069,0 0.418602,0 0.139536,0 0.281779,0.148254 0.418605,0 0.101981,-0.110503 0.178171,-0.619297 0.279067,-0.755954 0.09025,-0.12223 0.186047,0 0.279069,0 0.139536,0 0.27907,0 0.418606,0 0.09302,0 0.19082,0.159369 0.279069,0 0.0624,-0.112692 0.07713,-0.643261 0.139533,-0.755952 0.162727,-0.293865 0.646607,0.258151 0.837208,0 0.14269,-0.193262 0.275913,-0.562689 0.418603,-0.755952 0.04512,-0.06112 0.09302,0 0.139536,0 0.09302,0 0.186044,0 0.279069,0 0.32558,0 0.651161,0 0.976741,0 0.232555,0 0.465114,0 0.697672,0 0.139533,0 0.286229,-0.239053 0.418605,0 0.0624,0.112689 0.0807,0.596583 0.139533,0.755952 0.0416,0.112691 0.09302,0 0.139534,0 0.04651,0.251984 0.0807,0.596582 0.139536,0.755952 0.0416,0.112691 0.09793,-0.112692 0.139536,0 0.05883,0.159369 0.0807,0.596585 0.139533,0.755954 0.0416,0.112689 0.106645,-0.178181 0.139533,0 0.03289,0.178178 -0.03289,0.57777 0,0.755951 0.03289,0.178179 0.106648,-0.178181 0.139533,0 0.03289,0.178179 0,0.503968 0,0.755952 0,0.251984 0,0.503968 0,0.755952 0,2.267857 0,4.535715 0,6.803569 0,3.52778 0,7.05556 0,10.58334 0,0.18334 -0.0045,2.24355 0,2.26786 0.03289,0.17818 0.106649,-0.17818 0.139536,0 0.03289,0.17818 -0.03289,0.57777 0,0.75595 0.03289,0.17818 0.09302,0 0.139536,0 0.04651,0 0.09302,0 0.139534,0 0.511627,0 1.023252,0 1.534879,0 1.488369,0 2.976737,0 4.465106,0 0.558136,0 1.116276,0 1.674416,0 0.0465,0 0.093,0 0.13953,0 0.0465,0 0.10665,-0.17818 0.13954,0 0.006,0.0343 0,3.42333 0,3.77976 0,3.52778 0,7.05556 0,10.58334 0,0.25198 0,0.50396 0,0.75595 0,0.25198 -0.0329,0.57777 0,0.75595 0.0329,0.17818 0.10664,-0.17818 0.13953,0 0.0329,0.17818 -0.0329,0.57777 0,0.75595 0.0329,0.17818 0.0979,-0.11269 0.13954,0 0.0588,0.15937 0.0807,0.59659 0.13953,0.75596 0.0416,0.11268 0.093,0 0.13953,0 0.093,0 0.19082,-0.15937 0.27907,0 0.0624,0.11268 0.0807,0.59658 0.13954,0.75595 0.0313,0.0847 0.52498,0 0.55814,0 0.27907,0 0.55814,0 0.8372,0 0.18605,0 0.37571,0.19767 0.55814,0 0.14423,-0.15628 0.27438,-0.59968 0.41861,-0.75595 0.0912,-0.0988 0.18604,0 0.27906,0 0.18605,0 0.3721,0 0.55814,0 0.46512,0 0.93023,0 1.39535,0 0.37209,0 0.74418,0 1.11627,0 0.0628,0 0.37614,-0.11504 0.41861,0 0.34484,0.93413 -0.0482,0.75595 0.27907,0.75595 0.4186,0 0.8372,0 1.25581,0 0.0628,0 0.37614,-0.11503 0.4186,0 0.0588,0.15937 0.0807,0.59658 0.13953,0.75595 0.0832,0.22538 0.2133,-0.35636 0.27907,0 0.0329,0.17818 -0.0329,0.57777 0,0.75595 0.0329,0.17818 0.10665,-0.17818 0.13954,0 0.0329,0.17818 0,0.50397 0,0.75595 0,0.34045 0.0212,2.0378 0,2.26786 -0.0294,0.31874 -0.11012,0.43722 -0.13954,0.75595 -0.0208,0.22538 0,0.50397 0,0.75596 0,0.50396 0.0294,1.03379 0,1.5119 -0.0208,0.33807 -0.11012,0.43721 -0.13953,0.75595 -0.0208,0.22539 0.0208,0.53057 0,0.75595 -0.0294,0.31874 -0.11874,0.41788 -0.13954,0.75596 0,3.44131 0.0658,0.0432 -0.13953,2.26786 -0.0416,0.45076 0.0416,1.06114 0,1.5119 -0.0294,0.31874 -0.11012,0.43722 -0.13953,0.75595 -0.01,0.10324 -0.01,4.43247 0,4.53572 0.12703,1.37652 0.10584,0.44313 0.27906,0.75595 0.0987,0.17818 0.18041,0.57777 0.27907,0.75595 0.0441,0.0797 0.093,0 0.13954,0 0.13142,0 0.61829,-0.14334 0.69767,0 0.0624,0.11269 0.0771,0.64326 0.13953,0.75595 0.13238,0.23906 0.27907,0 0.41861,0 0.27907,0 0.55814,0 0.83721,0 0.13953,0 0.28622,0.23906 0.4186,0 0.0624,-0.11269 0.0771,-0.64326 0.13953,-0.75595 0.0883,-0.15937 0.18605,0 0.27907,0 0.27907,0 0.55814,0 0.83721,0 0.27907,0 0.55814,0 0.83721,0 0.093,0 0.18882,0.12223 0.27907,0 0.10089,-0.13666 0.1804,-0.57777 0.27906,-0.75595 0.13371,-0.24146 0.56841,0.23344 0.69768,0 0.0624,-0.11269 0.0771,-0.64326 0.13953,-0.75595 0.14827,-0.26776 0.40987,0.26776 0.55814,0 0.0987,-0.17818 0.1804,-0.57778 0.27907,-0.75596 0.0441,-0.0797 0.0979,0.1127 0.13953,0 0.0588,-0.15936 0.0807,-0.59658 0.13954,-0.75595 0.11162,-0.30238 0.30697,0.30238 0.4186,0 0.0588,-0.15937 0.0807,-0.59658 0.13954,-0.75595 0.0416,-0.11269 0.10664,0.17818 0.13953,0 0.0329,-0.17818 -0.0416,-0.64326 0,-0.75595 0.11008,-0.67615 0.2938,0.33807 0.4186,0 0.0588,-0.15937 0.0771,-0.64327 0.13954,-0.75595 0.0883,-0.15937 0.18604,0 0.27907,0 0.0465,0 0.13953,-0.25199 0.13953,0 0,0.25198 -0.10664,0.17817 -0.13953,0 -0.0329,-0.17819 0,-0.50398 0,-0.75596"
       id="path3725-6"
       inkscape:connector-curvature="0" />
    <path
       style="fill:none;stroke:#000000;stroke-width:1;stroke-linecap:butt;stroke-linejoin:miter;stroke-miterlimit:4;stroke-dasharray:none;stroke-opacity:1"
       d="m 67.321988,147.86995 c -0.13953,-2.77183 -0.3146,-5.49821 -0.4186,-8.31548 -0.0129,-0.34944 0.0848,0.55828 0.13953,0.75595 0.7049,2.54595 0.003,0.006 0.4186,0.75595 0.0987,0.17819 0.18041,0.57778 0.27907,0.75596 0.14828,0.26776 0.40987,-0.26776 0.55814,0 0.0987,0.17818 0.18041,0.57777 0.27907,0.75595 0.096,0.17332 0.33627,-0.22301 0.4186,0 0.0588,0.15937 0.0807,0.59658 0.13954,0.75595 0.0832,0.22538 0.21329,-0.35636 0.27907,0 0.0329,0.17818 -0.0329,0.57778 0,0.75596 0.0658,0.35636 0.21329,-0.35637 0.27907,0 0.0329,0.17817 0,0.50396 0,0.75595 0,1.77284 0.0329,-0.35636 -0.13954,1.5119 -0.0208,0.22538 0.0208,0.53057 0,0.75596 -0.08,0.86663 -0.29114,1.05153 -0.4186,1.5119 -0.17764,0.64158 -0.38621,2.3252 -0.55814,3.02381 -0.22593,0.91803 -0.27634,0.35582 -0.4186,1.5119 -0.0577,0.46882 -0.066,1.11349 -0.13954,1.51191 -0.0329,0.17818 -0.0979,-0.11269 -0.13953,0 -0.13731,0.37194 -0.42083,2.65187 -0.55814,3.02381 -0.0416,0.11269 -0.0979,-0.11269 -0.13953,0 -0.16744,0.45357 -0.25117,1.81428 -0.41861,2.26786 -0.0416,0.11268 -0.10664,-0.17819 -0.13953,0 -0.0329,0.17817 0.0329,0.57777 0,0.75595 -0.0329,0.17818 -0.10665,-0.17818 -0.13954,0 -0.0329,0.17818 0.0329,0.57777 0,0.75595 -0.0329,0.17818 -0.10664,-0.17818 -0.13953,0 -0.0329,0.17818 0.0329,0.57777 0,0.75595 -0.0329,0.17818 -0.10665,-0.17818 -0.13953,0 -0.0329,0.17818 0.0465,0.75596 0,0.75596 -0.0465,0 0,-0.50398 0,-0.75596 0,-0.25198 -0.0181,-0.52371 0,-0.75595 0.35552,-4.57455 0.74418,-9.07143 1.11627,-13.60714"
       id="path3727-2"
       inkscape:connector-curvature="0" />
    <path
       style="fill:none;stroke:#000000;stroke-width:1;stroke-linecap:butt;stroke-linejoin:miter;stroke-miterlimit:4;stroke-dasharray:none;stroke-opacity:1"
       d="m 69.218343,28.429467 c 0.186046,-0.755952 0.350132,-1.704403 0.558138,-2.267857 0.0832,-0.225381 0.186046,0 0.279069,0 0.09302,0 0.186046,0 0.279069,0 0.325581,0 0.651161,0 0.976742,0 0.93023,0 1.86046,0 2.79069,0 0.279069,0 0.558138,0 0.837207,0 0.09302,0 0.186046,0 0.279069,0 0.04651,0 0.09541,0.07969 0.139534,0 0.09867,-0.178179 0.178172,-0.619295 0.27907,-0.755952 0.09025,-0.12223 0.190819,0.159368 0.279068,0 0.0624,-0.112691 0.07713,-0.643262 0.139535,-0.755953 0.08825,-0.159368 0.19082,0.159369 0.279069,0 0.0624,-0.11269 0.0848,-0.558279 0.139534,-0.755952 0.231177,-0.834961 0.31691,-0.755952 0.558139,-0.755952 0.04651,0 0.09302,0 0.139534,0 0.04651,0 0.106646,-0.17818 0.139535,0 0.03289,0.178179 0,0.503968 0,0.755952 0,1.259921 0,2.519841 0,3.779762 0,4.283731 0,8.56746 0,12.851191 0,2.015873 0,4.031744 0,6.047618 0,0.503968 0,1.007935 0,1.511906 0,0.503968 -0.02942,1.033798 0,1.511903 0.0208,0.338074 0.110118,0.437216 0.139534,0.755954 0.02766,0.299728 -0.02853,2.113312 0,2.267855 0.03289,0.178181 0.09302,0 0.139535,0 0.04651,0 0.09302,0 0.139534,0 0.09302,0 0.186046,0 0.279069,0 0.04651,0 0.09441,0.06112 0.139535,0 0.142691,-0.193262 0.273522,-0.624951 0.418603,-0.755951 0.137636,-0.124278 0.281779,0.148254 0.418604,0 0.101983,-0.110503 0.177087,-0.645451 0.279069,-0.755952 0.223614,-0.242292 0.474059,0.242292 0.697672,0 0.144226,-0.156273 0.275914,-0.562689 0.418604,-0.755952 0.121984,-0.165219 0.764244,0.197644 0.837207,0 0.05883,-0.159369 0.0807,-0.596585 0.139535,-0.755954 0.0416,-0.112691 0.09302,0 0.139534,0 0.09302,0 0.19082,0.159369 0.279069,0 0.0624,-0.112691 0.0807,-0.596582 0.139535,-0.755952 0.111628,-0.302381 0.306977,0.302382 0.418603,0 0.05883,-0.159369 0.07713,-0.643262 0.139535,-0.755951 0.07072,-0.127714 0.862674,0 0.976741,0 0.04651,0 0.09302,0 0.139535,0 0.04651,0 0.09793,0.112689 0.139534,0 0.05883,-0.159369 0.07713,-0.643263 0.139535,-0.755954 0.02651,-0.04788 0.93972,-0.100285 0.976743,0 0.273912,0.741984 0.06282,1.436608 0.139533,2.267857 0.02942,0.318738 0.09302,0.503968 0.139535,0.755954 0,0.503968 -0.02256,1.022983 0,1.511904 0.02523,0.546632 0.106645,0.977365 0.139534,1.511906 0.01471,0.239051 -0.01471,0.516898 0,0.755951 0.03653,0.593768 0.242537,2.430042 0.279069,3.023809 0.01471,0.239054 -0.01471,0.516901 0,0.755952 0.03289,0.53454 0.11431,0.965274 0.139536,1.511906 0.02256,0.488921 0,1.007935 0,1.511906 0,0.786132 -0.02744,3.941069 0,4.535712 0.02522,0.546632 0.106645,0.977366 0.139533,1.511906 0.02745,0.446106 0,3.357391 0,3.779761 0,0.251984 -0.03289,0.577773 0,0.755954 0.03289,0.178179 0.106647,-0.178181 0.139536,0 0.03289,0.178179 -0.03289,0.577771 0,0.755952 0.109076,0.590947 0.242741,-0.657548 0.279069,-0.755952 0.0416,-0.112691 0.09302,0 0.139533,0 0.09302,0 0.190821,0.159367 0.279069,0 0.615936,-1.112313 -0.506952,-0.755954 0.418605,-0.755954 0.139533,0 0.283234,0.183346 0.418602,0 0.100899,-0.136657 0.178172,-0.619294 0.279069,-0.755952 0.09025,-0.122229 0.188825,0.12223 0.279069,0 0.647798,-1.754775 -0.08031,-0.06417 0.558138,-0.755951 0.601072,-0.651283 0.236137,-0.860624 0.837207,-1.511906 0.09122,-0.09883 0.187854,0.09884 0.279071,0 0.144224,-0.156274 0.273522,-0.624951 0.418602,-0.755952 0.137636,-0.124277 0.280968,0.124278 0.418604,0 0.145081,-0.131 0.274377,-0.599678 0.418603,-0.755952 0.09122,-0.09884 0.187852,0.09883 0.279069,0 0.144227,-0.156276 0.273524,-0.624953 0.418605,-0.755954 0.137635,-0.124277 0.280966,0.124278 0.418602,0 0.145082,-0.131 0.273524,-0.624951 0.418605,-0.755951 0.275272,-0.248555 0.561935,0.248554 0.837207,0 0.14508,-0.131001 0.273522,-0.624952 0.418602,-0.755952 0.229395,-0.207132 0.465117,0 0.697674,0 0.418603,0 0.837207,0 1.255811,0 0.04651,0 0.09302,0 0.139533,0 0.04651,0 0.106646,-0.178181 0.139534,0 0.03289,0.178178 -0.03289,0.577771 0,0.755952 0.03289,0.178178 0.09793,-0.112692 0.139536,0 0.05883,0.159369 0.0807,0.596582 0.139536,0.755951 0.0416,0.112692 0.09793,-0.112691 0.139533,0 0.05883,0.159369 0.0807,0.596585 0.139533,0.755954 0.0832,0.225381 0.213292,-0.356361 0.27907,0 0.03289,0.178179 -0.03289,0.577771 0,0.755952 0.06578,0.356359 0.213293,-0.356359 0.279069,0 0.03289,0.178178 -0.03289,0.577773 0,0.755952 0.03289,0.178181 0.106645,-0.178179 0.139536,0 0.03289,0.178181 -0.03289,0.577773 0,0.755951 0.06578,0.35636 0.213291,-0.356359 0.279066,0 0.06578,0.35636 -0.0416,1.061144 0,1.511906 0.02942,0.318739 0.11012,0.437214 0.139536,0.755952 0.0208,0.225383 -0.0208,0.530571 0,0.755954 0.02942,0.318736 0.110117,0.437214 0.139534,0.755952 0.0208,0.22538 0,0.503968 0,0.755951 0,0.251984 0,0.503968 0,0.755952 0,1.259922 0,2.519841 0,3.779763 0,0.755952 -0.03384,1.534475 0,2.267858 0.02521,0.546629 0.139536,0.948449 0.139536,1.511903 0,0.563454 -0.114311,0.965274 -0.139536,1.511906 -0.02257,0.488921 0,1.007936 0,1.511903 0,1.259922 0,2.519842 0,3.77976 0,0.27762 -0.0056,2.99339 0,3.02381 0.06578,0.35636 0.19082,-0.15937 0.279072,0 0.09867,0.17818 0.1804,0.57778 0.279066,0.75595 0.04413,0.0797 0.106646,-0.17817 0.139536,0 0.03289,0.17819 -0.03289,0.57778 0,0.75596 0.03289,0.17818 0.09302,0 0.139533,0 0.04651,0 0.09302,0 0.139536,0 0.511625,0 1.023253,0 1.534879,0 0.74418,0 1.48837,0 2.23255,0 0.13954,0 0.27907,0 0.4186,0 0.13954,0 0.28178,0.14825 0.41861,0 0.10198,-0.1105 0.17817,-0.6193 0.27907,-0.75596 0.0902,-0.12223 0.18604,0 0.27907,0 0.13953,0 0.27907,0 0.4186,0 0.093,0 0.19082,0.15937 0.27907,0 0.0624,-0.11269 0.0771,-0.64326 0.13953,-0.75595 0.16273,-0.29386 0.64661,0.25815 0.83721,0 0.14269,-0.19326 0.27591,-0.56269 0.4186,-0.75595 0.0451,-0.0611 0.093,0 0.13954,0 0.093,0 0.18604,0 0.27907,0 0.32558,0 0.65116,0 0.97674,0 0.23256,0 0.46511,0 0.69767,0 0.13954,0 0.28623,-0.23905 0.41861,0 0.0624,0.11269 0.0807,0.59658 0.13953,0.75595 0.0416,0.11269 0.093,0 0.13953,0 0.0465,0.25199 0.0807,0.59658 0.13954,0.75595 0.0416,0.1127 0.0979,-0.11269 0.13954,0 0.0588,0.15937 0.0807,0.59659 0.13953,0.75596 0.0416,0.11269 0.10664,-0.17818 0.13953,0 0.0329,0.17818 -0.0329,0.57777 0,0.75595 0.0329,0.17818 0.10665,-0.17818 0.13954,0 0.0329,0.17818 0,0.50397 0,0.75595 0,0.25199 0,0.50397 0,0.75595 0,2.26786 0,4.53572 0,6.803578 0,3.52777 0,7.05555 0,10.58333 0,0.18334 -0.004,2.24355 0,2.26786 0.0329,0.17818 0.10664,-0.17818 0.13953,0 0.0329,0.17818 -0.0329,0.57777 0,0.75595 0.0329,0.17818 0.093,0 0.13954,0 0.0465,0 0.093,0 0.13953,0 0.51163,0 1.02325,0 1.53488,0 1.48837,0 2.97674,0 4.46511,0 0.55813,0 1.11627,0 1.67441,0 0.0465,0 0.093,0 0.13953,0 0.0465,0 0.10665,-0.17818 0.13954,0 0.006,0.0343 0,3.42333 0,3.77976 0,3.52778 0,7.05556 0,10.58334 0,0.25198 0,0.50396 0,0.75595 0,0.25198 -0.0329,0.57777 0,0.75595 0.0329,0.17818 0.10664,-0.17818 0.13953,0 0.0329,0.17818 -0.0329,0.57777 0,0.75595 0.0329,0.17818 0.0979,-0.11269 0.13954,0 0.0588,0.15937 0.0807,0.59659 0.13953,0.75596 0.0416,0.11268 0.093,0 0.13953,0 0.093,0 0.19082,-0.15937 0.27908,0 0.0624,0.11268 0.0807,0.59658 0.13953,0.75595 0.0313,0.0847 0.52498,0 0.55814,0 0.27907,0 0.55814,0 0.83721,0 0.18604,0 0.3757,0.19767 0.55813,0 0.14423,-0.15628 0.27438,-0.59968 0.41861,-0.75595 0.0912,-0.0988 0.18604,0 0.27907,0 0.18604,0 0.37209,0 0.55814,0 0.46511,0 0.93023,0 1.39534,0 0.37209,0 0.74418,0 1.11628,0 0.0628,0 0.37613,-0.11504 0.4186,0 0.34485,0.93413 -0.0482,0.75595 0.27907,0.75595 0.4186,0 0.83721,0 1.25581,0 0.0628,0 0.37614,-0.11503 0.4186,0 0.0588,0.15937 0.0807,0.59658 0.13954,0.75595 0.0832,0.22538 0.21329,-0.35636 0.27907,0 0.0329,0.17818 -0.0329,0.57777 0,0.75595 0.0329,0.17818 0.10664,-0.17818 0.13953,0 0.0329,0.17818 0,0.50397 0,0.75595 0,0.34045 0.0213,2.0378 0,2.26786 -0.0294,0.31874 -0.11012,0.43722 -0.13953,0.75595 -0.0208,0.22538 0,0.50397 0,0.75596 0,0.50396 0.0294,1.03379 0,1.5119 -0.0208,0.33807 -0.11012,0.43721 -0.13954,0.75595 -0.0208,0.22539 0.0208,0.53057 0,0.75595 -0.0294,0.31874 -0.11873,0.41788 -0.13953,0.75596 0,3.44131 0.0658,0.0432 -0.13954,2.26786 -0.0416,0.45076 0.0416,1.06114 0,1.5119 -0.0294,0.31874 -0.11012,0.43722 -0.13953,0.75595 -0.01,0.10324 -0.01,4.43247 0,4.53572 0.12704,1.37652 0.10585,0.44313 0.27907,0.75595 0.0987,0.17818 0.1804,0.57777 0.27907,0.75595 0.0441,0.0797 0.093,0 0.13953,0 0.13142,0 0.6183,-0.14334 0.69767,0 0.0624,0.11269 0.0771,0.64326 0.13954,0.75595 0.13237,0.23906 0.27907,0 0.4186,0 0.27907,0 0.55814,0 0.83721,0 0.13953,0 0.28623,0.23906 0.4186,0 0.0624,-0.11269 0.0771,-0.64326 0.13954,-0.75595 0.0882,-0.15937 0.18604,0 0.27907,0 0.27906,0 0.55813,0 0.83721,0 0.27906,0 0.55813,0 0.8372,0 0.093,0 0.18882,0.12223 0.27907,0 0.1009,-0.13666 0.1804,-0.57777 0.27907,-0.75595 0.1337,-0.24146 0.5684,0.23344 0.69767,0 0.0624,-0.11269 0.0771,-0.64326 0.13953,-0.75595 0.14828,-0.26776 0.40987,0.26776 0.55814,0 0.0987,-0.17818 0.18041,-0.57778 0.27907,-0.75596 0.0441,-0.0797 0.0979,0.1127 0.13953,0 0.0588,-0.15936 0.0807,-0.59658 0.13954,-0.75595 0.11163,-0.30238 0.30698,0.30238 0.4186,0 0.0588,-0.15937 0.0807,-0.59658 0.13954,-0.75595 0.0416,-0.11269 0.10665,0.17818 0.13953,0 0.0329,-0.17818 -0.0416,-0.64326 0,-0.75595 0.11008,-0.67615 0.2938,0.33807 0.4186,0 0.0588,-0.15937 0.0771,-0.64327 0.13954,-0.75595 0.0882,-0.15937 0.18605,0 0.27907,0 0.0465,0 0.13953,-0.25199 0.13953,0 0,0.25198 -0.10664,0.17817 -0.13953,0 -0.0329,-0.17819 0,-0.50398 0,-0.75596"
       id="path3725-9"
       inkscape:connector-curvature="0" />
    <path
       style="fill:none;stroke:#000000;stroke-width:1;stroke-linecap:butt;stroke-linejoin:miter;stroke-miterlimit:4;stroke-dasharray:none;stroke-opacity:1"
       d="m 135.3577,149.38185 c -0.13953,-2.77183 -0.3146,-5.49821 -0.4186,-8.31548 -0.0129,-0.34944 0.0848,0.55828 0.13953,0.75595 0.7049,2.54595 0.003,0.006 0.4186,0.75595 0.0987,0.17819 0.18041,0.57778 0.27907,0.75596 0.14828,0.26776 0.40987,-0.26776 0.55814,0 0.0987,0.17818 0.18041,0.57777 0.27907,0.75595 0.096,0.17332 0.33628,-0.22301 0.41861,0 0.0588,0.15937 0.0807,0.59658 0.13954,0.75595 0.0832,0.22538 0.21329,-0.35636 0.27906,0 0.0329,0.17818 -0.0329,0.57778 0,0.75596 0.0658,0.35636 0.21329,-0.35637 0.27907,0 0.0329,0.17817 0,0.50396 0,0.75595 0,1.77284 0.0329,-0.35636 -0.13954,1.5119 -0.0208,0.22538 0.0208,0.53057 0,0.75596 -0.08,0.86663 -0.29114,1.05153 -0.41859,1.5119 -0.17765,0.64158 -0.38621,2.3252 -0.55815,3.02381 -0.22593,0.91803 -0.27634,0.35582 -0.4186,1.5119 -0.0577,0.46882 -0.066,1.11349 -0.13953,1.51191 -0.0329,0.17818 -0.0979,-0.11269 -0.13954,0 -0.1373,0.37194 -0.42083,2.65187 -0.55814,3.02381 -0.0416,0.11269 -0.0979,-0.11269 -0.13953,0 -0.16744,0.45357 -0.25116,1.81428 -0.41861,2.26786 -0.0416,0.11268 -0.10664,-0.17819 -0.13953,0 -0.0329,0.17817 0.0329,0.57777 0,0.75595 -0.0329,0.17818 -0.10664,-0.17818 -0.13954,0 -0.0329,0.17818 0.0329,0.57777 0,0.75595 -0.0329,0.17818 -0.10664,-0.17818 -0.13953,0 -0.0329,0.17818 0.0329,0.57777 0,0.75595 -0.0329,0.17818 -0.10664,-0.17818 -0.13953,0 -0.0329,0.17818 0.0465,0.75596 0,0.75596 -0.0465,0 0,-0.50398 0,-0.75596 0,-0.25198 -0.0181,-0.52371 0,-0.75595 0.35552,-4.57455 0.74418,-9.07143 1.11627,-13.60714"
       id="path3727-1"
       inkscape:connector-curvature="0" />
    <path
       style="fill:none;stroke:#000000;stroke-width:1;stroke-linecap:butt;stroke-linejoin:miter;stroke-miterlimit:4;stroke-dasharray:none;stroke-opacity:1"
       d="m 138.76596,28.429466 c 0.18605,-0.755952 0.35013,-1.704403 0.55814,-2.267857 0.0832,-0.225381 0.18604,0 0.27907,0 0.093,0 0.18604,0 0.27907,0 0.32558,0 0.65116,0 0.97674,0 0.93023,0 1.86046,0 2.79069,0 0.27907,0 0.55814,0 0.83721,0 0.093,0 0.18604,0 0.27906,0 0.0465,0 0.0954,0.07969 0.13954,0 0.0987,-0.178179 0.17817,-0.619295 0.27907,-0.755952 0.0902,-0.12223 0.19082,0.159368 0.27907,0 0.0624,-0.112691 0.0771,-0.643262 0.13953,-0.755953 0.0883,-0.159368 0.19082,0.159369 0.27907,0 0.0624,-0.11269 0.0848,-0.558279 0.13953,-0.755952 0.23118,-0.834961 0.31691,-0.755952 0.55814,-0.755952 0.0465,0 0.093,0 0.13954,0 0.0465,0 0.10664,-0.17818 0.13953,0 0.0329,0.178179 0,0.503968 0,0.755952 0,1.259921 0,2.519841 0,3.779762 0,4.283731 0,8.567461 0,12.851191 0,2.015873 0,4.031744 0,6.047618 0,0.503968 0,1.007935 0,1.511906 0,0.503968 -0.0294,1.033798 0,1.511903 0.0208,0.338074 0.11012,0.437216 0.13954,0.755954 0.0277,0.299728 -0.0285,2.113312 0,2.267855 0.0329,0.178181 0.093,0 0.13953,0 0.0465,0 0.093,0 0.13954,0 0.093,0 0.18604,0 0.27906,0 0.0465,0 0.0944,0.06112 0.13954,0 0.14269,-0.193262 0.27352,-0.624951 0.4186,-0.755951 0.13764,-0.124278 0.28178,0.148254 0.41861,0 0.10198,-0.110503 0.17708,-0.645451 0.27907,-0.755952 0.22361,-0.242292 0.47405,0.242292 0.69767,0 0.14422,-0.156273 0.27591,-0.562689 0.4186,-0.755952 0.12199,-0.165219 0.76425,0.197644 0.83721,0 0.0588,-0.159369 0.0807,-0.596585 0.13953,-0.755954 0.0416,-0.112691 0.093,0 0.13954,0 0.093,0 0.19082,0.159369 0.27907,0 0.0624,-0.112691 0.0807,-0.596582 0.13953,-0.755952 0.11163,-0.302381 0.30698,0.302382 0.4186,0 0.0588,-0.159369 0.0771,-0.643262 0.13954,-0.755951 0.0707,-0.127714 0.86267,0 0.97674,0 0.0465,0 0.093,0 0.13954,0 0.0465,0 0.0979,0.112689 0.13953,0 0.0588,-0.159369 0.0771,-0.643263 0.13953,-0.755954 0.0265,-0.04788 0.93972,-0.100285 0.97675,0 0.27391,0.741984 0.0628,1.436608 0.13953,2.267857 0.0294,0.318738 0.093,0.503968 0.13954,0.755954 0,0.503968 -0.0226,1.022983 0,1.511904 0.0252,0.546632 0.10664,0.977365 0.13953,1.511906 0.0147,0.239051 -0.0147,0.516898 0,0.755951 0.0365,0.593768 0.24254,2.430042 0.27907,3.023809 0.0147,0.239054 -0.0147,0.516901 0,0.755952 0.0329,0.53454 0.11431,0.965274 0.13953,1.511906 0.0226,0.488921 0,1.007935 0,1.511906 0,0.786132 -0.0274,3.941069 0,4.535712 0.0252,0.546632 0.10665,0.977366 0.13954,1.511906 0.0274,0.446106 0,3.357391 0,3.779761 0,0.251984 -0.0329,0.577773 0,0.755954 0.0329,0.178179 0.10664,-0.178181 0.13953,0 0.0329,0.178179 -0.0329,0.577771 0,0.755952 0.10908,0.590947 0.24274,-0.657548 0.27907,-0.755952 0.0416,-0.112691 0.093,0 0.13954,0 0.093,0 0.19082,0.159367 0.27906,0 0.61594,-1.112313 -0.50695,-0.755954 0.41861,-0.755954 0.13953,0 0.28323,0.183346 0.4186,0 0.1009,-0.136657 0.17817,-0.619294 0.27907,-0.755952 0.0902,-0.122229 0.18883,0.12223 0.27907,0 0.6478,-1.754775 -0.0803,-0.06417 0.55814,-0.755951 0.60107,-0.651283 0.23613,-0.860624 0.8372,-1.511906 0.0912,-0.09883 0.18786,0.09884 0.27908,0 0.14422,-0.156274 0.27352,-0.624951 0.4186,-0.755952 0.13763,-0.124277 0.28097,0.124278 0.4186,0 0.14508,-0.131 0.27438,-0.599678 0.4186,-0.755952 0.0912,-0.09884 0.18786,0.09883 0.27907,0 0.14423,-0.156276 0.27353,-0.624953 0.41861,-0.755954 0.13763,-0.124277 0.28096,0.124278 0.4186,0 0.14508,-0.131 0.27352,-0.624951 0.41861,-0.755951 0.27527,-0.248555 0.56193,0.248554 0.8372,0 0.14508,-0.131001 0.27352,-0.624952 0.4186,-0.755952 0.2294,-0.207132 0.46512,0 0.69768,0 0.4186,0 0.83721,0 1.25581,0 0.0465,0 0.093,0 0.13953,0 0.0465,0 0.10665,-0.178181 0.13954,0 0.0329,0.178178 -0.0329,0.577771 0,0.755952 0.0329,0.178178 0.0979,-0.112692 0.13953,0 0.0588,0.159369 0.0807,0.596582 0.13954,0.755951 0.0416,0.112692 0.0979,-0.112691 0.13953,0 0.0588,0.159369 0.0807,0.596585 0.13953,0.755954 0.0832,0.225381 0.2133,-0.356361 0.27907,0 0.0329,0.178179 -0.0329,0.577771 0,0.755952 0.0658,0.356359 0.2133,-0.356359 0.27907,0 0.0329,0.178178 -0.0329,0.577773 0,0.755952 0.0329,0.178181 0.10665,-0.178179 0.13954,0 0.0329,0.178181 -0.0329,0.577773 0,0.755951 0.0658,0.35636 0.21329,-0.356359 0.27907,0 0.0658,0.35636 -0.0416,1.061144 0,1.511906 0.0294,0.318739 0.11012,0.437214 0.13953,0.755952 0.0208,0.225383 -0.0208,0.530571 0,0.755954 0.0294,0.318736 0.11012,0.437214 0.13954,0.755952 0.0208,0.22538 0,0.503968 0,0.755951 0,0.251984 0,0.503968 0,0.755952 0,1.259922 0,2.519841 0,3.779763 0,0.755952 -0.0338,1.534475 0,2.267858 0.0252,0.546629 0.13953,0.948449 0.13953,1.511903 0,0.563454 -0.11431,0.965274 -0.13953,1.511906 -0.0226,0.488921 0,1.007936 0,1.511903 0,1.259922 0,2.519842 0,3.779764 0,0.277614 -0.006,2.993387 0,3.023809 0.0658,0.356359 0.19082,-0.159369 0.27907,0 0.0987,0.178178 0.1804,0.577773 0.27906,0.755952 0.0441,0.07968 0.10665,-0.178179 0.13954,0 0.0329,0.178181 -0.0329,0.577773 0,0.755954 0.0329,0.178178 0.093,0 0.13953,0 0.0465,0 0.093,0 0.13954,0 0.51162,0 1.02325,0 1.53488,0 0.74418,0 1.48837,0 2.23255,0 0.13954,0 0.27907,0 0.4186,0 0.13954,0 0.28178,0.148254 0.41861,0 0.10198,-0.110503 0.17817,-0.619297 0.27906,-0.755954 0.0902,-0.12223 0.18605,0 0.27907,0 0.13954,0 0.27907,0 0.41861,0 0.093,0 0.19082,0.159369 0.27907,0 0.0624,-0.112692 0.0771,-0.643261 0.13953,-0.755952 0.16273,-0.293865 0.64661,0.258151 0.83721,0 0.14269,-0.193262 0.27591,-0.562689 0.4186,-0.755952 0.0451,-0.06112 0.093,0 0.13954,0 0.093,0 0.18604,0 0.27907,0 0.32558,0 0.65116,0 0.97674,0 0.23255,0 0.46511,0 0.69767,0 0.13953,0 0.28623,-0.239053 0.41861,0 0.0624,0.112689 0.0807,0.596583 0.13953,0.755952 0.0416,0.112691 0.093,0 0.13953,0 0.0465,0.251984 0.0807,0.596582 0.13954,0.755952 0.0416,0.112691 0.0979,-0.112692 0.13953,0 0.0588,0.159369 0.0807,0.596585 0.13954,0.755954 0.0416,0.112689 0.10664,-0.178181 0.13953,0 0.0329,0.178178 -0.0329,0.57777 0,0.755951 0.0329,0.178179 0.10665,-0.178181 0.13953,0 0.0329,0.178179 0,0.503968 0,0.755952 0,0.251984 0,0.503968 0,0.755952 0,2.267857 0,4.535715 0,6.803575 0,3.52777 0,7.05555 0,10.58333 0,0.18334 -0.005,2.24355 0,2.26786 0.0329,0.17818 0.10665,-0.17818 0.13954,0 0.0329,0.17818 -0.0329,0.57777 0,0.75595 0.0329,0.17818 0.093,0 0.13954,0 0.0465,0 0.093,0 0.13953,0 0.51163,0 1.02325,0 1.53488,0 1.48837,0 2.97674,0 4.4651,0 0.55814,0 1.11628,0 1.67442,0 0.0465,0 0.093,0 0.13953,0 0.0465,0 0.10665,-0.17818 0.13954,0 0.006,0.0343 0,3.42333 0,3.77976 0,3.52778 0,7.05556 0,10.58334 0,0.25198 0,0.50396 0,0.75595 0,0.25198 -0.0329,0.57777 0,0.75595 0.0329,0.17818 0.10664,-0.17818 0.13953,0 0.0329,0.17818 -0.0329,0.57777 0,0.75595 0.0329,0.17818 0.0979,-0.11269 0.13954,0 0.0588,0.15937 0.0807,0.59659 0.13953,0.75596 0.0416,0.11268 0.093,0 0.13953,0 0.093,0 0.19082,-0.15937 0.27907,0 0.0624,0.11268 0.0807,0.59658 0.13954,0.75595 0.0313,0.0847 0.52498,0 0.55814,0 0.27907,0 0.55814,0 0.8372,0 0.18605,0 0.37571,0.19767 0.55814,0 0.14423,-0.15628 0.27438,-0.59968 0.41861,-0.75595 0.0912,-0.0988 0.18604,0 0.27906,0 0.18605,0 0.3721,0 0.55814,0 0.46512,0 0.93023,0 1.39535,0 0.37209,0 0.74418,0 1.11627,0 0.0628,0 0.37614,-0.11504 0.41861,0 0.34484,0.93413 -0.0482,0.75595 0.27907,0.75595 0.4186,0 0.8372,0 1.25581,0 0.0628,0 0.37614,-0.11503 0.4186,0 0.0588,0.15937 0.0807,0.59658 0.13953,0.75595 0.0832,0.22538 0.2133,-0.35636 0.27907,0 0.0329,0.17818 -0.0329,0.57777 0,0.75595 0.0329,0.17818 0.10665,-0.17818 0.13954,0 0.0329,0.17818 0,0.50397 0,0.75595 0,0.34045 0.0212,2.0378 0,2.26786 -0.0294,0.31874 -0.11012,0.43722 -0.13954,0.75595 -0.0208,0.22538 0,0.50397 0,0.75596 0,0.50396 0.0294,1.03379 0,1.5119 -0.0208,0.33807 -0.11012,0.43721 -0.13953,0.75595 -0.0208,0.22539 0.0208,0.53057 0,0.75595 -0.0294,0.31874 -0.11874,0.41788 -0.13954,0.75596 0,3.44131 0.0658,0.0432 -0.13953,2.26786 -0.0416,0.45076 0.0416,1.06114 0,1.5119 -0.0294,0.31874 -0.11012,0.43722 -0.13953,0.75595 -0.01,0.10324 -0.01,4.43247 0,4.53572 0.12704,1.37652 0.10584,0.44313 0.27906,0.75595 0.0987,0.17818 0.18041,0.57777 0.27907,0.75595 0.0441,0.0797 0.093,0 0.13954,0 0.13142,0 0.61829,-0.14334 0.69767,0 0.0624,0.11269 0.0771,0.64326 0.13954,0.75595 0.13237,0.23906 0.27906,0 0.4186,0 0.27907,0 0.55814,0 0.83721,0 0.13953,0 0.28622,0.23906 0.4186,0 0.0624,-0.11269 0.0771,-0.64326 0.13953,-0.75595 0.0882,-0.15937 0.18605,0 0.27907,0 0.27907,0 0.55814,0 0.83721,0 0.27907,0 0.55814,0 0.83721,0 0.093,0 0.18882,0.12223 0.27907,0 0.10089,-0.13666 0.1804,-0.57777 0.27906,-0.75595 0.13371,-0.24146 0.56841,0.23344 0.69768,0 0.0624,-0.11269 0.0771,-0.64326 0.13953,-0.75595 0.14828,-0.26776 0.40987,0.26776 0.55814,0 0.0987,-0.17818 0.1804,-0.57778 0.27907,-0.75596 0.0441,-0.0797 0.0979,0.1127 0.13953,0 0.0588,-0.15936 0.0807,-0.59658 0.13954,-0.75595 0.11162,-0.30238 0.30697,0.30238 0.4186,0 0.0588,-0.15937 0.0807,-0.59658 0.13954,-0.75595 0.0416,-0.11269 0.10664,0.17818 0.13953,0 0.0329,-0.17818 -0.0416,-0.64326 0,-0.75595 0.11008,-0.67615 0.2938,0.33807 0.4186,0 0.0588,-0.15937 0.0771,-0.64327 0.13954,-0.75595 0.0883,-0.15937 0.18604,0 0.27907,0 0.0465,0 0.13953,-0.25199 0.13953,0 0,0.25198 -0.10664,0.17817 -0.13953,0 -0.0329,-0.17819 0,-0.50398 0,-0.75596"
       id="path3725-2"
       inkscape:connector-curvature="0" />
    <path
       style="fill:none;stroke:#000000;stroke-width:1;stroke-linecap:butt;stroke-linejoin:miter;stroke-miterlimit:4;stroke-dasharray:none;stroke-opacity:1"
       d="m 204.90532,149.38185 c -0.13953,-2.77183 -0.3146,-5.49821 -0.4186,-8.31548 -0.0129,-0.34944 0.0848,0.55828 0.13953,0.75595 0.7049,2.54595 0.003,0.006 0.4186,0.75595 0.0987,0.17819 0.18041,0.57778 0.27907,0.75596 0.14828,0.26776 0.40987,-0.26776 0.55814,0 0.0987,0.17818 0.18041,0.57777 0.27907,0.75595 0.096,0.17332 0.33627,-0.22301 0.4186,0 0.0588,0.15937 0.0807,0.59658 0.13954,0.75595 0.0832,0.22538 0.21329,-0.35636 0.27907,0 0.0329,0.17818 -0.0329,0.57778 0,0.75596 0.0658,0.35636 0.21329,-0.35637 0.27907,0 0.0329,0.17817 0,0.50396 0,0.75595 0,1.77284 0.0329,-0.35636 -0.13954,1.5119 -0.0208,0.22538 0.0208,0.53057 0,0.75596 -0.08,0.86663 -0.29114,1.05153 -0.4186,1.5119 -0.17764,0.64158 -0.38621,2.3252 -0.55814,3.02381 -0.22593,0.91803 -0.27634,0.35582 -0.4186,1.5119 -0.0577,0.46882 -0.066,1.11349 -0.13954,1.51191 -0.0329,0.17818 -0.0979,-0.11269 -0.13953,0 -0.13731,0.37194 -0.42083,2.65187 -0.55814,3.02381 -0.0416,0.11269 -0.0979,-0.11269 -0.13953,0 -0.16744,0.45357 -0.25117,1.81428 -0.41861,2.26786 -0.0416,0.11268 -0.10664,-0.17819 -0.13953,0 -0.0329,0.17817 0.0329,0.57777 0,0.75595 -0.0329,0.17818 -0.10665,-0.17818 -0.13954,0 -0.0329,0.17818 0.0329,0.57777 0,0.75595 -0.0329,0.17818 -0.10664,-0.17818 -0.13953,0 -0.0329,0.17818 0.0329,0.57777 0,0.75595 -0.0329,0.17818 -0.10664,-0.17818 -0.13953,0 -0.0329,0.17818 0.0465,0.75596 0,0.75596 -0.0465,0 0,-0.50398 0,-0.75596 0,-0.25198 -0.0181,-0.52371 0,-0.75595 0.35552,-4.57455 0.74418,-9.07143 1.11627,-13.60714"
       id="path3727-7"
       inkscape:connector-curvature="0" />
    <path
       style="fill:none;stroke:#000000;stroke-width:1;stroke-linecap:butt;stroke-linejoin:miter;stroke-miterlimit:4;stroke-dasharray:none;stroke-opacity:1"
       d="m 207.63323,27.144344 c 0.18605,-0.755952 0.35014,-1.704403 0.55814,-2.267857 0.0832,-0.225381 0.18605,0 0.27907,0 0.093,0 0.18605,0 0.27907,0 0.32558,0 0.65116,0 0.97674,0 0.93023,0 1.86046,0 2.79069,0 0.27907,0 0.55814,0 0.83721,0 0.093,0 0.18604,0 0.27907,0 0.0465,0 0.0954,0.07969 0.13953,0 0.0987,-0.178179 0.17817,-0.619295 0.27907,-0.755952 0.0902,-0.12223 0.19082,0.159368 0.27907,0 0.0624,-0.112691 0.0771,-0.643262 0.13953,-0.755953 0.0882,-0.159368 0.19082,0.159369 0.27907,0 0.0624,-0.11269 0.0848,-0.558279 0.13954,-0.755952 0.23117,-0.834961 0.31691,-0.755952 0.55814,-0.755952 0.0465,0 0.093,0 0.13953,0 0.0465,0 0.10665,-0.17818 0.13954,0 0.0329,0.178179 0,0.503968 0,0.755952 0,1.259921 0,2.519841 0,3.779762 0,4.283731 0,8.56746 0,12.851191 0,2.015873 0,4.031744 0,6.047618 0,0.503968 0,1.007935 0,1.511906 0,0.503968 -0.0294,1.033798 0,1.511903 0.0208,0.338074 0.11011,0.437216 0.13953,0.755954 0.0277,0.299728 -0.0285,2.113312 0,2.267855 0.0329,0.178181 0.093,0 0.13953,0 0.0465,0 0.093,0 0.13954,0 0.093,0 0.18604,0 0.27907,0 0.0465,0 0.0944,0.06112 0.13953,0 0.14269,-0.193262 0.27352,-0.624951 0.41861,-0.755951 0.13763,-0.124278 0.28177,0.148254 0.4186,0 0.10198,-0.110503 0.17709,-0.645451 0.27907,-0.755952 0.22361,-0.242292 0.47406,0.242292 0.69767,0 0.14423,-0.156273 0.27591,-0.562689 0.4186,-0.755952 0.12199,-0.165219 0.76425,0.197644 0.83721,0 0.0588,-0.159369 0.0807,-0.596585 0.13954,-0.755954 0.0416,-0.112691 0.093,0 0.13953,0 0.093,0 0.19082,0.159369 0.27907,0 0.0624,-0.112691 0.0807,-0.596582 0.13953,-0.755952 0.11163,-0.302381 0.30698,0.302382 0.41861,0 0.0588,-0.159369 0.0771,-0.643262 0.13953,-0.755951 0.0707,-0.127714 0.86268,0 0.97674,0 0.0465,0 0.093,0 0.13954,0 0.0465,0 0.0979,0.112689 0.13953,0 0.0588,-0.159369 0.0771,-0.643263 0.13954,-0.755954 0.0265,-0.04788 0.93972,-0.100285 0.97674,0 0.27391,0.741984 0.0628,1.436608 0.13953,2.267857 0.0294,0.318738 0.093,0.503968 0.13954,0.755954 0,0.503968 -0.0226,1.022983 0,1.511904 0.0252,0.546632 0.10664,0.977365 0.13953,1.511906 0.0147,0.239051 -0.0147,0.516898 0,0.755951 0.0365,0.593768 0.24254,2.430042 0.27907,3.023809 0.0147,0.239054 -0.0147,0.516901 0,0.755952 0.0329,0.53454 0.11431,0.965274 0.13954,1.511906 0.0226,0.488921 0,1.007935 0,1.511906 0,0.786132 -0.0274,3.941069 0,4.535712 0.0252,0.546632 0.10664,0.977366 0.13953,1.511906 0.0275,0.446106 0,3.357391 0,3.779761 0,0.251984 -0.0329,0.577773 0,0.755954 0.0329,0.178179 0.10665,-0.178181 0.13954,0 0.0329,0.178179 -0.0329,0.577771 0,0.755952 0.10907,0.590947 0.24274,-0.657548 0.27907,-0.755952 0.0416,-0.112691 0.093,0 0.13953,0 0.093,0 0.19082,0.159367 0.27907,0 0.61593,-1.112313 -0.50695,-0.755954 0.4186,-0.755954 0.13954,0 0.28324,0.183346 0.4186,0 0.1009,-0.136657 0.17818,-0.619294 0.27907,-0.755952 0.0902,-0.122229 0.18883,0.12223 0.27907,0 0.6478,-1.754775 -0.0803,-0.06417 0.55814,-0.755951 0.60107,-0.651283 0.23614,-0.860624 0.83721,-1.511906 0.0912,-0.09883 0.18785,0.09884 0.27907,0 0.14422,-0.156274 0.27352,-0.624951 0.4186,-0.755952 0.13764,-0.124277 0.28097,0.124278 0.4186,0 0.14509,-0.131 0.27438,-0.599678 0.41861,-0.755952 0.0912,-0.09884 0.18785,0.09883 0.27907,0 0.14422,-0.156276 0.27352,-0.624953 0.4186,-0.755954 0.13764,-0.124277 0.28097,0.124278 0.4186,0 0.14509,-0.131 0.27353,-0.624951 0.41861,-0.755951 0.27527,-0.248555 0.56193,0.248554 0.83721,0 0.14508,-0.131001 0.27352,-0.624952 0.4186,-0.755952 0.22939,-0.207132 0.46511,0 0.69767,0 0.4186,0 0.83721,0 1.25581,0 0.0465,0 0.093,0 0.13954,0 0.0465,0 0.10664,-0.178181 0.13953,0 0.0329,0.178178 -0.0329,0.577771 0,0.755952 0.0329,0.178178 0.0979,-0.112692 0.13954,0 0.0588,0.159369 0.0807,0.596582 0.13953,0.755951 0.0416,0.112692 0.0979,-0.112691 0.13953,0 0.0588,0.159369 0.0807,0.596585 0.13954,0.755954 0.0832,0.225381 0.21329,-0.356361 0.27907,0 0.0329,0.178179 -0.0329,0.577771 0,0.755952 0.0658,0.356359 0.21329,-0.356359 0.27907,0 0.0329,0.178178 -0.0329,0.577773 0,0.755952 0.0329,0.178181 0.10664,-0.178179 0.13953,0 0.0329,0.178181 -0.0329,0.577773 0,0.755951 0.0658,0.35636 0.21329,-0.356359 0.27907,0 0.0658,0.35636 -0.0416,1.061144 0,1.511906 0.0294,0.318739 0.11012,0.437214 0.13953,0.755952 0.0208,0.225383 -0.0208,0.530571 0,0.755954 0.0294,0.318736 0.11012,0.437214 0.13954,0.755952 0.0208,0.22538 0,0.503968 0,0.755951 0,0.251984 0,0.503968 0,0.755952 0,1.259922 0,2.519841 0,3.779763 0,0.755952 -0.0338,1.534475 0,2.267858 0.0252,0.546629 0.13953,0.948449 0.13953,1.511903 0,0.563454 -0.11431,0.965274 -0.13953,1.511906 -0.0226,0.488921 0,1.007936 0,1.511903 0,1.259922 0,2.519842 0,3.779764 0,0.277614 -0.006,2.993387 0,3.023809 0.0658,0.356359 0.19082,-0.159369 0.27907,0 0.0987,0.178178 0.1804,0.577773 0.27907,0.755952 0.0441,0.07968 0.10664,-0.178179 0.13953,0 0.0329,0.178181 -0.0329,0.577773 0,0.755954 0.0329,0.178178 0.093,0 0.13954,0 0.0465,0 0.093,0 0.13953,0 0.51163,0 1.02325,0 1.53488,0 0.74418,0 1.48837,0 2.23255,0 0.13954,0 0.27907,0 0.41861,0 0.13953,0 0.28177,0.148254 0.4186,0 0.10198,-0.110503 0.17817,-0.619297 0.27907,-0.755954 0.0902,-0.12223 0.18604,0 0.27907,0 0.13953,0 0.27907,0 0.4186,0 0.093,0 0.19082,0.159369 0.27907,0 0.0624,-0.112692 0.0771,-0.643261 0.13953,-0.755952 0.16273,-0.293865 0.64661,0.258151 0.83721,0 0.14269,-0.193262 0.27592,-0.562689 0.41861,-0.755952 0.0451,-0.06112 0.093,0 0.13953,0 0.093,0 0.18605,0 0.27907,0 0.32558,0 0.65116,0 0.97674,0 0.23256,0 0.46512,0 0.69767,0 0.13954,0 0.28623,-0.239053 0.41861,0 0.0624,0.112689 0.0807,0.596583 0.13953,0.755952 0.0416,0.112691 0.093,0 0.13954,0 0.0465,0.251984 0.0807,0.596582 0.13953,0.755952 0.0416,0.112691 0.0979,-0.112692 0.13954,0 0.0588,0.159369 0.0807,0.596585 0.13953,0.755954 0.0416,0.112689 0.10665,-0.178181 0.13953,0 0.0329,0.178178 -0.0329,0.57777 0,0.755951 0.0329,0.178179 0.10665,-0.178181 0.13954,0 0.0329,0.178179 0,0.503968 0,0.755952 0,0.251984 0,0.503968 0,0.755952 0,2.267851 0,4.535689 0,6.803537 0,3.52778 0,7.05556 0,10.58334 0,0.18334 -0.004,2.24355 0,2.26786 0.0329,0.17818 0.10665,-0.17818 0.13953,0 0.0329,0.17818 -0.0329,0.57777 0,0.75595 0.0329,0.17818 0.093,0 0.13954,0 0.0465,0 0.093,0 0.13953,0 0.51163,0 1.02325,0 1.53488,0 1.48837,0 2.97674,0 4.46511,0 0.55813,0 1.11627,0 1.67441,0 0.0465,0 0.093,0 0.13953,0 0.0465,0 0.10665,-0.17818 0.13954,0 0.006,0.0343 0,3.42333 0,3.77976 0,3.52778 0,7.05556 0,10.58334 0,0.25198 0,0.50396 0,0.75595 0,0.25198 -0.0329,0.57777 0,0.75595 0.0329,0.17818 0.10665,-0.17818 0.13953,0 0.0329,0.17818 -0.0329,0.57777 0,0.75595 0.0329,0.17818 0.0979,-0.11269 0.13954,0 0.0588,0.15937 0.0807,0.59659 0.13953,0.75596 0.0416,0.11268 0.093,0 0.13954,0 0.093,0 0.19082,-0.15937 0.27907,0 0.0624,0.11268 0.0807,0.59658 0.13953,0.75595 0.0313,0.0847 0.52498,0 0.55814,0 0.27907,0 0.55814,0 0.83721,0 0.18604,0 0.3757,0.19767 0.55814,0 0.14422,-0.15628 0.27437,-0.59968 0.4186,-0.75595 0.0912,-0.0988 0.18605,0 0.27907,0 0.18604,0 0.37209,0 0.55814,0 0.46511,0 0.93023,0 1.39534,0 0.37209,0 0.74419,0 1.11628,0 0.0628,0 0.37613,-0.11504 0.4186,0 0.34485,0.93413 -0.0482,0.75595 0.27907,0.75595 0.4186,0 0.83721,0 1.25581,0 0.0628,0 0.37614,-0.11503 0.4186,0 0.0588,0.15937 0.0807,0.59658 0.13954,0.75595 0.0832,0.22538 0.21329,-0.35636 0.27907,0 0.0329,0.17818 -0.0329,0.57777 0,0.75595 0.0329,0.17818 0.10664,-0.17818 0.13953,0 0.0329,0.17818 0,0.50397 0,0.75595 0,0.34045 0.0213,2.0378 0,2.26786 -0.0294,0.31874 -0.11012,0.43722 -0.13953,0.75595 -0.0208,0.22538 0,0.50397 0,0.75596 0,0.50396 0.0294,1.03379 0,1.5119 -0.0208,0.33807 -0.11012,0.43721 -0.13954,0.75595 -0.0208,0.22539 0.0208,0.53057 0,0.75595 -0.0294,0.31874 -0.11873,0.41788 -0.13953,0.75596 0,3.44131 0.0658,0.0432 -0.13954,2.26786 -0.0416,0.45076 0.0416,1.06114 0,1.5119 -0.0294,0.31874 -0.11012,0.43722 -0.13953,0.75595 -0.01,0.10324 -0.01,4.43247 0,4.53572 0.12704,1.37652 0.10585,0.44313 0.27907,0.75595 0.0987,0.17818 0.1804,0.57777 0.27907,0.75595 0.0441,0.0797 0.093,0 0.13953,0 0.13142,0 0.6183,-0.14334 0.69767,0 0.0624,0.11269 0.0771,0.64326 0.13954,0.75595 0.13237,0.23906 0.27907,0 0.4186,0 0.27907,0 0.55814,0 0.83721,0 0.13953,0 0.28623,0.23906 0.4186,0 0.0624,-0.11269 0.0771,-0.64326 0.13954,-0.75595 0.0883,-0.15937 0.18604,0 0.27907,0 0.27907,0 0.55813,0 0.83721,0 0.27906,0 0.55813,0 0.8372,0 0.093,0 0.18882,0.12223 0.27907,0 0.1009,-0.13666 0.1804,-0.57777 0.27907,-0.75595 0.1337,-0.24146 0.5684,0.23344 0.69767,0 0.0624,-0.11269 0.0771,-0.64326 0.13953,-0.75595 0.14828,-0.26776 0.40987,0.26776 0.55814,0 0.0987,-0.17818 0.18041,-0.57778 0.27907,-0.75596 0.0441,-0.0797 0.0979,0.1127 0.13953,0 0.0588,-0.15936 0.0807,-0.59658 0.13954,-0.75595 0.11163,-0.30238 0.30698,0.30238 0.4186,0 0.0588,-0.15937 0.0807,-0.59658 0.13954,-0.75595 0.0416,-0.11269 0.10665,0.17818 0.13953,0 0.0329,-0.17818 -0.0416,-0.64326 0,-0.75595 0.11008,-0.67615 0.2938,0.33807 0.4186,0 0.0588,-0.15937 0.0771,-0.64327 0.13954,-0.75595 0.0883,-0.15937 0.18605,0 0.27907,0 0.0465,0 0.13954,-0.25199 0.13954,0 0,0.25198 -0.10665,0.17817 -0.13954,0 -0.0329,-0.17819 0,-0.50398 0,-0.75596"
       id="path3725-0"
       inkscape:connector-curvature="0" />
    <path
       style="fill:none;stroke:#000000;stroke-width:1;stroke-linecap:butt;stroke-linejoin:miter;stroke-miterlimit:4;stroke-dasharray:none;stroke-opacity:1"
       d="m 273.77259,148.0967 c -0.13953,-2.77183 -0.3146,-5.49821 -0.4186,-8.31548 -0.0129,-0.34944 0.0848,0.55828 0.13953,0.75595 0.7049,2.54595 0.003,0.006 0.41861,0.75595 0.0987,0.17819 0.1804,0.57778 0.27906,0.75596 0.14828,0.26776 0.40988,-0.26776 0.55815,0 0.0987,0.17818 0.1804,0.57777 0.27907,0.75595 0.096,0.17332 0.33627,-0.22301 0.4186,0 0.0588,0.15937 0.0807,0.59658 0.13954,0.75595 0.0832,0.22538 0.21329,-0.35636 0.27906,0 0.0329,0.17818 -0.0329,0.57778 0,0.75596 0.0658,0.35636 0.21329,-0.35637 0.27907,0 0.0329,0.17817 0,0.50396 0,0.75595 0,1.77284 0.0329,-0.35636 -0.13953,1.5119 -0.0208,0.22538 0.0208,0.53057 0,0.75596 -0.08,0.86663 -0.29115,1.05153 -0.4186,1.5119 -0.17765,0.64158 -0.38621,2.3252 -0.55814,3.02381 -0.22594,0.91803 -0.27635,0.35582 -0.41861,1.5119 -0.0577,0.46882 -0.066,1.11349 -0.13953,1.51191 -0.0329,0.17818 -0.0979,-0.11269 -0.13954,0 -0.1373,0.37194 -0.42083,2.65187 -0.55814,3.02381 -0.0416,0.11269 -0.0979,-0.11269 -0.13953,0 -0.16744,0.45357 -0.25116,1.81428 -0.4186,2.26786 -0.0416,0.11268 -0.10665,-0.17819 -0.13954,0 -0.0329,0.17817 0.0329,0.57777 0,0.75595 -0.0329,0.17818 -0.10664,-0.17818 -0.13954,0 -0.0329,0.17818 0.0329,0.57777 0,0.75595 -0.0329,0.17818 -0.10664,-0.17818 -0.13953,0 -0.0329,0.17818 0.0329,0.57777 0,0.75595 -0.0329,0.17818 -0.10664,-0.17818 -0.13953,0 -0.0329,0.17818 0.0465,0.75596 0,0.75596 -0.0465,0 0,-0.50398 0,-0.75596 0,-0.25198 -0.018,-0.52371 0,-0.75595 0.35552,-4.57455 0.74418,-9.07143 1.11627,-13.60714"
       id="path3727-9"
       inkscape:connector-curvature="0" />
    <flowRoot
       xml:space="preserve"
       id="flowRoot4650"
       style="font-style:normal;font-variant:normal;font-weight:normal;font-stretch:normal;font-size:96px;line-height:1.25;font-family:sans-serif;-inkscape-font-specification:'sans-serif, Normal';font-variant-ligatures:normal;font-variant-caps:normal;font-variant-numeric:normal;font-feature-settings:normal;text-align:start;letter-spacing:0px;word-spacing:0px;writing-mode:lr-tb;text-anchor:start;fill:#000000;fill-opacity:1;stroke:none;stroke-width:4.88289309;stroke-miterlimit:4;stroke-dasharray:none"
       transform="matrix(0.15851964,0,0,0.26458333,76.446643,20.866457)"><flowRegion
         id="flowRegion4652"
         style="font-style:normal;font-variant:normal;font-weight:normal;font-stretch:normal;font-size:96px;font-family:sans-serif;-inkscape-font-specification:'sans-serif, Normal';font-variant-ligatures:normal;font-variant-caps:normal;font-variant-numeric:normal;font-feature-settings:normal;text-align:start;writing-mode:lr-tb;text-anchor:start;stroke-width:4.88289309;stroke-miterlimit:4;stroke-dasharray:none"><rect
           id="rect4654"
           width="191.42857"
           height="214.28572"
           x="1282.8572"
           y="187.01152"
           style="font-style:normal;font-variant:normal;font-weight:normal;font-stretch:normal;font-size:96px;font-family:sans-serif;-inkscape-font-specification:'sans-serif, Normal';font-variant-ligatures:normal;font-variant-caps:normal;font-variant-numeric:normal;font-feature-settings:normal;text-align:start;writing-mode:lr-tb;text-anchor:start;stroke-width:4.88289309;stroke-miterlimit:4;stroke-dasharray:none" /></flowRegion><flowPara
         id="flowPara4656">. . . </flowPara></flowRoot>  </g>
</svg>
