<?xml version="1.0" encoding="UTF-8" standalone="no"?>
<!-- Created with Inkscape (http://www.inkscape.org/) -->

<svg
   xmlns:osb="http://www.openswatchbook.org/uri/2009/osb"
   xmlns:dc="http://purl.org/dc/elements/1.1/"
   xmlns:cc="http://creativecommons.org/ns#"
   xmlns:rdf="http://www.w3.org/1999/02/22-rdf-syntax-ns#"
   xmlns:svg="http://www.w3.org/2000/svg"
   xmlns="http://www.w3.org/2000/svg"
   xmlns:xlink="http://www.w3.org/1999/xlink"
   xmlns:sodipodi="http://sodipodi.sourceforge.net/DTD/sodipodi-0.dtd"
   xmlns:inkscape="http://www.inkscape.org/namespaces/inkscape"
   width="145.94943mm"
   height="143.21535mm"
   viewBox="0 0 145.94943 143.21535"
   version="1.1"
   id="svg8"
   inkscape:version="0.92.3 (d244b95, 2018-08-02)"
   sodipodi:docname="logo.svg"
   inkscape:export-filename="/home/jvk/Dropbox/ITT/m WDD1/logo.png"
   inkscape:export-xdpi="96"
   inkscape:export-ydpi="96">
  <defs
     id="defs2">
    <linearGradient
       inkscape:collect="always"
       id="linearGradient6482">
      <stop
         style="stop-color:#000000;stop-opacity:1;"
         offset="0"
         id="stop6478" />
      <stop
         style="stop-color:#000000;stop-opacity:0;"
         offset="1"
         id="stop6480" />
    </linearGradient>
    <linearGradient
       id="linearGradient6368"
       osb:paint="solid">
      <stop
         style="stop-color:#000000;stop-opacity:1;"
         offset="0"
         id="stop6366" />
    </linearGradient>
    <radialGradient
       inkscape:collect="always"
       xlink:href="#linearGradient6482"
       id="radialGradient6518"
       cx="391.32007"
       cy="87.186478"
       fx="391.32007"
       fy="87.186478"
       r="33.039829"
       gradientTransform="matrix(0.61829572,-0.15340918,0.0213288,0.16269071,50.770211,111.27755)"
       gradientUnits="userSpaceOnUse" />
    <radialGradient
       inkscape:collect="always"
       xlink:href="#linearGradient6482"
       id="radialGradient6520"
       cx="389.32614"
       cy="116.2668"
       fx="389.32614"
       fy="116.2668"
       r="3.4173694"
       gradientTransform="matrix(0.61829572,-0.15340918,0.8838117,6.7414928,-46.962103,-635.33089)"
       gradientUnits="userSpaceOnUse" />
    <radialGradient
       inkscape:collect="always"
       xlink:href="#linearGradient6482"
       id="radialGradient6522"
       cx="327.07642"
       cy="93.991119"
       fx="327.07642"
       fy="93.991119"
       r="34.539417"
       gradientTransform="matrix(0.61829572,-0.15340918,0.02259822,0.17237345,51.30734,113.75544)"
       gradientUnits="userSpaceOnUse" />
    <radialGradient
       inkscape:collect="always"
       xlink:href="#linearGradient6482"
       id="radialGradient6524"
       cx="322.05295"
       cy="121.58256"
       fx="322.05295"
       fy="121.58256"
       r="4.1948557"
       gradientTransform="matrix(0.61829572,-0.15340918,0.82798792,6.3156833,-44.225411,-616.14903)"
       gradientUnits="userSpaceOnUse" />
    <radialGradient
       inkscape:collect="always"
       xlink:href="#linearGradient6482"
       id="radialGradient6526"
       cx="266.10822"
       cy="93.664627"
       fx="266.10822"
       fy="93.664627"
       r="27.957251"
       gradientTransform="matrix(0.61829572,-0.15340918,0.0264246,0.2015602,50.978467,110.00085)"
       gradientUnits="userSpaceOnUse" />
    <radialGradient
       inkscape:collect="always"
       xlink:href="#linearGradient6482"
       id="radialGradient6528"
       cx="264.67905"
       cy="147.79108"
       fx="264.67905"
       fy="147.79108"
       r="23.609386"
       gradientTransform="matrix(0.61829572,-0.15340918,0.0337239,0.25723743,54.366098,133.67727)"
       gradientUnits="userSpaceOnUse" />
    <radialGradient
       inkscape:collect="always"
       xlink:href="#linearGradient6482"
       id="radialGradient6530"
       cx="267.2106"
       cy="119.73233"
       fx="267.2106"
       fy="119.73233"
       r="4.5567999"
       gradientTransform="matrix(0.61829572,-0.15340918,0.76990334,5.8726283,-35.888783,-553.6207)"
       gradientUnits="userSpaceOnUse" />
    <radialGradient
       inkscape:collect="always"
       xlink:href="#linearGradient6482"
       id="radialGradient6532"
       cx="170.12871"
       cy="113.70352"
       fx="170.12871"
       fy="113.70352"
       r="22.988585"
       gradientTransform="matrix(0.61829572,-0.15340918,0.11907444,0.90826983,42.200675,40.136371)"
       gradientUnits="userSpaceOnUse" />
    <radialGradient
       inkscape:collect="always"
       xlink:href="#linearGradient6482"
       id="radialGradient6534"
       cx="165.20441"
       cy="116.97804"
       fx="165.20441"
       fy="116.97804"
       r="5.2946277"
       gradientTransform="matrix(0.61829572,-0.15340918,0.46530124,3.5492006,1.6576616,-269.2544)"
       gradientUnits="userSpaceOnUse" />
    <radialGradient
       inkscape:collect="always"
       xlink:href="#linearGradient6482"
       id="radialGradient6536"
       cx="123.96582"
       cy="116.55882"
       fx="123.96582"
       fy="116.55882"
       r="24.54291"
       gradientTransform="matrix(0.61829572,-0.15340918,0.11170728,0.85207498,43.069082,45.696936)"
       gradientUnits="userSpaceOnUse" />
    <radialGradient
       inkscape:collect="always"
       xlink:href="#linearGradient6482"
       id="radialGradient6538"
       cx="68.724091"
       cy="114.80018"
       fx="68.724091"
       fy="114.80018"
       r="24.052567"
       gradientTransform="matrix(0.61829572,-0.15340918,0.12190111,0.92983094,41.953599,36.153697)"
       gradientUnits="userSpaceOnUse" />
    <radialGradient
       inkscape:collect="always"
       xlink:href="#linearGradient6482"
       id="radialGradient6540"
       cx="20.007748"
       cy="114.03448"
       fx="20.007748"
       fy="114.03448"
       r="27.904182"
       gradientTransform="matrix(0.61829572,-0.15340918,0.11349656,0.8657231,42.967799,42.885964)"
       gradientUnits="userSpaceOnUse" />
    <radialGradient
       inkscape:collect="always"
       xlink:href="#linearGradient6482"
       id="radialGradient6542"
       cx="404.49133"
       cy="70.21106"
       fx="404.49133"
       fy="70.21106"
       r="38.125023"
       gradientTransform="matrix(0.61829572,-0.15340918,0.10967048,0.83653873,43.068341,53.469888)"
       gradientUnits="userSpaceOnUse" />
    <radialGradient
       inkscape:collect="always"
       xlink:href="#linearGradient6482"
       id="radialGradient6544"
       cx="365.62589"
       cy="17.102127"
       fx="365.62589"
       fy="17.102127"
       r="2.8099501"
       gradientTransform="matrix(0.61829572,-0.15340918,0.07934264,0.60520565,43.674713,59.279528)"
       gradientUnits="userSpaceOnUse" />
    <radialGradient
       inkscape:collect="always"
       xlink:href="#linearGradient6482"
       id="radialGradient6546"
       cx="270.24112"
       cy="55.05582"
       fx="270.24112"
       fy="55.05582"
       r="95.992119"
       gradientTransform="matrix(0.61829572,-0.15340918,0.06633457,0.50598338,45.575857,70.494536)"
       gradientUnits="userSpaceOnUse" />
    <radialGradient
       inkscape:collect="always"
       xlink:href="#linearGradient6482"
       id="radialGradient6548"
       cx="102.63774"
       cy="29.423189"
       fx="102.63774"
       fy="29.423189"
       r="34.189636"
       gradientTransform="matrix(0.61829572,-0.15340918,0.10865431,0.82878764,43.438143,51.453294)"
       gradientUnits="userSpaceOnUse" />
    <radialGradient
       inkscape:collect="always"
       xlink:href="#linearGradient6482"
       id="radialGradient6550"
       cx="33.240997"
       cy="51.338757"
       fx="33.240997"
       fy="51.338757"
       r="41.920181"
       gradientTransform="matrix(0.61829572,-0.15340918,0.15372411,1.1725687,41.19214,31.877446)"
       gradientUnits="userSpaceOnUse" />
  </defs>
  <sodipodi:namedview
     id="base"
     pagecolor="#6fd8b5"
     bordercolor="#666666"
     borderopacity="1.0"
     inkscape:pageopacity="1"
     inkscape:pageshadow="2"
     inkscape:zoom="0.35"
     inkscape:cx="-319.95055"
     inkscape:cy="48.008838"
     inkscape:document-units="mm"
     inkscape:current-layer="layer1"
     showgrid="false"
     fit-margin-top="5"
     fit-margin-left="5"
     fit-margin-right="5"
     fit-margin-bottom="5"
     inkscape:window-width="1853"
     inkscape:window-height="1025"
     inkscape:window-x="67"
     inkscape:window-y="27"
     inkscape:window-maximized="1" />
  <metadata
     id="metadata5">
    <rdf:RDF>
      <cc:Work
         rdf:about="">
        <dc:format>image/svg+xml</dc:format>
        <dc:type
           rdf:resource="http://purl.org/dc/dcmitype/StillImage" />
        <dc:title></dc:title>
      </cc:Work>
    </rdf:RDF>
  </metadata>
  <g
     inkscape:label="Layer 1"
     inkscape:groupmode="layer"
     id="layer1"
     transform="translate(-57.061319,-18.320291)">
    <g
       id="g6569"
       transform="matrix(0.4818786,0,0,0.8276088,42.785739,21.446307)">
      <path
         inkscape:connector-curvature="0"
         id="path3735"
         d="m 41.902897,70.429682 c -0.371164,-2.831146 -0.498291,-1.6058 -0.0019,-3.695654 0.103657,-0.436399 0.299814,-0.856193 0.310971,-1.309198 -0.596684,-4.551353 -0.147328,0.522504 0.07632,-3.099041 0.04998,-0.809236 -0.36284,-1.57722 -0.312865,-2.386456 0.02793,-0.452377 0.283033,-0.856822 0.310969,-1.309199 0.03748,-0.606928 -0.156432,-1.193228 -0.234648,-1.789841 -0.01841,-0.14038 -0.08966,-2.055316 -0.623835,-1.07726 -0.183464,0.335916 0.205501,0.791449 0.156432,1.193228 -0.665711,5.450929 -0.07991,-3.906684 -0.07633,3.099041 3.42e-4,0.640427 -0.233081,1.265386 -0.232753,1.905812 3.16e-4,0.607562 0.156433,1.19323 0.234649,1.789842 0.182505,1.392101 0.501692,2.761386 0.547514,4.1763 0.027,0.833405 -0.310986,1.697099 -0.154537,2.502426 0.349832,1.800769 1.102744,3.419459 1.638751,5.137586 2.331994,7.475022 -0.444199,-1.746441 1.249565,5.850172 0.696521,3.123934 0.606619,1.509078 1.94972,3.828389 0.588158,1.015649 0.755738,2.395001 1.404102,3.347745 0.649968,0.9551 2.160834,1.455354 3.117278,1.690636 1.712539,0.421279 2.144663,0.08389 3.817434,-0.331148 0.467402,-0.11597 0.959221,-0.117183 1.402205,-0.347909 0.496124,-0.258399 1.922666,-2.14739 2.102363,-2.369691 0.415258,-0.513714 0.874408,-0.975027 1.245773,-1.54114 1.459705,-2.22518 3.143563,-6.64065 3.578994,-9.512297 0.124903,-0.823724 0.103024,-1.668284 0.154536,-2.502425 0.09133,-1.478901 0.290919,-4.208662 0.230859,-5.601469 -0.03483,-0.807696 -0.208577,-1.590971 -0.312865,-2.386456 -0.130361,-0.994358 -0.260721,-1.988713 -0.391082,-2.983071 -0.234648,-1.789842 -0.469298,-3.579684 -0.703946,-5.369526 -0.07821,-0.596615 -0.09112,-1.215626 -0.234649,-1.789844 -1.261071,-5.045101 -0.460629,0.167641 -1.014917,-4.060328 -0.130361,-0.994356 -0.260722,-1.988714 -0.391082,-2.98307 -0.05215,-0.397742 -0.03027,-0.826113 -0.156433,-1.193228 -1.129212,-3.28588 -0.261798,1.684253 -0.858483,-2.867101 -0.156432,-1.193228 -0.312866,-2.386457 -0.469297,-3.579685 -0.02607,-0.198871 0.07758,-0.635271 -0.07821,-0.596613 -0.709249,0.175975 -0.264603,0.92954 -0.310969,1.309198 -0.721847,3.03901 -0.0847,-0.333563 -0.154537,2.502426 -0.637905,5.223241 -6.9e-4,-1.298521 0.0019,3.695655 0.0024,4.671879 -0.631737,-1.260495 -0.387291,4.408238 0.04353,1.009621 0.331785,1.975298 0.391082,2.983071 0.522187,8.874676 -0.669292,-1.423997 0.471193,7.27534 0.521442,3.977427 1.042884,7.954854 1.564327,11.932281 0.182504,1.3921 0.365009,2.784199 0.547514,4.1763 0.182504,1.392098 0.28777,2.807016 0.547514,4.176298 0.26238,1.383183 0.665184,2.712013 1.014915,4.060329 0.601702,2.319732 1.248933,4.618286 1.8734,6.927429 0.312233,1.154572 0.699956,2.277732 0.9367,3.463715 0.233524,1.169845 0.228875,2.412356 0.469298,3.579681 0.20432,0.99204 0.585574,1.90467 0.858484,2.8671 0.325561,1.14812 0.611138,2.3156 0.936699,3.46371 0.272911,0.96244 0.647152,1.87771 0.858484,2.8671 0.207227,0.97019 0.183855,2.01289 0.391081,2.98308 0.21133,0.98941 0.638625,1.88101 0.858484,2.8671 0.172472,0.77354 0.208578,1.59097 0.312866,2.38645 0.104288,0.79549 0.208577,1.59098 0.312865,2.38646 0.182505,1.3921 0.36501,2.7842 0.547513,4.1763 0.07821,0.59661 0.249618,1.18207 0.234651,1.78985 -0.01116,0.453 -0.283036,0.85682 -0.310972,1.30919 -0.133816,2.16692 0.638836,0.21147 -0.154537,2.50243 -0.09154,0.26433 -0.259457,0.47505 -0.389185,0.71259 -0.259458,0.47505 -0.470081,1.00019 -0.778372,1.42517 -0.487451,0.67192 -1.225725,0.98517 -1.713176,1.65711 -0.308291,0.42496 -0.438439,1.042 -0.778371,1.42516 -1.813967,2.04462 -0.697948,0.25245 -2.258795,1.17646 -0.323839,0.19172 -0.54452,0.60593 -0.856588,0.82856 -0.119801,0.0855 -1.795425,0.49062 -1.869607,0.46387 -0.134485,-0.0484 -1.554039,-1.29891 -1.636856,-1.44192 -0.294079,-0.50782 -0.468035,-1.11591 -0.702052,-1.67388 -0.44375,-1.05802 -1.237182,-2.84491 -1.482318,-3.94436 -0.215589,-0.96693 -0.26072,-1.9887 -0.391081,-2.98307 -0.590627,-4.50515 -0.340739,-1.59042 -0.392978,-6.67873 -0.01469,-1.43144 -0.148197,-2.86058 -0.08011,-4.29226 0.0609,-1.28054 0.310338,-2.54109 0.465508,-3.81163 0.155167,-1.27054 0.283729,-2.54603 0.465506,-3.81162 0.154777,-1.07761 0.362482,-2.14334 0.543722,-3.21502 0.18124,-1.07166 0.258996,-2.17773 0.543723,-3.215 0.264363,-0.9631 0.787015,-1.78872 1.089342,-2.73437 1.780484,-5.569229 -0.203341,-0.0698 0.854692,-4.524207 0.167141,-0.703674 0.491746,-1.335216 0.700155,-2.021782 0.258499,-0.851581 0.332461,-1.782492 0.621939,-2.618396 0.09154,-0.264338 0.297645,-0.448249 0.389186,-0.712583 0.14474,-0.417954 0.166231,-0.891249 0.310969,-1.3092 0.212454,-0.613488 1.029745,-1.557556 1.167557,-2.137754 0.04636,-0.195162 -0.169947,-0.428657 -0.07821,-0.596613 0.09173,-0.167958 0.375669,0.05198 0.467402,-0.11597 0.09173,-0.167959 -0.169949,-0.428656 -0.07821,-0.596614 0.09173,-0.16796 0.33971,0.0075 0.467402,-0.115969 0.180584,-0.174675 0.259456,-0.475058 0.389186,-0.712587 0.129728,-0.237527 0.323627,-0.436578 0.389185,-0.712583 0.04636,-0.195163 -0.124573,-0.40145 -0.07821,-0.596612 0.06556,-0.276004 0.259457,-0.47506 0.389187,-0.712586 1.167557,-2.137752 2.335114,-4.275504 3.502673,-6.413257 0.389185,-0.712585 0.77837,-1.425169 1.167557,-2.137752 0.259458,-0.475056 0.572963,-0.909571 0.77837,-1.42517 0.162389,-0.407614 0.166231,-0.891246 0.31097,-1.309196 0.09154,-0.264338 0.297645,-0.448248 0.389187,-0.712584 0.144738,-0.417954 0.16623,-0.891249 0.31097,-1.309199 0.09154,-0.264336 0.297643,-0.448248 0.389184,-0.712584 0.103657,-0.436401 0.207314,-0.8728 0.310971,-1.3092 -0.02607,-0.19887 -0.124574,-0.40145 -0.07821,-0.596613 0.384263,-1.617779 0.494398,0.08997 0.310968,-1.309199 -0.03523,-0.268689 -0.281968,-1.590625 -0.234649,-1.789842 0.384266,-1.617779 0.4944,0.08997 0.31097,-1.309198 -0.02608,-0.198871 0.07758,-0.63527 -0.07821,-0.596614 -0.220335,0.05467 -0.354488,0.428482 -0.389185,0.712584 -0.04907,0.401781 0.104288,0.795485 0.156432,1.193228 0.130361,0.994357 0.260721,1.988713 0.391082,2.983071 0.05215,0.397742 0.166407,0.788049 0.156432,1.193228 -0.01578,0.640647 -0.244696,1.265959 -0.232752,1.905811 0.01511,0.80936 0.208577,1.590973 0.312865,2.386457 0.260721,1.988714 0.521442,3.977428 0.782163,5.966142 0.312865,2.386455 0.625731,4.772914 0.938596,7.159369 0.07821,0.596614 0.156432,1.193228 0.234649,1.789843 0.05214,0.397744 0.03027,0.826112 0.156432,1.193227 0.141053,0.410449 0.498344,0.658156 0.623834,1.07726 0.168362,0.562285 0.06629,1.227557 0.234649,1.789843 0.125491,0.419101 0.482782,0.66681 0.623834,1.077257 0.126161,0.367116 0.0084,0.840344 0.156433,1.193229 0.104656,0.249525 0.414103,0.253536 0.545618,0.480643 0.186412,0.321903 -0.151254,1.269572 0.623836,1.077259 0.155801,-0.03865 -0.05215,-0.397745 -0.07821,-0.596616 -0.02608,-0.19887 -0.05214,-0.397743 -0.07821,-0.596614 -0.13036,-0.994358 -0.260721,-1.988713 -0.391082,-2.983069 -0.07821,-0.596615 -0.08066,-1.220413 -0.234647,-1.789843 -0.162324,-0.600234 -0.487427,-1.102766 -0.702053,-1.673871 -0.279837,-0.744632 -0.500429,-1.525856 -0.780266,-2.270487 -0.214626,-0.571108 -0.487426,-1.102767 -0.702052,-1.673873 -0.559675,-1.489263 -1.040358,-3.027315 -1.560535,-4.540972 -0.260089,-0.756829 -0.583003,-1.481302 -0.780267,-2.270489 -0.143531,-0.574215 -0.08066,-1.22041 -0.234649,-1.78984 -0.162322,-0.600234 -0.539728,-1.073641 -0.70205,-1.673872 -0.153993,-0.569433 -0.156434,-1.193229 -0.234649,-1.789843 -0.130361,-0.994357 -0.260721,-1.988713 -0.391082,-2.983071 -0.208576,-1.59097 -0.417153,-3.181942 -0.62573,-4.772912 -0.02607,-0.198871 -0.05214,-0.397743 -0.07821,-0.596614 -0.02607,-0.198873 -0.234016,-0.557959 -0.07821,-0.596615 0.155801,-0.03865 -0.01478,0.436026 0.07821,0.596615 0.131516,0.227105 0.414102,0.253536 0.545619,0.480643 0.917913,1.585083 -1.185756,-0.516837 0.623833,1.077259 0.181873,0.160215 0.392721,0.276957 0.54562,0.480643 0.568074,0.756768 0.454713,1.170266 1.169453,1.557904 0.322209,0.174747 0.725454,0.11135 1.013021,0.364673 0.287565,0.253321 0.382079,0.755201 0.623834,1.077258 0.573607,0.764138 1.608868,1.158439 2.182474,1.922576 0.241753,0.322057 0.336268,0.823937 0.623833,1.077258 0.287568,0.253321 0.699337,0.167011 1.013022,0.364676 0.396782,0.250025 0.664109,0.807526 1.091237,0.961287 0.302024,0.108724 0.619859,-0.253402 0.934804,-0.231942 1.412286,0.09624 0.608006,0.329751 1.558639,0.845321 1.127841,0.611676 1.118403,0.338525 2.415225,0.01676 0.311604,-0.07731 0.623204,-0.154628 0.934806,-0.231941 0.311601,-0.07731 0.645153,-0.06048 0.934804,-0.231939 0.323839,-0.191711 0.571059,-0.552369 0.856588,-0.828553 0.285529,-0.276185 0.599056,-0.509965 0.856588,-0.828556 0.162882,-0.201493 0.259454,-0.475055 0.389184,-0.712584 0.259459,-0.475056 0.518919,-0.950112 0.778378,-1.425167 0.12973,-0.237528 0.259451,-0.475058 0.389181,-0.712586 0.129729,-0.237526 0.354491,-0.428481 0.389189,-0.712583 0.04911,-0.401782 -0.18142,-0.78861 -0.156436,-1.193227 0.02791,-0.452378 0.283035,-0.856823 0.310967,-1.309198 0.02501,-0.404619 -0.205501,-0.79145 -0.156428,-1.193229 0.0347,-0.284104 0.323629,-0.436582 0.389189,-0.712585 0.04729,-0.199215 -0.19943,-1.521152 -0.234649,-1.789843 -0.04091,-0.311981 -0.230857,-2.244827 -0.312872,-2.386456 -0.13151,-0.227107 -0.414098,-0.253538 -0.545616,-0.480644 -0.430246,-0.742962 0.496088,-0.674101 -0.623831,-1.077258 -0.722962,-0.260255 -1.167863,1.801908 -1.634963,2.253723 -0.127694,0.123514 -0.375671,-0.05198 -0.467402,0.11597 -0.09173,0.167957 0.124571,0.40145 0.07821,0.596614 -0.06556,0.276003 -0.323629,0.43658 -0.389188,0.712584 -0.04636,0.195163 0.16995,0.428656 0.07821,0.596613 -0.09173,0.167959 -0.375669,-0.05198 -0.467402,0.115971 -0.09173,0.167957 0.05215,0.397743 0.07821,0.596614 0.02607,0.198871 -0.05039,0.483325 0.07821,0.596615 0.128604,0.113287 0.3116,-0.07731 0.467401,-0.115969 0.155803,-0.03865 0.375671,0.05198 0.467403,-0.115971 0.09173,-0.167958 -0.169948,-0.428656 -0.07821,-0.596615 0.09173,-0.167958 0.311602,-0.07731 0.467402,-0.11597"
         style="fill:url(#radialGradient6550);fill-opacity:1;stroke:#0000b7;stroke-width:2.53051043;stroke-linecap:butt;stroke-linejoin:miter;stroke-miterlimit:4;stroke-dasharray:none;stroke-opacity:1" />
      <path
         inkscape:connector-curvature="0"
         id="path3737"
         d="m 105.98634,49.999772 c -2.17052,-0.147909 -1.41757,0.334368 -2.49344,-0.613378 -0.18187,-0.160216 -0.33206,-0.403764 -0.54561,-0.480644 -0.15102,-0.05436 -0.3388,0.22926 -0.46741,0.11597 -0.1286,-0.113289 0.0148,-0.436026 -0.0782,-0.596613 -1.80959,-1.594097 0.29408,0.507823 -0.62383,-1.07726 -0.13152,-0.227105 -0.41411,-0.253538 -0.54562,-0.480643 -0.186,-0.321177 0.0296,-0.872052 -0.15643,-1.193228 -0.13152,-0.227106 -0.41411,-0.253537 -0.54562,-0.480644 -0.0875,-0.151143 -0.3565,-2.202773 -0.31287,-2.386457 0.0656,-0.276003 0.35449,-0.428483 0.38919,-0.712584 0.0491,-0.40178 -0.2055,-0.791448 -0.15643,-1.193229 0.0694,-0.568203 0.59529,-0.896496 0.77837,-1.425168 0.34011,-0.982102 0.12888,-1.315067 0.70015,-2.021783 0.25753,-0.31859 0.59906,-0.509962 0.85659,-0.828553 0.37802,-0.46764 0.78795,-1.770564 1.16756,-2.137752 0.25538,-0.247027 0.75134,0.103972 0.9348,-0.231941 0.0917,-0.167957 -0.16995,-0.428656 -0.0782,-0.596614 0.0917,-0.167957 0.31159,-0.07731 0.4674,-0.11597 0.1558,-0.03867 0.31639,-0.170333 0.4674,-0.11597 0.21357,0.07688 0.33205,0.403765 0.54562,0.480644 0.15101,0.05436 0.31639,-0.170332 0.46739,-0.115969 0.21357,0.07688 0.36375,0.320429 0.54562,0.480644 0.18188,0.160214 0.36375,0.32043 0.54562,0.480643 0.54562,0.480644 1.09124,0.961289 1.63685,1.441933 0.36375,0.320429 0.78545,0.553916 1.09125,0.961287 0.24176,0.322057 0.38208,0.755203 0.62383,1.077259 0.1529,0.203687 0.36375,0.320429 0.54562,0.480645 0.20794,0.359085 0.38208,0.7552 0.62383,1.077256 0.15291,0.203689 0.44097,0.231119 0.54563,0.480645 0.148,0.352883 0.0303,0.826112 0.15643,1.193228 0.14105,0.410448 0.48277,0.666811 0.62383,1.077258 0.12615,0.367117 0.10429,0.795486 0.15644,1.193228 0.0522,0.397744 0.18141,0.788611 0.15642,1.193229 -0.028,0.452377 -0.20731,0.8728 -0.31097,1.309197 -0.10365,0.4364 -0.14857,0.901584 -0.31096,1.309198 -0.41082,1.031197 -1.12135,1.835265 -1.55675,2.850338 -0.27752,0.646984 -0.42264,1.374799 -0.70015,2.021782 -0.4354,1.015073 -1.03783,1.900225 -1.55675,2.850338 -1.29728,2.37528 -2.59457,4.75056 -3.89185,7.12584 -0.51892,0.950111 -1.03784,1.900225 -1.55675,2.850338 -0.25946,0.475055 -0.57296,0.90957 -0.77837,1.425169 -0.16239,0.407614 -0.20731,0.872798 -0.31097,1.309196 -0.23338,0.673929 -0.42264,1.374798 -0.70016,2.021783 -0.43539,1.015072 -1.12133,1.835265 -1.55674,2.850337 -0.27751,0.646985 -0.36941,1.416203 -0.70015,2.021781 -0.330744,0.605582 -0.915033,0.935559 -1.245775,1.54114 -0.330741,0.605579 -0.422635,1.374797 -0.700155,2.021782 -0.435405,1.015072 -1.121343,1.835264 -1.556748,2.850336 -0.277512,0.646984 -0.422636,1.374798 -0.700148,2.021784 -0.326551,0.761302 -0.892936,1.344742 -1.167558,2.13775 -0.289478,0.835904 -0.332464,1.782495 -0.621942,2.618399 -0.09154,0.264336 -0.323629,0.43658 -0.389189,0.712583 -0.09271,0.390327 0.249149,0.802901 0.156436,1.193227 -0.06559,0.276004 -0.323629,0.436582 -0.389181,0.712586 -0.04637,0.195162 0.05217,0.397742 0.07817,0.596613 0.02608,0.198872 -0.05043,0.483327 0.07825,0.596614 0.128604,0.113291 0.375666,0.05199 0.467403,-0.11597 0.09173,-0.167957 -0.16995,-0.428656 -0.07825,-0.596614 0.09173,-0.167958 0.33971,0.0075 0.467394,-0.11597 1.290771,-2.363344 -0.403796,0.390586 0.856592,-0.828553 0.361174,-0.34935 0.417203,-1.075821 0.77837,-1.425169 0.127692,-0.123515 0.33971,0.0075 0.467402,-0.115971 0.513959,-0.49713 0.653609,-1.640619 1.167559,-2.137753 0.127692,-0.123513 0.33971,0.0075 0.467403,-0.11597 0.180583,-0.174674 0.259459,-0.475055 0.389189,-0.712583 0.311596,-0.07731 0.645153,-0.06048 0.934805,-0.231939 0.323836,-0.191712 0.532753,-0.636844 0.856583,-0.828554 0.28965,-0.171473 0.63948,-0.07813 0.93481,-0.231941 0.46695,-0.243205 0.84791,-0.734572 1.32398,-0.944525 0.6022,-0.26557 1.24641,-0.309253 1.86961,-0.46388 0.62321,-0.154627 1.24641,-0.309254 1.86962,-0.46388 2.99137,-0.742209 1.68264,-0.417493 4.67401,-1.159702 0.93481,-0.231939 1.88437,-0.373045 2.80442,-0.695819 1.08429,-0.380392 2.1093,-1.028013 3.1936,-1.408404 0.92005,-0.322772 1.88436,-0.373046 2.80441,-0.695821 1.0843,-0.380391 2.10931,-1.028012 3.1936,-1.408402 1.68676,-0.591751 3.42761,-0.850446 5.14142,-1.27567 1.09061,-0.270597 2.18121,-0.541194 3.27182,-0.811792 0.3116,-0.07731 0.62271,-0.284371 0.93481,-0.231939 0.22068,0.03707 0.33205,0.403762 0.5456,0.480643 0.15102,0.05436 0.31161,-0.07731 0.46742,-0.115971 0.15579,-0.03865 0.31159,-0.07731 0.46739,-0.115969"
         style="fill:url(#radialGradient6548);fill-opacity:1;stroke:#0000b7;stroke-width:2.53051043;stroke-linecap:butt;stroke-linejoin:miter;stroke-miterlimit:4;stroke-dasharray:none;stroke-opacity:1" />
      <path
         inkscape:connector-curvature="0"
         id="path3739"
         d="m 176.89208,30.36322 c -0.26009,-0.75683 -0.52019,-1.513656 -0.78028,-2.270486 -0.0522,-0.397743 -0.0303,-0.826112 -0.15642,-1.193228 -0.14105,-0.410448 -0.48278,-0.66681 -0.62383,-1.077259 -0.12616,-0.367116 -0.008,-0.840343 -0.15644,-1.193228 -0.10465,-0.249527 -0.39272,-0.276957 -0.54562,-0.480643 -0.4835,-0.644114 -0.76415,-1.510403 -1.24766,-2.154517 -0.53627,-0.714402 -0.80152,-0.434697 -1.55864,-0.845317 -0.20379,-0.110521 -0.34184,-0.370125 -0.54562,-0.480645 -0.32222,-0.174748 -0.69081,-0.189926 -1.01302,-0.364675 -0.20379,-0.11052 -0.33205,-0.403763 -0.54563,-0.480643 -0.15399,-0.05544 -1.54685,0.3838 -1.8696,0.46388 -0.31161,0.07732 -0.6232,0.154626 -0.9348,0.23194 -0.3116,0.07731 -0.64516,0.06047 -0.93481,0.231941 -0.32384,0.191711 -0.55478,0.583144 -0.85659,0.828553 -0.42682,0.347063 -0.89716,0.597462 -1.32398,0.944525 -0.83816,0.681519 -1.37117,1.465129 -2.10237,2.369692 -0.41525,0.513712 -0.91503,0.935558 -1.24578,1.541139 -0.33074,0.605578 -0.41274,1.381708 -0.70014,2.021781 -0.3382,0.753173 -0.82938,1.38458 -1.16756,2.137754 -1.09047,2.428566 -1.3377,5.212268 -1.86582,7.855187 -0.45197,2.261815 -0.97671,3.423367 -1.16566,5.833408 -0.0964,1.228933 0.002,2.46377 0.002,3.695655 6.3e-4,1.231888 -0.0835,2.471497 0.002,3.695658 0.16855,2.415002 0.62573,4.772912 0.93859,7.159367 0.13036,0.994359 0.26073,1.988714 0.39109,2.983072 0.13035,0.994355 0.17549,2.016139 0.39107,2.98307 0.84072,3.770654 0.48052,0.943538 1.94972,3.828388 0.35186,0.690885 0.39684,1.608363 0.78027,2.270486 0.26304,0.454214 0.75838,0.590358 1.09125,0.96129 0.42432,0.472845 0.70575,1.149432 1.16945,1.557902 2.04688,1.803142 0.91118,0.163669 2.57165,1.209991 0.39679,0.250026 0.67543,0.765643 1.09123,0.961288 1.24315,0.584913 2.57886,-0.02384 3.81745,-0.331147 0.4674,-0.115969 0.93479,-0.231939 1.4022,-0.347909 0.4674,-0.11597 0.95402,-0.135435 1.4022,-0.34791 1.25411,-0.594546 1.6132,-1.302299 2.56977,-2.485664 0.83052,-1.027424 1.73169,-1.968738 2.49155,-3.082275 0.29804,-0.436764 0.51891,-0.950113 0.77837,-1.425167 0.62691,-1.147853 1.77951,-2.73121 1.86771,-4.159537 0.025,-0.404618 -0.18142,-0.78861 -0.15643,-1.193229 0.028,-0.452376 0.28303,-0.85682 0.31097,-1.309196 0.0375,-0.606928 -0.15644,-1.19323 -0.23465,-1.789843 -0.0261,-0.19887 0.0147,-0.436026 -0.0783,-0.596614 -0.13151,-0.227105 -0.41409,-0.253537 -0.5456,-0.480645 -0.093,-0.160587 0.0503,-0.483324 -0.0783,-0.596614 -0.1286,-0.113288 -0.37567,-0.05198 -0.4674,0.115972 -0.0917,0.167959 0.12458,0.401449 0.0782,0.596613 -0.0656,0.276004 -0.32362,0.436582 -0.38919,0.712585 -0.0463,0.195162 0.0522,0.397744 0.0783,0.596613 0.0522,0.397743 0.18142,0.788609 0.15642,1.193229 -0.028,0.452377 -0.28302,0.85682 -0.31095,1.309197 -0.025,0.404619 0.10428,0.795485 0.15642,1.193229 0.0522,0.397743 0.10429,0.795485 0.15644,1.193228 0.0836,0.637765 0.36158,3.555324 0.54751,4.176299 0.17746,0.5927 0.52459,1.081171 0.70205,1.673872 0.53099,1.773352 -0.38314,0.720636 0.78026,2.270487 0.15291,0.203686 0.36375,0.320428 0.54563,0.480644 0.36375,0.32043 0.68367,0.740247 1.09123,0.961287 0.14411,0.07816 0.31639,-0.170332 0.46741,-0.115969 0.21356,0.07688 0.32492,0.443571 0.54561,0.480644 0.27205,0.0457 2.40776,-0.597403 2.80442,-0.695821 0.95024,-0.235772 1.41027,-0.220042 2.25879,-1.176464 0.33993,-0.383157 0.48033,-0.988404 0.77837,-1.425168 2.55344,-3.741959 0.14476,0.474778 2.02415,-2.966308 0.25946,-0.475055 0.56067,-0.917629 0.77837,-1.425166 0.59473,-1.386509 0.68816,-1.971293 1.01113,-3.330982 0.10365,-0.436398 0.2998,-0.856192 0.31096,-1.309196 0.015,-0.607774 -0.15643,-1.19323 -0.23465,-1.789843 -0.0782,-0.596614 -0.0662,-1.22756 -0.23464,-1.789842 -0.12549,-0.419103 -0.44032,-0.696478 -0.62383,-1.077259 -0.25954,-0.538506 -0.37788,-1.197502 -0.70206,-1.673873 -0.28996,-0.426082 -0.72749,-0.640859 -1.09123,-0.961288 -0.36375,-0.32043 -0.7275,-0.640858 -1.09124,-0.961287 -0.36374,-0.320431 -0.67542,-0.765644 -1.09124,-0.961288 -0.4649,-0.218737 -0.98695,-0.165803 -1.48042,-0.248706 -0.49348,-0.0829 -0.99236,-0.12864 -1.48043,-0.248704 -0.34511,-0.0849 -0.65996,-0.362222 -1.01302,-0.364674 -0.47366,-0.0033 -0.9348,0.23194 -1.4022,0.34791 -0.4674,0.11597 -0.93481,0.23194 -1.40221,0.34791 -0.77901,0.193284 -1.558,0.386567 -2.33701,0.579851 -0.3116,0.07731 -0.65568,0.03281 -0.9348,0.23194 -0.19737,0.140801 -0.25946,0.475056 -0.38919,0.712584 -0.12972,0.237527 -0.25945,0.475057 -0.38918,0.712584 -0.12974,0.23753 -0.32363,0.43658 -0.38918,0.712584 -0.0132,0.05579 0.28628,2.340536 0.31285,2.386456 0.31755,0.548342 1.14736,0.697263 1.55864,0.845321 0.33767,0.121557 0.6609,0.340676 1.01303,0.364672 0.31494,0.02145 0.6232,-0.154627 0.93479,-0.23194 0.46741,-0.11597 0.95058,-0.148732 1.40222,-0.347911 1.73352,-0.764501 3.43173,-2.15234 4.82856,-3.662126 0.44108,-0.476764 0.80468,-1.064373 1.24576,-1.541137 0.54711,-0.591357 1.16607,-1.065753 1.71318,-1.657109 0.4411,-0.476765 0.83052,-1.027427 1.24578,-1.541139 0.41525,-0.513711 0.86585,-0.984371 1.24577,-1.541138 0.59608,-0.873532 1.03783,-1.900223 1.55675,-2.850338 0.12973,-0.237527 0.25945,-0.475054 0.38918,-0.712583 0.12972,-0.237528 0.32363,-0.43658 0.38919,-0.712583 0.0927,-0.390327 -0.24915,-0.802903 -0.15644,-1.193229 0.0656,-0.276005 0.20731,-0.872799 0.38918,-0.712584 0.18188,0.160215 -0.35447,0.428483 -0.38918,0.712584 -0.049,0.40178 0.10429,0.795485 0.15644,1.193229 0.0522,0.397743 0.10428,0.795485 0.15642,1.193226 0.18251,1.392101 0.36501,2.784201 0.54752,4.176299 0.10429,0.795488 0.27804,1.578761 0.31287,2.386459 0.0444,1.029611 -0.12956,2.07041 -0.0763,3.099038 0.0522,1.008655 0.26072,1.988715 0.39107,2.98307 0.13037,0.994358 0.26073,1.988714 0.39109,2.983072 0.31286,2.386457 0.62573,4.772912 0.9386,7.159369 0.0294,0.224135 0.37744,2.97108 0.39108,2.983071 0.1286,0.113289 0.33879,-0.22926 0.4674,-0.11597 0.12861,0.113289 0.23402,0.557956 0.0782,0.596614 -0.15579,0.03867 -0.12457,-0.401451 -0.0782,-0.596614 0.0656,-0.276003 0.25946,-0.475057 0.38919,-0.712584 0.10365,-0.436402 0.23571,-0.864212 0.31096,-1.309199 0.17214,-1.017845 0.40417,-3.503781 0.3873,-4.408239 -0.0113,-0.607018 -0.22332,-1.182822 -0.23465,-1.789842 -0.0156,-0.834266 0.0814,-1.670221 0.15453,-2.502426 0.0561,-0.638272 0.2447,-1.265961 0.23276,-1.905813 -0.0151,-0.809358 -0.29777,-1.577099 -0.31286,-2.386457 -0.0238,-1.279707 0.46616,-2.530771 0.46549,-3.811623 -2.5e-4,-0.607564 -0.23433,-1.182281 -0.23465,-1.789843 -1.3e-4,-0.532375 0.28973,-2.577455 0.54373,-3.215009 0.20541,-0.515599 0.57296,-0.909574 0.77837,-1.42517 0.16239,-0.407616 0.16624,-0.891246 0.31097,-1.309197 0.18308,-0.528674 0.64726,-0.873163 0.77837,-1.425171 0.0463,-0.195161 -0.16994,-0.428655 -0.0782,-0.596613 0.0917,-0.167959 0.3116,-0.07731 0.46741,-0.115969 0.15579,-0.03865 0.33879,-0.229261 0.46739,-0.115971 0.12861,0.113289 -0.0147,0.436026 0.0783,0.596615 1.58729,2.740962 -0.60064,-2.676749 0.70206,1.673871 0.17746,0.592701 0.53973,1.073639 0.70204,1.673873 0.15399,0.569433 0.15644,1.193227 0.23465,1.789842 0.0783,0.596614 0.15644,1.193228 0.23465,1.789843 0.20858,1.59097 0.41716,3.181941 0.62574,4.772913 0.10429,0.795484 0.29775,1.577097 0.31286,2.386455 0.0119,0.639854 -0.23308,1.265385 -0.23276,1.905812 2.6e-4,0.607566 0.23434,1.182282 0.23466,1.789843 2e-5,0.640434 -0.21698,1.265165 -0.23276,1.905814 -0.0199,0.81036 0.20858,1.59097 0.31287,2.386457 0.0261,0.19887 -0.0504,0.483323 0.0782,0.596612 0.7127,0.62783 1.1316,-2.047501 1.16756,-2.137753 0.20541,-0.515597 0.56067,-0.917632 0.77837,-1.425165 0.27751,-0.646987 0.46677,-1.347857 0.70016,-2.021785 0.58038,-1.675936 1.04061,-2.783891 1.32209,-4.640179 0.1249,-0.823722 0.10302,-1.668284 0.15453,-2.502425 0.19405,-3.142185 0.0534,-1.674137 0.38729,-4.408238 0.15517,-1.270543 0.38649,-2.532111 0.46551,-3.811626 0.0316,-0.512357 -0.31405,-1.154122 -0.15643,-1.193229 0.1558,-0.03865 0.0522,0.397742 0.0783,0.596614 0.0261,0.198872 0.0522,0.397744 0.0782,0.596615 0.13036,0.994355 0.26073,1.988713 0.39109,2.983069 0.0782,0.596616 0.0806,1.220412 0.23465,1.789843 0.16232,0.600235 0.53972,1.073638 0.70203,1.673874 0.15401,0.569428 0.0807,1.22041 0.23465,1.789843 0.16233,0.600229 0.46804,1.115912 0.70207,1.67387 0.46802,1.115916 0.93606,2.231831 1.4041,3.347742 0.23402,0.557957 0.40796,1.166052 0.70205,1.673875 0.13152,0.227105 0.39271,0.276959 0.54563,0.480644 0.24173,0.322059 0.38206,0.755203 0.62382,1.077258 0.1529,0.203686 0.36374,0.320429 0.54561,0.480645 0.18188,0.160213 0.33206,0.403765 0.54563,0.480642 0.151,0.05436 0.31158,-0.07731 0.4674,-0.115966 0.57558,-0.142814 0.87679,-0.125718 1.32399,-0.944529 0.20511,-0.375562 0.14857,-0.901579 0.31097,-1.309195 0.2054,-0.515595 0.56066,-0.917632 0.77837,-1.42517 0.55503,-1.293967 0.93353,-2.695708 1.40032,-4.043565 0.23337,-0.673926 0.56527,-1.307815 0.70014,-2.021779 0.15425,-0.816457 0.10303,-1.668286 0.15455,-2.502429 0.0514,-0.834143 0.10301,-1.668282 0.15453,-2.502426 0.0515,-0.834142 0.10303,-1.668285 0.15455,-2.502428 0.0514,-0.834143 0.17009,-1.668159 0.15453,-2.502425 -0.0189,-1.011696 -0.26073,-1.988714 -0.39109,-2.98307 -0.0522,-0.397745 -0.10429,-0.795487 -0.15643,-1.193229 -0.0522,-0.397743 -0.008,-0.840347 -0.15644,-1.193227 -0.0686,-0.163424 -0.75356,-0.839732 -1.01302,-0.364676 -0.002,0.0035 0.23535,1.765954 0.23465,1.789843 -0.0157,0.640647 -0.24469,1.265961 -0.23275,1.905811 0.0302,1.618716 0.54221,3.159068 0.62574,4.772912 0.0635,1.227081 -0.0775,2.470622 0.002,3.695659 0.0782,1.208365 0.31285,2.386457 0.46929,3.579685 0.1825,1.392099 0.36501,2.784198 0.54751,4.176299 0.20857,1.59097 0.49532,3.165747 0.62573,4.772911 0.13146,1.619671 0.0223,3.269995 0.15834,4.888881 0.15192,1.807183 0.4693,3.579685 0.70394,5.369529 0.67788,5.170654 1.35575,10.341311 2.03362,15.511967 0.5736,4.375166 1.14718,8.750336 1.72077,13.12551 0.0782,0.59661 0.15643,1.19322 0.23465,1.78984 0.0261,0.19888 0.23402,0.55797 0.0782,0.59662 -0.15581,0.0387 -0.0522,-0.39774 -0.0782,-0.59662 -0.0782,-0.59662 -0.0807,-1.22041 -0.23465,-1.78984 -0.16232,-0.600237 -0.55076,-1.068597 -0.70204,-1.673873 -0.19139,-0.765623 -0.20859,-1.590968 -0.31287,-2.386456 -0.31287,-2.386459 -0.62573,-4.772915 -0.9386,-7.159371 -0.49537,-3.778558 -0.99074,-7.557114 -1.48611,-11.335667 -0.20858,-1.590973 -0.41715,-3.181944 -0.62573,-4.772916 -0.18251,-1.392097 -0.44318,-2.768455 -0.54751,-4.176298 -0.12133,-1.637069 -0.0637,-6.203076 -0.0821,-7.987917 -0.0147,-1.431445 -0.14818,-2.860587 -0.0801,-4.292272 0.0684,-1.437476 0.7033,-5.495672 1.00923,-7.026638 0.17643,-0.882936 0.41464,-1.745596 0.62192,-2.618393 0.20733,-0.872801 0.31184,-1.794193 0.62195,-2.618397 0.2942,-0.781909 0.77837,-1.425168 1.16756,-2.137755 0.25945,-0.475053 0.51891,-0.95011 0.77836,-1.425164 0.25946,-0.475058 0.41722,-1.075823 0.77837,-1.425169 0.2554,-0.247028 0.62323,-0.15463 0.93482,-0.231941 1.45888,-0.361975 1.31325,0.163627 2.10426,1.32596 0.36962,0.543148 0.86176,0.953745 1.16945,1.557902 0.35185,0.690887 0.52017,1.51366 0.78026,2.270489 0.2601,0.756826 0.59393,1.476619 0.78028,2.270482 0.18078,0.770167 0.20858,1.590972 0.31287,2.386457 0.13036,0.994358 0.26071,1.988714 0.39108,2.983072 0.30885,2.355827 0.92922,4.850798 0.47118,7.27534 -0.13487,0.713968 -0.50306,1.330066 -0.70016,2.021784 -0.67502,2.369148 -0.26105,2.374026 -1.4003,4.043562 -0.37993,0.556769 -0.86586,0.984372 -1.24579,1.541142 -0.29802,0.436762 -0.43843,1.042009 -0.77837,1.425169 -0.38005,0.42838 -0.88265,0.629679 -1.32398,0.944521 -0.44133,0.314841 -0.8313,0.822282 -1.32399,0.944525 -0.84723,0.210213 -0.96537,-0.523567 -1.55863,-0.84532 -0.32223,-0.174744 -0.72546,-0.111352 -1.01302,-0.364673 -0.74971,-0.660425 -0.7258,-1.854954 -0.8585,-2.867099 -0.0782,-0.596614 -0.33561,-1.192831 -0.23465,-1.789843 0.0952,-0.562869 0.56068,-0.91763 0.77838,-1.425167 0.27751,-0.646984 0.45013,-1.357291 0.70015,-2.021785 0.34672,-0.921483 0.74263,-1.812879 1.08934,-2.734364 0.25003,-0.664495 0.40596,-1.38666 0.70016,-2.021782 0.46159,-0.996465 1.03783,-1.900227 1.55674,-2.850338 0.90812,-1.662698 1.8162,-3.325394 2.72431,-4.98809 0.51891,-0.950112 1.03782,-1.900222 1.55676,-2.850338 0.38917,-0.712583 0.69394,-1.513878 1.16754,-2.13775 0.4992,-0.657618 1.14212,-1.104739 1.71317,-1.65711 0.28552,-0.276181 0.59906,-0.509962 0.85659,-0.82855 0.0973,-0.120371 0.44011,-1.195439 0.85659,-0.828555 0.12861,0.113285 0.004,0.420173 0.0782,0.596614 0.16549,0.394531 0.4828,0.666808 0.62385,1.077257 0.31539,0.917789 0.13441,2.034019 0.39107,2.983068 0.16233,0.600234 0.53973,1.07364 0.70205,1.673875 0.15399,0.569432 0.15643,1.193227 0.23465,1.789843 0.10428,0.795484 0.20858,1.590968 0.31286,2.386456 0.23465,1.789843 0.4693,3.579686 0.70395,5.369525 0.0782,0.596617 0.0663,1.227558 0.23465,1.789843 0.1255,0.419101 0.45836,0.682723 0.62385,1.077257 0.30771,0.733689 -0.2318,1.289549 1.09121,0.961291 0.15582,-0.03865 0.35225,0.02652 0.46742,-0.115973 0.32575,-0.402986 0.5189,-0.95011 0.77837,-1.425168 0.25944,-0.475053 0.56066,-0.917631 0.77837,-1.425169 0.27752,-0.646982 0.46677,-1.347853 0.70014,-2.02178 0.5804,-1.675934 1.04064,-2.783892 1.32211,-4.640179 0.12491,-0.823723 0.10303,-1.668284 0.15454,-2.502428 0.10301,-1.668282 0.10675,-3.348266 0.30906,-5.00485 0.0549,-0.449208 0.28304,-0.856824 0.31097,-1.309201 0.0375,-0.606924 -0.15642,-1.193227 -0.23465,-1.789841 -0.0261,-0.198873 -0.23401,-0.557957 -0.0782,-0.596614 0.15582,-0.03865 0.0522,0.397741 0.0782,0.596614 0.0522,0.397744 0.0303,0.826112 0.15644,1.193227 0.14106,0.410449 0.50906,0.652832 0.62383,1.077262 0.20533,0.759239 0.1215,1.620829 0.31286,2.386455 0.1513,0.605279 0.55077,1.068591 0.70207,1.673871 0.19137,0.765622 0.14039,1.612909 0.31287,2.386455 0.21986,0.986079 0.63861,1.881023 0.85847,2.867102 0.17247,0.773546 0.13209,1.616292 0.31286,2.386456 0.18636,0.793866 0.59394,1.47662 0.78028,2.270486 0.18078,0.770164 0.12148,1.620835 0.31287,2.386454 0.17762,0.710683 1.1505,2.972233 1.87149,3.231776 0.15102,0.05436 0.3116,-0.07731 0.4674,-0.115969 0.15581,-0.03865 0.31161,-0.07732 0.46741,-0.115971 0.15581,-0.03867 0.37567,0.05199 0.4674,-0.115969 0.20512,-0.375565 0.13886,-0.907954 0.31097,-1.309199 0.32654,-0.761303 0.82938,-1.38458 1.16755,-2.137751 0.41064,-0.914545 1.57035,-4.888436 1.71129,-5.352762 0.33703,-1.110326 0.77361,-2.182041 1.01112,-3.330982 0.25763,-1.246204 0.28938,-2.544896 0.46551,-3.811623 0.23792,-1.711255 0.51765,-3.413884 0.77647,-5.120824 0.79289,-5.22902 1.70262,-10.514681 1.78382,-15.843114 0.0746,-4.900449 -0.78302,-9.65375 -1.40979,-14.4347089 -0.51244,-3.9086916 0.19325,0.310045 -0.93671,-3.4637137 -0.11222,-0.3748626 -0.008,-0.8403433 -0.15643,-1.1932283 -0.10465,-0.249528 -0.4141,-0.2535384 -0.54562,-0.4806433 -0.093,-0.1605885 -0.23401,-0.5579596 -0.0783,-0.5966138 0.1558,-0.038658 0.0522,0.3977434 0.0783,0.5966138 0.0782,0.5966138 0.15643,1.1932283 0.23465,1.7898429 0.26071,1.9887134 0.52144,3.9774267 0.78216,5.9661403 0.67788,5.170655 1.35576,10.341311 2.03363,15.511967 0.26072,1.988714 0.59956,3.960605 0.78216,5.966142 0.18351,2.015536 0.2181,4.053786 0.31477,6.082109 0.0871,1.827608 0.2356,3.651595 0.23654,5.485496 0.002,1.867152 -0.2024,3.733689 -0.23085,5.601468 -0.0219,1.432522 0.0654,2.860826 0.0801,4.29227 0.0126,1.231377 -0.0702,2.469645 0.002,3.695652 0.89815,6.850915 0.12403,-0.541815 0.23654,5.4855 0.0113,0.607016 0.15642,1.193229 0.23465,1.789843 0.026,0.198871 0.23401,0.557955 0.0782,0.596613 -0.15579,0.03865 -0.10277,-0.395721 -0.0782,-0.596613 0.0549,-0.449209 0.25611,-0.859998 0.31097,-1.309202 0.10115,-0.82829 0.19044,-1.669873 0.15453,-2.502423 -0.0435,-1.009622 -0.33177,-1.975299 -0.39108,-2.983071 -0.0721,-1.226009 0.0774,-2.47062 -0.002,-3.695657 -0.199,-3.072458 -0.71807,-4.686284 -1.48423,-7.640014 -0.30085,-1.159863 -0.53433,-2.358521 -0.93669,-3.463714 -0.66779,-1.83428 -2.48226,-5.115852 -3.74302,-6.463548 -0.50814,-0.543185 -1.09124,-0.961286 -1.63685,-1.441933 -0.36375,-0.320427 -0.69445,-0.711262 -1.09124,-0.961286 -0.31369,-0.197663 -0.69933,-0.167013 -1.01302,-0.364676 -1.37022,-0.863427 -0.67088,-1.085164 -2.10425,-1.325963 -0.15606,-0.02621 -0.33881,0.229262 -0.4674,0.115971 -0.1286,-0.113292 -0.23402,-0.557956 -0.0783,-0.596614 0.22034,-0.05467 0.32494,0.44357 0.54563,0.480643 0.3121,0.05243 0.61986,-0.253404 0.9348,-0.231938 0.35212,0.024 0.65997,0.362223 1.01302,0.364674 0.47367,0.0033 0.92844,-0.31748 1.40221,-0.347913 0.65113,-0.04183 1.29855,0.08849 1.94782,0.132736 0.64928,0.04424 1.29855,0.08849 1.94782,0.132733 0.64928,0.04425 1.29751,0.200596 1.94784,0.132733 1.41953,-0.148127 2.78613,-0.920507 4.20661,-1.043731 0.65075,-0.05645 1.29669,0.174559 1.94782,0.132738 0.47378,-0.03043 0.92854,-0.351198 1.40222,-0.347914 0.35304,0.0024 0.66407,0.306058 1.013,0.364677 0.64965,0.109136 0.92965,-0.702397 1.48044,0.248702 0.093,0.160589 0.0522,0.397743 0.0782,0.596613 0.0522,0.397743 0.008,0.840349 0.15644,1.193228 0.10465,0.249528 0.45641,0.221055 0.54561,0.480647 0.15354,0.446766 0.54568,4.162344 0.62573,4.772912 0.4693,3.579685 0.9386,7.159369 1.40789,10.739054 0.20858,1.590971 0.41716,3.181943 0.62573,4.772912 0.0261,0.198871 0.0522,0.397745 0.0782,0.596616 0.0261,0.19887 0.23403,0.557955 0.0783,0.596613 -0.15581,0.03865 -0.10276,-0.395722 -0.0783,-0.596613 0.0549,-0.449205 0.29982,-0.856193 0.31098,-1.3092 0.015,-0.607772 -0.15643,-1.193227 -0.23464,-1.789842 -0.15644,-1.193228 -0.31288,-2.386457 -0.46931,-3.579684"
         style="fill:url(#radialGradient6546);fill-opacity:1;stroke:#0000b7;stroke-width:2.53051043;stroke-linecap:butt;stroke-linejoin:miter;stroke-miterlimit:4;stroke-dasharray:none;stroke-opacity:1" />
      <path
         inkscape:connector-curvature="0"
         id="path3741"
         d="m 269.79407,13.405915 c 2.17706,0.783712 1.90945,-0.160032 2.10426,1.325963"
         style="fill:url(#radialGradient6544);fill-opacity:1;stroke:#0000b7;stroke-width:2.53051043;stroke-linecap:butt;stroke-linejoin:miter;stroke-miterlimit:4;stroke-dasharray:none;stroke-opacity:1" />
      <path
         inkscape:connector-curvature="0"
         id="path3743"
         d="m 280.0916,24.50695 c 0.0992,2.12556 0.79186,4.446909 0.86038,6.562755 0.027,0.833405 -0.18153,1.66902 -0.15455,2.502429 0.0263,0.808519 0.27804,1.57876 0.31287,2.386455 0.0444,1.029612 -0.0337,2.066378 -0.0763,3.099039 -0.0344,0.835016 -0.19045,1.669872 -0.15454,2.502426 0.0435,1.009619 0.34753,1.973452 0.39108,2.983069 0.0359,0.832557 -0.18152,1.669023 -0.15454,2.50243 0.0262,0.808521 0.31245,1.576373 0.31286,2.386456 0.002,5.348402 -0.97673,-3.769135 -0.0764,3.099038 0.026,0.198873 0.0522,0.397744 0.0782,0.596615 0.026,0.198872 0.23402,0.557956 0.0783,0.596614 -0.15581,0.03865 -0.12457,-0.401452 -0.0783,-0.596614 0.0656,-0.276002 0.32362,-0.436581 0.38918,-0.712581 0.14659,-0.617164 0.15517,-1.270546 0.23276,-1.905815 0.0776,-0.635267 0.17667,-1.267539 0.23275,-1.905813 0.0731,-0.832205 0.0296,-1.678705 0.15453,-2.502423 0.13547,-0.893453 0.51224,-1.719991 0.62194,-2.618397 0.1251,-1.024345 0.0337,-2.06638 0.0763,-3.099044 0.0344,-0.835016 0.0814,-1.670217 0.15452,-2.502424 0.11217,-1.276546 0.31034,-2.541083 0.46552,-3.811627 0.0776,-0.635269 0.21697,-1.265163 0.23274,-1.905807 0.01,-0.405179 -0.10429,-0.795488 -0.15643,-1.19323 0.10366,-0.4364 0.28304,-0.856823 0.31097,-1.3092 0.025,-0.404621 -0.2055,-0.791446 -0.15642,-1.193227 0.0347,-0.284103 0.25944,-0.475055 0.38917,-0.712583 0.57265,-1.0485 0.16885,-0.657917 1.324,-0.944528 1.50455,-0.373302 -0.81634,0.05735 1.01301,0.364678 0.31211,0.05243 0.62271,-0.284373 0.93481,-0.23194 0.22069,0.03707 0.36375,0.320428 0.54563,0.480641 0.36373,0.320431 0.69445,0.711262 1.09124,0.961285 0.31367,0.197669 0.72545,0.111355 1.013,0.364681 0.28758,0.253316 0.4159,0.71817 0.62384,1.077254 0.55453,0.957563 0.97228,1.57017 1.32589,2.75113 0.11223,0.374862 0.10429,0.795485 0.15643,1.193228 0.0783,0.596615 0.15644,1.193229 0.23465,1.789843 0.0522,0.397742 0.1664,0.788051 0.15644,1.193228 -0.0157,0.640648 -0.2331,1.26539 -0.23276,1.905815 2.5e-4,0.607562 0.30825,1.187171 0.23464,1.789841 -0.0885,0.724323 -0.53301,1.31811 -0.70016,2.021783 -0.29317,1.234323 -0.25264,2.553013 -0.46548,3.811622 -0.0753,0.444991 -0.28305,0.856822 -0.31098,1.309201 -0.025,0.40462 0.18142,0.788608 0.15642,1.193228 -0.028,0.452379 -0.2561,0.859993 -0.31096,1.309198 -0.0385,0.315324 0.18817,1.748911 0.23466,1.789843 0.3147,0.277227 1.86445,-1.516037 2.18057,-1.773081 0.42683,-0.347063 0.90361,-0.584432 1.32399,-0.944521 4.12788,-3.535948 -0.76019,0.424965 3.34814,-3.910835 0.66524,-0.702077 1.56035,-1.005807 2.18057,-1.773076 0.6515,-0.805978 0.9906,-1.944958 1.55674,-2.850333 0.50041,-0.80025 1.08998,-1.502485 1.63496,-2.253725 0.67472,-0.98877 1.38944,-1.935308 2.02414,-2.966305 1.12148,-1.821681 1.98118,-3.88992 3.1135,-5.700678 0.50043,-0.800248 1.12833,-1.459849 1.63494,-2.253718 0.4299,-0.673622 0.77838,-1.425169 1.16758,-2.137755 0.90809,-1.662695 1.81618,-3.325392 2.7243,-4.988088 0.12973,-0.237531 0.32362,-0.436582 0.38918,-0.712584 0.0927,-0.390326 -0.3399,-0.857312 -0.15644,-1.193227 0.0917,-0.167957 0.37568,0.05199 0.46741,-0.115973 0.0917,-0.167957 -0.0522,-0.397745 -0.0782,-0.596615 -0.0261,-0.198871 0.0147,-0.436024 -0.0782,-0.596614 -0.13152,-0.227104 -0.36375,-0.320427 -0.54563,-0.480641 -0.18187,-0.160214 -0.33206,-0.403764 -0.54561,-0.480645 -0.15103,-0.05436 -0.31135,0.142184 -0.46741,0.115973 -0.34893,-0.05862 -0.66408,-0.306054 -1.01302,-0.364677 -0.15605,-0.02621 -0.3116,0.07731 -0.4674,0.11597 -0.4674,0.115968 -0.9348,0.231939 -1.4022,0.347908 -1.4275,0.354184 -0.65568,0.03281 -2.25878,1.176466 -0.44135,0.314842 -0.9202,0.553939 -1.32401,0.944526 -1.03644,1.002526 -2.56312,3.704186 -3.1917,5.104058 -0.2874,0.640073 -0.46677,1.347853 -0.70016,2.021784 -0.58038,1.675933 -1.04061,2.783888 -1.32209,4.640179 -0.34253,2.258933 -0.12814,2.703756 0.15833,4.88888 0.0782,0.596614 0.0807,1.220411 0.23465,1.789842 0.13494,0.49896 0.92599,2.275817 1.32589,2.751128 0.32338,0.384396 0.72749,0.640861 1.09123,0.961291 0.36375,0.32043 0.67543,0.765645 1.09123,0.961288 0.46488,0.218741 0.98695,0.165806 1.48043,0.248705 0.49347,0.0829 0.98088,0.265895 1.48041,0.248705 1.32502,-0.0456 1.95669,-0.725243 3.19361,-1.408405 3.14057,-1.734567 1.4135,-0.358862 3.97197,-2.833573 0.67184,-0.649848 2.40886,-2.191047 2.95895,-3.198248 0.33074,-0.605579 0.42264,-1.374799 0.70016,-2.021782 0.21769,-0.507534 0.61487,-0.886576 0.77837,-1.42517 0.007,-0.02192 0.4514,-3.728292 0.46549,-3.81162 0.16912,-0.99996 0.57908,-1.490221 0.15456,-2.502431 -0.10466,-0.249526 -0.41411,-0.253536 -0.54563,-0.48064 -0.12367,-0.213562 -0.12311,-1.691581 -0.23465,-1.789843 -0.12861,-0.113289 -0.3116,0.07731 -0.4674,0.115969 -0.1558,0.03865 -0.33971,-0.0075 -0.46739,0.115968 -0.1806,0.174676 -0.25947,0.475056 -0.3892,0.712588 -0.49497,0.906253 -0.48071,0.724184 -0.70016,2.021781 -0.0776,0.635273 -0.15515,1.270539 -0.23274,1.905811 -0.25947,0.475057 -0.64726,0.873161 -0.77838,1.42517 -0.19113,0.80468 -0.10303,1.668286 -0.15452,2.502423 -0.15431,2.498587 -0.36055,5.006174 -0.46363,7.507283 -0.0426,1.032658 0.0247,2.071116 -0.0763,3.09904 -0.1066,1.085604 -0.43712,2.129405 -0.54373,3.215012 -0.49142,5.00435 0.30642,1.202243 -0.23085,5.601465 -0.13212,1.081828 -0.41159,2.133182 -0.54373,3.215012 -0.20231,1.656584 -0.20604,3.336568 -0.30907,5.004855 -0.0515,0.834136 -3.2e-4,1.685971 -0.15453,2.502425 -0.26975,1.427934 -1.06604,2.636216 -1.40032,4.043564 -0.14658,0.617159 -0.0862,1.288647 -0.23275,1.905811 -0.57905,2.437865 -0.83506,1.85973 -1.8677,4.159534 -0.28741,0.640076 -0.36942,1.416204 -0.70018,2.02178 -0.33073,0.605583 -0.83051,1.02743 -1.24576,1.541142 -0.41526,0.513714 -0.83052,1.027428 -1.24578,1.541136 -0.41525,0.513712 -0.78538,1.09581 -1.24576,1.541141 -0.68461,0.662196 -2.44995,1.576746 -3.11539,2.005016 -0.45108,0.290307 -0.84792,0.734577 -1.32398,0.94452 -0.6022,0.265579 -1.24641,0.309255 -1.86961,0.463881 -0.62321,0.154628 -1.24641,0.309253 -1.86962,0.463881 -0.6232,0.154627 -1.2464,0.309253 -1.8696,0.463877 -0.62322,0.154631 -1.23793,0.423314 -1.86962,0.463883 -0.99879,0.06416 -1.96176,-0.53179 -2.96085,-0.497401 -0.47388,0.01631 -0.9348,0.231938 -1.40219,0.347906 -0.49348,-0.08289 -0.98114,-0.245239 -1.48042,-0.248702 -0.31578,-0.0021 -0.61987,0.253401 -0.93481,0.23194 -0.70424,-0.04799 -1.32181,-0.681357 -2.02604,-0.729351 -0.31495,-0.02145 -0.62272,0.284375 -0.93481,0.231941 -0.22069,-0.03708 -0.36374,-0.320425 -0.54562,-0.480643 -0.18187,-0.160212 -0.39271,-0.276957 -0.54562,-0.480641 -0.24174,-0.322059 -0.38208,-0.755201 -0.62383,-1.077263 -0.3058,-0.407369 -0.8282,-0.50707 -1.09124,-0.961285 -0.093,-0.160588 0.0147,-0.436025 -0.0782,-0.596614 -0.13151,-0.227108 -0.50874,-0.199398 -0.5456,-0.480645 -0.0948,-0.723291 0.60321,0.0037 1.01302,0.364673"
         style="fill:url(#radialGradient6542);fill-opacity:1;stroke:#0000b7;stroke-width:2.53051043;stroke-linecap:butt;stroke-linejoin:miter;stroke-miterlimit:4;stroke-dasharray:none;stroke-opacity:1" />
      <path
         inkscape:connector-curvature="0"
         id="path3757"
         d="m 70.471114,120.15127 c -0.228676,-0.66541 -0.469814,-2.44295 -1.325885,-2.75114 -0.151013,-0.0544 -0.316391,0.17035 -0.467403,0.11599 -0.427127,-0.15377 -0.683671,-0.74026 -1.091236,-0.96129 -2.624648,-1.42347 -0.01143,-0.002 -1.480424,-0.2487 -0.348939,-0.0587 -0.660901,-0.34069 -1.01302,-0.36468 -0.314945,-0.0215 -0.623202,0.15463 -0.934804,0.23194 -0.779003,0.19328 -1.598701,0.19531 -2.33701,0.57985 -0.330182,0.17196 -0.554776,0.58315 -0.856589,0.82856 -0.426826,0.34705 -0.897163,0.59746 -1.32399,0.94452 -0.301811,0.24541 -0.554775,0.58314 -0.856588,0.82855 -0.426825,0.34706 -0.92019,0.55394 -1.32399,0.94453 -0.460402,0.44534 -0.812443,1.05271 -1.245774,1.54113 -0.976714,1.10092 -0.956365,0.55038 -1.634959,2.25373 -0.162389,0.4076 -0.18172,0.8834 -0.31097,1.30919 -0.208408,0.68656 -0.491746,1.33522 -0.700155,2.02178 -0.129249,0.4258 -0.18172,0.88341 -0.310969,1.30921 -0.102095,0.33633 -0.993679,2.62257 -1.011126,3.33098 -0.01497,0.60777 0.234338,1.18228 0.23465,1.78984 6.57e-4,1.28085 -0.466164,2.53077 -0.465507,3.81162 0.0012,2.36899 0.468083,1.21071 0.469298,3.57969 3.3e-4,0.64043 -0.233082,1.26538 -0.232753,1.90582 3.1e-4,0.60754 0.156432,1.19321 0.234649,1.78983 0.130359,0.99435 0.26072,1.9887 0.391081,2.98307 0.09281,0.70795 0.459096,4.2164 0.62573,4.77293 0.125491,0.41909 0.482782,0.66679 0.623836,1.07725 0.126161,0.36711 0.03027,0.8261 0.156431,1.19323 0.126529,0.36818 1.623085,2.90083 1.871505,3.23176 0.152898,0.20369 0.363745,0.32043 0.545618,0.48066 0.363746,0.32043 0.727492,0.64085 1.091236,0.96128 0.181874,0.16021 0.341836,0.37012 0.545619,0.48064 0.644418,0.3495 1.350694,0.48623 2.026042,0.72935 1.138789,0.40996 2.298825,0.96967 3.506463,0.97805 0.315773,0.002 0.61986,-0.25339 0.934805,-0.23194 0.352118,0.024 0.659971,0.36222 1.013021,0.36467 0.789439,0.005 1.558006,-0.38657 2.33701,-0.57985 0.3116,-0.0773 0.622703,-0.28437 0.934804,-0.23193 0.220687,0.0371 0.32493,0.44355 0.545619,0.48064 0.196533,0.0329 2.628646,-0.57043 2.804412,-0.69583 0.197368,-0.14079 0.208601,-0.5379 0.389185,-0.71257 0.127693,-0.12351 0.311602,-0.0773 0.467403,-0.11598 0.311601,-0.0773 0.655682,-0.0329 0.934804,-0.23193 0.197368,-0.1408 0.226308,-0.5111 0.389187,-0.71259 0.25753,-0.31858 0.571057,-0.55236 0.856586,-0.82856 0.359768,-0.34799 1.353409,-1.30911 1.713176,-1.6571 0.285531,-0.27618 0.612864,-0.49259 0.856589,-0.82855 0.308291,-0.42497 0.470078,-1.00021 0.778371,-1.42517 0.243726,-0.33596 0.599057,-0.50996 0.856588,-0.82857 0.162879,-0.20147 0.226308,-0.51107 0.389185,-0.71257 0.257533,-0.31859 0.599057,-0.50997 0.856589,-0.82855 0.162876,-0.2015 0.226309,-0.51109 0.389185,-0.71259 0.257533,-0.31859 0.599057,-0.50996 0.85659,-0.82856 0.358325,-0.44327 0.863568,-1.58115 1.167557,-2.13774 0.129728,-0.23754 0.259457,-0.47506 0.389184,-0.7126 0.12973,-0.23753 0.323628,-0.43657 0.389186,-0.71257 0.04636,-0.19517 -0.12457,-0.40145 -0.07821,-0.59661 0.131116,-0.55202 0.647256,-0.87316 0.778372,-1.42518 0.04636,-0.19517 -0.169949,-0.42865 -0.07821,-0.5966 0.09173,-0.16797 0.375672,0.0519 0.467402,-0.11597 0.183464,-0.33592 -0.339897,-0.85733 -0.156433,-1.19324 0.518916,-0.95011 0.597764,0.87839 0.389186,-0.71259"
         style="fill:url(#radialGradient6540);fill-opacity:1;stroke:#0000b7;stroke-width:2.53051043;stroke-linecap:butt;stroke-linejoin:miter;stroke-miterlimit:4;stroke-dasharray:none;stroke-opacity:1" />
      <path
         inkscape:connector-curvature="0"
         id="path3759"
         d="m 101.74538,113.06718 c -1.928002,1.78127 -2.028309,-1.2986 -3.117273,-1.69062 -0.151012,-0.0544 -0.311605,0.0773 -0.467403,0.11596 -0.311604,0.0773 -0.622704,0.28437 -0.934805,0.23194 -0.220688,-0.0371 -0.324929,-0.44357 -0.545617,-0.48064 -0.312101,-0.0525 -0.623209,0.15463 -0.934805,0.23194 -0.155798,0.0387 -0.327844,0.0164 -0.467403,0.11597 -0.312068,0.22263 -0.532748,0.63684 -0.856591,0.82855 -0.289652,0.17147 -0.645146,0.0605 -0.934798,0.23194 -0.323843,0.19172 -0.571063,0.55238 -0.856591,0.82856 -0.285528,0.27618 -0.571056,0.55237 -0.856592,0.82856 -0.285528,0.27618 -0.571055,0.55236 -0.856583,0.82855 -0.285528,0.27618 -0.612866,0.49258 -0.856592,0.82855 -0.462435,0.63745 -0.678921,1.53327 -1.167556,2.13776 -0.257532,0.31857 -0.651467,0.45298 -0.856588,0.82855 -0.205118,0.37556 -0.10585,0.93362 -0.310968,1.30919 -0.20512,0.37557 -0.599058,0.50997 -0.856589,0.82856 -0.162876,0.20149 -0.259456,0.47506 -0.389185,0.71258 -0.129728,0.23753 -0.35449,0.42849 -0.389187,0.71259 -0.04906,0.40178 0.205501,0.79144 0.156433,1.19322 -0.0347,0.28411 -0.323626,0.43659 -0.389185,0.71259 -0.04636,0.19516 0.124572,0.40145 0.07821,0.59662 -0.384266,1.61777 -0.494399,-0.0899 -0.310969,1.30919 0.02608,0.19888 0.0042,0.42017 0.07821,0.59662 0.165474,0.39453 0.45836,0.68271 0.623834,1.07726 0.074,0.17645 -0.01478,0.43602 0.07821,0.59661 0.131517,0.22711 0.363746,0.32043 0.545617,0.48064 0.181876,0.16022 0.341836,0.37012 0.54562,0.48064 0.322208,0.17475 0.690813,0.18993 1.013019,0.36468 0.407567,0.22103 0.649862,0.88713 1.091238,0.96129 0.3121,0.0525 0.622702,-0.28437 0.934804,-0.23195 0.220688,0.0371 0.34183,0.37013 0.545616,0.48065 0.322213,0.17475 0.675346,0.24311 1.013019,0.36468 0.337674,0.12156 0.660905,0.34067 1.013028,0.36467 0.314942,0.0215 0.619855,-0.2534 0.934797,-0.23193 0.352123,0.024 0.660904,0.34067 1.013019,0.36466 0.31495,0.0215 0.619036,-0.2341 0.934806,-0.23193 0.499292,0.003 0.981137,0.24524 1.480422,0.2487 0.315778,0.002 0.623209,-0.15463 0.934805,-0.23194 0.467403,-0.11598 0.934805,-0.23195 1.402208,-0.34791 1.246415,-0.30925 2.492815,-0.61851 3.739215,-0.92776 0.3116,-0.0773 0.62321,-0.15464 0.93481,-0.23195 0.3116,-0.0773 0.61986,-0.25339 0.9348,-0.23194 0.35212,0.024 0.66091,0.34069 1.01302,0.36468 0.4145,0.0282 2.04624,-0.68453 2.33701,-0.57985 0.21357,0.0769 0.33206,0.40376 0.54562,0.48065 0.15101,0.0544 0.31639,-0.17034 0.4674,-0.11596 0.92231,0.332 0.33333,0.38458 0.62384,1.07725 0.16547,0.39453 0.38208,0.75519 0.62383,1.07726 0.89203,1.1883 0.32108,-0.46486 1.16946,1.55789 0.22201,0.52933 0.0454,1.23918 0.23465,1.78984 0.14105,0.41046 0.48279,0.66682 0.62383,1.07727 0.73938,2.15149 -0.0463,0.37858 -0.23276,1.90581 -0.049,0.40178 0.18143,0.78861 0.15644,1.19322 -0.028,0.45239 -0.20731,0.8728 -0.31097,1.3092 -0.10365,0.4364 -0.20731,0.8728 -0.31097,1.30921 -0.10366,0.43638 -0.14858,0.90158 -0.31097,1.30918 -0.2054,0.51561 -0.51891,0.95012 -0.77837,1.42518 -0.25946,0.47505 -0.47009,1.0002 -0.77837,1.42516 -0.48745,0.67194 -1.22573,0.98518 -1.71317,1.65712 -0.3083,0.42497 -0.43845,1.042 -0.77838,1.42517 -0.38006,0.42837 -0.89716,0.59745 -1.32399,0.94452 -0.30181,0.24541 -0.5264,0.65658 -0.85659,0.82855 -0.44298,0.23073 -0.95922,0.11719 -1.40221,0.3479 -0.33018,0.17199 -0.5264,0.6566 -0.85658,0.82856 -0.44298,0.23073 -0.93481,0.23195 -1.40221,0.34792 -0.93481,0.23193 -1.86961,0.46388 -2.80441,0.69581 -0.467402,0.11598 -0.934805,0.23194 -1.402208,0.34791 -0.467402,0.11598 -0.928545,0.3512 -1.402208,0.34792 -0.353051,-0.002 -0.659968,-0.36223 -1.013019,-0.36468 -0.473663,-0.003 -0.928545,0.3512 -1.402208,0.3479 -0.353051,-0.002 -0.660904,-0.34066 -1.013019,-0.36466 -0.31495,-0.0214 -0.619864,0.25339 -0.934806,0.23194 -0.352115,-0.024 -0.664084,-0.30606 -1.013019,-0.36468 -0.312101,-0.0525 -0.632782,0.34066 -0.934805,0.23194 -0.213566,-0.0769 -0.332051,-0.40376 -0.545617,-0.48064 -0.151011,-0.0545 -0.316391,0.17033 -0.467402,0.11597 -0.900463,-0.32416 -0.502375,-0.55982 -0.156433,-1.19323 0.129729,-0.23752 0.259459,-0.47504 0.389186,-0.71258 0.129729,-0.23753 0.323629,-0.43658 0.38918,-0.71259 0.09271,-0.39032 -0.249139,-0.8029 -0.156427,-1.19323 0.08959,-0.37719 0.702764,-0.78726 0.310967,-1.3092 -1.470533,-1.95898 -3.066395,-3.75665 -4.599594,-5.63499"
         style="fill:url(#radialGradient6538);fill-opacity:1;stroke:#0000b7;stroke-width:2.53051043;stroke-linecap:butt;stroke-linejoin:miter;stroke-miterlimit:4;stroke-dasharray:none;stroke-opacity:1" />
      <path
         inkscape:connector-curvature="0"
         id="path3761"
         d="m 116.97294,108.77431 c -0.15516,1.27054 -0.41272,2.53077 -0.4655,3.81163 -0.0251,0.60757 0.15643,1.19323 0.23465,1.78984 0.10427,0.79549 0.20857,1.59098 0.31286,2.38645 0.23465,1.78986 0.46929,3.57969 0.70394,5.36953 0.13037,0.99436 0.18386,2.01288 0.39108,2.98308 0.21134,0.9894 0.57232,1.91139 0.85849,2.86709 0.57232,1.91141 1.11274,3.83993 1.71696,5.7342 0.2443,0.76587 0.60249,1.47314 0.78027,2.2705 0.21559,0.96693 0.16511,2.02036 0.39109,2.98306 0.14289,0.60888 0.48742,1.10277 0.70204,1.67388 0.27984,0.74463 0.47515,1.54299 0.78027,2.27049 0.16547,0.39454 0.44032,0.69647 0.62383,1.07726 0.25954,0.5385 0.40798,1.16604 0.70206,1.67386 0.13151,0.22712 0.44096,0.23113 0.54561,0.48065 1.12328,2.67818 -0.62555,0.62748 0.62384,1.07726 0.21356,0.0769 0.32529,0.53532 0.54562,0.48064 0.22034,-0.0547 0.25945,-0.47505 0.38919,-0.71258 0.12972,-0.23753 0.29764,-0.44825 0.38918,-0.71259 0.14474,-0.41795 0.14858,-0.90158 0.31096,-1.30919 0.20541,-0.5156 0.57297,-0.90957 0.77838,-1.42518 0.16239,-0.40761 0.18172,-0.8834 0.31098,-1.3092 1.36357,-4.4921 0.20935,0.35076 0.9329,-3.92758 0.0753,-0.445 0.25611,-0.86 0.31097,-1.30921 0.56673,-4.64047 -0.0106,-0.56841 -0.0801,-4.29227 -0.0156,-0.83426 0.17011,-1.66815 0.15452,-2.50242 -0.0113,-0.60702 -0.2233,-1.18283 -0.23465,-1.78984 -0.0156,-0.83427 0.18154,-1.66903 0.15454,-2.50242 -0.0458,-1.41492 -0.36501,-2.78421 -0.54751,-4.17631 -0.10428,-0.79548 -0.10754,-1.62722 -0.31287,-2.38645 -0.11475,-0.42444 -0.48278,-0.66681 -0.62383,-1.07726 -0.16125,-0.46922 -0.31078,-3.30595 -0.46929,-3.5797 -0.13152,-0.22709 -0.41411,-0.25353 -0.54563,-0.48063 -0.093,-0.16059 0.0776,-0.63527 -0.0782,-0.59662 -0.44589,0.11064 -0.45083,0.97575 -0.31096,1.3092 0.16546,0.39453 0.48277,0.66682 0.62382,1.07726 0.12617,0.36712 0.0442,0.81837 0.15644,1.19322 0.17747,0.59271 0.46804,1.11593 0.70205,1.67388 0.23402,0.55795 0.46803,1.11592 0.70205,1.67388 0.23401,0.55795 0.48743,1.10276 0.70205,1.67387 0.27984,0.74462 0.45407,1.55869 0.78027,2.27049 0.35382,0.77205 0.89385,1.38246 1.24766,2.1545 0.32623,0.71181 0.45407,1.5587 0.78028,2.2705 0.35382,0.77204 0.83177,1.43635 1.24766,2.15451 0.4159,0.71819 0.80075,1.4681 1.24768,2.15451 0.36032,0.55342 0.83415,0.9789 1.16946,1.55791 0.29406,0.50783 0.37786,1.1975 0.70203,1.67388 0.28997,0.42607 0.7275,0.64085 1.09125,0.96129 0.36374,0.32043 0.72749,0.64085 1.09123,0.96128 0.18188,0.16021 0.32492,0.44356 0.54563,0.48064 0.31209,0.0525 0.61985,-0.25339 0.9348,-0.23193 0.95201,0.0649 0.98934,0.81649 1.94782,0.13273 0.19736,-0.1408 0.2263,-0.51109 0.38919,-0.71258 0.51507,-0.63719 1.22572,-0.98518 1.71317,-1.65711 0.9869,-1.36042 0.75107,-1.75102 1.47853,-3.44695 0.2177,-0.50755 0.61489,-0.88659 0.77837,-1.42517 0.18279,-0.60216 0.15517,-1.27054 0.23276,-1.90582 0.0776,-0.63527 0.21697,-1.26517 0.23275,-1.90581 0.01,-0.40518 -0.10429,-0.79548 -0.15644,-1.19323 -0.10428,-0.79548 -0.12149,-1.62083 -0.31286,-2.38645 -0.15129,-0.60528 -0.53972,-1.07364 -0.70205,-1.67387 -0.154,-0.56944 -0.0127,-1.26053 -0.23465,-1.78985 -0.26682,-0.63617 -0.86176,-0.95374 -1.16946,-1.55789 -0.42489,-0.83431 -0.90069,-3.08972 -1.48231,-3.94437 -0.28995,-0.42608 -0.80128,-0.53521 -1.09124,-0.96129 -0.32418,-0.47637 -0.44252,-1.13537 -0.70205,-1.67387 -0.18351,-0.38078 -0.41588,-0.71817 -0.62383,-1.07726 -0.20796,-0.35909 -0.38209,-0.75521 -0.62383,-1.07726 -0.89204,-1.1883 -0.32108,0.46486 -1.16946,-1.5579 -0.074,-0.17644 0.0147,-0.43603 -0.0782,-0.59661 -0.13152,-0.22711 -0.41411,-0.25354 -0.54563,-0.48064 -0.093,-0.1606 -0.0522,-0.39776 -0.0782,-0.59662 -0.0261,-0.19887 -0.0522,-0.39774 -0.0782,-0.59662 -0.0261,-0.19886 -0.23402,-0.55796 -0.0783,-0.59661 0.1558,-0.0387 -0.0147,0.43602 0.0783,0.59661 0.77087,1.33117 0.4404,-0.3219 0.62383,1.07726"
         style="fill:url(#radialGradient6536);fill-opacity:1;stroke:#0000b7;stroke-width:2.53051043;stroke-linecap:butt;stroke-linejoin:miter;stroke-miterlimit:4;stroke-dasharray:none;stroke-opacity:1" />
      <path
         inkscape:connector-curvature="0"
         id="path3763"
         d="m 153.69794,102.69459 c 0.54535,1.47017 0.21508,3.25444 0.62573,4.77291 0.16231,0.60024 0.55075,1.0686 0.70205,1.67387 0.19137,0.76563 0.13208,1.6163 0.31286,2.38646 0.18635,0.79387 0.59392,1.47663 0.78027,2.27049 0.18078,0.77017 0.14039,1.61291 0.31286,2.38645 0.21986,0.98609 0.63862,1.88103 0.85849,2.86711 0.17247,0.77354 0.14039,1.6129 0.31286,2.38646 0.21986,0.98608 0.63863,1.88101 0.85848,2.8671 0.34495,1.54708 0.26417,3.23258 0.62574,4.77292 0.18633,0.79386 0.583,1.48129 0.78026,2.27049 0.14354,0.5742 0.15643,1.19321 0.23465,1.78983 0.0522,0.39774 0.0303,0.82611 0.15643,1.19323 0.14106,0.41044 0.48278,0.66681 0.62384,1.07725 0.12616,0.36711 0.10428,0.79549 0.15643,1.19324 0.026,0.19887 -0.0148,0.43603 0.0782,0.59661 0.13151,0.22711 0.32528,0.53531 0.54561,0.48064 0.024,-0.006 -0.24959,-1.66766 -0.23465,-1.78985 0.0549,-0.44921 0.25612,-0.85998 0.31098,-1.30919 0.0246,-0.20089 -0.10277,-0.39572 -0.0783,-0.59662 0.0549,-0.4492 0.29982,-0.85619 0.31097,-1.30919 0.0542,-2.19754 -0.40394,-1.49367 -0.9367,-3.46372 -0.51424,-1.90155 0.13487,-2.51974 -1.48232,-3.94435"
         style="fill:url(#radialGradient6534);fill-opacity:1;stroke:#0000b7;stroke-width:2.53051043;stroke-linecap:butt;stroke-linejoin:miter;stroke-miterlimit:4;stroke-dasharray:none;stroke-opacity:1" />
      <path
         inkscape:connector-curvature="0"
         id="path3765"
         d="m 153.68891,102.76464 c 12.76565,-6.759968 -6.61995,4.72262 -7.01104,1.73955 -0.0261,-0.19888 0.37568,0.0519 0.4674,-0.11597 0.0917,-0.16796 -0.2059,-0.4731 -0.0782,-0.59662 0.2554,-0.24702 0.64517,-0.0605 0.93481,-0.23194 0.64767,-0.38342 1.10955,-1.16628 1.71318,-1.6571 0.42683,-0.34706 0.88265,-0.62968 1.32399,-0.94453 0.44133,-0.31485 0.85156,-0.72056 1.32399,-0.94452 0.44818,-0.212479 0.9348,-0.231944 1.40221,-0.347914 0.6232,-0.154627 1.26741,-0.198308 1.86961,-0.46388 1.05875,-0.466921 1.17558,-1.25028 2.25878,-1.176464 0.35212,0.024 0.66091,0.340679 1.01303,0.364673 0.31494,0.02145 0.6227,-0.284372 0.9348,-0.231938 0.22069,0.03707 0.36375,0.320428 0.54562,0.480645 3.34111,2.943248 -0.72314,-0.859528 1.71508,2.038548 0.32339,0.38439 0.76783,0.5769 1.09123,0.96128 0.25566,0.30389 0.3946,0.74042 0.62383,1.07726 0.36962,0.54315 0.79983,1.01475 1.16946,1.5579 0.22923,0.33685 0.39459,0.74042 0.62383,1.07726 0.36963,0.54315 0.74513,1.08506 1.16946,1.55791 0.33286,0.37094 0.80127,0.53521 1.09123,0.96129 0.32418,0.47636 0.37787,1.19749 0.70206,1.67387 0.28995,0.42607 0.76783,0.57688 1.09123,0.96128 0.25567,0.30389 0.36816,0.77338 0.62383,1.07727 0.3234,0.38438 0.76784,0.57689 1.09125,0.96128 0.25566,0.30388 0.41589,0.71817 0.62382,1.07727 0.20795,0.35907 0.4159,0.71816 0.62384,1.07725 0.20794,0.35908 0.41589,0.71816 0.62384,1.07726 0.20794,0.35909 0.48278,0.66681 0.62383,1.07725 0.12617,0.36712 0.0303,0.82612 0.15643,1.19323 0.14105,0.41046 0.48278,0.66681 0.62383,1.07726 0.12616,0.36711 0.10429,0.79549 0.15644,1.19323 0.0522,0.39774 0.10429,0.79548 0.15644,1.19322 0.0522,0.39775 0.10428,0.79549 0.15642,1.19322 0.0522,0.39777 0.18142,0.78863 0.15644,1.19324 -0.028,0.45239 -0.20732,0.87281 -0.31097,1.30921 -0.41794,1.75956 -0.20401,0.85883 -0.62194,2.61839 -0.82925,3.49119 0.38919,-0.71259 -1.16756,2.13775 -0.20513,0.37557 -0.0672,0.97322 -0.31097,1.30919 -0.34468,0.47514 -0.89716,0.59748 -1.32399,0.94454 -1.16298,0.94564 -0.68229,0.99271 -2.18058,1.77308 -0.29532,0.15377 -0.63947,0.0781 -0.9348,0.23193 -0.46695,0.24321 -0.85157,0.72055 -1.32399,0.94452 -0.44817,0.21248 -0.9348,0.23195 -1.40221,0.34792 -0.4674,0.11597 -0.9348,0.23193 -1.4022,0.34791 -2.02541,0.50254 -4.05082,1.00508 -6.07622,1.50761 -0.93482,0.23194 -1.86961,0.46387 -2.80443,0.69583 -0.46739,0.11595 -0.9348,0.23193 -1.40219,0.34789 -0.31161,0.0773 -0.64516,0.0605 -0.93481,0.23195 -0.32385,0.19171 -0.53275,0.63684 -0.8566,0.82856 -0.43447,0.25719 -0.9348,0.23193 -1.4022,0.3479 -0.1558,0.0387 -0.44133,0.31484 -0.4674,0.11598 -0.13723,-1.04677 1.02867,-0.65889 1.32399,-0.94453 0.18058,-0.17467 0.25945,-0.47506 0.38918,-0.7126"
         style="fill:url(#radialGradient6532);fill-opacity:1;stroke:#0000b7;stroke-width:2.53051043;stroke-linecap:butt;stroke-linejoin:miter;stroke-miterlimit:4;stroke-dasharray:none;stroke-opacity:1" />
      <path
         inkscape:connector-curvature="0"
         id="path3767"
         d="m 220.14444,85.149313 c -0.2601,-0.756828 -1.37741,-1.916988 -0.78026,-2.270491 0.59713,-0.353495 0.77984,1.435476 0.78026,2.270491 6.3e-4,1.730337 -0.56685,3.404415 -0.77647,5.120822 -0.47159,3.861389 -0.002,1.149141 0.15832,4.888887 0.0444,1.029613 -0.12955,2.070404 -0.0763,3.099037 0.0522,1.008656 0.26071,1.988711 0.39109,2.983071 0.36501,2.7842 0.73001,5.5684 1.09501,8.35259 0.1043,0.79549 0.20859,1.59098 0.31287,2.38645 0.1043,0.7955 0.13209,1.61631 0.31287,2.38646 0.18633,0.79388 0.583,1.48131 0.78026,2.2705 0.28707,1.14844 0.13258,2.4551 0.4693,3.57969 0.1255,0.41909 0.45836,0.68271 0.62384,1.07725 0.0695,0.16571 0.42301,2.84872 0.39109,2.98307 -0.0656,0.276 -0.25947,0.47505 -0.3892,0.71258 0.0522,0.39775 0.2055,0.79145 0.15643,1.19323 -0.0347,0.28411 -0.35449,0.42849 -0.38917,0.71259 -0.0982,0.80355 0.411,1.58289 0.31285,2.38646 -0.0347,0.2841 -0.35448,0.42848 -0.38919,0.71258 0.51882,3.95744 0.10972,-0.89841 -0.23275,1.9058 -0.0736,0.60268 0.15643,1.19324 0.23465,1.78985 0.0261,0.19887 0.23402,0.55796 0.0783,0.59661 -0.1558,0.0386 -0.0522,-0.39774 -0.0783,-0.59661 -0.026,-0.19887 -0.0522,-0.39775 -0.0782,-0.59661 -0.10429,-0.79549 -0.20858,-1.59098 -0.31287,-2.38646"
         style="fill:url(#radialGradient6530);fill-opacity:1;stroke:#0000b7;stroke-width:2.53051043;stroke-linecap:butt;stroke-linejoin:miter;stroke-miterlimit:4;stroke-dasharray:none;stroke-opacity:1" />
      <path
         inkscape:connector-curvature="0"
         id="path3769"
         d="m 209.49601,138.98652 c 1.95095,0.76834 1.13052,-2.3288 2.02414,-2.9663 0.27913,-0.19913 0.63948,-0.0782 0.93481,-0.23195 0.46694,-0.2432 0.85703,-0.70132 1.32398,-0.94453 0.29534,-0.15377 0.63948,-0.0782 0.93481,-0.23193 0.46695,-0.24321 0.85705,-0.70131 1.32399,-0.94452 0.29533,-0.1538 0.63948,-0.0782 0.9348,-0.23195 0.46695,-0.2432 0.85157,-0.72055 1.324,-0.94452 0.44818,-0.21248 0.95403,-0.13544 1.4022,-0.34791 0.47243,-0.22396 0.85157,-0.72055 1.32399,-0.94452 0.44819,-0.21248 0.95403,-0.13543 1.4022,-0.34791 0.94486,-0.44794 1.71409,-1.40263 2.64799,-1.88906 0.29534,-0.15378 0.63947,-0.0781 0.9348,-0.23193 0.46695,-0.24321 0.85705,-0.70132 1.324,-0.94452 0.50948,-0.26536 1.72533,-0.42808 2.33699,-0.57986 0.11109,-0.0276 1.77362,-0.37103 1.86962,-0.46388 0.18058,-0.17467 0.20862,-0.5379 0.3892,-0.71258 0.34263,-0.33142 1.05956,-0.0165 1.4022,-0.34791 0.18058,-0.17468 0.2086,-0.53792 0.38918,-0.71258 0.1277,-0.12352 0.3116,-0.0773 0.46741,-0.11597 0.12973,-0.23753 0.20858,-0.53792 0.38917,-0.71259 0.12769,-0.12351 0.33971,0.007 0.46742,-0.11597 0.18056,-0.17468 0.20858,-0.53791 0.38917,-0.71258 0.12769,-0.12351 0.44134,-0.31484 0.4674,-0.11597 0.0261,0.19886 -0.31158,0.0773 -0.4674,0.11597"
         style="fill:url(#radialGradient6528);fill-opacity:1;stroke:#0000b7;stroke-width:2.53051043;stroke-linecap:butt;stroke-linejoin:miter;stroke-miterlimit:4;stroke-dasharray:none;stroke-opacity:1" />
      <path
         inkscape:connector-curvature="0"
         id="path3771"
         d="m 202.00943,95.087991 c 0.80856,1.083407 2.01085,-0.158614 2.88263,-0.0992 0.35213,0.024 0.66091,0.340681 1.01303,0.364675 0.31494,0.02146 0.6232,-0.154627 0.9348,-0.231938 0.46741,-0.115972 0.9348,-0.231942 1.40221,-0.347911 0.4674,-0.115972 0.95922,-0.117188 1.4022,-0.347911 0.33018,-0.171973 0.5264,-0.656582 0.85659,-0.828556 0.44299,-0.230723 0.95402,-0.135433 1.40221,-0.347909 0.47242,-0.223968 0.85156,-0.720556 1.32399,-0.944524 0.44817,-0.212473 0.95402,-0.135436 1.40221,-0.347911 0.47243,-0.223968 0.88266,-0.629682 1.32398,-0.944522 0.44133,-0.314841 0.92019,-0.553941 1.324,-0.944524 0.46039,-0.445333 0.81243,-1.052708 1.24577,-1.541139 0.98606,-1.11147 0.93245,-0.758195 2.18057,-1.773078 0.60363,-0.490822 1.0655,-1.273688 1.71317,-1.657108 0.28966,-0.171473 0.64516,-0.06048 0.93481,-0.23194 0.89312,0.149695 0.74259,-1.182167 1.24577,-1.541139 0.39722,-0.283361 1.00501,-0.06455 1.40222,-0.347912 0.31207,-0.222626 0.54451,-0.605925 0.85657,-0.828551 0.27914,-0.199127 0.62322,-0.154631 0.93481,-0.231942 0.77901,-0.193283 1.55801,-0.386565 2.33701,-0.579849 0.32511,-0.08066 2.18214,-0.430035 2.33702,-0.579853 0.18058,-0.174673 0.2086,-0.537906 0.38919,-0.712582 0.11261,-0.108935 1.62519,-0.403237 1.86961,-0.463882"
         style="fill:url(#radialGradient6526);fill-opacity:1;stroke:#0000b7;stroke-width:2.53051043;stroke-linecap:butt;stroke-linejoin:miter;stroke-miterlimit:4;stroke-dasharray:none;stroke-opacity:1" />
      <path
         inkscape:connector-curvature="0"
         id="path3773"
         d="m 254.69071,77.312438 c -2.1053,-0.143466 -1.30544,-0.292123 -2.41523,-0.01676 -0.1558,0.03865 -0.37569,-0.05198 -0.46741,0.115973 -0.0917,0.167957 0.0522,0.397742 0.0783,0.596615 0.0261,0.198871 0.0522,0.397743 0.0782,0.596613 0.23465,1.789844 0.46929,3.579687 0.70394,5.369527 1.01681,7.755981 2.03362,15.511964 3.05044,23.267954 0.28679,2.18758 0.57358,4.37517 0.86037,6.56275 0.054,0.41198 0.36015,2.18742 0.31287,2.38645 -0.0656,0.27601 -0.42604,0.43134 -0.38919,0.71258 0.0369,0.28125 0.41412,0.25355 0.54562,0.48065 0.093,0.16059 0.0522,0.39774 0.0782,0.59662 0.13037,0.99435 0.26073,1.9887 0.39109,2.98306 0.0782,0.59661 0.30826,1.18717 0.23465,1.78985 -0.0347,0.28409 -0.35449,0.42848 -0.38918,0.71258 -0.0491,0.40178 0.10429,0.79549 0.15643,1.19322 0.0261,0.19889 0.12457,0.40146 0.0783,0.59663 -0.38427,1.61777 -0.49441,-0.09 -0.31097,1.30919 0.026,0.19888 0.0522,0.39774 0.0782,0.59662 0.0261,0.19886 0.23403,0.55796 0.0783,0.59661 -0.15581,0.0387 -0.0522,-0.39774 -0.0783,-0.59661 -0.25177,-1.92048 0.0234,1.04582 0.31099,-1.30921 0.0717,-0.58714 -0.46346,-2.39049 -0.39109,-2.98306 0.26744,-2.18992 0.40945,-0.55792 0.23275,-1.90582"
         style="fill:url(#radialGradient6524);fill-opacity:1;stroke:#0000b7;stroke-width:2.53051043;stroke-linecap:butt;stroke-linejoin:miter;stroke-miterlimit:4;stroke-dasharray:none;stroke-opacity:1" />
      <path
         inkscape:connector-curvature="0"
         id="path3775"
         d="m 234.66787,80.398209 c 1.79329,2.63516 3.42463,5.467685 5.37987,7.905479 0.15806,0.197087 0.19179,-0.571778 0.38917,-0.71258 0.27913,-0.199124 0.63948,-0.07813 0.9348,-0.23194 0.46695,-0.243206 0.85705,-0.701321 1.32399,-0.944524 3.4493,-1.79652 -2.54105,2.247711 2.25879,-1.176465 4.79986,-3.424174 -1.19048,0.620051 2.2588,-1.176463 0.46696,-0.243207 0.85158,-0.720561 1.32401,-0.944528 0.44816,-0.212473 0.95401,-0.135432 1.4022,-0.347908 0.47242,-0.223967 0.85703,-0.701322 1.32397,-0.944525 0.29534,-0.153817 0.62322,-0.154628 0.93481,-0.231938 0.46742,-0.115972 0.93481,-0.231942 1.40221,-0.34791 1.24641,-0.309256 2.49281,-0.618508 3.73922,-0.927764 0.3116,-0.07731 0.6232,-0.154624 0.93481,-0.23194 0.31159,-0.07731 0.64516,-0.06048 0.93481,-0.23194 0.64768,-0.383422 1.05281,-1.313166 1.71317,-1.657106 0.44299,-0.230726 0.95402,-0.135437 1.4022,-0.347912 0.94486,-0.447936 1.71409,-1.402641 2.64798,-1.889048 0.29533,-0.153818 0.64516,-0.06048 0.93481,-0.231939 0.32383,-0.191711 0.53275,-0.636845 0.85659,-0.828555 0.28965,-0.17147 0.64515,-0.06048 0.93481,-0.23194 0.32383,-0.191712 0.53274,-0.636844 0.85658,-0.828554 0.28964,-0.17147 0.65567,-0.03281 0.9348,-0.231937 0.19737,-0.140803 0.19182,-0.571785 0.38919,-0.712587 0.27912,-0.199125 0.6232,-0.154626 0.93481,-0.231941 0.1558,-0.03865 0.33971,0.0075 0.46739,-0.115969 0.1806,-0.174676 0.2086,-0.537911 0.3892,-0.712586 0.25537,-0.247026 0.67941,0.01509 0.93478,-0.231936 0.18059,-0.174678 0.20862,-0.53791 0.3892,-0.712586 0.13034,-0.126079 1.1917,-0.295682 1.40221,-0.347909 0.1558,-0.03866 0.3116,-0.07732 0.46741,-0.115973 0.15579,-0.03865 0.44132,-0.314839 0.46739,-0.115968 0.0261,0.198871 -0.3116,0.07732 -0.46739,0.115968"
         style="fill:url(#radialGradient6522);fill-opacity:1;stroke:#0000b7;stroke-width:2.53051043;stroke-linecap:butt;stroke-linejoin:miter;stroke-miterlimit:4;stroke-dasharray:none;stroke-opacity:1" />
      <path
         inkscape:connector-curvature="0"
         id="path3777"
         d="m 294.0094,66.016859 c -0.30268,2.902325 0.25829,5.651275 0.62763,8.468567 0.82205,6.270319 -0.0512,-1.580969 0.15832,4.888884 0.0648,2.002941 0.82345,4.58415 0.86038,6.562758 0.0119,0.639849 -0.23307,1.265381 -0.23275,1.905813 2.6e-4,0.607557 0.15644,1.193226 0.23465,1.789837 0.0783,0.596612 0.15644,1.193232 0.23465,1.789845 0.20858,1.590968 0.41715,3.181944 0.62573,4.772914 0.18251,1.3921 0.36501,2.784201 0.54752,4.176303 0.0522,0.39774 0.10429,0.79548 0.15643,1.19322 0.0522,0.39775 0.008,0.84035 0.15643,1.19322 0.10466,0.24954 0.4141,0.25355 0.54561,0.48066 0.0949,0.16392 0.19943,1.52114 0.23465,1.78984 0.0261,0.19887 0.0522,0.39774 0.0782,0.59661 0.0261,0.19887 -0.0503,0.48333 0.0783,0.59662 0.12862,0.11329 0.33879,-0.22926 0.46741,-0.11598 0.13129,0.11566 0.18158,2.2708 0.31286,2.38647 0.12861,0.11328 0.3388,-0.22927 0.4674,-0.11598 0.27281,0.24032 -0.0382,1.54952 0.23465,1.78984 0.12859,0.11329 0.37566,0.0519 0.46742,-0.11596 0.0917,-0.16796 0.0503,-0.48334 -0.0783,-0.59661 -0.12862,-0.1133 -0.37441,0.27655 -0.46741,0.11596 -0.18598,-0.32118 -0.10429,-0.79548 -0.15644,-1.19323"
         style="fill:url(#radialGradient6520);fill-opacity:1;stroke:#0000b7;stroke-width:2.53051043;stroke-linecap:butt;stroke-linejoin:miter;stroke-miterlimit:4;stroke-dasharray:none;stroke-opacity:1" />
      <path
         inkscape:connector-curvature="0"
         id="path3779"
         d="m 274.76694,71.300112 c 5.2161,1.877734 3.3232,2.255562 5.53248,1.707403 0.15581,-0.03866 0.32785,-0.01642 0.46741,-0.115973 0.31207,-0.222626 0.54454,-0.60593 0.8566,-0.828556 0.13955,-0.09955 0.32783,-0.01642 0.46739,-0.115966 0.28554,-0.276188 0.57106,-0.552369 0.85659,-0.828555 0.15581,-0.03865 0.32784,-0.01642 0.4674,-0.115969 0.31206,-0.222627 0.52642,-0.656587 0.85659,-0.828557 0.44299,-0.230723 0.95922,-0.117186 1.4022,-0.347908 0.3302,-0.171973 0.53276,-0.636843 0.85659,-0.828554 0.28965,-0.171471 0.64515,-0.06048 0.93481,-0.231942 0.32384,-0.19171 0.53275,-0.636843 0.85659,-0.828554 0.35229,-0.208552 2.31834,-0.575217 2.80441,-0.695821 2.02541,-0.502534 4.05083,-1.005074 6.07622,-1.507609 0.26089,-0.06472 2.13499,-0.435728 2.33701,-0.579849 0.19738,-0.140803 0.19183,-0.571784 0.38919,-0.712588 0.53392,-0.380888 2.19439,-0.334683 2.80441,-0.695818 0.32384,-0.191711 0.53276,-0.636843 0.85659,-0.828554 0.28966,-0.171471 0.64515,-0.06048 0.93481,-0.23194 0.32384,-0.191712 0.53276,-0.636845 0.85659,-0.828555 0.28965,-0.171471 0.6232,-0.154626 0.93481,-0.231941 0.15579,-0.03865 0.3397,0.0075 0.46739,-0.115968 0.18058,-0.174675 0.20861,-0.537912 0.38919,-0.712585 0.16982,-0.164257 1.32264,-0.202232 1.40221,-0.347909 0.0917,-0.167956 -0.16994,-0.428659 -0.0782,-0.596616 0.10649,-0.194981 1.63727,-0.239141 1.86961,-0.463882 0.18057,-0.174672 0.20859,-0.537906 0.38918,-0.71258 0.25538,-0.24703 0.67941,0.01509 0.9348,-0.231942 1.29077,-2.363343 -0.4038,0.390586 0.85659,-0.828554 0.18057,-0.174673 0.20859,-0.537908 0.38918,-0.712584 0.12768,-0.12351 0.44134,-0.314844 0.46742,-0.115973 0.0261,0.198871 -0.33974,-0.0075 -0.46742,0.115973 -1.05848,1.023844 0.23955,0.556586 -0.85659,0.828557"
         style="fill:url(#radialGradient6518);fill-opacity:1;stroke:#0000b7;stroke-width:2.53051043;stroke-linecap:butt;stroke-linejoin:miter;stroke-miterlimit:4;stroke-dasharray:none;stroke-opacity:1" />
    </g>
  </g>
</svg>
