<?xml version="1.0" encoding="UTF-8" standalone="no"?>
<svg
   xmlns:dc="http://purl.org/dc/elements/1.1/"
   xmlns:cc="http://creativecommons.org/ns#"
   xmlns:rdf="http://www.w3.org/1999/02/22-rdf-syntax-ns#"
   xmlns:svg="http://www.w3.org/2000/svg"
   xmlns="http://www.w3.org/2000/svg"
   xmlns:sodipodi="http://sodipodi.sourceforge.net/DTD/sodipodi-0.dtd"
   xmlns:inkscape="http://www.inkscape.org/namespaces/inkscape"
   width="198.09818mm"
   height="105.70917mm"
   viewBox="0 0 198.09818 105.70917"
   version="1.1"
   id="svg8"
   inkscape:version="1.0.1 (3bc2e813f5, 2020-09-07)"
   sodipodi:docname="tree_els_o.svg"
   shape-rendering="crispEdges"
   inkscape:export-filename="C:\Users\jvasic\OneDrive - Technological University Dublin\jvk\staging\cswd\res\images\tutorials\tree_els_o.png"
   inkscape:export-xdpi="280.186"
   inkscape:export-ydpi="280.186">
  <defs
     id="defs2">
    <inkscape:path-effect
       effect="bspline"
       id="path-effect948"
       is_visible="true"
       lpeversion="1"
       weight="33.333333"
       steps="2"
       helper_size="0"
       apply_no_weight="true"
       apply_with_weight="true"
       only_selected="false" />
    <inkscape:path-effect
       effect="bspline"
       id="path-effect935"
       is_visible="true"
       lpeversion="1"
       weight="33.333333"
       steps="2"
       helper_size="0"
       apply_no_weight="true"
       apply_with_weight="true"
       only_selected="false" />
    <inkscape:path-effect
       effect="bspline"
       id="path-effect902"
       is_visible="true"
       lpeversion="1"
       weight="33.333333"
       steps="2"
       helper_size="0"
       apply_no_weight="true"
       apply_with_weight="true"
       only_selected="false" />
    <inkscape:path-effect
       effect="bspline"
       id="path-effect886"
       is_visible="true"
       lpeversion="1"
       weight="33.333333"
       steps="2"
       helper_size="0"
       apply_no_weight="true"
       apply_with_weight="true"
       only_selected="false" />
    <inkscape:path-effect
       effect="bspline"
       id="path-effect878"
       is_visible="true"
       lpeversion="1"
       weight="33.333333"
       steps="2"
       helper_size="0"
       apply_no_weight="true"
       apply_with_weight="true"
       only_selected="false" />
    <inkscape:path-effect
       effect="bspline"
       id="path-effect895"
       is_visible="true"
       lpeversion="1"
       weight="33.333333"
       steps="2"
       helper_size="0"
       apply_no_weight="true"
       apply_with_weight="true"
       only_selected="false" />
    <inkscape:path-effect
       effect="bspline"
       id="path-effect891"
       is_visible="true"
       lpeversion="1"
       weight="33.333333"
       steps="2"
       helper_size="0"
       apply_no_weight="true"
       apply_with_weight="true"
       only_selected="false" />
    <inkscape:path-effect
       effect="bspline"
       id="path-effect887"
       is_visible="true"
       lpeversion="1"
       weight="33.333333"
       steps="2"
       helper_size="0"
       apply_no_weight="true"
       apply_with_weight="true"
       only_selected="false" />
    <inkscape:path-effect
       effect="bspline"
       id="path-effect879"
       is_visible="true"
       lpeversion="1"
       weight="33.333333"
       steps="2"
       helper_size="0"
       apply_no_weight="true"
       apply_with_weight="true"
       only_selected="false" />
    <inkscape:path-effect
       effect="bspline"
       id="path-effect871"
       is_visible="true"
       lpeversion="1"
       weight="33.333333"
       steps="2"
       helper_size="0"
       apply_no_weight="true"
       apply_with_weight="true"
       only_selected="false" />
    <rect
       x="107.26396"
       y="107.18991"
       width="38.341244"
       height="8.528677"
       id="rect865" />
    <inkscape:path-effect
       effect="bspline"
       id="path-effect841"
       is_visible="true"
       lpeversion="1"
       weight="33.333333"
       steps="2"
       helper_size="0"
       apply_no_weight="true"
       apply_with_weight="true"
       only_selected="false" />
  </defs>
  <sodipodi:namedview
     id="base"
     pagecolor="#ffffff"
     bordercolor="#666666"
     borderopacity="1.0"
     inkscape:pageopacity="0"
     inkscape:pageshadow="2"
     inkscape:zoom="0.98994949"
     inkscape:cx="421.43478"
     inkscape:cy="253.79641"
     inkscape:document-units="mm"
     inkscape:current-layer="layer1"
     inkscape:document-rotation="0"
     showgrid="false"
     inkscape:window-width="1920"
     inkscape:window-height="1017"
     inkscape:window-x="1912"
     inkscape:window-y="0"
     inkscape:window-maximized="1"
     fit-margin-top="0"
     fit-margin-left="0"
     fit-margin-right="0"
     fit-margin-bottom="0"
     inkscape:pagecheckerboard="false"
     showborder="true" />
  <metadata
     id="metadata5">
    <rdf:RDF>
      <cc:Work
         rdf:about="">
        <dc:format>image/svg+xml</dc:format>
        <dc:type
           rdf:resource="http://purl.org/dc/dcmitype/StillImage" />
        <dc:title></dc:title>
      </cc:Work>
    </rdf:RDF>
  </metadata>
  <g
     inkscape:label="Layer 1"
     inkscape:groupmode="layer"
     id="layer1"
     transform="translate(-8.1923042,-89.275246)">
    <path
       style="fill:none;stroke:#000000;stroke-width:0.264583px;stroke-linecap:butt;stroke-linejoin:miter;stroke-opacity:1"
       d="m 44.571486,106.3457 c -2.369349,0.41812 -4.740808,0.83662 -6.802327,1.42099 -2.061519,0.58436 -3.812259,1.33477 -5.801907,2.31249 -1.989648,0.97772 -4.217862,2.1827 -5.745853,3.03053 -1.527991,0.84784 -2.355615,1.33849 -4.449031,3.51067 -2.093415,2.17219 -5.451658,6.02525 -7.520868,9.47867 -2.069211,3.45343 -2.849087,6.50557 -3.422057,8.74236 -0.57297,2.23679 -0.939035,3.65824 -1.1935859,4.98251 -0.2545509,1.32427 -0.3977934,2.5509 -0.6922537,4.8057 -0.2944603,2.2548 -0.7401028,5.53783 -0.5881884,8.23688 0.1519145,2.69906 0.8999585,4.81319 1.696003,6.6892 0.796044,1.87601 1.639583,3.51392 2.658303,5.34302 1.01872,1.82909 2.212409,3.84942 3.303198,5.23435 1.09079,1.38494 2.077571,2.13535 4.958445,3.72965 2.880874,1.59431 7.655625,4.03313 11.013876,5.62756 3.358251,1.59442 5.299984,2.34483 8.618421,3.44506 3.318438,1.10023 8.013609,2.55054 13.894458,3.99706 5.880849,1.44652 12.947478,2.88961 19.051153,3.97905 6.103676,1.08943 11.24449,1.82541 15.334788,2.30514 4.090299,0.47972 7.130224,0.7034 11.65824,0.94146 4.52803,0.23807 10.54421,0.49061 14.8096,0.61682 4.26539,0.12621 6.78009,0.12621 10.63153,-0.21667 3.85143,-0.34289 9.03999,-1.02836 14.66614,-1.9592 5.62615,-0.93085 11.69008,-2.10697 17.97646,-4.06243 6.28638,-1.95547 12.79596,-4.69013 17.69002,-6.80065 4.89406,-2.11052 8.17273,-3.59691 12.23862,-6.77865 4.06589,-3.18175 8.92023,-8.0594 11.62569,-11.61569 2.70546,-3.55629 3.26251,-5.79308 3.6763,-7.36974 0.41379,-1.57665 0.68436,-2.49302 0.98683,-3.91426 0.30247,-1.42124 0.63671,-3.34777 0.91531,-5.48342 0.27859,-2.13565 0.50141,-4.48068 0.35072,-6.69185 -0.1507,-2.21117 -0.67592,-4.28922 -2.62466,-6.97002 -1.94874,-2.6808 -5.3229,-5.96384 -9.60405,-9.2472 -4.28116,-3.28336 -9.46972,-6.56639 -13.13827,-8.63757 -3.66854,-2.07117 -5.81718,-2.92982 -8.38761,-3.79225 -2.57043,-0.86243 -5.56261,-1.72828 -7.80672,-2.43527 -2.24412,-0.70699 -3.74021,-1.25537 -5.72972,-1.84362 -1.98951,-0.58824 -4.47238,-1.21599 -7.08264,-1.75009 -2.61026,-0.53409 -5.34778,-0.97424 -7.96592,-1.41796 -2.61814,-0.44372 -5.11693,-0.89108 -7.48844,-1.25194 -2.3715,-0.36087 -4.61564,-0.63506 -7.79081,-1.09679 -3.17518,-0.46173 -7.28147,-1.11112 -10.91834,-1.518957 -3.63688,-0.407837 -6.80413,-0.573793 -13.10686,-0.682091 -6.302722,-0.108298 -15.740812,-0.158807 -21.208186,-0.04717 -5.467373,0.111641 -6.963463,0.385829 -10.003226,0.710618 -3.039762,0.324786 -7.623522,0.699996 -11.101347,1.143626 -3.477825,0.44364 -5.849285,0.95594 -7.464506,1.24108 -1.61522,0.28514 -2.474672,0.34286 -3.612787,0.47987 -1.138116,0.13701 -2.554627,0.35348 -3.700491,0.50865 -1.145864,0.15518 -2.02124,0.24898 -3.486336,0.95961 -1.465096,0.71064 -3.518237,2.03828 -5.57204,3.36635"
       id="path839"
       inkscape:original-d="m 44.571486,106.3457 c -2.368815,0.42115 -4.740275,0.83964 -7.114379,1.25549 -1.748097,0.75306 -3.498837,1.50347 -5.252225,2.25123 -2.225572,1.20763 -4.453787,2.41261 -6.684651,3.61495 -0.824977,0.49329 -1.652601,0.98394 -2.48287,1.47195 -3.355595,3.8557 -6.713836,7.70876 -10.074723,11.55917 -0.777229,3.05479 -1.557105,6.10693 -2.339627,9.15642 -0.363419,1.42409 -0.7294825,2.84554 -1.0981926,4.26434 -0.1405967,1.22928 -0.2838392,2.45591 -0.4297275,3.67989 -0.4429975,3.28568 -0.888641,6.56871 -1.3369301,9.84911 0.7506901,2.11677 1.4987341,4.2309 2.2441322,6.34239 0.846186,1.64055 1.689725,3.27846 2.530618,4.91373 1.196333,2.02297 2.390021,4.0433 3.581063,6.06098 0.989427,0.75306 1.976209,1.50347 2.960345,2.25123 4.777396,2.44147 9.552145,4.8803 14.324249,7.31648 1.944378,0.75305 3.88611,1.50346 5.825196,2.25122 4.697818,1.45296 9.392989,2.90327 14.085515,4.35093 7.069275,1.44574 14.135904,2.88883 21.19989,4.32927 5.14346,0.73863 10.284274,1.47461 15.422443,2.20794 3.042568,0.22632 6.082493,0.45 9.119772,0.67104 6.018836,0.25518 12.035016,0.50772 18.048556,0.75762 2.51735,0.003 5.03205,0.003 7.54411,0 5.1912,-0.68282 10.37976,-1.36829 15.56568,-2.05641 6.06658,-1.17347 12.13051,-2.34959 18.1918,-3.52836 6.51222,-2.73201 13.0218,-5.46668 19.52873,-8.20398 3.2813,-1.48374 6.55997,-2.97013 9.83598,-4.45916 4.85698,-4.875 9.71131,-9.75266 14.56299,-14.63296 0.5597,-2.23414 1.11675,-4.47094 1.67116,-6.71038 0.27322,-0.91371 0.54379,-1.83008 0.81171,-2.74909 0.33688,-1.92388 0.67111,-3.85041 1.0027,-5.77958 0.22547,-2.34238 0.44829,-4.68741 0.66846,-7.03508 -0.52257,-2.07541 -1.0478,-4.15346 -1.57567,-6.23416 -3.37151,-3.28039 -6.74566,-6.56343 -10.12246,-9.84911 -5.18592,-3.28039 -10.37448,-6.56342 -15.56569,-9.8491 -2.14599,-0.856 -4.29463,-1.71464 -6.44591,-2.57592 -2.98953,-0.86321 -5.98171,-1.72907 -8.97653,-2.59757 -1.49345,-0.54573 -2.98954,-1.09411 -4.48827,-1.64513 -2.48022,-0.6251 -4.96309,-1.25284 -7.44861,-1.88323 -2.73488,-0.4375 -5.4724,-0.87764 -8.21257,-1.32043 -2.49614,-0.44471 -4.99493,-0.89207 -7.49636,-1.34208 -2.24148,-0.27154 -4.48562,-0.54573 -6.73239,-0.82256 -4.10364,-0.64674 -8.20993,-1.29614 -12.31886,-1.948174 -3.16461,-0.163312 -6.33186,-0.329266 -9.50175,-0.497867 -9.435446,-0.04786 -18.873536,-0.09837 -28.314271,-0.151527 -1.493443,0.276834 -2.989533,0.551022 -4.488265,0.822564 -4.581115,0.377854 -9.164875,0.753054 -13.751282,1.125614 -2.368812,0.51494 -4.740272,1.02724 -7.114378,1.53689 -0.856808,0.0604 -1.716262,0.11809 -2.578365,0.17317 -1.413862,0.21911 -2.830372,0.43558 -4.249526,0.6494 -0.872725,0.0964 -1.748096,0.19024 -2.626114,0.2814 -2.050497,1.33029 -4.103639,2.65793 -6.159428,3.98293"
       inkscape:path-effect="#path-effect841" />
    <text
       xml:space="preserve"
       id="text863"
       style="font-size:4.23333px;line-height:1.25;font-family:sans-serif;text-align:end;white-space:pre;shape-inside:url(#rect865);" />
    <path
       style="fill:none;stroke:#000000;stroke-width:0.264583px;stroke-linecap:butt;stroke-linejoin:miter;stroke-opacity:1"
       d="m 89.105019,112.37042 c -1.160825,0.22348 -3.48454,0.67084 -6.659925,1.49334 -3.175384,0.82251 -7.202089,2.02028 -10.465039,3.14587 -3.262949,1.12559 -5.761735,2.17905 -10.441165,4.54574 -4.67943,2.36669 -11.539153,6.04658 -16.449938,11.26063 -4.910785,5.21405 -7.871127,11.9605 -9.374941,16.08119 -1.503815,4.12068 -1.551563,5.61428 -1.328038,6.95668 0.223525,1.3424 0.716916,2.53295 1.130646,3.5864 0.413731,1.05345 0.747962,1.96981 1.846783,3.52096 1.09882,1.55115 2.960974,3.73744 4.592701,5.23775 1.631726,1.50031 3.03232,2.31565 4.544344,3.14535 1.512025,0.82969 3.135439,1.6739 5.634198,2.51406 2.498759,0.84017 5.872912,1.67716 8.793491,2.46734 2.920579,0.79018 5.387535,1.53338 7.241663,2.01661 1.854129,0.48323 3.095562,0.70691 4.472296,0.97031 1.376734,0.2634 2.888742,0.56645 7.154061,0.94504 4.265318,0.3786 11.284201,0.83317 17.300348,1.13979 6.016146,0.30661 11.029636,0.46535 16.926446,0.63851 5.89681,0.17317 12.67695,0.36077 19.95025,-0.0868 7.2733,-0.44755 15.04022,-1.52987 19.65554,-2.29481 4.61531,-0.76494 6.07957,-1.2123 9.94703,-2.54717 3.86747,-1.33487 10.13831,-3.55724 14.15692,-5.05445 4.01862,-1.49721 5.78527,-2.26926 8.18828,-3.62571 2.40301,-1.35646 5.44293,-3.29742 7.80605,-5.17317 2.36311,-1.87576 4.05019,-3.68684 4.90967,-5.37401 0.85947,-1.68717 0.8913,-3.25292 0.79605,-4.81488 -0.0953,-1.56196 -0.31808,-3.1205 -0.65169,-4.31817 -0.3336,-1.19768 -0.77924,-2.03467 -1.10571,-2.70929 -0.32648,-0.67463 -0.53338,-1.18693 -1.99688,-2.64121 -1.4635,-1.45428 -4.18511,-3.84982 -5.99945,-5.39764 -1.81433,-1.54781 -2.72154,-2.24771 -3.68434,-2.87933 -0.96281,-0.63162 -1.98142,-1.19442 -3.50939,-2.15753 -1.52797,-0.96311 -3.56519,-2.32683 -6.20715,-3.71253 -2.64195,-1.3857 -5.88878,-2.79272 -8.49898,-3.95436 -2.61021,-1.16164 -4.58377,-2.07801 -6.89952,-3.03059 -2.31576,-0.95259 -4.9737,-1.94111 -7.66347,-2.95126 -2.68978,-1.01015 -5.41139,-2.04197 -8.04552,-2.82513 -2.63413,-0.78316 -5.18066,-1.3171 -7.66361,-1.72853 -2.48295,-0.41143 -4.90215,-0.70005 -8.05339,-1.29514 -3.15125,-0.59509 -7.03472,-1.49702 -10.80696,-2.00242 -3.77223,-0.5054 -7.43287,-0.61364 -11.24484,-0.55602 -3.81196,0.0576 -7.774996,0.28129 -10.55225,0.404 -2.777254,0.12271 -4.368836,0.14434 -5.269433,0.26707 -0.900597,0.12272 -1.107504,0.3464 -1.210908,0.45819 -0.103405,0.11179 -0.103405,0.11183 -1.26423,0.33531 z"
       id="path869"
       inkscape:path-effect="#path-effect871"
       inkscape:original-d="m 90.265844,112.14694 c -2.321065,0.45 -4.644779,0.89736 -6.971136,1.34207 -4.024061,1.20041 -8.050765,2.39818 -12.080118,3.5933 -2.49614,1.0561 -4.994926,2.10956 -7.496357,3.16038 -6.857079,3.68253 -13.716804,7.36241 -20.579173,11.03965 -2.9577,6.74911 -5.918046,13.49556 -8.881035,20.23938 -0.0451,1.49624 -0.09285,2.98984 -0.143243,4.4808 0.496035,1.1932 0.989428,2.38375 1.480172,3.57165 0.336878,0.91901 0.67111,1.83537 1.002699,2.74909 1.864797,2.18893 3.72695,4.37522 5.586457,6.55886 1.403239,0.81799 2.803832,1.63334 4.20178,2.44604 1.62606,0.84686 3.249474,1.69107 4.870246,2.53263 3.376803,0.83964 6.750957,1.67663 10.122468,2.51098 2.4696,0.74584 4.936557,1.48903 7.400865,2.22958 1.244081,0.22632 2.485514,0.45 3.724304,0.67104 1.514649,0.30569 3.026656,0.60874 4.536014,0.90914 7.021528,0.45722 14.04041,0.9118 21.056647,1.36373 5.016136,0.16138 10.029626,0.32012 15.040466,0.47622 6.78279,0.19025 13.56293,0.37785 20.34043,0.5628 7.76958,-1.07967 15.5365,-2.16199 23.30078,-3.24696 1.46691,-0.44471 2.93116,-0.89207 4.39277,-1.34207 6.27349,-2.21972 12.54433,-4.44208 18.81252,-6.66709 1.7693,-0.76941 3.53596,-1.54146 5.29997,-2.31616 3.04257,-1.93832 6.0825,-3.87928 9.11977,-5.82288 1.68973,-1.80844 3.37681,-3.61952 5.06124,-5.43324 0.0345,-1.56311 0.0663,-3.12887 0.0955,-4.69727 -0.22018,-1.55589 -0.443,-3.11443 -0.66847,-4.67562 -0.443,-0.83435 -0.88864,-1.67134 -1.33693,-2.51098 -0.20426,-0.50965 -0.41117,-1.02195 -0.62072,-1.5369 -2.71896,-2.39288 -5.44057,-4.78842 -8.16482,-7.1866 -0.90456,-0.69725 -1.81176,-1.39715 -2.72161,-2.0997 -1.01597,-0.56016 -2.03458,-1.12296 -3.05584,-1.68841 -2.03458,-1.36108 -4.0718,-2.7248 -6.11168,-4.09117 -3.24418,-1.40437 -6.49101,-2.81139 -9.74049,-4.22105 -1.97092,-0.91371 -3.94448,-1.83008 -5.92069,-2.74909 -2.6553,-0.98587 -5.31324,-1.97439 -7.97383,-2.96555 -2.71896,-1.02917 -5.44057,-2.06098 -8.16483,-3.09544 -2.54388,-0.5313 -5.09041,-1.06524 -7.6396,-1.60183 -2.41656,-0.28597 -4.83576,-0.57459 -7.25761,-0.86586 -3.88082,-0.89928 -7.76429,-1.80122 -11.6504,-2.70579 -3.65799,-0.10559 -7.31863,-0.21382 -10.98192,-0.3247 -3.9604,0.22633 -7.923439,0.45 -11.889128,0.67104 -1.588939,0.0243 -3.180522,0.0459 -4.77475,0.0649 -0.204261,0.22632 -0.411168,0.45 -0.620718,0.67104 z" />
    <text
       xml:space="preserve"
       style="font-size:4.23333px;line-height:1.25;font-family:sans-serif;text-align:end;text-anchor:end;stroke-width:0.264583"
       x="102.21813"
       y="116.24393"
       id="text875"><tspan
         sodipodi:role="line"
         id="tspan873"
         x="102.21813"
         y="116.24393"
         style="stroke-width:0.264583">article</tspan></text>
    <path
       style="fill:none;stroke:#000000;stroke-width:0.264583px;stroke-linecap:butt;stroke-linejoin:miter;stroke-opacity:1"
       d="m 65.389394,126.19544 c -1.175786,0.25211 -2.353557,0.50465 -3.905424,0.87983 -1.551867,0.37518 -3.477685,0.87306 -5.427888,1.70283 -1.950204,0.82978 -3.923769,1.99147 -5.372342,2.9368 -1.448573,0.94532 -2.371691,1.67409 -3.470271,3.03106 -1.09858,1.35698 -2.371846,3.34124 -3.207464,5.00853 -0.835619,1.66729 -1.233517,3.01659 -1.583685,4.04457 -0.350167,1.02798 -0.65257,1.7351 -0.827459,2.41754 -0.174889,0.68244 -0.222637,1.33905 -0.246422,2.01019 -0.02378,0.67114 -0.02378,1.35661 0.462674,2.4211 0.486459,1.06448 1.457325,2.50757 4.895691,4.06864 3.438366,1.56107 9.343143,3.24227 13.536349,3.78998 4.193207,0.5477 6.67608,-0.0367 9.15079,-0.76916 2.47471,-0.73242 4.941661,-1.6127 8.092192,-4.12697 3.150531,-2.51427 6.986245,-6.66316 9.031391,-10.51144 2.045147,-3.84828 2.299801,-7.39829 0.526817,-10.37492 -1.772983,-2.97662 -5.576868,-5.37937 -9.182031,-6.57451 -3.605162,-1.19514 -7.011151,-1.1807 -9.056549,-1.12314 -2.045397,0.0576 -2.72978,0.15859 -3.255732,0.32087 -0.525953,0.16228 -0.892016,0.38596 -1.258827,0.6101"
       id="path877"
       inkscape:path-effect="#path-effect879"
       inkscape:original-d="m 65.389394,126.19544 c -1.175126,0.25519 -2.352897,0.50773 -3.533315,0.75762 -1.923168,0.50052 -3.848986,0.99839 -5.777446,1.49361 -1.970919,1.16433 -3.944483,2.32602 -5.92069,3.48506 -0.920472,0.73141 -1.843593,1.46017 -2.769357,2.18629 -1.270619,1.9869 -2.543886,3.97115 -3.8198,5.95276 -0.39525,1.35193 -0.793144,2.70123 -1.193686,4.04787 -0.299754,0.70976 -0.602157,1.41688 -0.907203,2.12135 -0.0451,0.65925 -0.09285,1.31586 -0.143243,1.96982 0.0026,0.68811 0.0026,1.37358 0,2.05641 0.973513,1.44574 1.944378,2.88883 2.912599,4.32927 5.907418,1.68385 11.812193,3.36506 17.714323,5.04361 2.485514,-0.5818 4.968385,-1.16626 7.44861,-1.75335 2.4696,-0.87765 4.936554,-1.75793 7.400862,-2.64086 3.838363,-4.14625 7.674078,-8.29514 11.507147,-12.44668 0.257299,-3.54736 0.511953,-7.09737 0.76396,-10.65002 -3.801237,-2.4001 -7.605122,-4.80285 -11.411651,-7.20825 -3.403343,0.0171 -6.809332,0.0315 -10.217967,0.0433 -0.681733,0.10366 -1.366115,0.20468 -2.053143,0.30305 -0.363418,0.22633 -0.72948,0.45001 -1.09819,0.67104" />
    <path
       style="fill:none;stroke:#000000;stroke-width:0.264583px;stroke-linecap:butt;stroke-linejoin:miter;stroke-opacity:1"
       d="m 117.53936,123.71719 c -1.3913,-0.018 -4.17657,-0.0541 -7.91738,0.779 -3.74082,0.8331 -8.43599,2.53595 -10.784318,3.93734 -2.348331,1.4014 -2.348331,2.49814 0.661335,3.91872 3.009663,1.42059 9.025853,3.16673 14.580353,4.31369 5.5545,1.14696 10.64757,1.69533 14.22838,1.87906 3.58081,0.18373 5.64987,0.003 7.94891,-0.83739 2.29904,-0.84073 4.82965,-2.34154 6.1421,-3.3216 1.31246,-0.98006 1.40795,-1.44185 1.44802,-1.80584 0.0401,-0.36399 0.0241,-0.63096 -0.40419,-1.07502 -0.42833,-0.44405 -1.27187,-1.06458 -4.14459,-2.12226 -2.87272,-1.05768 -7.77479,-2.55128 -11.5071,-3.56521 -3.73231,-1.01394 -6.29476,-1.54789 -7.57752,-1.81518 -1.28275,-0.26729 -1.2827,-0.26729 -2.674,-0.28531 z"
       id="path885"
       inkscape:path-effect="#path-effect887"
       inkscape:original-d="m 118.93066,123.73521 c -2.78263,-0.0334 -5.5679,-0.0695 -8.35582,-0.10823 -4.69252,1.7055 -9.38769,3.40835 -14.085509,5.10855 0.003,1.0994 0.003,2.19614 0,3.29025 6.018829,1.74879 12.035019,3.49493 18.048559,5.23843 5.09571,0.55102 10.18878,1.09939 15.2792,1.64512 2.0717,-0.17774 4.14076,-0.35813 6.20717,-0.54116 2.53327,-1.49817 5.06388,-2.99899 7.59186,-4.50245 0.0981,-0.45914 0.19363,-0.92093 0.28648,-1.38536 -0.0133,-0.26433 -0.0292,-0.5313 -0.0478,-0.80092 -0.84089,-0.61789 -1.68443,-1.23842 -2.53061,-1.86159 -4.89944,-1.49096 -9.80151,-2.98456 -14.70624,-4.4808 -2.5598,-0.5313 -5.12225,-1.06525 -7.68734,-1.60184 z" />
    <path
       style="fill:none;stroke:#000000;stroke-width:0.264583px;stroke-linecap:butt;stroke-linejoin:miter;stroke-opacity:1"
       d="m 101.12401,149.77586 c -0.30103,-0.0108 -0.90584,-0.0324 -2.219394,0.24871 -1.313555,0.28111 -3.334863,0.86556 -5.841752,1.72057 -2.506889,0.85501 -5.499068,1.98062 -8.428222,3.81716 -2.929155,1.83654 -5.794005,4.3836 -7.79166,6.37531 -1.997654,1.99171 -3.127679,3.42759 -3.979278,5.25024 -0.851599,1.82265 -1.424569,4.03058 -0.626946,5.52745 0.797624,1.49686 2.962178,2.28335 6.375482,2.11659 3.413304,-0.16676 8.076645,-1.28516 11.195769,-2.216 3.119124,-0.93083 4.694791,-1.67403 6.237985,-2.88949 1.543194,-1.21545 3.055201,-2.90388 4.232846,-6.09935 1.17765,-3.19547 2.02119,-7.89995 2.15817,-10.45781 0.13697,-2.55785 -0.436,-2.96914 -0.72399,-3.17585 -0.28798,-0.20672 -0.28798,-0.20676 -0.58901,-0.21753 z"
       id="path889"
       inkscape:path-effect="#path-effect891"
       inkscape:original-d="m 101.42504,149.78663 c -0.60215,-0.019 -1.20696,-0.0406 -1.814398,-0.0649 -2.01867,0.5871 -4.039978,1.17155 -6.063935,1.75335 -2.989532,1.12826 -5.981708,2.25388 -8.976532,3.37684 -2.862204,2.54971 -5.727054,5.09677 -8.59455,7.64118 -1.127379,1.43852 -2.257401,2.8744 -3.390072,4.30763 -0.570325,2.21058 -1.143294,4.41851 -1.718911,6.62379 2.1672,0.78913 4.331753,1.57562 6.493661,2.35946 4.665985,-1.11575 9.329325,-2.23415 13.990018,-3.35519 1.578314,-0.74055 3.153982,-1.48374 4.727001,-2.22958 1.51465,-1.68577 3.02666,-3.37419 4.536008,-5.06525 0.84619,-4.70184 1.68973,-9.40632 2.53062,-14.11345 -0.57032,-0.40863 -1.14329,-0.81992 -1.71891,-1.23384 z" />
    <path
       style="fill:none;stroke:#000000;stroke-width:0.264583px;stroke-linecap:butt;stroke-linejoin:miter;stroke-opacity:1"
       d="m 146.30675,140.77422 c -2.83177,0.14064 -8.49781,0.42204 -12.6205,1.02072 -4.1227,0.59868 -6.70106,1.51504 -9.44683,2.76333 -2.74577,1.24829 -5.65837,2.82847 -8.04625,4.60377 -2.38788,1.7753 -4.25003,3.74512 -6.08845,6.00739 -1.83843,2.26226 -3.65283,4.81654 -4.57583,6.46988 -0.92299,1.65335 -0.95482,2.40376 -0.79525,3.53326 0.15956,1.12951 0.50971,2.63754 1.3066,3.88181 0.79689,1.24428 2.03833,2.22558 3.23208,3.10213 1.19375,0.87655 2.33969,1.64861 7.59179,2.32231 5.2521,0.67371 14.61061,1.25095 20.39567,1.34086 5.78507,0.0899 7.99737,-0.30693 10.42449,-0.77595 2.42711,-0.46902 5.06914,-1.01018 9.82754,-2.90791 4.75839,-1.89773 11.63403,-5.1519 15.89872,-7.95818 4.26469,-2.80629 5.91994,-5.16575 6.05624,-7.66098 0.1363,-2.49524 -1.24838,-5.12887 -2.42551,-6.81775 -1.17713,-1.68887 -2.14799,-2.43206 -4.13735,-3.48953 -1.98936,-1.05746 -4.99745,-2.4284 -7.92608,-3.30561 -2.92864,-0.8772 -5.77757,-1.25962 -8.40373,-1.55553 -2.62616,-0.29591 -5.02945,-0.50516 -6.23253,-0.60991 -1.20307,-0.10475 -1.20306,-0.10475 -4.03482,0.0359 z"
       id="path893"
       inkscape:path-effect="#path-effect895"
       inkscape:original-d="m 149.13851,140.63358 c -5.66339,0.28405 -11.32943,0.56545 -16.99811,0.84421 -2.57572,0.91901 -5.15408,1.83537 -7.73509,2.74909 -2.90995,1.58283 -5.82255,3.16302 -8.7378,4.74056 -1.8595,1.97247 -3.72165,3.94229 -5.58645,5.90947 -1.81176,2.55692 -3.62617,5.11119 -5.44322,7.66282 -0.0292,0.75305 -0.061,1.50346 -0.0955,2.25122 0.35279,1.51068 0.70294,3.01871 1.05044,4.5241 1.24408,0.98395 2.48552,1.96525 3.72431,2.94391 1.14858,0.7747 2.29452,1.54675 3.43782,2.31616 9.36115,0.57988 18.71966,1.15712 28.07553,1.73171 2.21495,-0.3942 4.42725,-0.79105 6.6369,-1.19055 2.64467,-0.53852 5.2867,-1.07967 7.92609,-1.62348 6.87828,-3.25153 13.75392,-6.5057 20.62692,-9.76252 1.65789,-2.35681 3.31314,-4.71627 4.96574,-7.07837 -1.38204,-2.631 -2.76671,-5.26464 -4.15404,-7.90093 -0.96822,-0.74055 -1.93908,-1.48374 -2.91259,-2.22958 -3.00545,-1.36829 -6.01354,-2.73923 -9.02428,-4.11281 -2.84629,-0.37978 -5.69522,-0.7622 -8.5468,-1.14726 -2.40065,-0.2066 -4.80394,-0.41585 -7.20988,-0.62775 z" />
    <text
       xml:space="preserve"
       style="font-size:4.23333px;line-height:1.25;font-family:sans-serif;text-align:end;text-anchor:end;stroke-width:0.264583"
       x="73.602776"
       y="131.17912"
       id="text899"><tspan
         sodipodi:role="line"
         id="tspan897"
         x="73.602776"
         y="131.17912"
         style="stroke-width:0.264583">aside</tspan></text>
    <text
       xml:space="preserve"
       style="font-size:4.23333px;line-height:1.25;font-family:sans-serif;text-align:end;text-anchor:end;stroke-width:0.264583"
       x="122.03595"
       y="129.14516"
       id="text899-7"><tspan
         sodipodi:role="line"
         id="tspan897-9"
         x="122.03595"
         y="129.14516"
         style="stroke-width:0.264583">h1</tspan></text>
    <text
       xml:space="preserve"
       style="font-size:4.23333px;line-height:1.25;font-family:sans-serif;text-align:end;text-anchor:end;stroke-width:0.264583"
       x="95.627975"
       y="156.67114"
       id="text870"><tspan
         sodipodi:role="line"
         id="tspan868"
         x="95.627975"
         y="156.67114"
         style="stroke-width:0.264583">p</tspan></text>
    <text
       xml:space="preserve"
       style="font-size:4.23333px;line-height:1.25;font-family:sans-serif;text-align:end;text-anchor:end;stroke-width:0.264583"
       x="144.5759"
       y="147.03275"
       id="text874"><tspan
         sodipodi:role="line"
         id="tspan872"
         x="144.5759"
         y="147.03275"
         style="stroke-width:0.264583">ol</tspan></text>
    <path
       style="fill:none;stroke:#000000;stroke-width:0.264583px;stroke-linecap:butt;stroke-linejoin:miter;stroke-opacity:1"
       d="m 52.87955,136.71559 c -1.606745,0.98084 -3.214247,1.96215 -4.567378,2.93638 -1.353131,0.97424 -2.451328,1.94111 -3.1201,2.61257 -0.668771,0.67146 -0.907507,1.04666 -0.970853,2.0146 -0.06334,0.96794 0.04807,2.52648 0.28031,3.40626 0.232244,0.87978 0.58239,1.08181 2.253183,1.04833 1.670793,-0.0335 4.662972,-0.30045 6.866766,-0.73355 2.203794,-0.43309 3.620306,-1.03197 4.542514,-1.99055 0.922207,-0.95857 1.351935,-2.279 1.353133,-3.29563 0.0012,-1.01663 -0.428528,-1.73096 -1.176064,-2.52144 -0.747537,-0.79048 -1.813896,-1.65633 -2.975609,-2.29915 -1.161713,-0.64282 -2.419064,-1.06132 -3.679591,-1.48087"
       id="path876"
       inkscape:path-effect="#path-effect878"
       inkscape:original-d="m 52.87955,136.71559 c -1.604854,0.98394 -3.212354,1.96525 -4.822497,2.94391 -1.095547,0.96951 -2.193739,1.93639 -3.294578,2.90061 -0.236093,0.37785 -0.474829,0.75305 -0.716214,1.12561 0.114057,1.56119 0.225467,3.11973 0.334232,4.67562 0.352796,0.20468 0.702943,0.40671 1.050446,0.6061 2.994822,-0.26432 5.987,-0.5313 8.97653,-0.80092 1.419156,-0.59623 2.835666,-1.19512 4.249528,-1.79665 0.432374,-1.31778 0.862103,-2.63821 1.289182,-3.96128 -0.427079,-0.71169 -0.856808,-1.42602 -1.289182,-2.143 -1.063715,-0.86321 -2.130076,-1.72906 -3.199082,-2.59756 -1.254705,-0.41585 -2.512055,-0.83435 -3.772054,-1.25549" />
    <path
       style="fill:none;stroke:#000000;stroke-width:0.264583px;stroke-linecap:butt;stroke-linejoin:miter;stroke-opacity:1"
       d="m 77.565008,139.07504 c -0.188752,-0.24958 -0.379742,-0.50212 -1.437834,-0.71633 -1.058092,-0.2142 -2.983909,-0.38737 -4.456986,-0.23264 -1.473077,0.15474 -2.491688,0.63817 -3.582434,1.41405 -1.090746,0.77588 -2.2526,1.84376 -3.255628,3.34887 -1.003027,1.5051 -1.846566,3.44606 -1.93244,4.7166 -0.08587,1.27055 0.58259,1.86943 2.667559,2.25428 2.084969,0.38485 5.586451,0.55802 8.275578,0.29792 2.689127,-0.2601 4.567194,-0.95278 5.744364,-1.49739 1.177171,-0.5446 1.654646,-0.94145 1.988622,-2.04774 0.333976,-1.10629 0.524967,-2.92459 -0.476028,-4.41852 -1.000995,-1.49394 -3.197383,-2.66284 -5.396926,-3.83343"
       id="path884"
       inkscape:path-effect="#path-effect886"
       inkscape:original-d="m 77.565008,139.07504 c -0.188343,-0.24989 -0.379333,-0.50243 -0.572971,-0.75762 -1.923169,-0.17053 -3.848986,-0.3437 -5.777447,-0.51951 -1.015968,0.48608 -2.034579,0.96951 -3.055839,1.4503 -1.159211,1.07054 -2.321065,2.13843 -3.485568,3.20367 -0.840894,1.9436 -1.684433,3.88456 -2.530618,5.82288 0.67111,0.60153 1.339575,1.20041 2.005396,1.79665 3.504129,0.17581 7.005611,0.34899 10.50445,0.51951 1.880714,-0.69004 3.758782,-1.38272 5.634205,-2.07805 0.48012,-0.39421 0.957595,-0.79106 1.432425,-1.19055 0.193635,-1.81565 0.384624,-3.63395 0.572971,-5.45489 -2.19374,-1.16626 -4.390126,-2.33517 -6.589157,-3.50672" />
    <text
       xml:space="preserve"
       style="font-size:4.23333px;line-height:1.25;font-family:sans-serif;text-align:end;text-anchor:end;stroke-width:0.264583"
       x="54.428574"
       y="143.06398"
       id="text890"><tspan
         sodipodi:role="line"
         id="tspan888"
         x="54.428574"
         y="143.06398"
         style="stroke-width:0.264583">br</tspan></text>
    <text
       xml:space="preserve"
       style="font-size:4.23333px;line-height:1.25;font-family:sans-serif;text-align:end;text-anchor:end;stroke-width:0.264583"
       x="76.918159"
       y="142.87502"
       id="text894"><tspan
         sodipodi:role="line"
         x="76.918159"
         y="142.87502"
         style="stroke-width:0.264583"
         id="tspan896">img</tspan></text>
    <path
       style="fill:none;stroke:#000000;stroke-width:0.341019px;stroke-linecap:butt;stroke-linejoin:miter;stroke-opacity:1"
       d="m 122.35529,152.38752 c -0.46948,-0.0288 -0.94244,-0.0579 -2.88513,1.24398 -1.94269,1.30184 -5.35197,3.93502 -7.08647,5.59218 -1.73451,1.65716 -1.79363,2.33482 -1.75346,2.90645 0.0402,0.57162 0.17812,1.0363 1.55888,1.50893 1.38077,0.47263 4.00176,0.95667 6.28724,1.07716 2.28549,0.12048 4.23647,-0.12154 5.97923,-0.87172 1.74276,-0.75018 3.27988,-2.00867 4.1959,-3.55604 0.91602,-1.54736 1.21162,-3.38671 1.22324,-4.47541 0.0116,-1.08869 -0.26429,-1.42752 -1.55458,-2.08199 -1.29029,-0.65448 -3.59598,-1.62256 -5.22297,-1.92868 -1.62699,-0.30611 -2.57292,0.0521 -3.52053,0.41091"
       id="path900"
       inkscape:path-effect="#path-effect902"
       inkscape:original-d="m 122.35529,152.38752 c -0.46968,-0.0255 -0.94265,-0.0545 -1.41888,-0.0871 -3.406,2.63673 -6.81528,5.26991 -10.22782,7.89953 -0.0558,0.6812 -0.11502,1.35886 -0.17737,2.03296 0.14123,0.46823 0.27918,0.93291 0.41385,1.39404 2.62428,0.48759 5.24527,0.97163 7.863,1.45212 1.95425,-0.23847 3.90523,-0.48049 5.85292,-0.72606 1.5404,-1.25496 3.07752,-2.51345 4.61138,-3.77551 0.29888,-1.8358 0.59448,-3.67515 0.88681,-5.51805 -0.27262,-0.33528 -0.54851,-0.67411 -0.82769,-1.01649 -2.30242,-0.96453 -4.60811,-1.93261 -6.91708,-2.90424 -0.94264,0.36174 -1.88857,0.71993 -2.83777,1.07457" />
    <text
       xml:space="preserve"
       style="font-size:4.23333px;line-height:1.25;font-family:sans-serif;text-align:end;text-anchor:end;stroke-width:0.264583"
       x="123.36057"
       y="156.7285"
       id="text910"><tspan
         sodipodi:role="line"
         id="tspan908"
         x="123.36057"
         y="156.7285"
         style="stroke-width:0.264583">li</tspan></text>
    <path
       style="fill:none;stroke:#000000;stroke-width:0.341019px;stroke-linecap:butt;stroke-linejoin:miter;stroke-opacity:1"
       d="m 141.3903,153.10966 c -0.46948,-0.0288 -0.94244,-0.0579 -2.88513,1.24398 -1.94269,1.30184 -5.35197,3.93502 -7.08647,5.59218 -1.73451,1.65716 -1.79363,2.33482 -1.75346,2.90645 0.0402,0.57162 0.17812,1.0363 1.55888,1.50893 1.38077,0.47263 4.00176,0.95667 6.28724,1.07716 2.28549,0.12048 4.23647,-0.12154 5.97923,-0.87172 1.74276,-0.75018 3.27988,-2.00867 4.1959,-3.55604 0.91602,-1.54736 1.21162,-3.38671 1.22324,-4.47541 0.0116,-1.08869 -0.26429,-1.42752 -1.55458,-2.08199 -1.29029,-0.65448 -3.59598,-1.62256 -5.22297,-1.92868 -1.62699,-0.30611 -2.57292,0.0521 -3.52053,0.41091"
       id="path900-6"
       inkscape:path-effect="#path-effect935"
       inkscape:original-d="m 141.3903,153.10966 c -0.46968,-0.0255 -0.94265,-0.0545 -1.41888,-0.0871 -3.406,2.63673 -6.81528,5.26991 -10.22782,7.89953 -0.0558,0.6812 -0.11502,1.35886 -0.17737,2.03296 0.14123,0.46823 0.27918,0.93291 0.41385,1.39404 2.62428,0.48759 5.24527,0.97163 7.863,1.45212 1.95425,-0.23847 3.90523,-0.48049 5.85292,-0.72606 1.5404,-1.25496 3.07752,-2.51345 4.61138,-3.77551 0.29888,-1.8358 0.59448,-3.67515 0.88681,-5.51805 -0.27262,-0.33528 -0.54851,-0.67411 -0.82769,-1.01649 -2.30242,-0.96453 -4.60811,-1.93261 -6.91708,-2.90424 -0.94264,0.36174 -1.88857,0.71993 -2.83777,1.07457" />
    <text
       xml:space="preserve"
       style="font-size:4.23333px;line-height:1.25;font-family:sans-serif;text-align:end;text-anchor:end;stroke-width:0.264583"
       x="142.39558"
       y="157.45065"
       id="text910-1"><tspan
         sodipodi:role="line"
         id="tspan908-7"
         x="142.39558"
         y="157.45065"
         style="stroke-width:0.264583">li</tspan></text>
    <path
       style="fill:none;stroke:#000000;stroke-width:0.341019px;stroke-linecap:butt;stroke-linejoin:miter;stroke-opacity:1"
       d="m 161.23405,153.10967 c -0.46948,-0.0288 -0.94244,-0.0579 -2.88513,1.24398 -1.94269,1.30184 -5.35197,3.93502 -7.08647,5.59218 -1.73451,1.65716 -1.79363,2.33482 -1.75346,2.90645 0.0402,0.57162 0.17812,1.0363 1.55888,1.50893 1.38077,0.47263 4.00176,0.95667 6.28724,1.07716 2.28549,0.12048 4.23647,-0.12154 5.97923,-0.87172 1.74276,-0.75018 3.27988,-2.00867 4.1959,-3.55604 0.91602,-1.54736 1.21162,-3.38671 1.22324,-4.47541 0.0116,-1.08869 -0.26429,-1.42752 -1.55458,-2.08199 -1.29029,-0.65448 -3.59598,-1.62256 -5.22297,-1.92868 -1.62699,-0.30611 -2.57292,0.0521 -3.52053,0.41091"
       id="path900-1"
       inkscape:path-effect="#path-effect948"
       inkscape:original-d="m 161.23405,153.10967 c -0.46968,-0.0255 -0.94265,-0.0545 -1.41888,-0.0871 -3.406,2.63673 -6.81528,5.26991 -10.22782,7.89953 -0.0558,0.6812 -0.11502,1.35886 -0.17737,2.03296 0.14123,0.46823 0.27918,0.93291 0.41385,1.39404 2.62428,0.48759 5.24527,0.97163 7.863,1.45212 1.95425,-0.23847 3.90523,-0.48049 5.85292,-0.72606 1.5404,-1.25496 3.07752,-2.51345 4.61138,-3.77551 0.29888,-1.8358 0.59448,-3.67515 0.88681,-5.51805 -0.27262,-0.33528 -0.54851,-0.67411 -0.82769,-1.01649 -2.30242,-0.96453 -4.60811,-1.93261 -6.91708,-2.90424 -0.94264,0.36174 -1.88857,0.71993 -2.83777,1.07457" />
    <text
       xml:space="preserve"
       style="font-size:4.23333px;line-height:1.25;font-family:sans-serif;text-align:end;text-anchor:end;stroke-width:0.264583"
       x="162.23932"
       y="157.45065"
       id="text910-8"><tspan
         sodipodi:role="line"
         id="tspan908-3"
         x="162.23932"
         y="157.45065"
         style="stroke-width:0.264583">li</tspan></text>
    <text
       xml:space="preserve"
       style="font-size:4.23333px;line-height:1.25;font-family:sans-serif;text-align:end;text-anchor:end;stroke-width:0.264583"
       x="57.266338"
       y="108.8911"
       id="text861-4"><tspan
         sodipodi:role="line"
         id="tspan859-0"
         x="57.266338"
         y="108.8911"
         style="stroke-width:0.264583">body</tspan></text>
    <text
       xml:space="preserve"
       style="font-size:5.64444px;line-height:1.25;font-family:sans-serif;text-align:start;text-anchor:start;stroke-width:0.264583"
       x="8.2746592"
       y="94.092865"
       id="text1267-0"><tspan
         sodipodi:role="line"
         x="8.2746592"
         y="94.092865"
         style="font-size:5.64444px;text-align:start;text-anchor:start;stroke-width:0.264583"
         id="tspan1269-6">DOM objects</tspan></text>
  </g>
</svg>
