<?xml version="1.0" encoding="UTF-8" standalone="no"?>
<svg
   xmlns:dc="http://purl.org/dc/elements/1.1/"
   xmlns:cc="http://creativecommons.org/ns#"
   xmlns:rdf="http://www.w3.org/1999/02/22-rdf-syntax-ns#"
   xmlns:svg="http://www.w3.org/2000/svg"
   xmlns="http://www.w3.org/2000/svg"
   xmlns:sodipodi="http://sodipodi.sourceforge.net/DTD/sodipodi-0.dtd"
   xmlns:inkscape="http://www.inkscape.org/namespaces/inkscape"
   width="339.86401mm"
   height="318.80014mm"
   viewBox="0 0 339.86399 318.80014"
   version="1.1"
   id="svg8"
   inkscape:version="1.0.1 (3bc2e813f5, 2020-09-07)"
   sodipodi:docname="async1.svg"
   inkscape:export-filename="C:\Users\jvasic\OneDrive - Technological University Dublin\jvk\notes-private\www_staging\rwat\res\images\async1.png"
   inkscape:export-xdpi="280.186"
   inkscape:export-ydpi="280.186">
  <defs
     id="defs2">
    <inkscape:path-effect
       effect="bspline"
       id="path-effect6887"
       is_visible="true"
       lpeversion="1"
       weight="33.333333"
       steps="2"
       helper_size="0"
       apply_no_weight="true"
       apply_with_weight="true"
       only_selected="false" />
    <rect
       x="261.12234"
       y="95.415222"
       width="83.388092"
       height="22.45064"
       id="rect4615" />
    <marker
       style="overflow:visible"
       id="Arrow1Mend"
       refX="0"
       refY="0"
       orient="auto"
       inkscape:stockid="Arrow1Mend"
       inkscape:isstock="true">
      <path
         transform="matrix(-0.4,0,0,-0.4,-4,0)"
         style="fill:#000000;fill-opacity:1;fill-rule:evenodd;stroke:#000000;stroke-width:1pt;stroke-opacity:1"
         d="M 0,0 5,-5 -12.5,0 5,5 Z"
         id="path1380" />
    </marker>
    <inkscape:path-effect
       effect="bspline"
       id="path-effect3971"
       is_visible="true"
       lpeversion="1"
       weight="33.333333"
       steps="2"
       helper_size="0"
       apply_no_weight="true"
       apply_with_weight="true"
       only_selected="false" />
    <marker
       style="overflow:visible"
       id="Arrow1Mstart"
       refX="0"
       refY="0"
       orient="auto"
       inkscape:stockid="Arrow1Mstart"
       inkscape:isstock="true">
      <path
         transform="matrix(0.4,0,0,0.4,4,0)"
         style="fill:#000000;fill-opacity:1;fill-rule:evenodd;stroke:#000000;stroke-width:1pt;stroke-opacity:1"
         d="M 0,0 5,-5 -12.5,0 5,5 Z"
         id="path1377" />
    </marker>
    <marker
       style="overflow:visible"
       id="Arrow1Lstart"
       refX="0"
       refY="0"
       orient="auto"
       inkscape:stockid="Arrow1Lstart"
       inkscape:isstock="true">
      <path
         transform="matrix(0.8,0,0,0.8,10,0)"
         style="fill:#000000;fill-opacity:1;fill-rule:evenodd;stroke:#000000;stroke-width:1pt;stroke-opacity:1"
         d="M 0,0 5,-5 -12.5,0 5,5 Z"
         id="path1371" />
    </marker>
    <marker
       style="overflow:visible"
       id="Arrow1Lend"
       refX="0"
       refY="0"
       orient="auto"
       inkscape:stockid="Arrow1Lend"
       inkscape:isstock="true">
      <path
         transform="matrix(-0.8,0,0,-0.8,-10,0)"
         style="fill:#000000;fill-opacity:1;fill-rule:evenodd;stroke:#000000;stroke-width:1pt;stroke-opacity:1"
         d="M 0,0 5,-5 -12.5,0 5,5 Z"
         id="path1374" />
    </marker>
    <rect
       x="8.5526247"
       y="-35.012306"
       width="0"
       height="9.0871639"
       id="rect1193" />
    <marker
       style="overflow:visible"
       id="Arrow1Mstart-5"
       refX="0"
       refY="0"
       orient="auto"
       inkscape:stockid="Arrow1Mstart"
       inkscape:isstock="true">
      <path
         transform="matrix(0.4,0,0,0.4,4,0)"
         style="fill:#000000;fill-opacity:1;fill-rule:evenodd;stroke:#000000;stroke-width:1pt;stroke-opacity:1"
         d="M 0,0 5,-5 -12.5,0 5,5 Z"
         id="path1377-9" />
    </marker>
    <marker
       style="overflow:visible"
       id="Arrow1Mstart-5-5"
       refX="0"
       refY="0"
       orient="auto"
       inkscape:stockid="Arrow1Mstart"
       inkscape:isstock="true">
      <path
         transform="matrix(0.4,0,0,0.4,4,0)"
         style="fill:#000000;fill-opacity:1;fill-rule:evenodd;stroke:#000000;stroke-width:1pt;stroke-opacity:1"
         d="M 0,0 5,-5 -12.5,0 5,5 Z"
         id="path1377-9-4" />
    </marker>
    <marker
       style="overflow:visible"
       id="Arrow1Mstart-5-5-4"
       refX="0"
       refY="0"
       orient="auto"
       inkscape:stockid="Arrow1Mstart"
       inkscape:isstock="true">
      <path
         transform="matrix(0.4,0,0,0.4,4,0)"
         style="fill:#000000;fill-opacity:1;fill-rule:evenodd;stroke:#000000;stroke-width:1pt;stroke-opacity:1"
         d="M 0,0 5,-5 -12.5,0 5,5 Z"
         id="path1377-9-4-6" />
    </marker>
    <marker
       style="overflow:visible"
       id="Arrow1Mstart-9"
       refX="0"
       refY="0"
       orient="auto"
       inkscape:stockid="Arrow1Mstart"
       inkscape:isstock="true">
      <path
         transform="matrix(0.4,0,0,0.4,4,0)"
         style="fill:#000000;fill-opacity:1;fill-rule:evenodd;stroke:#000000;stroke-width:1pt;stroke-opacity:1"
         d="M 0,0 5,-5 -12.5,0 5,5 Z"
         id="path1377-1" />
    </marker>
    <marker
       style="overflow:visible"
       id="Arrow1Mstart-5-6"
       refX="0"
       refY="0"
       orient="auto"
       inkscape:stockid="Arrow1Mstart"
       inkscape:isstock="true">
      <path
         transform="matrix(0.4,0,0,0.4,4,0)"
         style="fill:#000000;fill-opacity:1;fill-rule:evenodd;stroke:#000000;stroke-width:1pt;stroke-opacity:1"
         d="M 0,0 5,-5 -12.5,0 5,5 Z"
         id="path1377-9-9" />
    </marker>
    <marker
       style="overflow:visible"
       id="Arrow1Mstart-5-5-2"
       refX="0"
       refY="0"
       orient="auto"
       inkscape:stockid="Arrow1Mstart"
       inkscape:isstock="true">
      <path
         transform="matrix(0.4,0,0,0.4,4,0)"
         style="fill:#000000;fill-opacity:1;fill-rule:evenodd;stroke:#000000;stroke-width:1pt;stroke-opacity:1"
         d="M 0,0 5,-5 -12.5,0 5,5 Z"
         id="path1377-9-4-7" />
    </marker>
    <marker
       style="overflow:visible"
       id="Arrow1Mstart-5-5-2-3"
       refX="0"
       refY="0"
       orient="auto"
       inkscape:stockid="Arrow1Mstart"
       inkscape:isstock="true">
      <path
         transform="matrix(0.4,0,0,0.4,4,0)"
         style="fill:#000000;fill-opacity:1;fill-rule:evenodd;stroke:#000000;stroke-width:1pt;stroke-opacity:1"
         d="M 0,0 5,-5 -12.5,0 5,5 Z"
         id="path1377-9-4-7-9" />
    </marker>
    <marker
       style="overflow:visible"
       id="Arrow1Mend-7"
       refX="0"
       refY="0"
       orient="auto"
       inkscape:stockid="Arrow1Mend"
       inkscape:isstock="true">
      <path
         transform="matrix(-0.4,0,0,-0.4,-4,0)"
         style="fill:#000000;fill-opacity:1;fill-rule:evenodd;stroke:#000000;stroke-width:1pt;stroke-opacity:1"
         d="M 0,0 5,-5 -12.5,0 5,5 Z"
         id="path1380-1" />
    </marker>
    <rect
       x="261.12234"
       y="95.415222"
       width="83.388092"
       height="22.45064"
       id="rect4615-7" />
    <rect
       x="261.12234"
       y="95.415222"
       width="83.388092"
       height="22.45064"
       id="rect4919" />
    <rect
       x="261.12234"
       y="95.415222"
       width="83.388092"
       height="22.45064"
       id="rect4615-7-1" />
    <rect
       x="261.12234"
       y="95.415222"
       width="83.388092"
       height="22.45064"
       id="rect6131" />
    <marker
       style="overflow:visible"
       id="Arrow1Mstart-2"
       refX="0"
       refY="0"
       orient="auto"
       inkscape:stockid="Arrow1Mstart"
       inkscape:isstock="true">
      <path
         transform="matrix(0.4,0,0,0.4,4,0)"
         style="fill:#000000;fill-opacity:1;fill-rule:evenodd;stroke:#000000;stroke-width:1pt;stroke-opacity:1"
         d="M 0,0 5,-5 -12.5,0 5,5 Z"
         id="path1377-7" />
    </marker>
    <marker
       style="overflow:visible"
       id="Arrow1Mstart-5-7"
       refX="0"
       refY="0"
       orient="auto"
       inkscape:stockid="Arrow1Mstart"
       inkscape:isstock="true">
      <path
         transform="matrix(0.4,0,0,0.4,4,0)"
         style="fill:#000000;fill-opacity:1;fill-rule:evenodd;stroke:#000000;stroke-width:1pt;stroke-opacity:1"
         d="M 0,0 5,-5 -12.5,0 5,5 Z"
         id="path1377-9-5" />
    </marker>
    <marker
       style="overflow:visible"
       id="Arrow1Mstart-5-5-6"
       refX="0"
       refY="0"
       orient="auto"
       inkscape:stockid="Arrow1Mstart"
       inkscape:isstock="true">
      <path
         transform="matrix(0.4,0,0,0.4,4,0)"
         style="fill:#000000;fill-opacity:1;fill-rule:evenodd;stroke:#000000;stroke-width:1pt;stroke-opacity:1"
         d="M 0,0 5,-5 -12.5,0 5,5 Z"
         id="path1377-9-4-5" />
    </marker>
    <marker
       style="overflow:visible"
       id="Arrow1Mstart-5-5-4-8"
       refX="0"
       refY="0"
       orient="auto"
       inkscape:stockid="Arrow1Mstart"
       inkscape:isstock="true">
      <path
         transform="matrix(0.4,0,0,0.4,4,0)"
         style="fill:#000000;fill-opacity:1;fill-rule:evenodd;stroke:#000000;stroke-width:1pt;stroke-opacity:1"
         d="M 0,0 5,-5 -12.5,0 5,5 Z"
         id="path1377-9-4-6-5" />
    </marker>
    <marker
       style="overflow:visible"
       id="Arrow1Mstart-9-5"
       refX="0"
       refY="0"
       orient="auto"
       inkscape:stockid="Arrow1Mstart"
       inkscape:isstock="true">
      <path
         transform="matrix(0.4,0,0,0.4,4,0)"
         style="fill:#000000;fill-opacity:1;fill-rule:evenodd;stroke:#000000;stroke-width:1pt;stroke-opacity:1"
         d="M 0,0 5,-5 -12.5,0 5,5 Z"
         id="path1377-1-9" />
    </marker>
    <marker
       style="overflow:visible"
       id="Arrow1Mstart-5-6-7"
       refX="0"
       refY="0"
       orient="auto"
       inkscape:stockid="Arrow1Mstart"
       inkscape:isstock="true">
      <path
         transform="matrix(0.4,0,0,0.4,4,0)"
         style="fill:#000000;fill-opacity:1;fill-rule:evenodd;stroke:#000000;stroke-width:1pt;stroke-opacity:1"
         d="M 0,0 5,-5 -12.5,0 5,5 Z"
         id="path1377-9-9-0" />
    </marker>
    <marker
       style="overflow:visible"
       id="Arrow1Mstart-5-5-2-34"
       refX="0"
       refY="0"
       orient="auto"
       inkscape:stockid="Arrow1Mstart"
       inkscape:isstock="true">
      <path
         transform="matrix(0.4,0,0,0.4,4,0)"
         style="fill:#000000;fill-opacity:1;fill-rule:evenodd;stroke:#000000;stroke-width:1pt;stroke-opacity:1"
         d="M 0,0 5,-5 -12.5,0 5,5 Z"
         id="path1377-9-4-7-2" />
    </marker>
    <marker
       style="overflow:visible"
       id="Arrow1Mend-2"
       refX="0"
       refY="0"
       orient="auto"
       inkscape:stockid="Arrow1Mend"
       inkscape:isstock="true">
      <path
         transform="matrix(-0.4,0,0,-0.4,-4,0)"
         style="fill:#000000;fill-opacity:1;fill-rule:evenodd;stroke:#000000;stroke-width:1pt;stroke-opacity:1"
         d="M 0,0 5,-5 -12.5,0 5,5 Z"
         id="path1380-10" />
    </marker>
    <rect
       x="261.12234"
       y="95.415222"
       width="83.388092"
       height="22.45064"
       id="rect4615-0" />
    <rect
       x="261.12234"
       y="95.415222"
       width="83.388092"
       height="22.45064"
       id="rect6445" />
    <marker
       style="overflow:visible"
       id="Arrow1Mstart-5-5-2-3-8"
       refX="0"
       refY="0"
       orient="auto"
       inkscape:stockid="Arrow1Mstart"
       inkscape:isstock="true">
      <path
         transform="matrix(0.4,0,0,0.4,4,0)"
         style="fill:#000000;fill-opacity:1;fill-rule:evenodd;stroke:#000000;stroke-width:1pt;stroke-opacity:1"
         d="M 0,0 5,-5 -12.5,0 5,5 Z"
         id="path1377-9-4-7-9-4" />
    </marker>
    <rect
       x="261.12234"
       y="95.415222"
       width="83.388092"
       height="22.45064"
       id="rect4615-7-6" />
    <rect
       x="261.12234"
       y="95.415222"
       width="83.388092"
       height="22.45064"
       id="rect6450" />
    <marker
       style="overflow:visible"
       id="Arrow1Lend-5"
       refX="0"
       refY="0"
       orient="auto"
       inkscape:stockid="Arrow1Lend"
       inkscape:isstock="true"
       inkscape:collect="always">
      <path
         transform="matrix(-0.8,0,0,-0.8,-10,0)"
         style="fill:#000000;fill-opacity:1;fill-rule:evenodd;stroke:#000000;stroke-width:1pt;stroke-opacity:1"
         d="M 0,0 5,-5 -12.5,0 5,5 Z"
         id="path1374-4" />
    </marker>
    <marker
       style="overflow:visible"
       id="Arrow1Mstart-4"
       refX="0"
       refY="0"
       orient="auto"
       inkscape:stockid="Arrow1Mstart"
       inkscape:isstock="true">
      <path
         transform="matrix(0.4,0,0,0.4,4,0)"
         style="fill:#000000;fill-opacity:1;fill-rule:evenodd;stroke:#000000;stroke-width:1pt;stroke-opacity:1"
         d="M 0,0 5,-5 -12.5,0 5,5 Z"
         id="path1377-4" />
    </marker>
    <marker
       style="overflow:visible"
       id="Arrow1Mstart-9-5-6"
       refX="0"
       refY="0"
       orient="auto"
       inkscape:stockid="Arrow1Mstart"
       inkscape:isstock="true">
      <path
         transform="matrix(0.4,0,0,0.4,4,0)"
         style="fill:#000000;fill-opacity:1;fill-rule:evenodd;stroke:#000000;stroke-width:1pt;stroke-opacity:1"
         d="M 0,0 5,-5 -12.5,0 5,5 Z"
         id="path1377-1-9-0" />
    </marker>
    <marker
       style="overflow:visible"
       id="Arrow2Mstart-8-1"
       refX="0"
       refY="0"
       orient="auto"
       inkscape:stockid="Arrow2Mstart"
       inkscape:isstock="true">
      <path
         transform="scale(0.6)"
         d="M 8.7185878,4.0337352 -2.2072895,0.01601326 8.7185884,-4.0017078 c -1.7454984,2.3720609 -1.7354408,5.6174519 -6e-7,8.035443 z"
         style="fill:#000000;fill-opacity:1;fill-rule:evenodd;stroke:#000000;stroke-width:0.625;stroke-linejoin:round;stroke-opacity:1"
         id="path1395-7-2" />
    </marker>
    <marker
       style="overflow:visible"
       id="Arrow2Mstart-88"
       refX="0"
       refY="0"
       orient="auto"
       inkscape:stockid="Arrow2Mstart"
       inkscape:isstock="true">
      <path
         transform="scale(0.6)"
         d="M 8.7185878,4.0337352 -2.2072895,0.01601326 8.7185884,-4.0017078 c -1.7454984,2.3720609 -1.7354408,5.6174519 -6e-7,8.035443 z"
         style="fill:#00ff00;fill-opacity:1;fill-rule:evenodd;stroke:#00ff00;stroke-width:0.625;stroke-linejoin:round;stroke-opacity:1"
         id="path1395-3" />
    </marker>
    <marker
       style="overflow:visible"
       id="Arrow2Mstart-8-4-6"
       refX="0"
       refY="0"
       orient="auto"
       inkscape:stockid="Arrow2Mstart"
       inkscape:isstock="true">
      <path
         transform="scale(0.6)"
         d="M 8.7185878,4.0337352 -2.2072895,0.01601326 8.7185884,-4.0017078 c -1.7454984,2.3720609 -1.7354408,5.6174519 -6e-7,8.035443 z"
         style="fill:#00ff00;fill-opacity:1;fill-rule:evenodd;stroke:#00ff00;stroke-width:0.625;stroke-linejoin:round;stroke-opacity:1"
         id="path1395-7-0-1" />
    </marker>
  </defs>
  <sodipodi:namedview
     id="base"
     pagecolor="#ffffff"
     bordercolor="#666666"
     borderopacity="1.0"
     inkscape:pageopacity="0.0"
     inkscape:pageshadow="2"
     inkscape:zoom="0.72008246"
     inkscape:cx="947.85179"
     inkscape:cy="598.05181"
     inkscape:document-units="mm"
     inkscape:current-layer="layer1"
     inkscape:document-rotation="0"
     showgrid="false"
     inkscape:window-width="1920"
     inkscape:window-height="1017"
     inkscape:window-x="1912"
     inkscape:window-y="0"
     inkscape:window-maximized="1"
     fit-margin-top="0"
     fit-margin-left="0"
     fit-margin-right="0"
     fit-margin-bottom="0" />
  <metadata
     id="metadata5">
    <rdf:RDF>
      <cc:Work
         rdf:about="">
        <dc:format>image/svg+xml</dc:format>
        <dc:type
           rdf:resource="http://purl.org/dc/dcmitype/StillImage" />
        <dc:title></dc:title>
      </cc:Work>
    </rdf:RDF>
  </metadata>
  <g
     inkscape:label="Layer 1"
     inkscape:groupmode="layer"
     id="layer1"
     transform="translate(17.240457,25.130674)">
    <path
       style="fill:none;stroke:#000000;stroke-width:1.05994;stroke-linecap:butt;stroke-linejoin:miter;stroke-miterlimit:4;stroke-dasharray:none;stroke-opacity:1"
       d="m 3.9124999,5 c 0,255.1721 0,255.1721 0,255.1721"
       id="path833" />
    <path
       style="fill:none;stroke:#000000;stroke-width:1.05994;stroke-linecap:butt;stroke-linejoin:miter;stroke-miterlimit:4;stroke-dasharray:none;stroke-opacity:1"
       d="m 128.67502,5 c 0,255.1721 0,255.1721 0,255.1721"
       id="path833-3" />
    <path
       style="fill:none;stroke:#000000;stroke-width:0.529972;stroke-linecap:butt;stroke-linejoin:miter;stroke-miterlimit:4;stroke-dasharray:none;stroke-opacity:1"
       d="m 44.970833,5 c 0,255.1721 0,255.1721 0,255.1721"
       id="path833-2" />
    <path
       style="fill:none;stroke:#000000;stroke-width:0.529972;stroke-linecap:butt;stroke-linejoin:miter;stroke-miterlimit:4;stroke-dasharray:none;stroke-opacity:1"
       d="m 86.308333,5 c 0,255.1721 0,255.1721 0,255.1721"
       id="path833-2-5" />
    <path
       id="path1148"
       style="font-size:156.369px;line-height:1.25;font-family:sans-serif;text-align:end;text-anchor:end;stroke-width:3.96145"
       d="m 65.725649,-16.937698 c 0.02499,1.608589 -0.411745,3.241932 -1.644595,4.762761 -0.997205,1.227944 -2.738022,2.3472087 -5.172758,3.0965954 -2.994738,0.9692864 -6.678515,1.4157541 -10.334824,1.5447061 -6.967759,0.3526917 -13.98819,0.0592 -20.97883,0.161337 -3.743477,0.0052 -7.597393,0.0395 -11.181286,0.3583977 -2.681559,0.2568917 -5.681803,0.5994127 -7.5998218,1.5742911 C 7.1972813,-4.6616643 6.592021,-3.6029319 5.9910844,-2.6076432 5.0876573,-0.82111343 4.8075486,1.0570916 4.717253,2.8910393 4.8236856,3.0937473 4.3878446,3.536559 4.9907905,3.525605 5.7740697,3.606455 6.0930998,3.477125 5.9208255,3.1253874 6.0267312,1.0787056 6.4444126,-1.0714561 8.8522087,-2.8693092 11.053131,-4.3747323 15.083167,-5.11806 18.972165,-5.3275567 c 6.758622,-0.429541 13.59941,-0.139816 20.395958,-0.225707 5.331237,-0.0068 10.746865,0.07098 15.881379,-0.6724007 1.7054,-0.2926747 3.224882,-0.8194504 4.357266,-1.4903131 0.99278,-0.6026037 1.565286,-1.3132791 2.436021,-1.9495318 1.534596,-1.2715727 3.08968,-2.5388447 4.793011,-3.7678767 2.326492,1.851009 3.408421,3.9726164 6.116925,5.7332555 1.881818,1.3013244 5.512176,1.8042601 8.749814,1.9831138 10.423591,0.5323147 21.020341,-0.0425 31.470441,0.5038457 3.79831,0.226748 7.79921,0.8746397 10.07053,2.3219788 2.45436,1.5503151 2.88658,3.50869178 3.0946,5.3468908 0.0377,0.4129167 0.0502,0.8261984 0.0567,1.2394175 0.62327,-8.93e-4 1.46805,0.0952 1.16484,-0.3114431 -0.0819,-2.59382342 -0.35175,-5.2612428 -2.56776,-7.7046323 -1.13191,-1.1244824 -3.5231,-1.9319891 -6.18698,-2.2320218 -4.94418,-0.7215847 -10.15745,-0.6710337 -15.2948,-0.7235327 -7.510361,-0.05013 -15.088565,0.153071 -22.529644,-0.4001917 -4.366557,-0.3934867 -8.720761,-1.4049041 -11.013833,-3.1616945 -2.509948,-1.825872 -2.923136,-4.024406 -2.979609,-6.114113 -0.360354,0.01907 -0.837387,0.0324 -1.249656,-0.01656 z" />
    <text
       xml:space="preserve"
       id="text1191"
       style="font-size:6.35px;line-height:1.25;font-family:sans-serif;text-align:end;white-space:pre;shape-inside:url(#rect1193)" />
    <text
       xml:space="preserve"
       style="font-size:5.29167px;line-height:1.25;font-family:sans-serif;text-align:start;text-anchor:start;stroke-width:0.264583"
       x="18.223593"
       y="-21.110245"
       id="text1199"><tspan
         sodipodi:role="line"
         id="tspan1197"
         x="18.223593"
         y="-21.110245"
         style="font-size:5.29167px;text-align:start;text-anchor:start;stroke-width:0.264583">Javascript thread of execution</tspan></text>
    <path
       id="path1148-4"
       style="font-size:156.369px;line-height:1.25;font-family:sans-serif;text-align:end;text-anchor:end;stroke-width:2.49394"
       d="m 162.92378,-11.378937 c 0.0136,1.171183 -0.22414,2.3603874 -0.89524,3.4676728 -0.54285,0.8940424 -1.49047,1.7089568 -2.81583,2.2545715 -1.63021,0.7057187 -3.6355,1.0307824 -5.62583,1.1246714 -3.79293,0.256788 -7.61455,0.04309 -11.41994,0.117466 -2.03777,0.0037 -4.13568,0.02876 -6.0866,0.2609427 -1.45972,0.187038 -3.09292,0.43642 -4.137,1.1462104 -0.87982,0.5664077 -1.2093,1.3372504 -1.53641,2.06189977 -0.49179,1.30073834 -0.64427,2.66822433 -0.69343,4.00348673 0.058,0.1475871 -0.17931,0.4699897 0.1489,0.4620147 0.42639,0.05887 0.60005,-0.03531 0.50628,-0.2913906 0.0576,-1.4901515 0.28502,-3.05564149 1.59571,-4.3646245 1.19809,-1.0960694 3.39187,-1.6372711 5.50886,-1.7898021 3.67909,-0.3127407 7.4029,-0.1018 11.10265,-0.164333 2.90209,-0.0049 5.85012,0.05168 8.64513,-0.4895617 0.92834,-0.2130907 1.75546,-0.5966267 2.3719,-1.0850704 0.54043,-0.4387427 0.85207,-0.9561714 1.32606,-1.4194161 0.83537,-0.9258074 1.68188,-1.8484818 2.6091,-2.7433155 1.26645,1.3476824 1.8554,2.8923835 3.32979,4.1742706 1.02437,0.9474697 3.00058,1.3136474 4.763,1.4438674 5.67414,0.3875677 11.44255,-0.03095 17.13112,0.3668407 2.06763,0.165091 4.24555,0.6368077 5.48195,1.6905891 1.33605,1.12875434 1.57133,2.5546093 1.68456,3.8929674 0.0205,0.300637 0.0273,0.6015387 0.0309,0.9023967 0.33929,-6.55e-4 0.79915,0.06931 0.63409,-0.226756 -0.0445,-1.8885128 -0.19147,-3.83061076 -1.39777,-5.6095945 -0.61617,-0.8187147 -1.91782,-1.4066444 -3.36792,-1.6250931 -2.69139,-0.5253717 -5.52927,-0.4885667 -8.32581,-0.5267907 -4.0883,-0.03649 -8.21355,0.111443 -12.26415,-0.291372 -2.37696,-0.2864897 -4.74719,-1.0228834 -5.99544,-2.3019675 -1.36629,-1.3293814 -1.59122,-2.9300925 -1.62197,-4.4515682 -0.19615,0.01388 -0.45583,0.0236 -0.68025,-0.01205 z" />
    <text
       xml:space="preserve"
       style="font-size:5.29167px;line-height:1.25;font-family:sans-serif;text-align:start;text-anchor:start;stroke-width:0.264583"
       x="123.69817"
       y="-20.962032"
       id="text1199-9"><tspan
         sodipodi:role="line"
         id="tspan1197-4"
         x="123.69817"
         y="-20.962032"
         style="font-size:5.29167px;text-align:start;text-anchor:start;stroke-width:0.264583">The world outside (e.g. Web</tspan><tspan
         sodipodi:role="line"
         x="123.69817"
         y="-14.347445"
         style="font-size:5.29167px;text-align:start;text-anchor:start;stroke-width:0.264583"
         id="tspan1333">APIs, network and other I/O)</tspan><tspan
         sodipodi:role="line"
         x="123.69817"
         y="-7.7328577"
         style="font-size:5.29167px;text-align:start;text-anchor:start;stroke-width:0.264583"
         id="tspan1331" /></text>
    <path
       style="fill:#00ff00;fill-opacity:1;stroke:#00fa00;stroke-width:3;stroke-linecap:butt;stroke-linejoin:miter;stroke-miterlimit:4;stroke-dasharray:none;stroke-opacity:1"
       d="m 25.162864,5.0489054 c 0,24.4136396 0,24.4136396 0,24.4136396"
       id="path833-6" />
    <path
       style="fill:none;stroke:#000000;stroke-width:1;stroke-linecap:butt;stroke-linejoin:miter;stroke-miterlimit:4;stroke-dasharray:2, 2;stroke-dashoffset:0;stroke-opacity:1;marker-start:url(#Arrow1Mstart)"
       d="M 64.75998,29.416413 C 24.960763,29.537541 24.960763,29.537541 24.960763,29.537541"
       id="path833-2-7" />
    <path
       style="fill:#ffaaaa;fill-opacity:0;stroke:#ffaaaa;stroke-width:3;stroke-linecap:butt;stroke-linejoin:miter;stroke-miterlimit:4;stroke-dasharray:none;stroke-opacity:1"
       d="m 65.481185,29.296751 c 0,24.413642 0,24.413642 0,24.413642"
       id="path833-6-5" />
    <path
       style="fill:none;stroke:#000000;stroke-width:1;stroke-linecap:butt;stroke-linejoin:miter;stroke-miterlimit:4;stroke-dasharray:2, 2;stroke-dashoffset:0;stroke-opacity:1;marker-start:url(#Arrow1Mstart-5)"
       d="M 104.77992,53.409355 C 64.980711,53.530483 64.980711,53.530483 64.980711,53.530483"
       id="path833-2-7-7" />
    <path
       style="fill:#00ffff;fill-opacity:0;stroke:#00ffff;stroke-width:3;stroke-linecap:butt;stroke-linejoin:miter;stroke-miterlimit:4;stroke-dasharray:none;stroke-opacity:1"
       d="m 105.50113,53.289693 c 0,24.413646 0,24.413646 0,24.413646"
       id="path833-6-5-6" />
    <path
       style="fill:none;stroke:#000000;stroke-width:0.984048;stroke-linecap:butt;stroke-linejoin:miter;stroke-miterlimit:4;stroke-dasharray:1.9681, 1.9681;stroke-dashoffset:0;stroke-opacity:1;marker-start:url(#Arrow1Mstart-5-5)"
       d="m 143.01795,77.449413 c -37.58007,0.124219 -37.58007,0.124219 -37.58007,0.124219"
       id="path833-2-7-7-7" />
    <path
       style="fill:none;stroke:#d4aa00;stroke-width:3;stroke-linecap:butt;stroke-linejoin:miter;stroke-miterlimit:4;stroke-dasharray:none;stroke-opacity:1"
       d="m 151.06931,84.465945 c -2.98963,1.857287 -5.97967,3.714837 -7.57925,5.032535 -1.59957,1.317699 -1.80773,2.093383 -1.11546,3.200961 0.69226,1.107578 2.2819,2.546666 3.36971,3.725792 1.0878,1.179125 1.67445,2.09769 1.60744,2.800383 -0.067,0.702693 -0.78614,1.192594 -2.23429,3.300804 -1.44816,2.10821 -3.62445,5.8335 -4.37115,8.7025 -0.7467,2.869 -0.0654,4.87964 1.53457,6.61401 1.6,1.73436 4.11693,3.19386 4.89144,4.31572 0.77452,1.12187 -0.19062,1.90776 -1.37372,3.63833 -1.18309,1.73056 -2.5835,4.40462 -3.3876,6.7731 -0.8041,2.36848 -1.01227,4.43015 -0.13082,6.20076 0.88145,1.77061 2.84958,3.25053 3.71855,4.56719 0.86896,1.31666 0.64187,2.46998 0.48118,4.58291 -0.16068,2.11293 -0.25531,5.18503 1.03269,8.33882 1.288,3.1538 3.95633,6.3892 5.83962,8.25627 1.88329,1.86706 2.98091,2.36718 3.62311,3.29676 0.64221,0.92957 0.83145,2.28701 3.47248,3.37274 2.64104,1.08573 7.7317,1.90224 10.98615,2.14681 3.25446,0.24457 4.67379,-0.082 5.82715,-1.93845 1.15337,-1.85641 2.04282,-5.24491 2.41242,-7.28564 0.36961,-2.04073 0.21821,-2.73476 1.08856,-3.71616 0.87035,-0.98141 2.76278,-2.24699 3.71824,-3.11825 0.95546,-0.87125 0.97436,-1.35095 0.67204,-2.68774 -0.30232,-1.33678 -0.92682,-3.53114 -1.27731,-5.67462 -0.35048,-2.14348 -0.42617,-4.23577 -0.0763,-7.14999 0.34983,-2.91421 1.12573,-6.64973 1.47625,-8.78245 0.35053,-2.13272 0.27483,-2.66344 -0.26387,-3.80141 -0.5387,-1.13798 -1.54169,-2.88327 -1.60905,-4.42038 -0.0674,-1.53711 0.80316,-2.86393 1.35213,-4.7411 0.54896,-1.87717 0.77605,-4.30627 0.51198,-6.27069 -0.26407,-1.96442 -1.02104,-3.46475 -1.28688,-5.10831 -0.26585,-1.64355 -0.0388,-3.42965 -0.5388,-4.8382 -0.50004,-1.40854 -1.73012,-2.43937 -2.11963,-3.807154 -0.38951,-1.367781 0.0647,-3.072235 0.24477,-5.02123 0.18009,-1.948995 0.0855,-4.143352 -0.20721,-5.766012 -0.29267,-1.62266 -0.7847,-2.673911 -1.0881,-3.995746 -0.3034,-1.321835 -0.41694,-2.914018 -1.42826,-4.628884 -1.01131,-1.714866 -2.92267,-3.552002 -4.22834,-4.558178 -1.30566,-1.006176 -2.00586,-1.179683 -2.35732,-1.382821 -0.35145,-0.203139 -0.35145,-0.437885 -0.78569,-1.147158 -0.43424,-0.709273 -1.30475,-1.8932 -2.96976,-2.787312 -1.66501,-0.894112 -4.12518,-1.496286 -6.3213,-1.384545 -2.19611,0.111742 -4.12639,0.938452 -5.092,1.292091 -0.9656,0.353639 -0.9656,0.231163 -1.05973,-0.120755 -0.0941,-0.351917 -0.28336,-0.933675 -0.81232,-1.454973 -0.52896,-0.521298 -1.39949,-0.980586 -2.94318,-0.363898 -1.54369,0.616689 -3.75783,2.310932 -4.96924,3.792007 -1.2114,1.481075 -1.41957,2.746657 -1.52347,3.721573 -0.1039,0.974916 -0.1039,1.65874 0.69217,2.755779 0.79607,1.097039 2.38571,2.60757 3.28472,3.439198 0.89902,0.831628 1.10718,0.984718 1.20992,1.219793 0.10273,0.235074 0.10273,0.55147 0.35835,0.534739 0.25563,-0.01673 0.76659,-0.363748 1.27725,-0.710563"
       id="path3969"
       inkscape:path-effect="#path-effect3971"
       inkscape:original-d="m 151.06931,84.465945 c -2.98782,1.860195 -5.97787,3.717742 -8.97014,5.572645 -0.20593,0.778326 -0.41411,1.554006 -0.62449,2.32704 1.59187,1.441734 3.18151,2.880825 4.76893,4.317269 0.58888,0.921216 1.17553,1.839782 1.75996,2.755705 -0.7169,0.492549 -1.43602,0.982446 -2.15738,1.469706 -2.17407,3.72796 -4.35037,7.45325 -6.52889,11.17592 0.6835,2.01329 1.36478,4.02393 2.04383,6.03193 2.51916,1.46215 5.03609,2.92165 7.55081,4.3785 -0.96292,0.78854 -1.92806,1.57443 -2.89542,2.35767 -1.39819,2.67669 -2.79859,5.35075 -4.20121,8.02215 -0.20594,2.06433 -0.41411,4.126 -0.6245,6.18503 1.97036,1.48256 3.93848,2.96248 5.90439,4.43975 -0.22487,1.15595 -0.45196,2.30927 -0.68127,3.45994 -0.0924,3.07474 -0.18702,6.14684 -0.28387,9.21629 2.67056,3.23805 5.33889,6.47345 8.005,9.7062 1.09983,0.50276 2.19745,1.00287 3.29283,1.50033 0.19147,1.36009 0.38071,2.71753 0.56773,4.07232 5.09287,0.81915 10.18353,1.63565 15.27195,2.44952 1.42154,-0.32396 2.84087,-0.65056 4.25797,-0.97981 0.89167,-3.38585 1.78112,-6.77435 2.66834,-10.16549 -0.14917,-0.69138 -0.30057,-1.38541 -0.45419,-2.08208 1.89466,-1.26294 3.78709,-2.52852 5.6773,-3.79675 0.0212,-0.47705 0.0401,-0.95675 0.0567,-1.43909 -0.62228,-2.19171 -1.24678,-4.38607 -1.87351,-6.58307 -0.0735,-2.08965 -0.14917,-4.18194 -0.22709,-6.27688 0.77812,-3.73286 1.55402,-7.46838 2.32769,-11.20654 -0.0735,-0.52808 -0.14917,-1.05881 -0.22709,-1.59218 -1.00076,-1.74262 -2.00376,-3.48791 -3.00897,-5.23584 0.87275,-1.32417 1.74326,-2.65099 2.61156,-3.98046 0.22932,-2.42646 0.45641,-4.85556 0.68127,-7.2873 -0.75475,-1.49769 -1.51172,-2.99802 -2.27091,-4.50099 0.22931,-1.78346 0.45641,-3.56956 0.68127,-5.35832 -1.22786,-1.02819 -2.45794,-2.05902 -3.69025,-3.09251 0.45641,-1.701806 0.9106,-3.40626 1.36256,-5.113359 -0.0924,-2.191711 -0.18702,-4.386068 -0.28387,-6.583071 -0.48981,-1.048603 -0.98184,-2.099854 -1.47609,-3.153751 -0.11133,-1.58954 -0.22488,-3.181723 -0.34064,-4.776554 -1.90914,-1.834491 -3.8205,-3.671626 -5.73408,-5.511409 -0.69798,-0.17086 -1.39818,-0.344368 -2.1006,-0.520521 0.003,-0.232099 0.003,-0.466845 0,-0.704236 -0.8683,-1.181286 -1.73881,-2.365218 -2.61156,-3.551797 -2.45794,-0.599525 -4.91811,-1.201698 -7.38049,-1.806517 -1.92806,0.829358 -3.85834,1.656069 -5.79085,2.480134 0.003,-0.119829 0.003,-0.242305 0,-0.367428 -0.18702,-0.579113 -0.37626,-1.160872 -0.56773,-1.745279 -0.86829,-0.456637 -1.73882,-0.915921 -2.61156,-1.377852 -2.21193,1.696894 -4.42607,3.391143 -6.64245,5.082744 -0.20594,1.268229 -0.4141,2.533812 -0.6245,3.796747 0.003,0.68647 0.003,1.370294 0,2.05147 1.59187,1.513181 3.18151,3.023713 4.76893,4.531601 0.2104,0.155742 0.41856,0.308836 0.62451,0.459285 0.003,0.319042 0.003,0.635438 0,0.949188 0.51318,-0.344368 1.02414,-0.691383 1.53287,-1.041044" />
    <text
       xml:space="preserve"
       style="font-size:7.90229px;line-height:1.25;font-family:sans-serif;text-align:start;text-anchor:start;fill:#d4aa00;fill-opacity:1;stroke:#d4aa00;stroke-width:0.5;stroke-miterlimit:4;stroke-dasharray:none"
       x="224.10876"
       y="83.600204"
       id="text1199-9-0"
       transform="scale(0.68668779,1.4562659)"><tspan
         sodipodi:role="line"
         x="224.10876"
         y="83.600204"
         style="font-size:7.90229px;text-align:start;text-anchor:start;fill:#d4aa00;fill-opacity:1;stroke:#d4aa00;stroke-width:0.5;stroke-miterlimit:4;stroke-dasharray:none"
         id="tspan1331-6">network</tspan></text>
    <path
       style="fill:none;stroke:#000000;stroke-width:0.966208;stroke-linecap:butt;stroke-linejoin:miter;stroke-miterlimit:4;stroke-dasharray:0.966208, 0.966208;stroke-dashoffset:0;stroke-opacity:1;marker-start:url(#Arrow1Mstart-5-5-4)"
       d="m 108.13193,155.00844 c 36.86643,0.1253 36.86643,0.1253 36.86643,0.1253"
       id="path833-2-7-7-7-5" />
    <path
       style="fill:#00d3ff;fill-opacity:1;stroke:#00cbff;stroke-width:3;stroke-linecap:butt;stroke-linejoin:miter;stroke-miterlimit:4;stroke-dasharray:none;stroke-opacity:1"
       d="m 105.66993,155.29967 c 0,24.41363 0,24.41363 0,24.41363"
       id="path833-6-6" />
    <path
       style="fill:none;stroke:#000000;stroke-width:1;stroke-linecap:butt;stroke-linejoin:miter;stroke-miterlimit:4;stroke-dasharray:1, 1;stroke-dashoffset:0;stroke-opacity:1;marker-start:url(#Arrow1Mstart-9)"
       d="m 66.072809,203.80585 c 39.799221,0.13906 39.799221,0.13906 39.799221,0.13906"
       id="path833-2-7-3" />
    <path
       style="fill:#ffaaaa;fill-opacity:0;stroke:#ffaaaa;stroke-width:3;stroke-linecap:butt;stroke-linejoin:miter;stroke-miterlimit:4;stroke-dasharray:none;stroke-opacity:1"
       d="m 65.351605,203.66848 c 0,28.02761 0,28.02761 0,28.02761"
       id="path833-6-5-66" />
    <path
       style="fill:none;stroke:#000000;stroke-width:1;stroke-linecap:butt;stroke-linejoin:miter;stroke-miterlimit:4;stroke-dasharray:1, 1;stroke-dashoffset:0;stroke-opacity:1;marker-start:url(#Arrow1Mstart-5-6)"
       d="m 27.341664,231.35037 c 38.498044,0.14103 38.498044,0.14103 38.498044,0.14103"
       id="path833-2-7-7-9" />
    <path
       style="fill:#00ff00;fill-opacity:0;stroke:#00ff00;stroke-width:3;stroke-linecap:butt;stroke-linejoin:miter;stroke-miterlimit:4;stroke-dasharray:none;stroke-opacity:1"
       d="m 25.331659,231.21312 c 0,28.02762 0,28.02762 0,28.02762"
       id="path833-6-5-6-2" />
    <path
       style="fill:none;stroke:#000000;stroke-width:0.502;stroke-linecap:butt;stroke-linejoin:miter;stroke-miterlimit:4;stroke-dasharray:0.502, 3.012;stroke-dashoffset:0;stroke-opacity:1"
       d="m 105.42989,154.03377 c -0.062,-76.155578 -0.062,-76.155578 -0.062,-76.155578"
       id="path833-2-7-7-7-8" />
    <text
       xml:space="preserve"
       id="text4613"
       style="font-size:6.35px;line-height:1.25;font-family:sans-serif;text-align:center;white-space:pre;shape-inside:url(#rect4615)"
       transform="translate(-198.58126,12.027128)"
       x="-13.955737"
       y="0"><tspan
         x="288.63278"
         y="101.03428"><tspan
           style="text-align:center;text-anchor:middle">period of
</tspan></tspan><tspan
         x="291.23727"
         y="108.97178"><tspan
           style="text-align:center;text-anchor:middle">waiting</tspan></tspan></text>
    <path
       style="fill:none;stroke:#000000;stroke-width:0.547283;stroke-linecap:butt;stroke-linejoin:miter;stroke-miterlimit:4;stroke-dasharray:0.547283, 3.2837;stroke-dashoffset:0;stroke-opacity:1;marker-start:url(#Arrow1Mstart-5-5-2-3)"
       d="M -10.934445,268.35246 C -10.959282,-4.4608966 -10.959282,-4.4608966 -10.959282,-4.4608966"
       id="path833-2-7-7-7-8-8" />
    <text
       xml:space="preserve"
       id="text4613-6"
       style="font-size:6.35px;line-height:1.25;font-family:sans-serif;text-align:center;white-space:pre;shape-inside:url(#rect4615-7);"
       transform="translate(-313.05419,20.494595)"
       x="-13.955737"
       y="0"><tspan
         x="295.6432"
         y="101.03428"><tspan
           style="text-align:center;text-anchor:middle">time</tspan></tspan></text>
    <text
       xml:space="preserve"
       style="font-size:6.35px;line-height:0.95;font-family:sans-serif;text-align:end;text-anchor:end;stroke-width:0.665;stroke-miterlimit:4;stroke-dasharray:none"
       x="107.35052"
       y="61.19334"
       id="text6153"><tspan
         sodipodi:role="line"
         id="tspan6151"
         x="107.35052"
         y="61.19334"
         style="font-weight:bold;text-align:start;text-anchor:start;fill:#00ffff;stroke-width:0.665;stroke-miterlimit:4;stroke-dasharray:none">pre</tspan><tspan
         sodipodi:role="line"
         x="107.35052"
         y="67.225838"
         style="font-weight:bold;text-align:start;text-anchor:start;fill:#00ffff;stroke-width:0.665;stroke-miterlimit:4;stroke-dasharray:none"
         id="tspan6155">net</tspan><tspan
         sodipodi:role="line"
         x="107.35052"
         y="73.258339"
         style="font-weight:bold;text-align:start;text-anchor:start;fill:#00ffff;stroke-width:0.665;stroke-miterlimit:4;stroke-dasharray:none"
         id="tspan6157">work</tspan></text>
    <text
       xml:space="preserve"
       style="font-size:6.35px;line-height:0.95;font-family:sans-serif;text-align:end;text-anchor:end;fill:#00cbff;fill-opacity:1;stroke-width:0.665001;stroke-miterlimit:4;stroke-dasharray:none"
       x="107.11613"
       y="163.53461"
       id="text6153-7"><tspan
         sodipodi:role="line"
         id="tspan6151-8"
         x="107.11613"
         y="163.53461"
         style="font-weight:bold;text-align:start;text-anchor:start;opacity:0.455128;fill:#00cbff;fill-opacity:1;stroke-width:0.665001;stroke-miterlimit:4;stroke-dasharray:none">post</tspan><tspan
         sodipodi:role="line"
         x="107.11613"
         y="169.56711"
         style="font-weight:bold;text-align:start;text-anchor:start;opacity:0.455128;fill:#00cbff;fill-opacity:1;stroke-width:0.665001;stroke-miterlimit:4;stroke-dasharray:none"
         id="tspan6155-0">net</tspan><tspan
         sodipodi:role="line"
         x="107.11613"
         y="175.59961"
         style="font-weight:bold;text-align:start;text-anchor:start;opacity:0.455128;fill:#00cbff;fill-opacity:1;stroke-width:0.665001;stroke-miterlimit:4;stroke-dasharray:none"
         id="tspan6157-9">work</tspan></text>
    <path
       style="fill:#0078ff;fill-opacity:1;stroke:#0080ff;stroke-width:3;stroke-linecap:butt;stroke-linejoin:miter;stroke-miterlimit:4;stroke-dasharray:none;stroke-opacity:1"
       d="m 105.70352,179.68132 c 0,24.41363 0,24.41363 0,24.41363"
       id="path833-6-6-8" />
    <text
       xml:space="preserve"
       style="font-size:6.35px;line-height:0.95;font-family:sans-serif;text-align:end;text-anchor:end;fill:#0080ff;fill-opacity:1;stroke-width:0.665001;stroke-miterlimit:4;stroke-dasharray:none"
       x="107.39069"
       y="189.83157"
       id="text6153-7-5"><tspan
         sodipodi:role="line"
         x="107.39069"
         y="189.83157"
         style="font-weight:bold;text-align:start;text-anchor:start;opacity:0.455128;fill:#0080ff;fill-opacity:1;stroke-width:0.665001;stroke-miterlimit:4;stroke-dasharray:none"
         id="tspan6347">other</tspan><tspan
         sodipodi:role="line"
         x="107.39069"
         y="195.86407"
         style="font-weight:bold;text-align:start;text-anchor:start;opacity:0.455128;fill:#0080ff;fill-opacity:1;stroke-width:0.665001;stroke-miterlimit:4;stroke-dasharray:none"
         id="tspan6351">work</tspan></text>
    <path
       id="path1148-9-97"
       style="font-size:156.369px;line-height:1.25;font-family:sans-serif;text-align:end;text-anchor:end;stroke-width:1.27004"
       d="m 24.744216,268.65227 c 0.008,-0.51726 -0.1316,-1.04247 -0.52568,-1.53151 -0.31874,-0.39486 -0.87518,-0.75478 -1.65342,-0.99575 -0.95723,-0.31168 -2.1347,-0.45525 -3.30341,-0.49672 -2.22717,-0.11341 -4.47117,-0.019 -6.70565,-0.0519 -1.19656,-0.002 -2.42844,-0.0127 -3.5739902,-0.11524 -0.85713,-0.0826 -1.81613,-0.19275 -2.4292,-0.50624 -0.51662,-0.25015 -0.71008,-0.5906 -0.90217,-0.91065 -0.28877,-0.57448 -0.3783,-1.17843 -0.40716,-1.76816 0.034,-0.0652 -0.1053,-0.20757 0.0874,-0.20405 0.25037,-0.026 0.35234,0.0156 0.29727,0.12869 0.0339,0.65814 0.16736,1.34955 0.93699,1.92767 0.7035,0.48408 1.99167,0.72311 3.2347405,0.79047 2.1603197,0.13813 4.3468997,0.045 6.5193397,0.0726 1.70409,0.002 3.43512,-0.0228 5.07632,0.21622 0.54512,0.0941 1.03079,0.2635 1.39276,0.47923 0.31733,0.19377 0.50033,0.4223 0.77865,0.62689 0.49051,0.40889 0.98757,0.8164 1.53203,1.2116 0.74363,-0.59521 1.08947,-1.27744 1.95521,-1.84359 0.60149,-0.41845 1.7619,-0.58018 2.79677,-0.63769 3.3318,-0.17117 6.71894,0.0137 10.0592,-0.16202 1.21409,-0.0729 2.49294,-0.28125 3.21894,-0.74666 0.78451,-0.49852 0.92266,-1.12825 0.98915,-1.71935 0.0121,-0.13278 0.016,-0.26567 0.0182,-0.39855 0.19923,2.7e-4 0.46925,-0.0306 0.37233,0.10015 -0.0262,0.83407 -0.11243,1.69181 -0.82075,2.47751 -0.3618,0.36159 -1.12613,0.62125 -1.9776,0.71773 -1.58036,0.23204 -3.24672,0.21578 -4.88882,0.23266 -2.40061,0.0161 -4.82291,-0.0492 -7.20137,0.12869 -1.39572,0.12653 -2.7875,0.45176 -3.52045,1.01668 -0.80228,0.58713 -0.93435,1.29409 -0.9524,1.96606 -0.11519,-0.006 -0.26766,-0.0104 -0.39943,0.005 z" />
    <text
       xml:space="preserve"
       style="font-size:5.29167px;line-height:1.25;font-family:sans-serif;text-align:start;text-anchor:start;stroke-width:0.264583"
       x="26.407669"
       y="277.25085"
       id="text1199-3-4"><tspan
         sodipodi:role="line"
         x="26.407669"
         y="277.25085"
         style="font-size:5.29167px;text-align:center;text-anchor:middle;stroke-width:0.264583"
         id="tspan1242-0">context 1</tspan><tspan
         sodipodi:role="line"
         x="26.407669"
         y="283.86545"
         style="font-size:5.29167px;text-align:center;text-anchor:middle;stroke-width:0.264583"
         id="tspan1240-5" /></text>
    <path
       id="path1148-9-9-8"
       style="font-size:156.369px;line-height:1.25;font-family:sans-serif;text-align:end;text-anchor:end;stroke-width:1.27004"
       d="m 66.189183,268.74596 c 0.008,-0.51726 -0.13159,-1.04248 -0.52566,-1.53152 -0.31875,-0.39486 -0.87519,-0.75477 -1.65343,-0.99575 -0.95723,-0.31168 -2.1347,-0.45525 -3.30341,-0.49671 -2.22717,-0.11341 -4.47117,-0.0191 -6.70565,-0.0519 -1.19656,-0.002 -2.42843,-0.0127 -3.57399,-0.11525 -0.85713,-0.0826 -1.81612,-0.19275 -2.4292,-0.50623 -0.51662,-0.25016 -0.71007,-0.5906 -0.90216,-0.91065 -0.28878,-0.57448 -0.37831,-1.17844 -0.40717,-1.76817 0.034,-0.0652 -0.10529,-0.20757 0.0874,-0.20404 0.25037,-0.026 0.35234,0.0156 0.29727,0.12869 0.0339,0.65813 0.16737,1.34954 0.93699,1.92766 0.7035,0.48409 1.99167,0.72311 3.23474,0.79048 2.16031,0.13812 4.3469,0.045 6.51935,0.0726 1.70407,0.002 3.43512,-0.0228 5.0763,0.21622 0.54513,0.0941 1.03081,0.2635 1.39277,0.47923 0.31732,0.19377 0.50032,0.42229 0.77864,0.62689 0.49051,0.40889 0.98758,0.81639 1.53204,1.2116 0.74363,-0.59521 1.08947,-1.27744 1.95521,-1.84359 0.60149,-0.41846 1.7619,-0.58018 2.79677,-0.63769 3.3318,-0.17118 6.71894,0.0137 10.0592,-0.16202 1.21409,-0.0729 2.49292,-0.28125 3.21894,-0.74666 0.78451,-0.49852 0.92266,-1.12826 0.98915,-1.71935 0.0121,-0.13278 0.016,-0.26567 0.0182,-0.39855 0.19922,2.6e-4 0.46924,-0.0306 0.37233,0.10015 -0.0262,0.83407 -0.11243,1.69181 -0.82076,2.47751 -0.36181,0.36159 -1.12613,0.62125 -1.9776,0.71773 -1.58034,0.23203 -3.24672,0.21578 -4.8888,0.23266 -2.40061,0.0161 -4.8229,-0.0492 -7.20137,0.12869 -1.39571,0.12653 -2.78749,0.45176 -3.52045,1.01668 -0.80228,0.58713 -0.93435,1.29409 -0.9524,1.96606 -0.11518,-0.006 -0.26767,-0.0105 -0.39943,0.005 z" />
    <text
       xml:space="preserve"
       style="font-size:5.29167px;line-height:1.25;font-family:sans-serif;text-align:start;text-anchor:start;stroke-width:0.264583"
       x="66.265152"
       y="277.15717"
       id="text1199-3-8-6"><tspan
         sodipodi:role="line"
         x="66.265152"
         y="277.15717"
         style="font-size:5.29167px;text-align:center;text-anchor:middle;stroke-width:0.264583"
         id="tspan1240-0-1">context 2</tspan></text>
    <path
       id="path1148-9-9-6-7"
       style="font-size:156.369px;line-height:1.25;font-family:sans-serif;text-align:end;text-anchor:end;stroke-width:1.27004"
       d="m 107.59984,269.01323 c 0.008,-0.51727 -0.1316,-1.04248 -0.52567,-1.53152 -0.31875,-0.39486 -0.87517,-0.75477 -1.65341,-0.99575 -0.95725,-0.31168 -2.13472,-0.45525 -3.30342,-0.49671 -2.22717,-0.11341 -4.47117,-0.0191 -6.70566,-0.0519 -1.19656,-0.002 -2.42843,-0.0127 -3.57398,-0.11525 -0.85712,-0.0826 -1.81612,-0.19275 -2.42919,-0.50623 -0.51663,-0.25016 -0.71008,-0.5906 -0.90217,-0.91065 -0.28877,-0.57448 -0.3783,-1.17844 -0.40717,-1.76816 0.034,-0.0652 -0.10529,-0.20758 0.0874,-0.20406 0.25036,-0.026 0.35233,0.0156 0.29727,0.1287 0.0339,0.65813 0.16736,1.34954 0.93698,1.92766 0.70351,0.48409 1.99167,0.72311 3.23473,0.79048 2.16032,0.13812 4.34692,0.045 6.51935,0.0726 1.70407,0.002 3.43512,-0.0228 5.07632,0.21622 0.54511,0.0941 1.03079,0.2635 1.39275,0.47922 0.31733,0.19378 0.50032,0.4223 0.77864,0.6269 0.49053,0.40889 0.9876,0.81639 1.53204,1.2116 0.74364,-0.59521 1.08947,-1.27744 1.95521,-1.84359 0.60151,-0.41846 1.76192,-0.58018 2.79679,-0.63769 3.33178,-0.17118 6.71894,0.0137 10.05918,-0.16202 1.21409,-0.0729 2.49293,-0.28125 3.21895,-0.74666 0.7845,-0.49852 0.92266,-1.12826 0.98915,-1.71935 0.0121,-0.13278 0.016,-0.26568 0.0182,-0.39855 0.19923,2.6e-4 0.46926,-0.0306 0.37233,0.10015 -0.0262,0.83407 -0.11243,1.69181 -0.82074,2.47751 -0.36181,0.36159 -1.12613,0.62125 -1.97761,0.71773 -1.58036,0.23203 -3.24672,0.21578 -4.88883,0.23266 -2.40061,0.0161 -4.8229,-0.0492 -7.20136,0.12869 -1.39572,0.12653 -2.7875,0.45176 -3.52044,1.01667 -0.80228,0.58713 -0.93435,1.2941 -0.95241,1.96606 -0.11519,-0.006 -0.26766,-0.0104 -0.39944,0.005 z" />
    <text
       xml:space="preserve"
       style="font-size:5.29167px;line-height:1.25;font-family:sans-serif;text-align:start;text-anchor:start;stroke-width:0.264583"
       x="106.08832"
       y="276.88989"
       id="text1199-3-8-1-3"><tspan
         sodipodi:role="line"
         x="106.08832"
         y="276.88989"
         style="font-size:5.29167px;text-align:center;text-anchor:middle;stroke-width:0.264583"
         id="tspan1240-0-9-6">context 3</tspan></text>
    <path
       style="fill:none;stroke:#000000;stroke-width:0.499999;stroke-linecap:butt;stroke-linejoin:miter;stroke-miterlimit:4;stroke-dasharray:none;stroke-opacity:1;marker-end:url(#Arrow1Lend-5)"
       d="m 2.0229625,286.74847 c 128.1339275,0 128.1339275,0 128.1339275,0"
       id="path10012" />
    <text
       xml:space="preserve"
       style="font-size:5.29167px;line-height:1.25;font-family:sans-serif;text-align:start;text-anchor:start;stroke-width:0.264583"
       x="59.092209"
       y="293.59454"
       id="text1199-3-8-1-3-3-7"><tspan
         sodipodi:role="line"
         x="59.092209"
         y="293.59454"
         style="font-size:5.29167px;text-align:center;text-anchor:middle;stroke-width:0.264583"
         id="tspan9695-2">call stack</tspan></text>
    <path
       style="fill:none;stroke:#000000;stroke-width:1;stroke-linecap:butt;stroke-linejoin:miter;stroke-miterlimit:4;stroke-dasharray:2, 2;stroke-dashoffset:0;stroke-opacity:1;marker-start:url(#Arrow1Mstart-4)"
       d="m 255.57419,-19.542867 c -39.79921,0.12113 -39.79921,0.12113 -39.79921,0.12113"
       id="path833-2-7-74" />
    <path
       style="fill:none;stroke:#000000;stroke-width:0.986356;stroke-linecap:butt;stroke-linejoin:miter;stroke-miterlimit:4;stroke-dasharray:0.986356, 0.986356;stroke-dashoffset:0;stroke-opacity:1;marker-start:url(#Arrow1Mstart-9-5-6)"
       d="m 218.0827,-5.9393671 c 37.89699,0.14209 37.89699,0.14209 37.89699,0.14209"
       id="path833-2-7-3-2-7" />
    <text
       xml:space="preserve"
       style="font-size:5.29167px;line-height:1.25;font-family:sans-serif;text-align:start;text-anchor:start;stroke-width:0.264583"
       x="263.56656"
       y="-17.306007"
       id="text1199-2-3"><tspan
         sodipodi:role="line"
         x="263.56656"
         y="-17.306007"
         style="font-size:5.29167px;text-align:start;text-anchor:start;stroke-width:0.264583"
         id="tspan16836">function call</tspan></text>
    <text
       xml:space="preserve"
       style="font-size:5.29167px;line-height:1.25;font-family:sans-serif;text-align:start;text-anchor:start;stroke-width:0.264583"
       x="263.68396"
       y="-4.3198919"
       id="text1199-2-3-8"><tspan
         sodipodi:role="line"
         x="263.68396"
         y="-4.3198919"
         style="font-size:5.29167px;text-align:start;text-anchor:start;stroke-width:0.264583"
         id="tspan16836-0">synchronous response</tspan></text>
    <path
       style="fill:#00ff00;fill-opacity:0;stroke:#00ff00;stroke-width:3;stroke-linecap:butt;stroke-linejoin:miter;stroke-miterlimit:4;stroke-dasharray:none;stroke-opacity:1"
       d="m 221.91885,3.7328246 c 0,14.4204864 0,14.4204864 0,14.4204864"
       id="path833-6-5-6-2-9-1" />
    <text
       xml:space="preserve"
       style="font-size:5.29167px;line-height:1.25;font-family:sans-serif;text-align:start;text-anchor:start;stroke-width:0.264583"
       x="264.06192"
       y="11.025944"
       id="text1199-2-3-7"><tspan
         sodipodi:role="line"
         x="264.06192"
         y="11.025944"
         style="font-size:5.29167px;text-align:start;text-anchor:start;stroke-width:0.264583"
         id="tspan16836-3">code segment</tspan><tspan
         sodipodi:role="line"
         x="264.06192"
         y="17.640532"
         style="font-size:5.29167px;text-align:start;text-anchor:start;stroke-width:0.264583"
         id="tspan17192" /></text>
  </g>
</svg>
