<?xml version="1.0" encoding="UTF-8" standalone="no"?>
<!-- Created with Inkscape (http://www.inkscape.org/) -->

<svg
   xmlns:dc="http://purl.org/dc/elements/1.1/"
   xmlns:cc="http://creativecommons.org/ns#"
   xmlns:rdf="http://www.w3.org/1999/02/22-rdf-syntax-ns#"
   xmlns:svg="http://www.w3.org/2000/svg"
   xmlns="http://www.w3.org/2000/svg"
   xmlns:sodipodi="http://sodipodi.sourceforge.net/DTD/sodipodi-0.dtd"
   xmlns:inkscape="http://www.inkscape.org/namespaces/inkscape"
   width="161.11433mm"
   height="172.83279mm"
   viewBox="0 0 161.11433 172.83279"
   version="1.1"
   id="svg8"
   sodipodi:docname="dalogo.svg"
   inkscape:version="0.92.4 (f8dce91, 2019-08-02)"
   inkscape:export-filename="/home/jvk/Dropbox/TUD/temp/dalogo.png"
   inkscape:export-xdpi="280.186"
   inkscape:export-ydpi="280.186">
  <defs
     id="defs2" />
  <sodipodi:namedview
     id="base"
     pagecolor="#ffffff"
     bordercolor="#666666"
     borderopacity="1.0"
     inkscape:pageopacity="0.0"
     inkscape:pageshadow="2"
     inkscape:zoom="0.82024387"
     inkscape:cx="348.4909"
     inkscape:cy="266.82525"
     inkscape:document-units="mm"
     inkscape:current-layer="layer1"
     showgrid="false"
     inkscape:window-width="1863"
     inkscape:window-height="1025"
     inkscape:window-x="57"
     inkscape:window-y="27"
     inkscape:window-maximized="1"
     fit-margin-top="0"
     fit-margin-left="0"
     fit-margin-right="0"
     fit-margin-bottom="0" />
  <metadata
     id="metadata5">
    <rdf:RDF>
      <cc:Work
         rdf:about="">
        <dc:format>image/svg+xml</dc:format>
        <dc:type
           rdf:resource="http://purl.org/dc/dcmitype/StillImage" />
        <dc:title></dc:title>
      </cc:Work>
    </rdf:RDF>
  </metadata>
  <g
     inkscape:label="Layer 1"
     inkscape:groupmode="layer"
     id="layer1"
     transform="translate(-27.548414,-80.253853)">
    <rect
       style="opacity:1;vector-effect:none;fill:#ffffff;fill-opacity:1;fill-rule:evenodd;stroke:none;stroke-width:0.33387718;stroke-linecap:butt;stroke-linejoin:miter;stroke-miterlimit:4;stroke-dasharray:none;stroke-dashoffset:0;stroke-opacity:0.96470588"
       id="rect4896"
       width="161.11433"
       height="172.83279"
       x="27.548414"
       y="80.253853"
       rx="1.2631601"
       inkscape:export-xdpi="280.186"
       inkscape:export-ydpi="280.186" />
    <path
       style="fill:none;stroke:#0000c7;stroke-width:9.32975769;stroke-linecap:butt;stroke-linejoin:miter;stroke-miterlimit:4;stroke-dasharray:none;stroke-opacity:1"
       d="m 49.758936,106.76456 c 0,0.44097 0,0.88194 0,1.32291 0,0.0882 -0.03433,0.1857 0,0.26459 0.04855,0.11155 0.181752,0.15302 0.230305,0.26458 0.05124,0.11773 -0.03511,0.93732 0,1.05833 0.03433,0.11833 0.181752,0.15303 0.230305,0.26459 0.03433,0.0789 0,0.17638 0,0.26458 0,0.0882 0,0.17639 0,0.26458 0,0.52917 0,1.05834 0,1.5875 0,0.17639 -0.04855,0.36183 0,0.52917 0.05428,0.18709 0.188671,0.33784 0.230305,0.52917 0.03724,0.17112 0,0.35277 0,0.52916 0,0.0882 -0.03433,0.1857 0,0.26459 0.04855,0.11155 0.195973,0.14625 0.230304,0.26458 0.09711,0.33467 -0.0971,0.72366 0,1.05833 0.03433,0.11833 0.195974,0.14626 0.230306,0.26459 0.04855,0.16733 0,0.35277 0,0.52916 0,0.14768 -0.03514,1.2018 0,1.32292 0.03433,0.11832 0.195973,0.14626 0.230305,0.26458 0.07283,0.25101 0,0.52917 0,0.79375 0,0.44097 0,0.88195 0,1.32292 0,1.41111 0,2.82222 0,4.23333 0,1.05834 0,2.11667 0,3.175 0,0.35278 0,0.70556 0,1.05834 0,0.17638 0.03011,0.3562 0,0.52916 -0.04761,0.27348 -0.182697,0.52027 -0.230305,0.79375 -0.06023,0.34593 0,0.70556 0,1.05834 0,0.61736 0,1.23472 0,1.85208 0,2.11667 0,4.23333 0,6.35 0,1.14653 0,2.29305 0,3.43958 0,0.35278 0,0.70556 0,1.05834 0,0.17638 0,0.35277 0,0.52916 0,0.0882 -0.02428,0.18092 0,0.26459 0.05428,0.18708 0.18867,0.33784 0.230305,0.52916 0.03724,0.17112 0,0.35278 0,0.52917 0,0.17639 0,0.35278 0,0.52917 0,0.79375 0,1.5875 0,2.38125 0,0.27514 -0.04529,1.37937 0,1.5875 0.04163,0.19132 0.18867,0.33784 0.230304,0.52916 0.04378,0.20121 0,1.10136 0,1.32292 0,0.79375 0,1.5875 0,2.38125 0,1.14653 0,2.29305 0,3.43958 0,0.28283 0.04988,1.56556 0,1.85209 -0.0476,0.27347 -0.182695,0.52026 -0.230304,0.79375 -0.06023,0.34592 0,0.70555 0,1.05833 0,0.61736 0,1.23472 0,1.85208 0,0.26459 0.05586,0.53707 0,0.79375 -0.04163,0.19132 -0.176022,0.34208 -0.230305,0.52917 -0.04447,0.15326 0,0.82905 0,1.05833 0,0.70556 0,1.41111 0,2.11667 0,0.17639 0,0.35278 0,0.52917 0,0.0882 -0.02428,0.18091 0,0.26458 0.05428,0.18709 0.18867,0.33784 0.230305,0.52917 0.03724,0.17112 0,0.35277 0,0.52916 0,0.17639 0,0.35278 0,0.52917 0,0.0882 -0.02428,0.18091 0,0.26458 0.05428,0.18709 0.18867,0.33785 0.230304,0.52917 0.07447,0.34224 -0.07447,0.71609 0,1.05833 0.04163,0.19132 0.176022,0.34208 0.230306,0.52917 0.02428,0.0837 0,0.17639 0,0.26458 0,0.17639 0,0.35278 0,0.52917 0,0.70555 0,1.41111 0,2.11667 0,0.11915 -0.03504,0.71322 0,0.79375 0.04855,0.11155 0.195973,0.14625 0.230304,0.26458 0.0393,0.13543 0,1.39834 0,1.5875 0,1.32292 0,2.64583 0,3.96875 0,0.44097 0,0.88194 0,1.32292 0,0.17638 0,0.35277 0,0.52916 0,0.0882 -0.02428,0.18092 0,0.26459 0.05428,0.18708 0.176022,0.34207 0.230305,0.52916 0.04974,0.17143 0,1.1063 0,1.32292 0,0.70555 0,1.41111 0,2.11667 0,0.30338 -0.05964,0.78425 0,1.05833 0.04163,0.19132 0.188671,0.33784 0.230306,0.52917 0.04378,0.2012 0,1.10135 0,1.32291 0,1.05834 0,2.11667 0,3.175 0,0.70556 0,1.41111 0,2.11667 0,0.17639 0,0.35278 0,0.52917 0,0.17638 0.03724,0.35804 0,0.52916 -0.298968,1.37387 -0.230306,-0.28245 -0.230306,1.05834 0,0.26458 0.07283,0.54274 0,0.79375 -0.03433,0.11832 -0.195973,0.14625 -0.230305,0.26458 -0.0971,0.33467 0.09711,0.72366 0,1.05833 -0.03433,0.11833 -0.195973,0.14626 -0.230304,0.26459 -0.230306,0.79375 0.115152,0.26458 0,0.79375 -0.05888,0.27056 -0.182697,0.52026 -0.230306,0.79375 -0.07293,0.41886 0.08619,1.19141 0,1.5875 -0.04163,0.19132 -0.176022,0.34207 -0.230304,0.52916 -0.02428,0.0837 0,0.17639 0,0.26459 0,0.21112 0.04606,1.16418 0,1.32291 -0.05428,0.18709 -0.176022,0.34208 -0.230305,0.52917 -0.04855,0.16733 0,0.35278 0,0.52917 0,0.44097 0,0.88194 0,1.32291 0,0.0882 0.02428,0.18092 0,0.26459 -0.05428,0.18708 -0.176022,0.34207 -0.230306,0.52916 -0.06909,0.23813 0.06909,0.55563 0,0.79375 -0.05428,0.18709 -0.176022,0.34208 -0.230304,0.52917 -0.06909,0.23812 0.06909,0.55562 0,0.79375 -0.05428,0.18709 -0.176022,0.34208 -0.230305,0.52917 -0.0691,0.23812 0.06909,0.55562 0,0.79375 -0.05428,0.18708 -0.176022,0.34207 -0.230305,0.52916 -0.02428,0.0837 0,0.17639 0,0.26459 0,0.22709 0.04492,1.43269 0,1.5875 -0.03433,0.11832 -0.181752,0.15302 -0.230305,0.26458 -0.07631,0.17534 0.06434,0.83658 0,1.05833 -0.05428,0.18709 -0.176022,0.34208 -0.230305,0.52917 -0.02428,0.0837 0,0.17639 0,0.26458 0,0.22156 0.04378,1.12171 0,1.32292 -0.04163,0.19132 -0.176022,0.34208 -0.230305,0.52917 -0.02428,0.0837 0,0.17638 0,0.26458 0,0.17639 0,0.35278 0,0.52917 0,0.11915 0.03504,0.71322 0,0.79375 -0.04855,0.11155 -0.181751,0.15302 -0.230305,0.26458 -0.03433,0.0789 0,0.17639 0,0.26458 0,0.44097 0,0.88195 0,1.32292 0,0.0882 0,0.17639 0,0.26458 0,0.0882 0.03433,0.1857 0,0.26459 -0.04855,0.11155 -0.195973,0.14625 -0.230304,0.26458 -0.0393,0.13543 0,1.39834 0,1.5875 0,0.0882 0.03433,0.1857 0,0.26458 -0.04855,0.11156 -0.181753,0.15303 -0.230306,0.26459 -0.09212,0.21166 0.09212,0.58208 0,0.79375 -0.04855,0.11155 -0.181751,0.15302 -0.230305,0.26458 -0.03433,0.0789 0,0.17639 0,0.26458 0,0.0882 0,0.17639 0,0.26459 0,0.44097 0,0.88194 0,1.32291 0,0.70556 0.07676,-0.0882 -0.230304,0.26459 -0.05428,0.0624 -0.07677,0.26458 0,0.26458 0.108565,0 0.153537,-0.17639 0.230304,-0.26458 -0.07676,0.35278 -0.153536,0.70555 -0.230304,1.05833 0.07676,0 0.176022,-0.0624 0.230305,0 0.05428,0.0624 -0.07676,0.26458 0,0.26458 0.108566,0 0.1332,-0.2088 0.230305,-0.26458 0.144752,-0.0831 0.776468,0.0831 0.921219,0 0.0971,-0.0558 0.133201,-0.2088 0.230306,-0.26458 0.137327,-0.0789 0.323282,0.0789 0.460609,0 0.0971,-0.0558 0.133201,-0.20881 0.230306,-0.26459 0.137327,-0.0789 0.323282,0.0789 0.460609,0 0.09711,-0.0558 0.1332,-0.2088 0.230305,-0.26458 0.137328,-0.0789 0.352044,0.12473 0.46061,0 0.05428,-0.0624 -0.05428,-0.20222 0,-0.26458 0.108567,-0.12473 0.323283,0.0789 0.46061,0 0.0971,-0.0558 0.139972,-0.1954 0.230305,-0.26459 0.142829,-0.10939 0.307073,-0.17639 0.46061,-0.26458 0.07676,0 0.161641,0.0394 0.230304,0 0.09711,-0.0558 0.153537,-0.17639 0.230306,-0.26458 0.07676,-0.0882 0.1332,-0.20881 0.230305,-0.26459 0.137327,-0.0789 0.352043,0.12473 0.46061,0 0.05428,-0.0624 -0.05428,-0.20222 0,-0.26458 0.05428,-0.0624 0.16164,0.0394 0.230304,0 0.19421,-0.11156 0.2664,-0.41761 0.460611,-0.52917 0.137327,-0.0789 0.323282,0.0789 0.460609,0 0.958474,-0.55056 -0.246204,0.0183 0.230305,-0.52916 0.05428,-0.0624 0.161641,0.0394 0.230305,0 0.19421,-0.11156 0.254619,-0.45029 0.46061,-0.52917 0.145658,-0.0558 0.311657,0.0428 0.460609,0 0.667939,-0.19184 0.269519,-0.20642 0.690915,-0.52917 0.285659,-0.21878 0.635562,-0.31038 0.921221,-0.52916 0.09033,-0.0692 0.139971,-0.1954 0.230304,-0.26459 0.14283,-0.10939 0.317781,-0.15519 0.46061,-0.26458 0.09033,-0.0692 0.1332,-0.2088 0.230305,-0.26458 0.217134,-0.12473 0.574935,0.31833 0.690915,-0.26459 0.180666,-0.13837 0.279943,-0.39079 0.46061,-0.52916 0.285658,-0.21879 0.635562,-0.31039 0.92122,-0.52917 0.180665,-0.13837 0.279943,-0.3908 0.46061,-0.52917 0.142828,-0.10939 0.31778,-0.15519 0.460609,-0.26458 0.09033,-0.0692 0.139973,-0.1954 0.230306,-0.26458 1.163455,-0.89109 0.0053,-0.002 0.690914,-0.26459 0.834922,-0.31973 0.163908,-0.12553 0.690915,-0.52916 0.142829,-0.1094 0.317781,-0.15519 0.460609,-0.26459 0.09033,-0.0692 0.133201,-0.2088 0.230306,-0.26458 0.06866,-0.0394 0.157475,0.0279 0.230305,0 1.668194,-0.63883 -0.363101,0.0763 0.690914,-0.52917 0.06866,-0.0394 0.16643,0.0489 0.230305,0 0.180667,-0.13837 0.307074,-0.35277 0.46061,-0.52916 0.07677,-0.0882 0.1332,-0.20881 0.230305,-0.26459 0.06866,-0.0394 0.161641,0.0394 0.230305,0 0.0971,-0.0558 0.153537,-0.17639 0.230305,-0.26458 0.07677,-0.0882 0.181752,-0.15303 0.230305,-0.26458 0.03433,-0.0789 -0.05428,-0.20222 0,-0.26459 0.05428,-0.0624 0.161641,0.0395 0.230305,0 0.0971,-0.0558 0.139972,-0.19539 0.230305,-0.26458 0.142829,-0.10939 0.317781,-0.15519 0.46061,-0.26458 0.180666,-0.13837 0.279944,-0.3908 0.460609,-0.52917 0.285659,-0.21878 0.646566,-0.29252 0.921221,-0.52917 0.173706,-0.14967 0.286902,-0.37949 0.460609,-0.52916 0.137327,-0.11833 0.317781,-0.15519 0.46061,-0.26459 0.270999,-0.20755 0.430355,-0.56924 0.690915,-0.79375 0.137327,-0.11832 0.317781,-0.15519 0.46061,-0.26458 0.09033,-0.0692 0.139972,-0.1954 0.230305,-0.26458 0.142829,-0.1094 0.317781,-0.15519 0.46061,-0.26459 0.09033,-0.0692 0.139972,-0.19539 0.230305,-0.26458 0.0429,-0.0329 0.906462,-0.51221 0.921219,-0.52917 0.121382,-0.13944 0.108924,-0.38972 0.230306,-0.52916 0.12138,-0.13945 0.307072,-0.17639 0.460609,-0.26459 0.307073,-0.17639 0.614147,-0.35277 0.92122,-0.52916 0.153537,-0.0882 0.317781,-0.15519 0.46061,-0.26459 0.180666,-0.13837 0.279944,-0.39079 0.46061,-0.52916 0.142829,-0.1094 0.31778,-0.15519 0.46061,-0.26459 0.265736,-0.20352 0.425178,-0.59022 0.690915,-0.79375 0.142828,-0.10939 0.31778,-0.15519 0.460609,-0.26458 0.09033,-0.0692 0.139973,-0.1954 0.230305,-0.26458 0.142829,-0.1094 0.317781,-0.15519 0.46061,-0.26459 0.09033,-0.0692 0.139972,-0.19539 0.230305,-0.26458 0.285658,-0.21878 0.614146,-0.35278 0.92122,-0.52917 0.767683,-0.44097 1.535366,-0.88194 2.303049,-1.32291 0.153537,-0.0882 0.307073,-0.17639 0.46061,-0.26459 0.153537,-0.0882 0.323283,-0.14625 0.46061,-0.26458 0.173707,-0.14967 0.286903,-0.3795 0.46061,-0.52917 0.137327,-0.11832 0.31778,-0.15519 0.46061,-0.26458 0.09033,-0.0692 0.139971,-0.1954 0.230304,-0.26458 0.285659,-0.21879 0.635562,-0.31039 0.921221,-0.52917 0.09033,-0.0692 0.139971,-0.1954 0.230304,-0.26458 0.14283,-0.1094 0.323283,-0.14626 0.46061,-0.26459 0.173707,-0.14967 0.286903,-0.37949 0.46061,-0.52916 0.137327,-0.11833 0.323283,-0.14626 0.46061,-0.26459 0.173707,-0.14967 0.286903,-0.37949 0.46061,-0.52916 0.274655,-0.23665 0.678457,-0.25027 0.92122,-0.52917 0.121381,-0.13945 0.108923,-0.38972 0.230304,-0.52917 0.121382,-0.13944 0.317781,-0.15519 0.46061,-0.26458 0.09033,-0.0692 0.139972,-0.1954 0.230305,-0.26458 0.142829,-0.1094 0.317781,-0.15519 0.46061,-0.26459 0.180666,-0.13837 0.279944,-0.39079 0.46061,-0.52916 0.142829,-0.1094 0.317781,-0.15519 0.46061,-0.26459 0.09033,-0.0692 0.153536,-0.17639 0.230305,-0.26458 0.383842,-0.44097 0.767683,-0.88194 1.151524,-1.32292 0.230306,-0.26458 0.46061,-0.52916 0.690915,-0.79375 0.153537,-0.17639 0.33033,-0.3296 0.46061,-0.52916 0.26858,-0.41141 0.272968,-1.01358 0.690915,-1.32292 0.203464,-0.29218 0.510249,-0.48242 0.690915,-0.79375 0.65482,-1.12842 -0.305221,0.0861 0.690915,-1.05833 0.102995,-0.15777 0.108924,-0.38972 0.230304,-0.52917 0.121382,-0.13945 0.323283,-0.14626 0.460611,-0.26458 0.173706,-0.14967 0.307073,-0.35278 0.46061,-0.52917 0.153536,-0.17639 0.330329,-0.32961 0.460609,-0.52917 0.102996,-0.15776 0.108924,-0.38972 0.230306,-0.52916 0.12138,-0.13945 0.339228,-0.12514 0.460609,-0.26459 0.242763,-0.27889 0.217848,-0.77943 0.46061,-1.05833 0.121383,-0.13945 0.339229,-0.12514 0.460613,-0.26458 0.121374,-0.13945 0.127302,-0.3714 0.230302,-0.52917 0.260558,-0.39912 0.660658,-0.65921 0.921215,-1.05833 0.103,-0.15777 0.12731,-0.3714 0.23031,-0.52917 0.260557,-0.39912 0.660664,-0.65921 0.921214,-1.05833 0.103,-0.15777 0.12732,-0.3714 0.23031,-0.52917 0.322427,-0.49389 0.829097,-0.82903 1.151527,-1.32292 0.103,-0.15776 0.10893,-0.38972 0.23031,-0.52916 0.12138,-0.13945 0.32328,-0.14626 0.46061,-0.26459 0.34742,-0.29934 0.57381,-0.75899 0.92122,-1.05833 0.13733,-0.11833 0.33923,-0.12514 0.46062,-0.26458 0.19572,-0.22486 0.26488,-0.5689 0.46061,-0.79375 0.19572,-0.22486 0.47478,-0.33052 0.69092,-0.52917 0.16956,-0.15583 0.30707,-0.35278 0.46061,-0.52917 0.23031,-0.26458 0.46061,-0.52916 0.69091,-0.79375 0.23031,-0.26458 0.48241,-0.5063 0.69092,-0.79375 0.1772,-0.24428 0.28341,-0.54946 0.46061,-0.79375 0.20851,-0.28745 0.48241,-0.5063 0.69092,-0.79375 0.17719,-0.24428 0.2834,-0.54946 0.46061,-0.79375 0.2085,-0.28745 0.4824,-0.5063 0.69091,-0.79375 0.3544,-0.48857 0.5754,-1.09088 0.92122,-1.5875 0.47184,-0.67759 1.14029,-1.17449 1.61213,-1.85208 0.17292,-0.24831 0.2877,-0.54544 0.46061,-0.79375 0.27129,-0.38958 0.6978,-0.63053 0.92122,-1.05833 0.1249,-0.23915 0.10541,-0.5546 0.23031,-0.79375 0.11171,-0.21391 0.32496,-0.33438 0.46061,-0.52917 0.17291,-0.24831 0.30707,-0.52917 0.46061,-0.79375 0.0768,-0.17639 0.12731,-0.3714 0.2303,-0.52917 0.13028,-0.19956 0.33033,-0.3296 0.46061,-0.52916 0.33488,-0.51296 0.12574,-0.80996 0.46062,-1.32292 0.10299,-0.15777 0.33923,-0.12514 0.4606,-0.26458 0.12138,-0.13945 0.12731,-0.3714 0.23031,-0.52917 0.13028,-0.19956 0.33033,-0.32961 0.46061,-0.52917 0.20599,-0.31553 0.25462,-0.7428 0.46061,-1.05833 0.21501,-0.32936 0.88875,-1.02103 1.15153,-1.32292 0.15353,-0.17639 0.34889,-0.31526 0.4606,-0.52916 0.1249,-0.23915 0.10541,-0.5546 0.23031,-0.79375 0.11171,-0.21391 0.33033,-0.32961 0.4606,-0.52917 0.103,-0.15777 0.12732,-0.3714 0.23032,-0.52917 0.13027,-0.19956 0.33032,-0.3296 0.4606,-0.52916 0.103,-0.15777 0.12731,-0.3714 0.23031,-0.52917 0.13028,-0.19956 0.34889,-0.31526 0.4606,-0.52917 0.1249,-0.23915 0.10541,-0.5546 0.23031,-0.79375 0.11172,-0.2139 0.33033,-0.3296 0.46061,-0.52916 0.20599,-0.31554 0.27018,-0.73016 0.46061,-1.05834 0.0602,-0.10377 0.17009,-0.1608 0.2303,-0.26458 0.0952,-0.16409 0.15354,-0.35278 0.23031,-0.52917 0.30375,-0.69791 0.57191,-1.44783 0.92122,-2.11666 0.14241,-0.27268 0.3182,-0.52108 0.46061,-0.79375 0.0883,-0.16911 0.14199,-0.36006 0.23031,-0.52917 0.1424,-0.27267 0.33682,-0.50933 0.46061,-0.79375 0.10856,-0.24945 0.1054,-0.5546 0.2303,-0.79375 0.11171,-0.2139 0.32497,-0.33438 0.46061,-0.52917 0.17291,-0.2483 0.30707,-0.52916 0.46061,-0.79375 0.0768,-0.17639 0.12731,-0.3714 0.23031,-0.52916 0.13028,-0.19956 0.32496,-0.33438 0.4606,-0.52917 0.17292,-0.24831 0.30708,-0.52917 0.46062,-0.79375 0.0768,-0.17639 0.12731,-0.3714 0.2303,-0.52917 0.13028,-0.19956 0.33033,-0.3296 0.46061,-0.52916 0.103,-0.15777 0.12731,-0.3714 0.2303,-0.52917 0.13028,-0.19956 0.33034,-0.32961 0.46061,-0.52917 0.103,-0.15776 0.12732,-0.3714 0.23031,-0.52916 0.13028,-0.19956 0.3489,-0.31527 0.46061,-0.52917 0.1249,-0.23915 0.1054,-0.5546 0.2303,-0.79375 0.11172,-0.2139 0.33034,-0.32961 0.46061,-0.52917 0.103,-0.15776 0.12732,-0.3714 0.23031,-0.52916 0.13028,-0.19956 0.33033,-0.32961 0.46061,-0.52917 0.103,-0.15777 0.15354,-0.35278 0.2303,-0.52917 0.15354,-0.35277 0.30708,-0.70555 0.46061,-1.05833 0.0768,-0.17639 0.13509,-0.36508 0.23031,-0.52917 0.18067,-0.31133 0.4955,-0.4944 0.69091,-0.79375 0.103,-0.15776 0.13509,-0.36508 0.23031,-0.52916 0.0602,-0.10378 0.17008,-0.16081 0.2303,-0.26459 0.67059,-1.15558 -0.10206,0.0872 0.23031,-1.05833 0.0343,-0.11833 0.17008,-0.16081 0.23031,-0.26458 0.0952,-0.16409 0.17602,-0.34208 0.2303,-0.52917 0.22852,-0.78762 -0.54533,0.54287 0.2303,-0.79375 0.0602,-0.10378 0.19597,-0.14626 0.23031,-0.26458 0.0486,-0.16734 -0.0486,-0.36183 0,-0.52917 0.0343,-0.11833 0.19597,-0.14626 0.2303,-0.26458 0.0486,-0.16734 -0.0486,-0.36183 0,-0.52917 0.0343,-0.11833 0.17009,-0.16081 0.23031,-0.26458 0.67058,-1.15558 -0.10207,0.0872 0.23031,-1.05834 0.0343,-0.11832 0.19597,-0.14625 0.2303,-0.26458 0.0729,-0.25101 -0.0729,-0.54274 0,-0.79375 0.0543,-0.18709 0.17602,-0.34208 0.2303,-0.52917 0.0729,-0.251 -0.0729,-0.54274 0,-0.79375 0.0343,-0.11832 0.19597,-0.14625 0.23031,-0.26458 0.0486,-0.16734 -0.0486,-0.36183 0,-0.52917 0.0875,-0.30167 0.59942,-0.31487 0.46061,-0.79375 0.0373,-0.17112 -0.0486,-0.36183 0,-0.52916 0.0875,-0.30167 0.59942,-0.31487 0.46061,-0.79375 0.0373,-0.17113 -0.0486,-0.36183 0,-0.52917 0.0343,-0.11833 0.19597,-0.14626 0.2303,-0.26458 0.11515,-0.39688 -0.11515,-0.92604 0,-1.32292 0.0343,-0.11833 0.19597,-0.14626 0.23031,-0.26458 0.0711,-0.24512 -0.0735,-1.06939 0,-1.32292 0.0543,-0.18709 0.17602,-0.34208 0.2303,-0.52917 0.0729,-0.251 -0.0559,-0.53706 0,-0.79375 0.0416,-0.19132 0.18867,-0.33784 0.2303,-0.52916 0.0559,-0.25669 0,-0.52917 0,-0.79375 0,-0.70556 0,-1.41111 0,-2.11667 0,-0.19423 0.0401,-1.49526 0,-1.5875 -0.0486,-0.11156 -0.19597,-0.14626 -0.2303,-0.26458 -0.0816,-0.28115 0.0816,-0.77719 0,-1.05834 -0.0543,-0.18709 -0.17602,-0.34207 -0.2303,-0.52916 -0.0816,-0.28115 0.0816,-0.77719 0,-1.05834 -0.0543,-0.18709 -0.17602,-0.34207 -0.23031,-0.52916 -0.0243,-0.0837 0.0343,-0.1857 0,-0.26459 -0.0486,-0.11155 -0.18175,-0.15302 -0.2303,-0.26458 -0.0687,-0.15777 0.0687,-0.3714 0,-0.52917 -0.0486,-0.11155 -0.18175,-0.15302 -0.2303,-0.26458 -0.0343,-0.0789 0.0543,-0.20222 0,-0.26458 -0.0543,-0.0624 -0.17603,0.0624 -0.23031,0 -0.0543,-0.0624 0.0543,-0.20222 0,-0.26459 -0.0543,-0.0624 -0.17603,0.0624 -0.23031,0 -0.0543,-0.0624 0.0543,-0.20222 0,-0.26458 -0.0543,-0.0624 -0.17602,0.0624 -0.2303,0 -0.0543,-0.0624 0.0543,-0.20222 0,-0.26458 -0.0543,-0.0624 -0.16164,0.0394 -0.23031,0 -0.1942,-0.11156 -0.2664,-0.41761 -0.4606,-0.52917 -0.0687,-0.0394 -0.15748,0.0279 -0.23031,0 -0.16286,-0.0624 -0.29776,-0.20222 -0.46061,-0.26458 -0.0729,-0.0279 -0.16164,0.0394 -0.23031,0 -0.1942,-0.11156 -0.2664,-0.41761 -0.4606,-0.52917 -0.0687,-0.0394 -0.15748,0.0279 -0.23031,0 -0.3257,-0.12473 -0.59552,-0.40444 -0.92122,-0.52917 -0.0729,-0.0279 -0.16164,0.0394 -0.2303,0 -0.0971,-0.0558 -0.13321,-0.2088 -0.23031,-0.26458 -0.0687,-0.0394 -0.16165,0.0394 -0.23031,0 -0.0971,-0.0558 -0.1332,-0.2088 -0.2303,-0.26458 -0.0687,-0.0395 -0.17602,0.0624 -0.23031,0 -0.0543,-0.0624 0.0543,-0.20222 0,-0.26459 -0.10856,-0.12472 -0.32328,0.0789 -0.4606,0 -0.0971,-0.0558 -0.13321,-0.2088 -0.23031,-0.26458 -0.0687,-0.0394 -0.15748,0.0279 -0.23031,0 -0.16285,-0.0624 -0.29776,-0.20222 -0.46061,-0.26458 -0.0729,-0.0279 -0.15747,0.0279 -0.2303,0 -0.16285,-0.0624 -0.29776,-0.20222 -0.46061,-0.26459 -0.0729,-0.0279 -0.15748,0.0279 -0.23031,0 -0.16285,-0.0624 -0.29776,-0.20222 -0.46061,-0.26458 -0.0729,-0.0279 -0.16164,0.0394 -0.2303,0 -0.0971,-0.0558 -0.13998,-0.1954 -0.2303,-0.26458 -0.14283,-0.1094 -0.30708,-0.17639 -0.46061,-0.26459 -0.0768,0 -0.16165,0.0395 -0.23031,0 -0.0971,-0.0558 -0.12731,-0.22514 -0.23031,-0.26458 -0.14565,-0.0558 -0.31495,0.0558 -0.4606,0 -0.103,-0.0394 -0.12731,-0.22514 -0.23031,-0.26458 -0.14565,-0.0558 -0.31166,0.0428 -0.46061,0 -0.16653,-0.0478 -0.29776,-0.20222 -0.46061,-0.26459 -0.0729,-0.0279 -0.16164,0.0395 -0.2303,0 -0.19421,-0.11155 -0.2664,-0.41761 -0.46061,-0.52916 -0.0687,-0.0395 -0.16165,0.0394 -0.23031,0 -0.0971,-0.0558 -0.1332,-0.20881 -0.23031,-0.26459 -0.0687,-0.0394 -0.16164,0.0394 -0.2303,0 -1.05401,-0.60544 0.97728,0.10967 -0.69091,-0.52916 -0.0729,-0.0279 -0.16165,0.0394 -0.23031,0 -0.0971,-0.0558 -0.12731,-0.22514 -0.23031,-0.26459 -0.14565,-0.0558 -0.31495,0.0558 -0.4606,0 -0.103,-0.0394 -0.12731,-0.22514 -0.23031,-0.26458 -0.14565,-0.0558 -0.30707,0 -0.46061,0 -0.0768,0 -0.16164,0.0394 -0.23031,0 -0.0971,-0.0558 -0.13319,-0.2088 -0.2303,-0.26458 -0.13733,-0.0789 -0.35204,0.12472 -0.46061,0 -0.0543,-0.0624 0.0543,-0.20222 0,-0.26459 -0.0543,-0.0624 -0.16164,0.0395 -0.2303,0 -0.0971,-0.0558 -0.12731,-0.22514 -0.2303,-0.26458 -0.24473,-0.0937 -0.67651,0.0937 -0.92123,0 -0.16285,-0.0624 -0.29775,-0.20222 -0.4606,-0.26458 -0.21849,-0.0837 -0.47244,0.0837 -0.69092,0 -0.103,-0.0395 -0.12731,-0.22514 -0.23031,-0.26459 -0.21297,-0.0816 -1.23009,0.0872 -1.38183,0 -0.0971,-0.0558 -0.1273,-0.22514 -0.2303,-0.26458 -0.10534,-0.0403 -0.81874,0.0589 -0.92122,0 -0.0971,-0.0558 -0.1332,-0.2088 -0.23031,-0.26458 -0.0687,-0.0394 -0.15354,0 -0.2303,0 -0.27536,0 -1.23152,0.0576 -1.38183,0 -0.16285,-0.0624 -0.29776,-0.20222 -0.46061,-0.26459 -0.0729,-0.0279 -0.15354,0 -0.23031,0 -0.15353,0 -0.30707,0 -0.46061,0 -0.4606,0 -0.92122,0 -1.38183,0 -0.12855,0 -1.0461,0.0404 -1.15152,0 -0.103,-0.0394 -0.1332,-0.2088 -0.23031,-0.26458 -0.15283,-0.0878 -1.15845,0.0855 -1.38183,0 -0.16285,-0.0624 -0.29775,-0.20222 -0.4606,-0.26458 -0.14566,-0.0558 -0.32328,0.0789 -0.46061,0 -0.0971,-0.0558 -0.13321,-0.20881 -0.23031,-0.26459 -0.13588,-0.0781 -0.5325,0.0607 -0.69091,0 -0.16285,-0.0624 -0.29776,-0.20222 -0.46061,-0.26458 -0.24473,-0.0937 -0.6765,0.0937 -0.92123,0 -0.16285,-0.0624 -0.29776,-0.20222 -0.46061,-0.26458 -0.14566,-0.0558 -0.30708,0 -0.46062,0 -0.19767,0 -1.71986,0.0469 -1.84244,0 -0.103,-0.0395 -0.13321,-0.20881 -0.23031,-0.26459 -0.14475,-0.0831 -0.776467,0.0832 -0.921227,0 -0.0971,-0.0558 -0.12731,-0.22514 -0.2303,-0.26458 -0.131967,-0.0505 -0.935304,0 -1.151524,0 -0.921217,0 -1.84244,0 -2.76366,0 -0.275355,0 -1.231518,0.0576 -1.381829,0 -0.162851,-0.0624 -0.29776,-0.20222 -0.46061,-0.26458 -0.07283,-0.0279 -0.153537,0 -0.230305,0 -0.153537,0 -0.307074,0 -0.46061,0 -0.537378,0 -1.074756,0 -1.612135,0 -0.25147,0 -1.002585,-0.057 -1.151525,0 -0.162849,0.0624 -0.294075,0.21675 -0.460609,0.26458 -0.399866,0.11485 -0.981964,-0.11485 -1.381829,0 -0.166535,0.0478 -0.294076,0.21675 -0.460611,0.26458 -0.148952,0.0428 -0.307073,0 -0.46061,0 -0.153537,0 -0.307072,0 -0.460609,0 -0.46061,0 -0.92122,0 -1.38183,0 -0.153536,0 -0.307073,0 -0.46061,0 -0.07676,0 -0.161641,-0.0394 -0.230305,0 -0.0971,0.0558 -0.127309,0.22514 -0.230305,0.26459 -0.116726,0.0447 -1.423863,0 -1.612134,0 -1.074757,0 -2.149513,0 -3.22427,0 -0.997987,0 -1.995975,0 -2.993964,0 -0.46061,0 -0.921219,0 -1.381829,0 -0.07677,0 -0.153537,0 -0.230305,0 -0.07676,0 -0.161641,0.0394 -0.230305,0 -0.0971,-0.0558 -0.1332,-0.20881 -0.230305,-0.26459 -0.06866,-0.0394 -0.153537,0 -0.230305,0 -0.272038,0 -1.244877,0.0524 -1.381829,0 -0.102997,-0.0394 -0.133201,-0.2088 -0.230306,-0.26458 -0.08328,-0.0478 -0.991338,0 -1.151524,0 -0.614147,0 -1.228293,0 -1.84244,0 -0.230304,0 -0.472428,-0.0837 -0.690915,0 -0.102995,0.0394 -0.133199,0.2088 -0.230304,0.26458 -0.06866,0.0395 -0.153537,0 -0.230306,0 -0.07676,0 -0.153537,0 -0.230304,0 -0.460611,0 -0.92122,0 -1.38183,0 -0.07677,0 -0.153537,0 -0.230305,0 -0.07677,0 -0.161641,-0.0394 -0.230305,0 -0.0971,0.0558 -0.12731,0.22514 -0.230305,0.26459 -0.145657,0.0558 -0.307073,0 -0.46061,0 -0.07677,0 -0.161641,-0.0395 -0.230305,0 -0.0971,0.0558 -0.133199,0.2088 -0.230304,0.26458 -0.184245,0.10583 -0.506672,-0.10583 -0.690915,0 -0.677744,0.38931 0.357498,0.26458 -0.690915,0.26458 -0.102996,0.0394 -0.127309,0.22514 -0.230306,0.26459 -0.218485,0.0837 -0.472428,-0.0837 -0.690914,0 -0.16285,0.0624 -0.29776,0.20222 -0.46061,0.26458 -0.244725,0.0937 -0.676495,-0.0937 -0.92122,0 -0.16285,0.0624 -0.29776,0.20222 -0.460609,0.26458 -0.145659,0.0558 -0.314953,-0.0558 -0.46061,0 -0.162851,0.0624 -0.29776,0.20222 -0.460611,0.26459 -0.145657,0.0558 -0.314951,-0.0558 -0.460609,0 -0.16285,0.0624 -0.29776,0.20222 -0.46061,0.26458 -0.145658,0.0558 -0.323283,-0.0789 -0.46061,0 -0.0971,0.0558 -0.1332,0.2088 -0.230305,0.26458 -0.06866,0.0395 -0.153537,0 -0.230305,0 -0.231929,0 -1.254467,-0.0488 -1.381829,0 -0.102996,0.0395 -0.12731,0.22514 -0.230306,0.26459 -0.145657,0.0558 -0.307072,0 -0.460609,0 -0.07676,0 -0.161641,-0.0395 -0.230306,0 -0.0971,0.0558 -0.133199,0.2088 -0.230304,0.26458 -0.09131,0.0524 -0.643833,-0.0541 -0.690915,0 -0.05428,0.0624 0.05428,0.20222 0,0.26458 -0.108567,0.12473 -0.323283,-0.0789 -0.46061,0 -0.0971,0.0558 -0.1332,0.20881 -0.230305,0.26459 -0.137327,0.0789 -0.323283,-0.0789 -0.46061,0 -0.0971,0.0558 -0.1332,0.2088 -0.230305,0.26458 -0.184244,0.10583 -0.50667,-0.10583 -0.690914,0 -0.0971,0.0558 -0.1332,0.2088 -0.230305,0.26458 -0.149318,0.0858 -1.164857,-0.0831 -1.38183,0 -0.16285,0.0624 -0.297759,0.20222 -0.46061,0.26459 -0.129938,0.0498 -0.539579,0 -0.690915,0 -0.07676,0 -0.153536,0 -0.230304,0 -0.07677,0 -0.161642,-0.0395 -0.230306,0 -0.0971,0.0558 -0.1332,0.2088 -0.230305,0.26458 -0.137327,0.0789 -0.46061,-0.17639 -0.46061,0 0,0.44971 0.153537,0.88195 0.230305,1.32292 z"
       id="path51"
       inkscape:connector-curvature="0" />
    <path
       style="fill:none;stroke:#0000c7;stroke-width:10;stroke-linecap:butt;stroke-linejoin:miter;stroke-miterlimit:4;stroke-dasharray:none;stroke-opacity:1"
       d="m 115.22604,192.09271 c 0.70555,0 1.41111,0 2.11667,0 0.17638,0 0.35277,0 0.52916,0 0.0882,0 0.1857,0.0394 0.26459,0 0.11155,-0.0558 0.14625,-0.22515 0.26458,-0.26459 0.1548,-0.0516 1.3604,0 1.5875,0 0.0882,0 0.18091,0.0279 0.26458,0 0.18709,-0.0624 0.34208,-0.20222 0.52917,-0.26458 0.28115,-0.0937 0.77718,0.0937 1.05833,0 0.11833,-0.0394 0.15303,-0.20881 0.26459,-0.26458 0.17431,-0.0872 1.34282,0.0815 1.5875,0 0.11832,-0.0394 0.15302,-0.20881 0.26458,-0.26459 0.0696,-0.0348 0.91998,0 1.05833,0 0.52917,0 1.05834,0 1.5875,0 0.17639,0 0.36183,0.0558 0.52917,0 0.18709,-0.0624 0.34208,-0.20222 0.52917,-0.26458 0.251,-0.0837 0.53706,0.0642 0.79375,0 0.19132,-0.0478 0.34207,-0.20222 0.52916,-0.26458 0.28115,-0.0937 0.77719,0.0937 1.05834,0 0.11832,-0.0395 0.15302,-0.20881 0.26458,-0.26459 0.0789,-0.0394 0.17639,0 0.26458,0 0.0882,0 0.17639,0 0.26458,0 0.25992,0 1.41251,0.0583 1.5875,0 0.18709,-0.0624 0.34208,-0.20222 0.52917,-0.26458 0.1432,-0.0477 0.9682,0 1.05833,0 0.61737,0 1.23473,0 1.85209,0 0.88194,0 1.76389,0 2.64583,0 0.17639,0 0.35278,0 0.52917,0 0.17639,0 0.36183,0.0558 0.52916,0 0.11833,-0.0395 0.14626,-0.22514 0.26459,-0.26458 0.16734,-0.0558 0.35278,0 0.52916,0 0.28386,0 1.6772,0.0583 1.85209,0 0.18709,-0.0624 0.33784,-0.21676 0.52916,-0.26459 0.21516,-0.0538 1.31053,0 1.5875,0 0.17639,0 0.36183,0.0558 0.52917,0 0.11833,-0.0394 0.15303,-0.2088 0.26458,-0.26458 0.16826,-0.0841 1.10379,0.073 1.32292,0 0.11833,-0.0394 0.14626,-0.22514 0.26458,-0.26458 0.14225,-0.0474 0.83433,0 1.05834,0 0.79375,0 1.5875,0 2.38125,0 0.79375,0 1.5875,0 2.38125,0 0.26458,0 0.5571,0.11832 0.79375,0 0.0789,-0.0394 -0.0624,-0.20223 0,-0.26459 0.0257,-0.0257 1.22209,0 1.32291,0 1.14653,0 2.29306,0 3.43959,0 0.26645,0 1.44118,-0.0488 1.5875,0 0.11832,0.0394 0.15302,0.20881 0.26458,0.26459 0.21167,0.10583 0.58208,-0.10584 0.79375,0 0.11156,0.0558 0.15303,0.2088 0.26458,0.26458 0.0705,0.0353 1.46781,0 1.5875,0 0.0882,0 0.20223,-0.0624 0.26459,0 0.0624,0.0624 -0.0624,0.20222 0,0.26458 0.12472,0.12473 0.3714,-0.0789 0.52916,0 0.6539,0.32695 -0.0913,0.26459 0.52917,0.26459 0.0871,0 1.20312,-0.14479 0.79375,0.26458 -0.0624,0.0624 -0.1857,-0.0395 -0.26458,0 -0.11156,0.0558 -0.17639,0.17639 -0.26459,0.26458"
       id="path55"
       inkscape:connector-curvature="0" />
    <g
       id="g4917">
      <path
         inkscape:connector-curvature="0"
         id="path53"
         d="m 70.438626,231.64792 c 0,0.0882 0.06099,0.20218 0,0.26458 -0.06099,0.0624 -0.258782,-0.0882 -0.258782,0 0,0.0882 0.197789,0.0624 0.258782,0 0.06099,-0.0624 -0.06099,-0.20218 0,-0.26458 0.06099,-0.0624 0.197788,0.0624 0.258781,0 0.06099,-0.0624 -0.06099,-0.20219 0,-0.26459 0.129391,-0.13229 0.646955,0.13229 0.776346,0 0.06099,-0.0624 -0.06099,-0.20218 0,-0.26458 0.12199,-0.12473 0.363257,0.0789 0.517563,0 0.109113,-0.0558 0.14967,-0.20878 0.258782,-0.26458 0.07715,-0.0395 0.181632,0.0394 0.258782,0 0.109113,-0.0558 0.149669,-0.20879 0.258782,-0.26459 0.154306,-0.0789 0.395574,0.12473 0.517564,0 0.06099,-0.0624 -0.06099,-0.20218 0,-0.26458 0.12939,-0.13229 0.646954,0.13229 0.776345,0 0.06099,-0.0624 -0.06099,-0.20218 0,-0.26458 0.06099,-0.0624 0.181631,0.0394 0.258782,0 0.218222,-0.11156 0.299341,-0.41762 0.517564,-0.52917 0.102603,-0.0525 0.723441,0.0541 0.776345,0 0.06099,-0.0624 -0.06099,-0.20218 0,-0.26458 0.0529,-0.0541 0.673741,0.0524 0.776345,0 0.109113,-0.0558 0.149669,-0.20879 0.258782,-0.26459 0.207026,-0.10583 0.569319,0.10584 0.776345,0 0.218223,-0.11156 0.299341,-0.41761 0.517564,-0.52916 0.07715,-0.0394 0.181631,0.0394 0.258782,0 0.109112,-0.0558 0.149668,-0.20879 0.258781,-0.26459 0.154307,-0.0789 0.395574,0.12473 0.517564,0 0.06099,-0.0624 -0.06099,-0.20218 0,-0.26458 0.12199,-0.12473 0.363257,0.0789 0.517564,0 0.109113,-0.0558 0.149669,-0.20878 0.258781,-0.26458 0.07715,-0.0394 0.197789,0.0624 0.258782,0 0.06099,-0.0624 -0.06099,-0.20219 0,-0.26459 0.06099,-0.0624 0.181632,0.0394 0.258782,0 0.109113,-0.0558 0.157279,-0.19538 0.258782,-0.26458 0.160489,-0.10939 0.357075,-0.1552 0.517564,-0.26458 0.203004,-0.13838 0.322376,-0.3795 0.517563,-0.52917 0.248814,-0.1908 0.527532,-0.33837 0.776345,-0.52917 0.216712,-0.16618 0.564579,-0.68549 0.776345,-0.79375 0.07715,-0.0394 0.181632,0.0394 0.258783,0 0.425646,-0.21759 0.350698,-0.84074 0.776345,-1.05833 0.07715,-0.0394 0.181631,0.0394 0.258782,0 0.109113,-0.0558 0.149668,-0.20878 0.258781,-0.26458 0.07715,-0.0394 0.19779,0.0624 0.258783,0 0.535429,-0.54747 -0.818206,0.0214 0.258781,-0.52917 0.356954,-0.18248 0.231473,0.32042 0.517564,-0.26458 0.03858,-0.0789 -0.06099,-0.20219 0,-0.26459 0.06099,-0.0624 0.181631,0.0394 0.258781,0 0.218223,-0.11156 0.299341,-0.41761 0.517564,-0.52916 0.07715,-0.0394 0.197789,0.0624 0.258782,0 0.06099,-0.0624 -0.06099,-0.20219 0,-0.26459 0.06099,-0.0624 0.181631,0.0394 0.258781,0 0.218223,-0.11156 0.299342,-0.41761 0.517564,-0.52916 0.07715,-0.0395 0.181631,0.0394 0.258782,0 0.310538,-0.15875 0.465807,-0.635 0.776345,-0.79375 0.07715,-0.0394 0.181632,0.0394 0.258783,0 0.109111,-0.0558 0.149668,-0.20879 0.258781,-0.26459 0.07715,-0.0394 0.181631,0.0394 0.258782,0 0.109112,-0.0558 0.149669,-0.20878 0.258782,-0.26458 0.07715,-0.0394 0.181631,0.0394 0.258781,0 0.218223,-0.11156 0.299341,-0.41761 0.517564,-0.52917 0.07715,-0.0394 0.181631,0.0394 0.258782,0 0.218223,-0.11156 0.29934,-0.41761 0.517564,-0.52916 0.07715,-0.0395 0.181631,0.0394 0.258781,0 0.109113,-0.0558 0.149669,-0.20879 0.258782,-0.26459 0.07715,-0.0394 0.19779,0.0624 0.258782,0 0.06099,-0.0624 -0.06099,-0.20218 0,-0.26458 0.121989,-0.12473 0.395574,0.12472 0.517563,0 0.06099,-0.0624 -0.06099,-0.20218 0,-0.26458 0.06099,-0.0624 0.181632,0.0394 0.258783,0 0.254648,-0.13019 0.780477,-0.92816 1.035126,-1.05834 0.07715,-0.0394 0.181631,0.0394 0.258782,0 1.076987,-0.55056 -0.276648,0.0183 0.258782,-0.52916 0.06099,-0.0624 0.181631,0.0394 0.258782,0 0.218223,-0.11156 0.29934,-0.41762 0.517563,-0.52917 0.07715,-0.0394 0.181632,0.0394 0.258782,0 0.57218,-0.29251 0.0803,-0.16422 0.258782,-0.52917 0.286091,-0.58501 0.16061,-0.0821 0.517564,-0.26458 0.218222,-0.11156 0.29934,-0.41761 0.517563,-0.52917 0.07715,-0.0394 0.181632,0.0394 0.258782,0 0.138209,-0.0707 0.640107,-0.65446 0.776345,-0.79375 0.1522,-0.15561 0.97521,-0.93581 1.035127,-1.05833 0.03857,-0.0789 -0.06099,-0.20218 0,-0.26458 0.06099,-0.0624 0.181631,0.0394 0.258782,0 0.218223,-0.11156 0.299341,-0.41762 0.517564,-0.52917 0.07715,-0.0394 0.197788,0.0624 0.258781,0 0.06099,-0.0624 -0.06099,-0.20218 0,-0.26458 0.06099,-0.0624 0.19779,0.0624 0.258783,0 0.06099,-0.0624 -0.06099,-0.20219 0,-0.26459 0.535419,-0.54743 -0.02093,0.83655 0.517559,-0.26458 0.0386,-0.0789 -0.061,-0.20218 0,-0.26458 0.53543,-0.54744 -0.0209,0.83654 0.51757,-0.26459 0.0386,-0.0789 -0.0386,-0.18568 0,-0.26458 0.0546,-0.11156 0.17252,-0.17638 0.25878,-0.26458 0.0863,-0.0882 0.14967,-0.20879 0.25878,-0.26459 0.0772,-0.0394 0.19775,0.0624 0.25878,0 0.061,-0.0624 -0.0385,-0.18568 0,-0.26458 0.0546,-0.11156 0.17252,-0.17638 0.25879,-0.26458 0.0863,-0.0882 0.17251,-0.17639 0.25878,-0.26459 0.0863,-0.0882 0.17251,-0.17638 0.25878,-0.26458 0.0863,-0.0882 0.14967,-0.20878 0.25878,-0.26458 0.0772,-0.0394 0.18161,0.0394 0.25878,0 1.07699,-0.55057 -0.27664,0.0183 0.25878,-0.52917 0.53547,-0.54743 -0.0209,0.83655 0.51757,-0.26458 0.0385,-0.0789 -0.061,-0.20219 0,-0.26459 0.061,-0.0624 0.18161,0.0394 0.25878,0 0.11984,-0.0613 0.88292,-0.90272 1.03513,-1.05833 0.0863,-0.0882 0.14967,-0.20878 0.25878,-0.26458 0.0772,-0.0394 0.18161,0.0394 0.25878,0 0.10911,-0.0558 0.17252,-0.17639 0.25879,-0.26459 0.0863,-0.0882 0.17251,-0.17638 0.25877,-0.26458 0.13624,-0.1393 0.63814,-0.72305 0.77635,-0.79375 0.0772,-0.0395 0.18161,0.0394 0.25878,0 0.10911,-0.0558 0.17252,-0.17638 0.25879,-0.26458 0.0863,-0.0882 0.2042,-0.15303 0.25878,-0.26459 0.0385,-0.0789 -0.061,-0.20218 0,-0.26458 0.31519,-0.32226 0.57816,-0.12394 0.77634,-0.52917 0.0385,-0.0789 -0.061,-0.20218 0,-0.26458 0.061,-0.0624 0.18161,0.0394 0.25878,0 0.10911,-0.0558 0.17252,-0.17638 0.25879,-0.26458 0.0863,-0.0882 0.17251,-0.17639 0.25878,-0.26459 0.4313,-0.44097 0.8626,-0.88194 1.29391,-1.32291 0.17252,-0.17639 0.38222,-0.32162 0.51756,-0.52917 0.15759,-0.2417 0.22088,-0.64209 0.51756,-0.79375 0.4581,-0.23418 0.0884,0.39355 0.51757,-0.26458 0.10699,-0.16409 0.15179,-0.36508 0.25878,-0.52917 0.0677,-0.10378 0.17251,-0.17638 0.25878,-0.26458 0.0863,-0.0882 0.14967,-0.20879 0.25878,-0.26459 0.0772,-0.0394 0.19775,0.0624 0.25878,0 0.061,-0.0624 -0.0385,-0.18568 0,-0.26458 0.0546,-0.11156 0.17252,-0.17638 0.25878,-0.26458 0.0863,-0.0882 0.17252,-0.17639 0.25879,-0.26459 0.1522,-0.15561 0.91529,-0.99703 1.03512,-1.05833 0.35695,-0.18248 0.23147,0.32042 0.51757,-0.26458 0.0385,-0.0789 -0.061,-0.20219 0,-0.26459 0.061,-0.0624 0.18699,0.0489 0.25878,0 0.49765,-0.33921 0.79625,-0.98371 1.29391,-1.32291 0.0718,-0.0489 0.19775,0.0624 0.25878,0 0.13639,-0.13945 0.15179,-0.36508 0.25878,-0.52917 0.0677,-0.10378 0.20421,-0.15303 0.25879,-0.26458 0.0385,-0.0789 -0.0386,-0.18569 0,-0.26459 0.1091,-0.22312 0.40844,-0.30605 0.51755,-0.52916 0.0385,-0.0789 -0.061,-0.20219 0,-0.26459 0.061,-0.0624 0.19776,0.0624 0.25879,0 0.061,-0.0624 -0.0386,-0.18568 0,-0.26458 0.15527,-0.3175 0.62108,-0.47625 0.77635,-0.79375 0.0385,-0.0789 -0.0386,-0.18568 0,-0.26458 0.0546,-0.11156 0.2042,-0.15303 0.25878,-0.26459 0.0385,-0.0789 -0.061,-0.20218 0,-0.26458 0.061,-0.0624 0.19774,0.0624 0.25877,0 0.061,-0.0624 -0.0385,-0.18568 0,-0.26458 0.0546,-0.11156 0.20422,-0.15303 0.25879,-0.26459 0.0385,-0.0789 -0.0386,-0.18568 0,-0.26458 0.10911,-0.22312 0.40845,-0.30605 0.51756,-0.52917 0.0385,-0.0789 -0.061,-0.20218 0,-0.26458 0.061,-0.0624 0.19776,0.0624 0.25879,0 0.061,-0.0624 -0.0385,-0.18568 0,-0.26458 0.0546,-0.11156 0.2042,-0.15303 0.25878,-0.26459 0.0385,-0.0789 -0.061,-0.20218 0,-0.26458 0.061,-0.0624 0.19774,0.0624 0.25878,0 0.12199,-0.12473 -0.12199,-0.40444 0,-0.52917 0.061,-0.0624 0.19775,0.0624 0.25878,0 0.061,-0.0624 -0.061,-0.20218 0,-0.26458 0.061,-0.0624 0.19775,0.0624 0.25878,0 0.12199,-0.12473 -0.12199,-0.40444 0,-0.52917 0.061,-0.0624 0.18161,0.0394 0.25878,0 0.10911,-0.0558 0.17252,-0.17638 0.25879,-0.26458 0.0863,-0.0882 0.2042,-0.15303 0.25878,-0.26458 0.0385,-0.0789 -0.0385,-0.18569 0,-0.26459 0.15527,-0.3175 0.62107,-0.47625 0.77634,-0.79375 0.0385,-0.0789 -0.0385,-0.18568 0,-0.26458 0.15527,-0.3175 0.62108,-0.47625 0.77635,-0.79375 0.0385,-0.0789 -0.0385,-0.18568 0,-0.26458 0.0546,-0.11156 0.2042,-0.15303 0.25878,-0.26459 0.0385,-0.0789 -0.0385,-0.18568 0,-0.26458 0.53849,-1.10114 -0.0179,0.28285 0.51756,-0.26458 0.061,-0.0624 -0.061,-0.20219 0,-0.26459 0.061,-0.0624 0.19775,0.0624 0.25878,0 0.122,-0.12472 -0.0772,-0.3714 0,-0.52916 0.12733,-0.26036 0.90781,-0.79798 1.03514,-1.05834 0.0385,-0.0789 -0.0386,-0.18568 0,-0.26458 0.15527,-0.3175 0.62107,-0.47625 0.77634,-0.79375 0.0385,-0.0789 -0.0386,-0.18568 0,-0.26458 0.0546,-0.11156 0.1911,-0.16081 0.25878,-0.26459 0.10699,-0.16409 0.15179,-0.36508 0.25878,-0.52916 0.0677,-0.10378 0.1911,-0.16081 0.25879,-0.26459 0.10699,-0.16409 0.12238,-0.38972 0.25878,-0.52916 0.061,-0.0624 0.22024,0.0789 0.25877,0 0.0772,-0.15777 -0.0546,-0.36184 0,-0.52917 0.0772,-0.23665 0.40846,-0.30605 0.51757,-0.52917 0.0385,-0.0789 -0.0385,-0.18568 0,-0.26458 0.10911,-0.22312 0.4404,-0.29252 0.51757,-0.52917 0.0546,-0.16734 -0.0546,-0.36183 0,-0.52916 0.0385,-0.11833 0.19109,-0.16081 0.25878,-0.26459 0.10699,-0.16409 0.17251,-0.35278 0.25877,-0.52916 0,-0.0882 -0.0385,-0.18569 0,-0.26459 0.0546,-0.11156 0.20422,-0.15302 0.25879,-0.26458 0.0385,-0.0789 -0.061,-0.20218 0,-0.26458 0.53546,-0.54744 -0.0209,0.83654 0.51756,-0.26459 0.0385,-0.0789 -0.0385,-0.18568 0,-0.26458 0.0546,-0.11156 0.20421,-0.15303 0.25879,-0.26458 0.38076,-0.77862 -0.59949,0.34834 0.25878,-0.52917 0.0321,-0.0493 0.50094,-1.04133 0.51756,-1.05833 0.061,-0.0624 0.19775,0.0624 0.25878,0 0.061,-0.0624 -0.0385,-0.18569 0,-0.26459 0.15527,-0.3175 0.62108,-0.47625 0.77635,-0.79375 0.0385,-0.0789 -0.0385,-0.18568 0,-0.26458 0.23821,-0.48707 0.53813,-0.0421 0.77634,-0.52917 0.0385,-0.0789 -0.0385,-0.18568 0,-0.26458 0.0546,-0.11156 0.17252,-0.17638 0.25878,-0.26458 0.1522,-0.15562 0.97517,-0.93582 1.03513,-1.05834 0.0385,-0.0789 -0.0385,-0.18568 0,-0.26458 0.0546,-0.11156 0.17252,-0.17638 0.25878,-0.26458 0.4313,-0.44098 0.86261,-0.88195 1.29391,-1.32292 0.0863,-0.0882 0.17252,-0.17638 0.25878,-0.26458 0.0863,-0.0882 0.20421,-0.15303 0.25878,-0.26459 0.0385,-0.0789 -0.0385,-0.18568 0,-0.26458 0.0546,-0.11156 0.17252,-0.17638 0.25878,-0.26458 0.0863,-0.0882 0.17252,-0.17639 0.25879,-0.26459 0.34504,-0.35278 0.69008,-0.70555 1.03512,-1.05833 0.0863,-0.0882 0.20421,-0.15303 0.25878,-0.26458 0.0385,-0.0789 -0.0385,-0.18569 0,-0.26459 0.0546,-0.11156 0.19111,-0.1608 0.25879,-0.26458 0.10699,-0.16409 0.12239,-0.38972 0.25878,-0.52917 0.53537,-0.54743 -0.0209,0.83655 0.51757,-0.26458 0.0385,-0.0789 -0.0385,-0.18568 0,-0.26458 0.0546,-0.11156 0.2042,-0.15303 0.25878,-0.26459 0.0385,-0.0789 -0.061,-0.20218 0,-0.26458 0.061,-0.0624 0.19774,0.0624 0.25877,0 0.061,-0.0624 -0.0273,-0.18088 0,-0.26458 0.061,-0.18709 0.19776,-0.34208 0.25879,-0.52917 0.0273,-0.0837 -0.0385,-0.18568 0,-0.26458 0.0546,-0.11156 0.2042,-0.15303 0.25878,-0.26459 0.0385,-0.0789 -0.0385,-0.18568 0,-0.26458 0.10911,-0.22312 0.4404,-0.29252 0.51757,-0.52917 0.0546,-0.16734 -0.0419,-0.35804 0,-0.52916 0.0468,-0.19133 0.19774,-0.34208 0.25878,-0.52917 0.0273,-0.0837 -0.0385,-0.18568 0,-0.26458 0.0546,-0.11156 0.22024,-0.14626 0.25877,-0.26459 0.0546,-0.16734 -0.0546,-0.36183 0,-0.52916 0.0386,-0.11833 0.20422,-0.15303 0.25879,-0.26459 0.0385,-0.0789 -0.0385,-0.18568 0,-0.26458 0.10912,-0.22312 0.44039,-0.29252 0.51756,-0.52917 0.0546,-0.16734 -0.0546,-0.36183 0,-0.52916 0.0385,-0.11833 0.20421,-0.15303 0.25879,-0.26459 0.0385,-0.0789 -0.0385,-0.18568 0,-0.26458 0.0546,-0.11156 0.2042,-0.15303 0.25878,-0.26458 0.0385,-0.0789 -0.0385,-0.18569 0,-0.26459 0.0546,-0.11156 0.17251,-0.17638 0.25878,-0.26458 0.29609,-0.30273 0.36089,-0.31321 0.51756,-0.79375 0.0546,-0.16734 -0.0772,-0.3714 0,-0.52917 0.10912,-0.22312 0.40846,-0.30605 0.51757,-0.52916 0.0385,-0.0789 -0.0385,-0.18569 0,-0.26459 0.10911,-0.22312 0.40845,-0.30605 0.51756,-0.52916 0.0385,-0.0789 -0.0385,-0.18569 0,-0.26459 0.0546,-0.11156 0.20421,-0.15302 0.25878,-0.26458 0.0385,-0.0789 -0.0385,-0.18568 0,-0.26458 0.0546,-0.11156 0.1911,-0.16081 0.25878,-0.26459 0.10699,-0.16409 0.17252,-0.35278 0.25878,-0.52916 0.0863,-0.17639 0.19776,-0.34208 0.25879,-0.52917 0.0273,-0.0837 -0.061,-0.20218 0,-0.26458 0.061,-0.0624 0.22024,0.0789 0.25878,0 0.0772,-0.15777 -0.0546,-0.36183 0,-0.52917 0.0385,-0.11833 0.2042,-0.15303 0.25878,-0.26458 0.0385,-0.0789 -0.0385,-0.18569 0,-0.26459 0.0546,-0.11156 0.20421,-0.15302 0.25879,-0.26458 0.38077,-0.77862 -0.5995,0.34834 0.25877,-0.52917 0.10699,-0.16409 0.19775,-0.34208 0.25878,-0.52916 0.0273,-0.0837 -0.061,-0.20219 0,-0.26459 0.061,-0.0624 0.19776,0.0624 0.25879,0 1.00996,-1.0326 -0.06,-0.14209 0.25878,-0.79375 0.0546,-0.11156 0.2042,-0.15302 0.25878,-0.26458 0.0386,-0.0789 -0.0385,-0.18568 0,-0.26458 0.0546,-0.11156 0.20421,-0.15303 0.25879,-0.26459 0.0385,-0.0789 -0.0385,-0.18568 0,-0.26458 0.0546,-0.11156 0.2042,-0.15303 0.25877,-0.26458 0.0385,-0.0789 -0.0385,-0.18569 0,-0.26459 0.0546,-0.11156 0.20421,-0.15302 0.25878,-0.26458 0.0513,-0.10491 -0.0529,-0.73965 0,-0.79375 0.061,-0.0624 0.19776,0.0624 0.25879,0 0.12199,-0.12473 -0.0772,-0.3714 0,-0.52917 0.0546,-0.11156 0.2042,-0.15302 0.25878,-0.26458 0.0385,-0.0789 -0.0385,-0.18568 0,-0.26458 0.0546,-0.11156 0.2042,-0.15303 0.25878,-0.26459 0.0386,-0.0789 -0.061,-0.20218 0,-0.26458 0.13639,-0.13945 0.54339,0.25957 0.51757,-0.26458 0.10699,-0.16409 0.19774,-0.34208 0.25877,-0.52917 0.0273,-0.0837 -0.061,-0.20218 0,-0.26458 0.53547,-0.54744 -0.0209,0.83655 0.51757,-0.26459 0.0385,-0.0789 -0.0385,-0.18568 0,-0.26458 0.15527,-0.3175 0.62108,-0.47625 0.77635,-0.79375 0.0385,-0.0789 -0.0385,-0.18568 0,-0.26458 0.0546,-0.11156 0.2042,-0.15303 0.25877,-0.26459 0.0386,-0.0789 -0.0385,-0.18568 0,-0.26458 0.0546,-0.11156 0.20422,-0.15303 0.25879,-0.26458 0.0385,-0.0789 -0.0385,-0.18569 0,-0.26459 0.10912,-0.22311 0.40846,-0.30605 0.51756,-0.52916 0.0385,-0.0789 -0.0385,-0.18569 0,-0.26459 0.10911,-0.22311 0.40845,-0.30605 0.51757,-0.52916 0.0385,-0.0789 -0.0273,-0.18089 0,-0.26459 0.62482,-1.91649 -0.0746,0.41714 0.51756,-0.79375 0.0385,-0.0789 -0.0385,-0.18568 0,-0.26458 0.0546,-0.11156 0.20421,-0.15303 0.25878,-0.26458 0.0772,-0.15777 -0.0772,-0.3714 0,-0.52917 0.0546,-0.11156 0.2042,-0.15303 0.25878,-0.26458 0.0813,-0.1663 -0.0813,-0.89204 0,-1.05834 0.0546,-0.11156 0.20421,-0.15302 0.25879,-0.26458 0.0772,-0.15777 -0.0772,-0.3714 0,-0.52917 0.0546,-0.11156 0.2042,-0.15302 0.25878,-0.26458 0.0385,-0.0789 -0.0385,-0.18568 0,-0.26458 0.0546,-0.11156 0.22024,-0.14626 0.25878,-0.26459 0.0546,-0.16734 -0.0546,-0.36183 0,-0.52916 0.0984,-0.30168 0.67354,-0.31487 0.51756,-0.79375 0.0419,-0.17113 0,-0.35278 0,-0.52917 0.0863,-0.0882 0.2042,-0.15303 0.25878,-0.26458 0.10352,-0.21167 -0.10351,-0.58209 0,-0.79375 0.0546,-0.11156 0.20421,-0.15303 0.25879,-0.26459 0.0772,-0.15777 -0.0546,-0.36183 0,-0.52916 0.061,-0.18709 0.19775,-0.34208 0.25878,-0.52917 0.0273,-0.0837 -0.0385,-0.18568 0,-0.26458 0.0546,-0.11156 0.2042,-0.15303 0.25878,-0.26459 0.0772,-0.15777 -0.0546,-0.36183 0,-0.52916 0.061,-0.18709 0.19775,-0.34208 0.25879,-0.52917 0.0273,-0.0837 -0.0385,-0.18568 0,-0.26458 0.0546,-0.11156 0.2042,-0.15303 0.25877,-0.26459 0.0385,-0.0789 -0.0385,-0.18568 0,-0.26458 0.0546,-0.11156 0.22025,-0.14626 0.25878,-0.26458 0.0546,-0.16734 -0.0546,-0.36183 0,-0.52917 0.0386,-0.11833 0.20421,-0.15303 0.25879,-0.26458 0.0385,-0.0789 -0.0385,-0.18569 0,-0.26459 0.0546,-0.11156 0.22024,-0.14626 0.25878,-0.26458 0.0546,-0.16734 -0.0546,-0.36183 0,-0.52917 0.0385,-0.11832 0.2042,-0.15302 0.25878,-0.26458 0.0385,-0.0789 -0.0385,-0.18568 0,-0.26458 0.0546,-0.11156 0.20421,-0.15303 0.25879,-0.26459 0.0813,-0.1663 -0.0814,-0.89203 0,-1.05833 0.0546,-0.11156 0.2042,-0.15303 0.25877,-0.26458 0.10351,-0.21167 -0.10351,-0.58209 0,-0.79375 0.0546,-0.11156 0.20421,-0.15303 0.25878,-0.26459 0.0772,-0.15777 -0.0546,-0.36183 0,-0.52916 0.061,-0.18709 0.19776,-0.34208 0.25879,-0.52917 0.0273,-0.0837 -0.0273,-0.18088 0,-0.26458 0.061,-0.18709 0.21203,-0.33785 0.25878,-0.52917 0.0628,-0.25669 -0.0819,-0.54275 0,-0.79375 0.061,-0.18709 0.21203,-0.33785 0.25878,-0.52917 0.0642,-0.26228 -0.0764,-1.08863 0,-1.32291 0.061,-0.18709 0.19775,-0.34208 0.25879,-0.52917 0.0335,-0.10296 -0.0402,-0.75265 0,-0.79375 0.061,-0.0624 0.19774,0.0624 0.25878,0 0.0554,-0.0566 -0.0475,-0.91246 0,-1.05833 0.061,-0.18709 0.19774,-0.34208 0.25877,-0.52917 0.0766,-0.2348 -0.0847,-1.14966 0,-1.32292 0.0546,-0.11156 0.20422,-0.15302 0.25879,-0.26458 0.10351,-0.21167 -0.10352,-0.58208 0,-0.79375 0.0546,-0.11156 0.2042,-0.15303 0.25878,-0.26458 0.0817,-0.16692 -0.0817,-1.15601 0,-1.32292 0.0546,-0.11156 0.2042,-0.15303 0.25878,-0.26458 0.0817,-0.16692 -0.0816,-1.15601 0,-1.32292 0.0546,-0.11156 0.20421,-0.15303 0.25879,-0.26458 0.20774,-0.42481 -0.96764,-1.23312 0.51755,-1.32292 -0.24039,-1.8709 1.18673,0.37418 1.55271,0 0.061,-0.0624 -0.061,-0.20222 0,-0.26458 0.0623,-0.0637 0.97285,0.0637 1.03512,0 0.061,-0.0624 -0.061,-0.20222 0,-0.26459 0.0104,-0.0106 0.94009,0 1.03512,0 0.0628,0 0.76802,-0.009 0.77635,0 0.061,0.0624 -0.061,0.20222 0,0.26459 0.061,0.0624 0.19778,-0.0624 0.25879,0 0.061,0.0624 -0.061,0.20222 0,0.26458 0.061,0.0624 0.19778,-0.0624 0.25878,0 0.061,0.0624 -0.061,0.20222 0,0.26458 0.061,0.0624 0.19778,-0.0624 0.25877,0 0.122,0.12473 -0.0772,0.3714 0,0.52917 0.0546,0.11156 0.20424,0.15303 0.25879,0.26458 0.0385,0.0789 0,0.17639 0,0.26459 0,0.0882 0,0.17639 0,0.26458 0,0.52917 0,1.05833 0,1.5875 0,1.05833 0,2.11667 0,3.175 0,0.13836 -0.034,0.98876 0,1.05833 0.0546,0.11156 0.20422,0.15303 0.25878,0.26459 0.0468,0.0957 0,1.13889 0,1.32291 0,0.18403 0.0468,1.22724 0,1.32292 -0.0546,0.11156 -0.20422,0.15303 -0.25878,0.26458 -0.0468,0.0957 0,1.13889 0,1.32292 0,0.18403 -0.0468,1.22723 0,1.32292 0.0546,0.11155 0.20422,0.15302 0.25878,0.26458 0.034,0.0696 0,0.91998 0,1.05833 0,1.05834 0,2.11667 0,3.175 0,0.97014 0,1.94028 0,2.91042 0,0.10459 0.0553,1.20992 0,1.32292 -0.0546,0.11155 -0.20422,0.15302 -0.25878,0.26458 -0.0385,0.0789 0,0.17639 0,0.26458 0,0.44098 0,0.88195 0,1.32292 0,0.0882 0,0.17639 0,0.26458 0,0.0882 0.0385,0.1857 0,0.26459 -0.0546,0.11155 -0.20423,0.15302 -0.25879,0.26458 -0.0334,0.0684 0,1.39996 0,1.5875 0,0.0882 0.0386,0.1857 0,0.26458 -0.0546,0.11156 -0.20422,0.15303 -0.25877,0.26459 -0.029,0.0593 0,0.99546 0,1.05833 0,0.79375 0,1.5875 0,2.38125 0,0.88194 0,1.76389 0,2.64583 0,0.13836 -0.034,0.98877 0,1.05834 0.0546,0.11155 0.20422,0.15302 0.25877,0.26458 0.10352,0.21167 -0.10351,0.58208 0,0.79375 0.0546,0.11156 0.20424,0.15303 0.25879,0.26458 0.10351,0.21167 -0.10352,0.58209 0,0.79375 0.0546,0.11156 0.20422,0.15303 0.25878,0.26459 0.0553,0.113 0,1.21832 0,1.32291 0,0.23849 0.0543,1.15639 0,1.32292 -0.29736,0.91208 -0.25878,0.19599 -0.25878,0.79375 0,0.79375 0,1.5875 0,2.38125 0,0.13836 0.034,0.98876 0,1.05833 -0.0546,0.11156 -0.20423,0.15303 -0.25879,0.26459 -0.0385,0.0789 0,0.17639 0,0.26458 0,0.0882 0,0.17639 0,0.26458 0,1.76389 0,3.52778 0,5.29167 0,0.70556 0,1.41111 0,2.11667 0,0.17639 0,0.35277 0,0.52916 0,0.0882 0.0386,0.1857 0,0.26459 -0.0546,0.11155 -0.20422,0.15302 -0.25877,0.26458 -0.0385,0.0789 0,0.17639 0,0.26458 0,0.0882 0,0.17639 0,0.26459 0,0.27257 0.0382,1.77399 0,1.85208 -0.0546,0.11156 -0.20423,0.15303 -0.25878,0.26458 -0.0386,0.0789 0,0.17639 0,0.26459 0,0.17639 0,0.35277 0,0.52916 0,0.44098 0,0.88195 0,1.32292 0,0.17639 0,0.35278 0,0.52917 0,0.0882 0.0385,0.1857 0,0.26458 -0.0546,0.11156 -0.20423,0.15303 -0.25879,0.26458 -0.0385,0.0789 0,0.17639 0,0.26459 0,0.0882 0,0.17639 0,0.26458 0,0.35278 0,0.70556 0,1.05833 0,0.79375 0,1.5875 0,2.38125 0,0.13836 -0.034,0.98877 0,1.05834 0.0546,0.11155 0.2202,0.14625 0.25879,0.26458 0.0395,0.12112 0,1.17524 0,1.32292 0,0.88194 0,1.76389 0,2.64583 0,1.23472 0,2.46944 0,3.70417 0,0.52916 0,1.05833 0,1.5875 0,0.0629 0.0291,0.99903 0,1.05833 -0.0546,0.11156 -0.20423,0.15303 -0.25879,0.26458 -0.0385,0.0789 0,0.17639 0,0.26459 0,0.0882 0,0.17639 0,0.26458 0,0.44097 0,0.88194 0,1.32292 0,0.0882 0,0.17639 0,0.26458 0,0.0882 0.0385,0.1857 0,0.26458 -0.0546,0.11156 -0.2202,0.14626 -0.25878,0.26459 -0.0464,0.14224 0,0.83432 0,1.05833 0,0.88194 0,1.76389 0,2.64583 0,0.97014 0,1.94028 0,2.91042 0,0.1827 -0.0393,0.97789 0,1.05833 0.31978,0.6539 0.25878,-0.0913 0.25878,0.52917 0,0.79375 0,1.5875 0,2.38125 0,0.213 -0.0542,0.89227 0,1.05833 0.061,0.18709 0.19778,0.34208 0.25879,0.52917 0.0273,0.0837 0,0.17639 0,0.26458 0,0.17639 0,0.35278 0,0.52917 0,0.61736 0,1.23472 0,1.85208 0,1.14653 0,2.29306 0,3.43959 0,0.52916 0,1.05833 0,1.5875 0,0.0882 0,0.17639 0,0.26458 0,0.0882 0.0385,0.1857 0,0.26458 -0.0546,0.11156 -0.20423,0.15303 -0.25879,0.26459 -0.0385,0.0789 0,0.17639 0,0.26458 0,0.0882 0,0.17639 0,0.26458 0,0.44098 0,0.88195 0,1.32292 0,1.32292 0,2.64583 0,3.96875 0,1.05833 0,2.11667 0,3.175 0,0.23849 -0.0543,1.15639 0,1.32292 0.061,0.18709 0.19778,0.34207 0.25879,0.52916 0.0546,0.16734 0,0.35278 0,0.52917 0,0.27988 -0.0444,1.71578 0,1.85208 0.0385,0.11833 0.20422,0.15303 0.25878,0.26459 0.1035,0.21166 -0.10351,0.58208 0,0.79375 0.0546,0.11155 0.20422,0.15302 0.25877,0.26458 0.0576,0.11773 -0.0394,0.93732 0,1.05833 0.0386,0.11833 0.20424,0.15303 0.25879,0.26459 0.0111,0.0225 0.0111,1.03578 0,1.05833 -0.0546,0.11156 -0.20423,0.15303 -0.25879,0.26458 -0.10351,0.21167 0.10352,0.58209 0,0.79375 -0.0546,0.11156 -0.2202,0.14626 -0.25877,0.26459 -0.0587,0.17999 0.0687,1.18262 0,1.32291 -0.0546,0.11156 -0.20423,0.15303 -0.25878,0.26459 -0.0894,0.18275 0.0909,1.23004 0,1.32291 -0.061,0.0624 -0.19779,-0.0624 -0.25879,0 -0.0529,0.0541 0.0513,0.68885 0,0.79375 -0.0546,0.11156 -0.20422,0.15303 -0.25878,0.26459 -0.0385,0.0789 0,0.17639 0,0.26458 0,0.17639 0.0546,0.36183 0,0.52917 -0.0385,0.11832 -0.20422,0.15302 -0.25878,0.26458 -0.0772,0.15777 0.12199,0.40444 0,0.52917 -0.061,0.0624 -0.19778,-0.0624 -0.25879,0 -0.061,0.0624 0,0.17639 0,0.26458 0,0.61736 0,1.23472 0,1.85208 0,0.79375 0,1.5875 0,2.38125 0,0.35278 0,0.70556 0,1.05834 0,0.0882 0.0863,0.26458 0,0.26458 -0.0863,0 0.0273,-0.18091 0,-0.26458 -0.061,-0.18709 -0.17252,-0.35278 -0.25878,-0.52917"
         style="fill:none;stroke:#0000c7;stroke-width:9.88975716;stroke-linecap:butt;stroke-linejoin:miter;stroke-miterlimit:4;stroke-dasharray:none;stroke-opacity:1" />
      <ellipse
         ry="3.5958242"
         rx="5.1966901"
         cy="230.26181"
         cx="70.721405"
         id="path4865"
         style="opacity:1;fill:#0000c7;fill-opacity:1;fill-rule:nonzero;stroke:none;stroke-width:20.83739471;stroke-linecap:round;stroke-linejoin:bevel;stroke-miterlimit:4;stroke-dasharray:none;stroke-opacity:0.96470588;paint-order:markers stroke fill" />
      <ellipse
         ry="4.7835979"
         rx="4.8577271"
         cy="232.5369"
         cx="165.27278"
         id="path4874"
         style="opacity:1;fill:#0000c7;fill-opacity:1;fill-rule:nonzero;stroke:none;stroke-width:23.30131149;stroke-linecap:round;stroke-linejoin:bevel;stroke-miterlimit:4;stroke-dasharray:none;stroke-opacity:0.96470588;paint-order:markers stroke fill" />
      <ellipse
         ry="4.7835979"
         rx="4.8577271"
         cy="189.51234"
         cx="163.64546"
         id="path4874-9"
         style="opacity:1;fill:#0000c7;fill-opacity:1;fill-rule:nonzero;stroke:none;stroke-width:23.30131149;stroke-linecap:round;stroke-linejoin:bevel;stroke-miterlimit:4;stroke-dasharray:none;stroke-opacity:0.96470588;paint-order:markers stroke fill" />
    </g>
  </g>
</svg>
